<?xml version="1.0" encoding="utf-8" standalone="no"?>
<!DOCTYPE svg PUBLIC "-//W3C//DTD SVG 1.1//EN"
  "http://www.w3.org/Graphics/SVG/1.1/DTD/svg11.dtd">
<!-- Created with matplotlib (https://matplotlib.org/) -->
<svg height="360pt" version="1.1" viewBox="0 0 582.48 360" width="582.48pt" xmlns="http://www.w3.org/2000/svg" xmlns:xlink="http://www.w3.org/1999/xlink">
 <defs>
  <style type="text/css">
*{stroke-linecap:butt;stroke-linejoin:round;}
  </style>
 </defs>
 <g id="figure_1">
  <g id="patch_1">
   <path d="M 0 360 
L 582.48 360 
L 582.48 0 
L 0 0 
z
" style="fill:none;"/>
  </g>
  <g id="axes_1">
   <g id="patch_2">
    <path d="M 69.653125 318.84375 
L 525.551875 318.84375 
L 525.551875 10.8 
L 69.653125 10.8 
z
" style="fill:none;"/>
   </g>
   <g id="matplotlib.axis_1">
    <g id="xtick_1">
     <g id="line2d_1">
      <path clip-path="url(#p70f0ac0a55)" d="M 118.749913 318.84375 
L 118.749913 10.8 
" style="fill:none;stroke:#b0b0b0;stroke-linecap:square;stroke-opacity:0.5;stroke-width:0.8;"/>
     </g>
     <g id="line2d_2">
      <defs>
       <path d="M 0 0 
L 0 3.5 
" id="m5a2f41ebde" style="stroke:#000000;stroke-width:0.8;"/>
      </defs>
      <g>
       <use style="stroke:#000000;stroke-width:0.8;" x="118.749913" xlink:href="#m5a2f41ebde" y="318.84375"/>
      </g>
     </g>
     <g id="text_1">
      <!-- 2007 -->
      <defs>
       <path d="M 19.1875 8.296875 
L 53.609375 8.296875 
L 53.609375 0 
L 7.328125 0 
L 7.328125 8.296875 
Q 12.9375 14.109375 22.625 23.890625 
Q 32.328125 33.6875 34.8125 36.53125 
Q 39.546875 41.84375 41.421875 45.53125 
Q 43.3125 49.21875 43.3125 52.78125 
Q 43.3125 58.59375 39.234375 62.25 
Q 35.15625 65.921875 28.609375 65.921875 
Q 23.96875 65.921875 18.8125 64.3125 
Q 13.671875 62.703125 7.8125 59.421875 
L 7.8125 69.390625 
Q 13.765625 71.78125 18.9375 73 
Q 24.125 74.21875 28.421875 74.21875 
Q 39.75 74.21875 46.484375 68.546875 
Q 53.21875 62.890625 53.21875 53.421875 
Q 53.21875 48.921875 51.53125 44.890625 
Q 49.859375 40.875 45.40625 35.40625 
Q 44.1875 33.984375 37.640625 27.21875 
Q 31.109375 20.453125 19.1875 8.296875 
z
" id="DejaVuSans-50"/>
       <path d="M 31.78125 66.40625 
Q 24.171875 66.40625 20.328125 58.90625 
Q 16.5 51.421875 16.5 36.375 
Q 16.5 21.390625 20.328125 13.890625 
Q 24.171875 6.390625 31.78125 6.390625 
Q 39.453125 6.390625 43.28125 13.890625 
Q 47.125 21.390625 47.125 36.375 
Q 47.125 51.421875 43.28125 58.90625 
Q 39.453125 66.40625 31.78125 66.40625 
z
M 31.78125 74.21875 
Q 44.046875 74.21875 50.515625 64.515625 
Q 56.984375 54.828125 56.984375 36.375 
Q 56.984375 17.96875 50.515625 8.265625 
Q 44.046875 -1.421875 31.78125 -1.421875 
Q 19.53125 -1.421875 13.0625 8.265625 
Q 6.59375 17.96875 6.59375 36.375 
Q 6.59375 54.828125 13.0625 64.515625 
Q 19.53125 74.21875 31.78125 74.21875 
z
" id="DejaVuSans-48"/>
       <path d="M 8.203125 72.90625 
L 55.078125 72.90625 
L 55.078125 68.703125 
L 28.609375 0 
L 18.3125 0 
L 43.21875 64.59375 
L 8.203125 64.59375 
z
" id="DejaVuSans-55"/>
      </defs>
      <g transform="translate(106.024913 333.442187)scale(0.1 -0.1)">
       <use xlink:href="#DejaVuSans-50"/>
       <use x="63.623047" xlink:href="#DejaVuSans-48"/>
       <use x="127.246094" xlink:href="#DejaVuSans-48"/>
       <use x="190.869141" xlink:href="#DejaVuSans-55"/>
      </g>
     </g>
    </g>
    <g id="xtick_2">
     <g id="line2d_3">
      <path clip-path="url(#p70f0ac0a55)" d="M 174.860529 318.84375 
L 174.860529 10.8 
" style="fill:none;stroke:#b0b0b0;stroke-linecap:square;stroke-opacity:0.5;stroke-width:0.8;"/>
     </g>
     <g id="line2d_4">
      <g>
       <use style="stroke:#000000;stroke-width:0.8;" x="174.860529" xlink:href="#m5a2f41ebde" y="318.84375"/>
      </g>
     </g>
     <g id="text_2">
      <!-- 2009 -->
      <defs>
       <path d="M 10.984375 1.515625 
L 10.984375 10.5 
Q 14.703125 8.734375 18.5 7.8125 
Q 22.3125 6.890625 25.984375 6.890625 
Q 35.75 6.890625 40.890625 13.453125 
Q 46.046875 20.015625 46.78125 33.40625 
Q 43.953125 29.203125 39.59375 26.953125 
Q 35.25 24.703125 29.984375 24.703125 
Q 19.046875 24.703125 12.671875 31.3125 
Q 6.296875 37.9375 6.296875 49.421875 
Q 6.296875 60.640625 12.9375 67.421875 
Q 19.578125 74.21875 30.609375 74.21875 
Q 43.265625 74.21875 49.921875 64.515625 
Q 56.59375 54.828125 56.59375 36.375 
Q 56.59375 19.140625 48.40625 8.859375 
Q 40.234375 -1.421875 26.421875 -1.421875 
Q 22.703125 -1.421875 18.890625 -0.6875 
Q 15.09375 0.046875 10.984375 1.515625 
z
M 30.609375 32.421875 
Q 37.25 32.421875 41.125 36.953125 
Q 45.015625 41.5 45.015625 49.421875 
Q 45.015625 57.28125 41.125 61.84375 
Q 37.25 66.40625 30.609375 66.40625 
Q 23.96875 66.40625 20.09375 61.84375 
Q 16.21875 57.28125 16.21875 49.421875 
Q 16.21875 41.5 20.09375 36.953125 
Q 23.96875 32.421875 30.609375 32.421875 
z
" id="DejaVuSans-57"/>
      </defs>
      <g transform="translate(162.135529 333.442187)scale(0.1 -0.1)">
       <use xlink:href="#DejaVuSans-50"/>
       <use x="63.623047" xlink:href="#DejaVuSans-48"/>
       <use x="127.246094" xlink:href="#DejaVuSans-48"/>
       <use x="190.869141" xlink:href="#DejaVuSans-57"/>
      </g>
     </g>
    </g>
    <g id="xtick_3">
     <g id="line2d_5">
      <path clip-path="url(#p70f0ac0a55)" d="M 230.971144 318.84375 
L 230.971144 10.8 
" style="fill:none;stroke:#b0b0b0;stroke-linecap:square;stroke-opacity:0.5;stroke-width:0.8;"/>
     </g>
     <g id="line2d_6">
      <g>
       <use style="stroke:#000000;stroke-width:0.8;" x="230.971144" xlink:href="#m5a2f41ebde" y="318.84375"/>
      </g>
     </g>
     <g id="text_3">
      <!-- 2011 -->
      <defs>
       <path d="M 12.40625 8.296875 
L 28.515625 8.296875 
L 28.515625 63.921875 
L 10.984375 60.40625 
L 10.984375 69.390625 
L 28.421875 72.90625 
L 38.28125 72.90625 
L 38.28125 8.296875 
L 54.390625 8.296875 
L 54.390625 0 
L 12.40625 0 
z
" id="DejaVuSans-49"/>
      </defs>
      <g transform="translate(218.246144 333.442187)scale(0.1 -0.1)">
       <use xlink:href="#DejaVuSans-50"/>
       <use x="63.623047" xlink:href="#DejaVuSans-48"/>
       <use x="127.246094" xlink:href="#DejaVuSans-49"/>
       <use x="190.869141" xlink:href="#DejaVuSans-49"/>
      </g>
     </g>
    </g>
    <g id="xtick_4">
     <g id="line2d_7">
      <path clip-path="url(#p70f0ac0a55)" d="M 287.08176 318.84375 
L 287.08176 10.8 
" style="fill:none;stroke:#b0b0b0;stroke-linecap:square;stroke-opacity:0.5;stroke-width:0.8;"/>
     </g>
     <g id="line2d_8">
      <g>
       <use style="stroke:#000000;stroke-width:0.8;" x="287.08176" xlink:href="#m5a2f41ebde" y="318.84375"/>
      </g>
     </g>
     <g id="text_4">
      <!-- 2013 -->
      <defs>
       <path d="M 40.578125 39.3125 
Q 47.65625 37.796875 51.625 33 
Q 55.609375 28.21875 55.609375 21.1875 
Q 55.609375 10.40625 48.1875 4.484375 
Q 40.765625 -1.421875 27.09375 -1.421875 
Q 22.515625 -1.421875 17.65625 -0.515625 
Q 12.796875 0.390625 7.625 2.203125 
L 7.625 11.71875 
Q 11.71875 9.328125 16.59375 8.109375 
Q 21.484375 6.890625 26.8125 6.890625 
Q 36.078125 6.890625 40.9375 10.546875 
Q 45.796875 14.203125 45.796875 21.1875 
Q 45.796875 27.640625 41.28125 31.265625 
Q 36.765625 34.90625 28.71875 34.90625 
L 20.21875 34.90625 
L 20.21875 43.015625 
L 29.109375 43.015625 
Q 36.375 43.015625 40.234375 45.921875 
Q 44.09375 48.828125 44.09375 54.296875 
Q 44.09375 59.90625 40.109375 62.90625 
Q 36.140625 65.921875 28.71875 65.921875 
Q 24.65625 65.921875 20.015625 65.03125 
Q 15.375 64.15625 9.8125 62.3125 
L 9.8125 71.09375 
Q 15.4375 72.65625 20.34375 73.4375 
Q 25.25 74.21875 29.59375 74.21875 
Q 40.828125 74.21875 47.359375 69.109375 
Q 53.90625 64.015625 53.90625 55.328125 
Q 53.90625 49.265625 50.4375 45.09375 
Q 46.96875 40.921875 40.578125 39.3125 
z
" id="DejaVuSans-51"/>
      </defs>
      <g transform="translate(274.35676 333.442187)scale(0.1 -0.1)">
       <use xlink:href="#DejaVuSans-50"/>
       <use x="63.623047" xlink:href="#DejaVuSans-48"/>
       <use x="127.246094" xlink:href="#DejaVuSans-49"/>
       <use x="190.869141" xlink:href="#DejaVuSans-51"/>
      </g>
     </g>
    </g>
    <g id="xtick_5">
     <g id="line2d_9">
      <path clip-path="url(#p70f0ac0a55)" d="M 343.192375 318.84375 
L 343.192375 10.8 
" style="fill:none;stroke:#b0b0b0;stroke-linecap:square;stroke-opacity:0.5;stroke-width:0.8;"/>
     </g>
     <g id="line2d_10">
      <g>
       <use style="stroke:#000000;stroke-width:0.8;" x="343.192375" xlink:href="#m5a2f41ebde" y="318.84375"/>
      </g>
     </g>
     <g id="text_5">
      <!-- 2015 -->
      <defs>
       <path d="M 10.796875 72.90625 
L 49.515625 72.90625 
L 49.515625 64.59375 
L 19.828125 64.59375 
L 19.828125 46.734375 
Q 21.96875 47.46875 24.109375 47.828125 
Q 26.265625 48.1875 28.421875 48.1875 
Q 40.625 48.1875 47.75 41.5 
Q 54.890625 34.8125 54.890625 23.390625 
Q 54.890625 11.625 47.5625 5.09375 
Q 40.234375 -1.421875 26.90625 -1.421875 
Q 22.3125 -1.421875 17.546875 -0.640625 
Q 12.796875 0.140625 7.71875 1.703125 
L 7.71875 11.625 
Q 12.109375 9.234375 16.796875 8.0625 
Q 21.484375 6.890625 26.703125 6.890625 
Q 35.15625 6.890625 40.078125 11.328125 
Q 45.015625 15.765625 45.015625 23.390625 
Q 45.015625 31 40.078125 35.4375 
Q 35.15625 39.890625 26.703125 39.890625 
Q 22.75 39.890625 18.8125 39.015625 
Q 14.890625 38.140625 10.796875 36.28125 
z
" id="DejaVuSans-53"/>
      </defs>
      <g transform="translate(330.467375 333.442187)scale(0.1 -0.1)">
       <use xlink:href="#DejaVuSans-50"/>
       <use x="63.623047" xlink:href="#DejaVuSans-48"/>
       <use x="127.246094" xlink:href="#DejaVuSans-49"/>
       <use x="190.869141" xlink:href="#DejaVuSans-53"/>
      </g>
     </g>
    </g>
    <g id="xtick_6">
     <g id="line2d_11">
      <path clip-path="url(#p70f0ac0a55)" d="M 399.30299 318.84375 
L 399.30299 10.8 
" style="fill:none;stroke:#b0b0b0;stroke-linecap:square;stroke-opacity:0.5;stroke-width:0.8;"/>
     </g>
     <g id="line2d_12">
      <g>
       <use style="stroke:#000000;stroke-width:0.8;" x="399.30299" xlink:href="#m5a2f41ebde" y="318.84375"/>
      </g>
     </g>
     <g id="text_6">
      <!-- 2017 -->
      <g transform="translate(386.57799 333.442187)scale(0.1 -0.1)">
       <use xlink:href="#DejaVuSans-50"/>
       <use x="63.623047" xlink:href="#DejaVuSans-48"/>
       <use x="127.246094" xlink:href="#DejaVuSans-49"/>
       <use x="190.869141" xlink:href="#DejaVuSans-55"/>
      </g>
     </g>
    </g>
    <g id="xtick_7">
     <g id="line2d_13">
      <path clip-path="url(#p70f0ac0a55)" d="M 455.413606 318.84375 
L 455.413606 10.8 
" style="fill:none;stroke:#b0b0b0;stroke-linecap:square;stroke-opacity:0.5;stroke-width:0.8;"/>
     </g>
     <g id="line2d_14">
      <g>
       <use style="stroke:#000000;stroke-width:0.8;" x="455.413606" xlink:href="#m5a2f41ebde" y="318.84375"/>
      </g>
     </g>
     <g id="text_7">
      <!-- 2019 -->
      <g transform="translate(442.688606 333.442187)scale(0.1 -0.1)">
       <use xlink:href="#DejaVuSans-50"/>
       <use x="63.623047" xlink:href="#DejaVuSans-48"/>
       <use x="127.246094" xlink:href="#DejaVuSans-49"/>
       <use x="190.869141" xlink:href="#DejaVuSans-57"/>
      </g>
     </g>
    </g>
    <g id="xtick_8">
     <g id="line2d_15">
      <path clip-path="url(#p70f0ac0a55)" d="M 511.524221 318.84375 
L 511.524221 10.8 
" style="fill:none;stroke:#b0b0b0;stroke-linecap:square;stroke-opacity:0.5;stroke-width:0.8;"/>
     </g>
     <g id="line2d_16">
      <g>
       <use style="stroke:#000000;stroke-width:0.8;" x="511.524221" xlink:href="#m5a2f41ebde" y="318.84375"/>
      </g>
     </g>
     <g id="text_8">
      <!-- 2021 -->
      <g transform="translate(498.799221 333.442187)scale(0.1 -0.1)">
       <use xlink:href="#DejaVuSans-50"/>
       <use x="63.623047" xlink:href="#DejaVuSans-48"/>
       <use x="127.246094" xlink:href="#DejaVuSans-50"/>
       <use x="190.869141" xlink:href="#DejaVuSans-49"/>
      </g>
     </g>
    </g>
    <g id="xtick_9">
     <g id="line2d_17">
      <path clip-path="url(#p70f0ac0a55)" d="M 76.666952 318.84375 
L 76.666952 10.8 
" style="fill:none;stroke:#b0b0b0;stroke-linecap:square;stroke-opacity:0.1;stroke-width:0.8;"/>
     </g>
     <g id="line2d_18">
      <defs>
       <path d="M 0 0 
L 0 2 
" id="mb8c4e4f6b8" style="stroke:#000000;stroke-width:0.6;"/>
      </defs>
      <g>
       <use style="stroke:#000000;stroke-width:0.6;" x="76.666952" xlink:href="#mb8c4e4f6b8" y="318.84375"/>
      </g>
     </g>
    </g>
    <g id="xtick_10">
     <g id="line2d_19">
      <path clip-path="url(#p70f0ac0a55)" d="M 90.694606 318.84375 
L 90.694606 10.8 
" style="fill:none;stroke:#b0b0b0;stroke-linecap:square;stroke-opacity:0.1;stroke-width:0.8;"/>
     </g>
     <g id="line2d_20">
      <g>
       <use style="stroke:#000000;stroke-width:0.6;" x="90.694606" xlink:href="#mb8c4e4f6b8" y="318.84375"/>
      </g>
     </g>
    </g>
    <g id="xtick_11">
     <g id="line2d_21">
      <path clip-path="url(#p70f0ac0a55)" d="M 104.72226 318.84375 
L 104.72226 10.8 
" style="fill:none;stroke:#b0b0b0;stroke-linecap:square;stroke-opacity:0.1;stroke-width:0.8;"/>
     </g>
     <g id="line2d_22">
      <g>
       <use style="stroke:#000000;stroke-width:0.6;" x="104.72226" xlink:href="#mb8c4e4f6b8" y="318.84375"/>
      </g>
     </g>
    </g>
    <g id="xtick_12">
     <g id="line2d_23">
      <path clip-path="url(#p70f0ac0a55)" d="M 132.777567 318.84375 
L 132.777567 10.8 
" style="fill:none;stroke:#b0b0b0;stroke-linecap:square;stroke-opacity:0.1;stroke-width:0.8;"/>
     </g>
     <g id="line2d_24">
      <g>
       <use style="stroke:#000000;stroke-width:0.6;" x="132.777567" xlink:href="#mb8c4e4f6b8" y="318.84375"/>
      </g>
     </g>
    </g>
    <g id="xtick_13">
     <g id="line2d_25">
      <path clip-path="url(#p70f0ac0a55)" d="M 146.805221 318.84375 
L 146.805221 10.8 
" style="fill:none;stroke:#b0b0b0;stroke-linecap:square;stroke-opacity:0.1;stroke-width:0.8;"/>
     </g>
     <g id="line2d_26">
      <g>
       <use style="stroke:#000000;stroke-width:0.6;" x="146.805221" xlink:href="#mb8c4e4f6b8" y="318.84375"/>
      </g>
     </g>
    </g>
    <g id="xtick_14">
     <g id="line2d_27">
      <path clip-path="url(#p70f0ac0a55)" d="M 160.832875 318.84375 
L 160.832875 10.8 
" style="fill:none;stroke:#b0b0b0;stroke-linecap:square;stroke-opacity:0.1;stroke-width:0.8;"/>
     </g>
     <g id="line2d_28">
      <g>
       <use style="stroke:#000000;stroke-width:0.6;" x="160.832875" xlink:href="#mb8c4e4f6b8" y="318.84375"/>
      </g>
     </g>
    </g>
    <g id="xtick_15">
     <g id="line2d_29">
      <path clip-path="url(#p70f0ac0a55)" d="M 188.888183 318.84375 
L 188.888183 10.8 
" style="fill:none;stroke:#b0b0b0;stroke-linecap:square;stroke-opacity:0.1;stroke-width:0.8;"/>
     </g>
     <g id="line2d_30">
      <g>
       <use style="stroke:#000000;stroke-width:0.6;" x="188.888183" xlink:href="#mb8c4e4f6b8" y="318.84375"/>
      </g>
     </g>
    </g>
    <g id="xtick_16">
     <g id="line2d_31">
      <path clip-path="url(#p70f0ac0a55)" d="M 202.915837 318.84375 
L 202.915837 10.8 
" style="fill:none;stroke:#b0b0b0;stroke-linecap:square;stroke-opacity:0.1;stroke-width:0.8;"/>
     </g>
     <g id="line2d_32">
      <g>
       <use style="stroke:#000000;stroke-width:0.6;" x="202.915837" xlink:href="#mb8c4e4f6b8" y="318.84375"/>
      </g>
     </g>
    </g>
    <g id="xtick_17">
     <g id="line2d_33">
      <path clip-path="url(#p70f0ac0a55)" d="M 216.94349 318.84375 
L 216.94349 10.8 
" style="fill:none;stroke:#b0b0b0;stroke-linecap:square;stroke-opacity:0.1;stroke-width:0.8;"/>
     </g>
     <g id="line2d_34">
      <g>
       <use style="stroke:#000000;stroke-width:0.6;" x="216.94349" xlink:href="#mb8c4e4f6b8" y="318.84375"/>
      </g>
     </g>
    </g>
    <g id="xtick_18">
     <g id="line2d_35">
      <path clip-path="url(#p70f0ac0a55)" d="M 244.998798 318.84375 
L 244.998798 10.8 
" style="fill:none;stroke:#b0b0b0;stroke-linecap:square;stroke-opacity:0.1;stroke-width:0.8;"/>
     </g>
     <g id="line2d_36">
      <g>
       <use style="stroke:#000000;stroke-width:0.6;" x="244.998798" xlink:href="#mb8c4e4f6b8" y="318.84375"/>
      </g>
     </g>
    </g>
    <g id="xtick_19">
     <g id="line2d_37">
      <path clip-path="url(#p70f0ac0a55)" d="M 259.026452 318.84375 
L 259.026452 10.8 
" style="fill:none;stroke:#b0b0b0;stroke-linecap:square;stroke-opacity:0.1;stroke-width:0.8;"/>
     </g>
     <g id="line2d_38">
      <g>
       <use style="stroke:#000000;stroke-width:0.6;" x="259.026452" xlink:href="#mb8c4e4f6b8" y="318.84375"/>
      </g>
     </g>
    </g>
    <g id="xtick_20">
     <g id="line2d_39">
      <path clip-path="url(#p70f0ac0a55)" d="M 273.054106 318.84375 
L 273.054106 10.8 
" style="fill:none;stroke:#b0b0b0;stroke-linecap:square;stroke-opacity:0.1;stroke-width:0.8;"/>
     </g>
     <g id="line2d_40">
      <g>
       <use style="stroke:#000000;stroke-width:0.6;" x="273.054106" xlink:href="#mb8c4e4f6b8" y="318.84375"/>
      </g>
     </g>
    </g>
    <g id="xtick_21">
     <g id="line2d_41">
      <path clip-path="url(#p70f0ac0a55)" d="M 301.109413 318.84375 
L 301.109413 10.8 
" style="fill:none;stroke:#b0b0b0;stroke-linecap:square;stroke-opacity:0.1;stroke-width:0.8;"/>
     </g>
     <g id="line2d_42">
      <g>
       <use style="stroke:#000000;stroke-width:0.6;" x="301.109413" xlink:href="#mb8c4e4f6b8" y="318.84375"/>
      </g>
     </g>
    </g>
    <g id="xtick_22">
     <g id="line2d_43">
      <path clip-path="url(#p70f0ac0a55)" d="M 315.137067 318.84375 
L 315.137067 10.8 
" style="fill:none;stroke:#b0b0b0;stroke-linecap:square;stroke-opacity:0.1;stroke-width:0.8;"/>
     </g>
     <g id="line2d_44">
      <g>
       <use style="stroke:#000000;stroke-width:0.6;" x="315.137067" xlink:href="#mb8c4e4f6b8" y="318.84375"/>
      </g>
     </g>
    </g>
    <g id="xtick_23">
     <g id="line2d_45">
      <path clip-path="url(#p70f0ac0a55)" d="M 329.164721 318.84375 
L 329.164721 10.8 
" style="fill:none;stroke:#b0b0b0;stroke-linecap:square;stroke-opacity:0.1;stroke-width:0.8;"/>
     </g>
     <g id="line2d_46">
      <g>
       <use style="stroke:#000000;stroke-width:0.6;" x="329.164721" xlink:href="#mb8c4e4f6b8" y="318.84375"/>
      </g>
     </g>
    </g>
    <g id="xtick_24">
     <g id="line2d_47">
      <path clip-path="url(#p70f0ac0a55)" d="M 357.220029 318.84375 
L 357.220029 10.8 
" style="fill:none;stroke:#b0b0b0;stroke-linecap:square;stroke-opacity:0.1;stroke-width:0.8;"/>
     </g>
     <g id="line2d_48">
      <g>
       <use style="stroke:#000000;stroke-width:0.6;" x="357.220029" xlink:href="#mb8c4e4f6b8" y="318.84375"/>
      </g>
     </g>
    </g>
    <g id="xtick_25">
     <g id="line2d_49">
      <path clip-path="url(#p70f0ac0a55)" d="M 371.247683 318.84375 
L 371.247683 10.8 
" style="fill:none;stroke:#b0b0b0;stroke-linecap:square;stroke-opacity:0.1;stroke-width:0.8;"/>
     </g>
     <g id="line2d_50">
      <g>
       <use style="stroke:#000000;stroke-width:0.6;" x="371.247683" xlink:href="#mb8c4e4f6b8" y="318.84375"/>
      </g>
     </g>
    </g>
    <g id="xtick_26">
     <g id="line2d_51">
      <path clip-path="url(#p70f0ac0a55)" d="M 385.275337 318.84375 
L 385.275337 10.8 
" style="fill:none;stroke:#b0b0b0;stroke-linecap:square;stroke-opacity:0.1;stroke-width:0.8;"/>
     </g>
     <g id="line2d_52">
      <g>
       <use style="stroke:#000000;stroke-width:0.6;" x="385.275337" xlink:href="#mb8c4e4f6b8" y="318.84375"/>
      </g>
     </g>
    </g>
    <g id="xtick_27">
     <g id="line2d_53">
      <path clip-path="url(#p70f0ac0a55)" d="M 413.330644 318.84375 
L 413.330644 10.8 
" style="fill:none;stroke:#b0b0b0;stroke-linecap:square;stroke-opacity:0.1;stroke-width:0.8;"/>
     </g>
     <g id="line2d_54">
      <g>
       <use style="stroke:#000000;stroke-width:0.6;" x="413.330644" xlink:href="#mb8c4e4f6b8" y="318.84375"/>
      </g>
     </g>
    </g>
    <g id="xtick_28">
     <g id="line2d_55">
      <path clip-path="url(#p70f0ac0a55)" d="M 427.358298 318.84375 
L 427.358298 10.8 
" style="fill:none;stroke:#b0b0b0;stroke-linecap:square;stroke-opacity:0.1;stroke-width:0.8;"/>
     </g>
     <g id="line2d_56">
      <g>
       <use style="stroke:#000000;stroke-width:0.6;" x="427.358298" xlink:href="#mb8c4e4f6b8" y="318.84375"/>
      </g>
     </g>
    </g>
    <g id="xtick_29">
     <g id="line2d_57">
      <path clip-path="url(#p70f0ac0a55)" d="M 441.385952 318.84375 
L 441.385952 10.8 
" style="fill:none;stroke:#b0b0b0;stroke-linecap:square;stroke-opacity:0.1;stroke-width:0.8;"/>
     </g>
     <g id="line2d_58">
      <g>
       <use style="stroke:#000000;stroke-width:0.6;" x="441.385952" xlink:href="#mb8c4e4f6b8" y="318.84375"/>
      </g>
     </g>
    </g>
    <g id="xtick_30">
     <g id="line2d_59">
      <path clip-path="url(#p70f0ac0a55)" d="M 469.44126 318.84375 
L 469.44126 10.8 
" style="fill:none;stroke:#b0b0b0;stroke-linecap:square;stroke-opacity:0.1;stroke-width:0.8;"/>
     </g>
     <g id="line2d_60">
      <g>
       <use style="stroke:#000000;stroke-width:0.6;" x="469.44126" xlink:href="#mb8c4e4f6b8" y="318.84375"/>
      </g>
     </g>
    </g>
    <g id="xtick_31">
     <g id="line2d_61">
      <path clip-path="url(#p70f0ac0a55)" d="M 483.468913 318.84375 
L 483.468913 10.8 
" style="fill:none;stroke:#b0b0b0;stroke-linecap:square;stroke-opacity:0.1;stroke-width:0.8;"/>
     </g>
     <g id="line2d_62">
      <g>
       <use style="stroke:#000000;stroke-width:0.6;" x="483.468913" xlink:href="#mb8c4e4f6b8" y="318.84375"/>
      </g>
     </g>
    </g>
    <g id="xtick_32">
     <g id="line2d_63">
      <path clip-path="url(#p70f0ac0a55)" d="M 497.496567 318.84375 
L 497.496567 10.8 
" style="fill:none;stroke:#b0b0b0;stroke-linecap:square;stroke-opacity:0.1;stroke-width:0.8;"/>
     </g>
     <g id="line2d_64">
      <g>
       <use style="stroke:#000000;stroke-width:0.6;" x="497.496567" xlink:href="#mb8c4e4f6b8" y="318.84375"/>
      </g>
     </g>
    </g>
    <g id="xtick_33">
     <g id="line2d_65">
      <path clip-path="url(#p70f0ac0a55)" d="M 525.551875 318.84375 
L 525.551875 10.8 
" style="fill:none;stroke:#b0b0b0;stroke-linecap:square;stroke-opacity:0.1;stroke-width:0.8;"/>
     </g>
     <g id="line2d_66">
      <g>
       <use style="stroke:#000000;stroke-width:0.6;" x="525.551875" xlink:href="#mb8c4e4f6b8" y="318.84375"/>
      </g>
     </g>
    </g>
    <g id="text_9">
     <!-- Year -->
     <defs>
      <path d="M -0.203125 72.90625 
L 10.40625 72.90625 
L 30.609375 42.921875 
L 50.6875 72.90625 
L 61.28125 72.90625 
L 35.5 34.71875 
L 35.5 0 
L 25.59375 0 
L 25.59375 34.71875 
z
" id="DejaVuSans-89"/>
      <path d="M 56.203125 29.59375 
L 56.203125 25.203125 
L 14.890625 25.203125 
Q 15.484375 15.921875 20.484375 11.0625 
Q 25.484375 6.203125 34.421875 6.203125 
Q 39.59375 6.203125 44.453125 7.46875 
Q 49.3125 8.734375 54.109375 11.28125 
L 54.109375 2.78125 
Q 49.265625 0.734375 44.1875 -0.34375 
Q 39.109375 -1.421875 33.890625 -1.421875 
Q 20.796875 -1.421875 13.15625 6.1875 
Q 5.515625 13.8125 5.515625 26.8125 
Q 5.515625 40.234375 12.765625 48.109375 
Q 20.015625 56 32.328125 56 
Q 43.359375 56 49.78125 48.890625 
Q 56.203125 41.796875 56.203125 29.59375 
z
M 47.21875 32.234375 
Q 47.125 39.59375 43.09375 43.984375 
Q 39.0625 48.390625 32.421875 48.390625 
Q 24.90625 48.390625 20.390625 44.140625 
Q 15.875 39.890625 15.1875 32.171875 
z
" id="DejaVuSans-101"/>
      <path d="M 34.28125 27.484375 
Q 23.390625 27.484375 19.1875 25 
Q 14.984375 22.515625 14.984375 16.5 
Q 14.984375 11.71875 18.140625 8.90625 
Q 21.296875 6.109375 26.703125 6.109375 
Q 34.1875 6.109375 38.703125 11.40625 
Q 43.21875 16.703125 43.21875 25.484375 
L 43.21875 27.484375 
z
M 52.203125 31.203125 
L 52.203125 0 
L 43.21875 0 
L 43.21875 8.296875 
Q 40.140625 3.328125 35.546875 0.953125 
Q 30.953125 -1.421875 24.3125 -1.421875 
Q 15.921875 -1.421875 10.953125 3.296875 
Q 6 8.015625 6 15.921875 
Q 6 25.140625 12.171875 29.828125 
Q 18.359375 34.515625 30.609375 34.515625 
L 43.21875 34.515625 
L 43.21875 35.40625 
Q 43.21875 41.609375 39.140625 45 
Q 35.0625 48.390625 27.6875 48.390625 
Q 23 48.390625 18.546875 47.265625 
Q 14.109375 46.140625 10.015625 43.890625 
L 10.015625 52.203125 
Q 14.9375 54.109375 19.578125 55.046875 
Q 24.21875 56 28.609375 56 
Q 40.484375 56 46.34375 49.84375 
Q 52.203125 43.703125 52.203125 31.203125 
z
" id="DejaVuSans-97"/>
      <path d="M 41.109375 46.296875 
Q 39.59375 47.171875 37.8125 47.578125 
Q 36.03125 48 33.890625 48 
Q 26.265625 48 22.1875 43.046875 
Q 18.109375 38.09375 18.109375 28.8125 
L 18.109375 0 
L 9.078125 0 
L 9.078125 54.6875 
L 18.109375 54.6875 
L 18.109375 46.1875 
Q 20.953125 51.171875 25.484375 53.578125 
Q 30.03125 56 36.53125 56 
Q 37.453125 56 38.578125 55.875 
Q 39.703125 55.765625 41.0625 55.515625 
z
" id="DejaVuSans-114"/>
     </defs>
     <g transform="translate(287.015 347.120312)scale(0.1 -0.1)">
      <use xlink:href="#DejaVuSans-89"/>
      <use x="47.833984" xlink:href="#DejaVuSans-101"/>
      <use x="109.357422" xlink:href="#DejaVuSans-97"/>
      <use x="170.636719" xlink:href="#DejaVuSans-114"/>
     </g>
    </g>
   </g>
   <g id="matplotlib.axis_2">
    <g id="ytick_1">
     <g id="line2d_67">
      <path clip-path="url(#p70f0ac0a55)" d="M 69.653125 277.753918 
L 525.551875 277.753918 
" style="fill:none;stroke:#b0b0b0;stroke-linecap:square;stroke-opacity:0.5;stroke-width:0.8;"/>
     </g>
     <g id="line2d_68">
      <defs>
       <path d="M 0 0 
L -3.5 0 
" id="m3b600234a1" style="stroke:#000000;stroke-width:0.8;"/>
      </defs>
      <g>
       <use style="stroke:#000000;stroke-width:0.8;" x="69.653125" xlink:href="#m3b600234a1" y="277.753918"/>
      </g>
     </g>
     <g id="text_10">
      <!-- 20000 -->
      <g transform="translate(30.840625 281.553137)scale(0.1 -0.1)">
       <use xlink:href="#DejaVuSans-50"/>
       <use x="63.623047" xlink:href="#DejaVuSans-48"/>
       <use x="127.246094" xlink:href="#DejaVuSans-48"/>
       <use x="190.869141" xlink:href="#DejaVuSans-48"/>
       <use x="254.492188" xlink:href="#DejaVuSans-48"/>
      </g>
     </g>
    </g>
    <g id="ytick_2">
     <g id="line2d_69">
      <path clip-path="url(#p70f0ac0a55)" d="M 69.653125 223.578231 
L 525.551875 223.578231 
" style="fill:none;stroke:#b0b0b0;stroke-linecap:square;stroke-opacity:0.5;stroke-width:0.8;"/>
     </g>
     <g id="line2d_70">
      <g>
       <use style="stroke:#000000;stroke-width:0.8;" x="69.653125" xlink:href="#m3b600234a1" y="223.578231"/>
      </g>
     </g>
     <g id="text_11">
      <!-- 40000 -->
      <defs>
       <path d="M 37.796875 64.3125 
L 12.890625 25.390625 
L 37.796875 25.390625 
z
M 35.203125 72.90625 
L 47.609375 72.90625 
L 47.609375 25.390625 
L 58.015625 25.390625 
L 58.015625 17.1875 
L 47.609375 17.1875 
L 47.609375 0 
L 37.796875 0 
L 37.796875 17.1875 
L 4.890625 17.1875 
L 4.890625 26.703125 
z
" id="DejaVuSans-52"/>
      </defs>
      <g transform="translate(30.840625 227.37745)scale(0.1 -0.1)">
       <use xlink:href="#DejaVuSans-52"/>
       <use x="63.623047" xlink:href="#DejaVuSans-48"/>
       <use x="127.246094" xlink:href="#DejaVuSans-48"/>
       <use x="190.869141" xlink:href="#DejaVuSans-48"/>
       <use x="254.492188" xlink:href="#DejaVuSans-48"/>
      </g>
     </g>
    </g>
    <g id="ytick_3">
     <g id="line2d_71">
      <path clip-path="url(#p70f0ac0a55)" d="M 69.653125 169.402544 
L 525.551875 169.402544 
" style="fill:none;stroke:#b0b0b0;stroke-linecap:square;stroke-opacity:0.5;stroke-width:0.8;"/>
     </g>
     <g id="line2d_72">
      <g>
       <use style="stroke:#000000;stroke-width:0.8;" x="69.653125" xlink:href="#m3b600234a1" y="169.402544"/>
      </g>
     </g>
     <g id="text_12">
      <!-- 60000 -->
      <defs>
       <path d="M 33.015625 40.375 
Q 26.375 40.375 22.484375 35.828125 
Q 18.609375 31.296875 18.609375 23.390625 
Q 18.609375 15.53125 22.484375 10.953125 
Q 26.375 6.390625 33.015625 6.390625 
Q 39.65625 6.390625 43.53125 10.953125 
Q 47.40625 15.53125 47.40625 23.390625 
Q 47.40625 31.296875 43.53125 35.828125 
Q 39.65625 40.375 33.015625 40.375 
z
M 52.59375 71.296875 
L 52.59375 62.3125 
Q 48.875 64.0625 45.09375 64.984375 
Q 41.3125 65.921875 37.59375 65.921875 
Q 27.828125 65.921875 22.671875 59.328125 
Q 17.53125 52.734375 16.796875 39.40625 
Q 19.671875 43.65625 24.015625 45.921875 
Q 28.375 48.1875 33.59375 48.1875 
Q 44.578125 48.1875 50.953125 41.515625 
Q 57.328125 34.859375 57.328125 23.390625 
Q 57.328125 12.15625 50.6875 5.359375 
Q 44.046875 -1.421875 33.015625 -1.421875 
Q 20.359375 -1.421875 13.671875 8.265625 
Q 6.984375 17.96875 6.984375 36.375 
Q 6.984375 53.65625 15.1875 63.9375 
Q 23.390625 74.21875 37.203125 74.21875 
Q 40.921875 74.21875 44.703125 73.484375 
Q 48.484375 72.75 52.59375 71.296875 
z
" id="DejaVuSans-54"/>
      </defs>
      <g transform="translate(30.840625 173.201763)scale(0.1 -0.1)">
       <use xlink:href="#DejaVuSans-54"/>
       <use x="63.623047" xlink:href="#DejaVuSans-48"/>
       <use x="127.246094" xlink:href="#DejaVuSans-48"/>
       <use x="190.869141" xlink:href="#DejaVuSans-48"/>
       <use x="254.492188" xlink:href="#DejaVuSans-48"/>
      </g>
     </g>
    </g>
    <g id="ytick_4">
     <g id="line2d_73">
      <path clip-path="url(#p70f0ac0a55)" d="M 69.653125 115.226857 
L 525.551875 115.226857 
" style="fill:none;stroke:#b0b0b0;stroke-linecap:square;stroke-opacity:0.5;stroke-width:0.8;"/>
     </g>
     <g id="line2d_74">
      <g>
       <use style="stroke:#000000;stroke-width:0.8;" x="69.653125" xlink:href="#m3b600234a1" y="115.226857"/>
      </g>
     </g>
     <g id="text_13">
      <!-- 80000 -->
      <defs>
       <path d="M 31.78125 34.625 
Q 24.75 34.625 20.71875 30.859375 
Q 16.703125 27.09375 16.703125 20.515625 
Q 16.703125 13.921875 20.71875 10.15625 
Q 24.75 6.390625 31.78125 6.390625 
Q 38.8125 6.390625 42.859375 10.171875 
Q 46.921875 13.96875 46.921875 20.515625 
Q 46.921875 27.09375 42.890625 30.859375 
Q 38.875 34.625 31.78125 34.625 
z
M 21.921875 38.8125 
Q 15.578125 40.375 12.03125 44.71875 
Q 8.5 49.078125 8.5 55.328125 
Q 8.5 64.0625 14.71875 69.140625 
Q 20.953125 74.21875 31.78125 74.21875 
Q 42.671875 74.21875 48.875 69.140625 
Q 55.078125 64.0625 55.078125 55.328125 
Q 55.078125 49.078125 51.53125 44.71875 
Q 48 40.375 41.703125 38.8125 
Q 48.828125 37.15625 52.796875 32.3125 
Q 56.78125 27.484375 56.78125 20.515625 
Q 56.78125 9.90625 50.3125 4.234375 
Q 43.84375 -1.421875 31.78125 -1.421875 
Q 19.734375 -1.421875 13.25 4.234375 
Q 6.78125 9.90625 6.78125 20.515625 
Q 6.78125 27.484375 10.78125 32.3125 
Q 14.796875 37.15625 21.921875 38.8125 
z
M 18.3125 54.390625 
Q 18.3125 48.734375 21.84375 45.5625 
Q 25.390625 42.390625 31.78125 42.390625 
Q 38.140625 42.390625 41.71875 45.5625 
Q 45.3125 48.734375 45.3125 54.390625 
Q 45.3125 60.0625 41.71875 63.234375 
Q 38.140625 66.40625 31.78125 66.40625 
Q 25.390625 66.40625 21.84375 63.234375 
Q 18.3125 60.0625 18.3125 54.390625 
z
" id="DejaVuSans-56"/>
      </defs>
      <g transform="translate(30.840625 119.026076)scale(0.1 -0.1)">
       <use xlink:href="#DejaVuSans-56"/>
       <use x="63.623047" xlink:href="#DejaVuSans-48"/>
       <use x="127.246094" xlink:href="#DejaVuSans-48"/>
       <use x="190.869141" xlink:href="#DejaVuSans-48"/>
       <use x="254.492188" xlink:href="#DejaVuSans-48"/>
      </g>
     </g>
    </g>
    <g id="ytick_5">
     <g id="line2d_75">
      <path clip-path="url(#p70f0ac0a55)" d="M 69.653125 61.05117 
L 525.551875 61.05117 
" style="fill:none;stroke:#b0b0b0;stroke-linecap:square;stroke-opacity:0.5;stroke-width:0.8;"/>
     </g>
     <g id="line2d_76">
      <g>
       <use style="stroke:#000000;stroke-width:0.8;" x="69.653125" xlink:href="#m3b600234a1" y="61.05117"/>
      </g>
     </g>
     <g id="text_14">
      <!-- 100000 -->
      <g transform="translate(24.478125 64.850389)scale(0.1 -0.1)">
       <use xlink:href="#DejaVuSans-49"/>
       <use x="63.623047" xlink:href="#DejaVuSans-48"/>
       <use x="127.246094" xlink:href="#DejaVuSans-48"/>
       <use x="190.869141" xlink:href="#DejaVuSans-48"/>
       <use x="254.492188" xlink:href="#DejaVuSans-48"/>
       <use x="318.115234" xlink:href="#DejaVuSans-48"/>
      </g>
     </g>
    </g>
    <g id="ytick_6">
     <g id="line2d_77">
      <path clip-path="url(#p70f0ac0a55)" d="M 69.653125 318.385683 
L 525.551875 318.385683 
" style="fill:none;stroke:#b0b0b0;stroke-linecap:square;stroke-opacity:0.1;stroke-width:0.8;"/>
     </g>
     <g id="line2d_78">
      <defs>
       <path d="M 0 0 
L -2 0 
" id="m03bb2833a2" style="stroke:#000000;stroke-width:0.6;"/>
      </defs>
      <g>
       <use style="stroke:#000000;stroke-width:0.6;" x="69.653125" xlink:href="#m03bb2833a2" y="318.385683"/>
      </g>
     </g>
    </g>
    <g id="ytick_7">
     <g id="line2d_79">
      <path clip-path="url(#p70f0ac0a55)" d="M 69.653125 304.841761 
L 525.551875 304.841761 
" style="fill:none;stroke:#b0b0b0;stroke-linecap:square;stroke-opacity:0.1;stroke-width:0.8;"/>
     </g>
     <g id="line2d_80">
      <g>
       <use style="stroke:#000000;stroke-width:0.6;" x="69.653125" xlink:href="#m03bb2833a2" y="304.841761"/>
      </g>
     </g>
    </g>
    <g id="ytick_8">
     <g id="line2d_81">
      <path clip-path="url(#p70f0ac0a55)" d="M 69.653125 291.29784 
L 525.551875 291.29784 
" style="fill:none;stroke:#b0b0b0;stroke-linecap:square;stroke-opacity:0.1;stroke-width:0.8;"/>
     </g>
     <g id="line2d_82">
      <g>
       <use style="stroke:#000000;stroke-width:0.6;" x="69.653125" xlink:href="#m03bb2833a2" y="291.29784"/>
      </g>
     </g>
    </g>
    <g id="ytick_9">
     <g id="line2d_83">
      <path clip-path="url(#p70f0ac0a55)" d="M 69.653125 264.209996 
L 525.551875 264.209996 
" style="fill:none;stroke:#b0b0b0;stroke-linecap:square;stroke-opacity:0.1;stroke-width:0.8;"/>
     </g>
     <g id="line2d_84">
      <g>
       <use style="stroke:#000000;stroke-width:0.6;" x="69.653125" xlink:href="#m03bb2833a2" y="264.209996"/>
      </g>
     </g>
    </g>
    <g id="ytick_10">
     <g id="line2d_85">
      <path clip-path="url(#p70f0ac0a55)" d="M 69.653125 250.666074 
L 525.551875 250.666074 
" style="fill:none;stroke:#b0b0b0;stroke-linecap:square;stroke-opacity:0.1;stroke-width:0.8;"/>
     </g>
     <g id="line2d_86">
      <g>
       <use style="stroke:#000000;stroke-width:0.6;" x="69.653125" xlink:href="#m03bb2833a2" y="250.666074"/>
      </g>
     </g>
    </g>
    <g id="ytick_11">
     <g id="line2d_87">
      <path clip-path="url(#p70f0ac0a55)" d="M 69.653125 237.122153 
L 525.551875 237.122153 
" style="fill:none;stroke:#b0b0b0;stroke-linecap:square;stroke-opacity:0.1;stroke-width:0.8;"/>
     </g>
     <g id="line2d_88">
      <g>
       <use style="stroke:#000000;stroke-width:0.6;" x="69.653125" xlink:href="#m03bb2833a2" y="237.122153"/>
      </g>
     </g>
    </g>
    <g id="ytick_12">
     <g id="line2d_89">
      <path clip-path="url(#p70f0ac0a55)" d="M 69.653125 210.034309 
L 525.551875 210.034309 
" style="fill:none;stroke:#b0b0b0;stroke-linecap:square;stroke-opacity:0.1;stroke-width:0.8;"/>
     </g>
     <g id="line2d_90">
      <g>
       <use style="stroke:#000000;stroke-width:0.6;" x="69.653125" xlink:href="#m03bb2833a2" y="210.034309"/>
      </g>
     </g>
    </g>
    <g id="ytick_13">
     <g id="line2d_91">
      <path clip-path="url(#p70f0ac0a55)" d="M 69.653125 196.490388 
L 525.551875 196.490388 
" style="fill:none;stroke:#b0b0b0;stroke-linecap:square;stroke-opacity:0.1;stroke-width:0.8;"/>
     </g>
     <g id="line2d_92">
      <g>
       <use style="stroke:#000000;stroke-width:0.6;" x="69.653125" xlink:href="#m03bb2833a2" y="196.490388"/>
      </g>
     </g>
    </g>
    <g id="ytick_14">
     <g id="line2d_93">
      <path clip-path="url(#p70f0ac0a55)" d="M 69.653125 182.946466 
L 525.551875 182.946466 
" style="fill:none;stroke:#b0b0b0;stroke-linecap:square;stroke-opacity:0.1;stroke-width:0.8;"/>
     </g>
     <g id="line2d_94">
      <g>
       <use style="stroke:#000000;stroke-width:0.6;" x="69.653125" xlink:href="#m03bb2833a2" y="182.946466"/>
      </g>
     </g>
    </g>
    <g id="ytick_15">
     <g id="line2d_95">
      <path clip-path="url(#p70f0ac0a55)" d="M 69.653125 155.858622 
L 525.551875 155.858622 
" style="fill:none;stroke:#b0b0b0;stroke-linecap:square;stroke-opacity:0.1;stroke-width:0.8;"/>
     </g>
     <g id="line2d_96">
      <g>
       <use style="stroke:#000000;stroke-width:0.6;" x="69.653125" xlink:href="#m03bb2833a2" y="155.858622"/>
      </g>
     </g>
    </g>
    <g id="ytick_16">
     <g id="line2d_97">
      <path clip-path="url(#p70f0ac0a55)" d="M 69.653125 142.314701 
L 525.551875 142.314701 
" style="fill:none;stroke:#b0b0b0;stroke-linecap:square;stroke-opacity:0.1;stroke-width:0.8;"/>
     </g>
     <g id="line2d_98">
      <g>
       <use style="stroke:#000000;stroke-width:0.6;" x="69.653125" xlink:href="#m03bb2833a2" y="142.314701"/>
      </g>
     </g>
    </g>
    <g id="ytick_17">
     <g id="line2d_99">
      <path clip-path="url(#p70f0ac0a55)" d="M 69.653125 128.770779 
L 525.551875 128.770779 
" style="fill:none;stroke:#b0b0b0;stroke-linecap:square;stroke-opacity:0.1;stroke-width:0.8;"/>
     </g>
     <g id="line2d_100">
      <g>
       <use style="stroke:#000000;stroke-width:0.6;" x="69.653125" xlink:href="#m03bb2833a2" y="128.770779"/>
      </g>
     </g>
    </g>
    <g id="ytick_18">
     <g id="line2d_101">
      <path clip-path="url(#p70f0ac0a55)" d="M 69.653125 101.682936 
L 525.551875 101.682936 
" style="fill:none;stroke:#b0b0b0;stroke-linecap:square;stroke-opacity:0.1;stroke-width:0.8;"/>
     </g>
     <g id="line2d_102">
      <g>
       <use style="stroke:#000000;stroke-width:0.6;" x="69.653125" xlink:href="#m03bb2833a2" y="101.682936"/>
      </g>
     </g>
    </g>
    <g id="ytick_19">
     <g id="line2d_103">
      <path clip-path="url(#p70f0ac0a55)" d="M 69.653125 88.139014 
L 525.551875 88.139014 
" style="fill:none;stroke:#b0b0b0;stroke-linecap:square;stroke-opacity:0.1;stroke-width:0.8;"/>
     </g>
     <g id="line2d_104">
      <g>
       <use style="stroke:#000000;stroke-width:0.6;" x="69.653125" xlink:href="#m03bb2833a2" y="88.139014"/>
      </g>
     </g>
    </g>
    <g id="ytick_20">
     <g id="line2d_105">
      <path clip-path="url(#p70f0ac0a55)" d="M 69.653125 74.595092 
L 525.551875 74.595092 
" style="fill:none;stroke:#b0b0b0;stroke-linecap:square;stroke-opacity:0.1;stroke-width:0.8;"/>
     </g>
     <g id="line2d_106">
      <g>
       <use style="stroke:#000000;stroke-width:0.6;" x="69.653125" xlink:href="#m03bb2833a2" y="74.595092"/>
      </g>
     </g>
    </g>
    <g id="ytick_21">
     <g id="line2d_107">
      <path clip-path="url(#p70f0ac0a55)" d="M 69.653125 47.507249 
L 525.551875 47.507249 
" style="fill:none;stroke:#b0b0b0;stroke-linecap:square;stroke-opacity:0.1;stroke-width:0.8;"/>
     </g>
     <g id="line2d_108">
      <g>
       <use style="stroke:#000000;stroke-width:0.6;" x="69.653125" xlink:href="#m03bb2833a2" y="47.507249"/>
      </g>
     </g>
    </g>
    <g id="ytick_22">
     <g id="line2d_109">
      <path clip-path="url(#p70f0ac0a55)" d="M 69.653125 33.963327 
L 525.551875 33.963327 
" style="fill:none;stroke:#b0b0b0;stroke-linecap:square;stroke-opacity:0.1;stroke-width:0.8;"/>
     </g>
     <g id="line2d_110">
      <g>
       <use style="stroke:#000000;stroke-width:0.6;" x="69.653125" xlink:href="#m03bb2833a2" y="33.963327"/>
      </g>
     </g>
    </g>
    <g id="ytick_23">
     <g id="line2d_111">
      <path clip-path="url(#p70f0ac0a55)" d="M 69.653125 20.419405 
L 525.551875 20.419405 
" style="fill:none;stroke:#b0b0b0;stroke-linecap:square;stroke-opacity:0.1;stroke-width:0.8;"/>
     </g>
     <g id="line2d_112">
      <g>
       <use style="stroke:#000000;stroke-width:0.6;" x="69.653125" xlink:href="#m03bb2833a2" y="20.419405"/>
      </g>
     </g>
    </g>
    <g id="text_15">
     <!-- Equity ($) -->
     <defs>
      <path d="M 9.8125 72.90625 
L 55.90625 72.90625 
L 55.90625 64.59375 
L 19.671875 64.59375 
L 19.671875 43.015625 
L 54.390625 43.015625 
L 54.390625 34.71875 
L 19.671875 34.71875 
L 19.671875 8.296875 
L 56.78125 8.296875 
L 56.78125 0 
L 9.8125 0 
z
" id="DejaVuSans-69"/>
      <path d="M 14.796875 27.296875 
Q 14.796875 17.390625 18.875 11.75 
Q 22.953125 6.109375 30.078125 6.109375 
Q 37.203125 6.109375 41.296875 11.75 
Q 45.40625 17.390625 45.40625 27.296875 
Q 45.40625 37.203125 41.296875 42.84375 
Q 37.203125 48.484375 30.078125 48.484375 
Q 22.953125 48.484375 18.875 42.84375 
Q 14.796875 37.203125 14.796875 27.296875 
z
M 45.40625 8.203125 
Q 42.578125 3.328125 38.25 0.953125 
Q 33.9375 -1.421875 27.875 -1.421875 
Q 17.96875 -1.421875 11.734375 6.484375 
Q 5.515625 14.40625 5.515625 27.296875 
Q 5.515625 40.1875 11.734375 48.09375 
Q 17.96875 56 27.875 56 
Q 33.9375 56 38.25 53.625 
Q 42.578125 51.265625 45.40625 46.390625 
L 45.40625 54.6875 
L 54.390625 54.6875 
L 54.390625 -20.796875 
L 45.40625 -20.796875 
z
" id="DejaVuSans-113"/>
      <path d="M 8.5 21.578125 
L 8.5 54.6875 
L 17.484375 54.6875 
L 17.484375 21.921875 
Q 17.484375 14.15625 20.5 10.265625 
Q 23.53125 6.390625 29.59375 6.390625 
Q 36.859375 6.390625 41.078125 11.03125 
Q 45.3125 15.671875 45.3125 23.6875 
L 45.3125 54.6875 
L 54.296875 54.6875 
L 54.296875 0 
L 45.3125 0 
L 45.3125 8.40625 
Q 42.046875 3.421875 37.71875 1 
Q 33.40625 -1.421875 27.6875 -1.421875 
Q 18.265625 -1.421875 13.375 4.4375 
Q 8.5 10.296875 8.5 21.578125 
z
M 31.109375 56 
z
" id="DejaVuSans-117"/>
      <path d="M 9.421875 54.6875 
L 18.40625 54.6875 
L 18.40625 0 
L 9.421875 0 
z
M 9.421875 75.984375 
L 18.40625 75.984375 
L 18.40625 64.59375 
L 9.421875 64.59375 
z
" id="DejaVuSans-105"/>
      <path d="M 18.3125 70.21875 
L 18.3125 54.6875 
L 36.8125 54.6875 
L 36.8125 47.703125 
L 18.3125 47.703125 
L 18.3125 18.015625 
Q 18.3125 11.328125 20.140625 9.421875 
Q 21.96875 7.515625 27.59375 7.515625 
L 36.8125 7.515625 
L 36.8125 0 
L 27.59375 0 
Q 17.1875 0 13.234375 3.875 
Q 9.28125 7.765625 9.28125 18.015625 
L 9.28125 47.703125 
L 2.6875 47.703125 
L 2.6875 54.6875 
L 9.28125 54.6875 
L 9.28125 70.21875 
z
" id="DejaVuSans-116"/>
      <path d="M 32.171875 -5.078125 
Q 28.375 -14.84375 24.75 -17.8125 
Q 21.140625 -20.796875 15.09375 -20.796875 
L 7.90625 -20.796875 
L 7.90625 -13.28125 
L 13.1875 -13.28125 
Q 16.890625 -13.28125 18.9375 -11.515625 
Q 21 -9.765625 23.484375 -3.21875 
L 25.09375 0.875 
L 2.984375 54.6875 
L 12.5 54.6875 
L 29.59375 11.921875 
L 46.6875 54.6875 
L 56.203125 54.6875 
z
" id="DejaVuSans-121"/>
      <path id="DejaVuSans-32"/>
      <path d="M 31 75.875 
Q 24.46875 64.65625 21.28125 53.65625 
Q 18.109375 42.671875 18.109375 31.390625 
Q 18.109375 20.125 21.3125 9.0625 
Q 24.515625 -2 31 -13.1875 
L 23.1875 -13.1875 
Q 15.875 -1.703125 12.234375 9.375 
Q 8.59375 20.453125 8.59375 31.390625 
Q 8.59375 42.28125 12.203125 53.3125 
Q 15.828125 64.359375 23.1875 75.875 
z
" id="DejaVuSans-40"/>
      <path d="M 33.796875 -14.703125 
L 28.90625 -14.703125 
L 28.859375 0 
Q 23.734375 0.09375 18.609375 1.1875 
Q 13.484375 2.296875 8.296875 4.5 
L 8.296875 13.28125 
Q 13.28125 10.15625 18.375 8.5625 
Q 23.484375 6.984375 28.90625 6.9375 
L 28.90625 29.203125 
Q 18.109375 30.953125 13.203125 35.15625 
Q 8.296875 39.359375 8.296875 46.6875 
Q 8.296875 54.640625 13.625 59.21875 
Q 18.953125 63.8125 28.90625 64.5 
L 28.90625 75.984375 
L 33.796875 75.984375 
L 33.796875 64.65625 
Q 38.328125 64.453125 42.578125 63.6875 
Q 46.828125 62.9375 50.875 61.625 
L 50.875 53.078125 
Q 46.828125 55.125 42.546875 56.25 
Q 38.28125 57.375 33.796875 57.5625 
L 33.796875 36.71875 
Q 44.875 35.015625 50.09375 30.609375 
Q 55.328125 26.21875 55.328125 18.609375 
Q 55.328125 10.359375 49.78125 5.59375 
Q 44.234375 0.828125 33.796875 0.09375 
z
M 28.90625 37.59375 
L 28.90625 57.625 
Q 23.25 56.984375 20.265625 54.390625 
Q 17.28125 51.8125 17.28125 47.515625 
Q 17.28125 43.3125 20.03125 40.96875 
Q 22.796875 38.625 28.90625 37.59375 
z
M 33.796875 28.21875 
L 33.796875 7.078125 
Q 39.984375 7.90625 43.140625 10.59375 
Q 46.296875 13.28125 46.296875 17.671875 
Q 46.296875 21.96875 43.28125 24.5 
Q 40.28125 27.046875 33.796875 28.21875 
z
" id="DejaVuSans-36"/>
      <path d="M 8.015625 75.875 
L 15.828125 75.875 
Q 23.140625 64.359375 26.78125 53.3125 
Q 30.421875 42.28125 30.421875 31.390625 
Q 30.421875 20.453125 26.78125 9.375 
Q 23.140625 -1.703125 15.828125 -13.1875 
L 8.015625 -13.1875 
Q 14.5 -2 17.703125 9.0625 
Q 20.90625 20.125 20.90625 31.390625 
Q 20.90625 42.671875 17.703125 53.65625 
Q 14.5 64.65625 8.015625 75.875 
z
" id="DejaVuSans-41"/>
     </defs>
     <g transform="translate(18.398437 189.304688)rotate(-90)scale(0.1 -0.1)">
      <use xlink:href="#DejaVuSans-69"/>
      <use x="63.183594" xlink:href="#DejaVuSans-113"/>
      <use x="126.660156" xlink:href="#DejaVuSans-117"/>
      <use x="190.039062" xlink:href="#DejaVuSans-105"/>
      <use x="217.822266" xlink:href="#DejaVuSans-116"/>
      <use x="257.03125" xlink:href="#DejaVuSans-121"/>
      <use x="316.210938" xlink:href="#DejaVuSans-32"/>
      <use x="347.998047" xlink:href="#DejaVuSans-40"/>
      <use x="387.011719" xlink:href="#DejaVuSans-36"/>
      <use x="450.634766" xlink:href="#DejaVuSans-41"/>
     </g>
    </g>
   </g>
   <g id="line2d_113">
    <path clip-path="url(#p70f0ac0a55)" d="M 88.356663 304.841761 
L 90.694606 302.959156 
L 93.032548 303.327081 
L 95.37049 301.244817 
L 97.708433 302.24821 
L 100.046375 303.450306 
L 102.384317 303.572767 
L 107.060202 301.335628 
L 109.398144 300.735986 
L 111.736087 298.917398 
L 114.074029 297.544091 
L 116.411971 298.200854 
L 118.749913 297.742143 
L 121.087856 298.805373 
L 123.425798 298.460881 
L 125.76374 296.409248 
L 128.101683 295.219316 
L 130.439625 295.718576 
L 132.777567 296.707137 
L 137.453452 296.031215 
L 139.791394 294.886056 
L 142.129337 296.15665 
L 144.467279 296.607389 
L 146.805221 296.134071 
L 149.143163 296.846402 
L 151.481106 296.372779 
L 153.819048 297.059026 
L 156.15699 296.274438 
L 158.494933 298.973534 
L 160.832875 299.444806 
L 163.170817 298.697655 
L 165.50876 297.052674 
L 167.846702 297.202645 
L 170.184644 292.219326 
L 172.522587 285.921276 
L 174.860529 291.906959 
L 177.198471 292.563331 
L 179.536413 291.201258 
L 181.874356 287.165078 
L 184.212298 285.437168 
L 186.55024 286.060166 
L 188.888183 281.106267 
L 191.226125 278.32623 
L 193.564067 274.230933 
L 195.90201 275.806106 
L 198.239952 274.318834 
L 200.577894 268.989837 
L 202.915837 272.457818 
L 205.253779 269.139293 
L 207.591721 261.956081 
L 209.929663 260.136769 
L 212.267606 263.977686 
L 214.605548 260.525729 
L 216.94349 261.196925 
L 219.281433 256.153685 
L 221.619375 258.010195 
L 223.957317 254.402928 
L 226.29526 259.310367 
L 228.633202 253.174041 
L 230.971144 253.221294 
L 233.309087 249.915545 
L 235.647029 251.629639 
L 237.984971 247.654791 
L 240.322913 251.135341 
L 242.660856 253.664201 
L 247.33674 259.822752 
L 252.012625 240.696088 
L 254.350567 238.013823 
L 256.68851 235.919501 
L 259.026452 230.293309 
L 261.364394 231.035254 
L 263.702337 230.783018 
L 266.040279 231.015655 
L 268.378221 236.323729 
L 270.716163 236.591425 
L 273.054106 234.751398 
L 277.72999 230.736172 
L 280.067933 229.086719 
L 282.405875 226.217402 
L 284.743817 224.959427 
L 287.08176 221.878686 
L 289.419702 220.602095 
L 291.757644 215.993136 
L 294.095587 214.76421 
L 296.433529 221.243456 
L 298.771471 222.427798 
L 301.109413 215.364931 
L 303.447356 219.141627 
L 305.785298 212.498415 
L 308.12324 207.553963 
L 310.461183 205.874892 
L 312.799125 202.584864 
L 315.137067 205.740876 
L 317.47501 200.781659 
L 319.812952 201.05707 
L 322.150894 198.007739 
L 324.488837 194.271319 
L 326.826779 193.761984 
L 329.164721 196.055566 
L 331.502663 192.196744 
L 333.840606 194.194924 
L 336.178548 188.175918 
L 338.51649 184.395196 
L 340.854433 181.916618 
L 343.192375 172.58581 
L 345.530317 171.438535 
L 347.86826 167.586749 
L 350.206202 169.246612 
L 352.544144 170.238978 
L 354.882087 174.847161 
L 357.220029 175.899613 
L 359.557971 184.106791 
L 361.895913 188.349306 
L 364.233856 178.91608 
L 366.571798 178.564149 
L 368.90974 178.686841 
L 371.247683 185.322253 
L 373.585625 181.950284 
L 375.923567 168.362157 
L 378.26151 172.042425 
L 380.599452 169.947903 
L 382.937394 172.814979 
L 385.275337 165.718467 
L 387.613279 165.02038 
L 389.951221 159.762739 
L 392.289163 163.068343 
L 394.627106 164.2166 
L 396.965048 161.231308 
L 399.30299 159.319487 
L 401.640933 153.243611 
L 403.978875 156.674382 
L 406.316817 151.3992 
L 408.65476 144.051613 
L 410.992702 145.235244 
L 413.330644 143.293623 
L 415.668587 144.74612 
L 418.006529 140.403463 
L 420.344471 138.220065 
L 422.682413 134.287761 
L 425.020356 133.022853 
L 427.358298 123.79358 
L 429.69624 131.973326 
L 432.034183 132.893125 
L 434.372125 131.679002 
L 436.710067 124.490006 
L 439.04801 120.818325 
L 441.385952 121.198325 
L 443.723894 116.414725 
L 446.061837 121.522428 
L 448.399779 138.039391 
L 450.737721 131.292012 
L 453.075663 146.841425 
L 455.413606 144.638876 
L 457.751548 143.852255 
L 460.08949 140.128323 
L 462.427433 141.12569 
L 464.765375 150.589564 
L 467.103317 145.221899 
L 469.44126 142.141222 
L 471.779202 135.498628 
L 474.117144 133.239672 
L 476.455087 127.060415 
L 478.793029 120.422653 
L 481.130971 115.494541 
L 483.468913 118.914215 
L 485.806856 105.68596 
L 488.144798 79.079707 
L 490.48274 50.988083 
L 492.820683 55.90456 
L 495.158625 53.779167 
L 499.83451 24.801989 
L 502.172452 40.28122 
L 504.510394 45.443397 
L 504.510394 45.443397 
" style="fill:none;stroke:#000000;stroke-linecap:square;stroke-width:1.5;"/>
   </g>
   <g id="patch_3">
    <path d="M 69.653125 318.84375 
L 69.653125 10.8 
" style="fill:none;stroke:#000000;stroke-linecap:square;stroke-linejoin:miter;stroke-width:0.8;"/>
   </g>
   <g id="patch_4">
    <path d="M 525.551875 318.84375 
L 525.551875 10.8 
" style="fill:none;stroke:#000000;stroke-linecap:square;stroke-linejoin:miter;stroke-width:0.8;"/>
   </g>
   <g id="patch_5">
    <path d="M 69.653125 318.84375 
L 525.551875 318.84375 
" style="fill:none;stroke:#000000;stroke-linecap:square;stroke-linejoin:miter;stroke-width:0.8;"/>
   </g>
   <g id="patch_6">
    <path d="M 69.653125 10.8 
L 525.551875 10.8 
" style="fill:none;stroke:#000000;stroke-linecap:square;stroke-linejoin:miter;stroke-width:0.8;"/>
   </g>
  </g>
  <g id="axes_2">
   <g id="matplotlib.axis_3">
    <g id="ytick_24">
     <g id="line2d_114">
      <defs>
       <path d="M 0 0 
L 3.5 0 
" id="m92f1203abc" style="stroke:#000000;stroke-width:0.8;"/>
      </defs>
      <g>
       <use style="stroke:#000000;stroke-width:0.8;" x="525.551875" xlink:href="#m92f1203abc" y="304.841761"/>
      </g>
     </g>
     <g id="text_16">
      <!-- 0 -->
      <g transform="translate(532.551875 308.64098)scale(0.1 -0.1)">
       <use xlink:href="#DejaVuSans-48"/>
      </g>
     </g>
    </g>
    <g id="ytick_25">
     <g id="line2d_115">
      <g>
       <use style="stroke:#000000;stroke-width:0.8;" x="525.551875" xlink:href="#m92f1203abc" y="250.666074"/>
      </g>
     </g>
     <g id="text_17">
      <!-- 200 -->
      <g transform="translate(532.551875 254.465293)scale(0.1 -0.1)">
       <use xlink:href="#DejaVuSans-50"/>
       <use x="63.623047" xlink:href="#DejaVuSans-48"/>
       <use x="127.246094" xlink:href="#DejaVuSans-48"/>
      </g>
     </g>
    </g>
    <g id="ytick_26">
     <g id="line2d_116">
      <g>
       <use style="stroke:#000000;stroke-width:0.8;" x="525.551875" xlink:href="#m92f1203abc" y="196.490388"/>
      </g>
     </g>
     <g id="text_18">
      <!-- 400 -->
      <g transform="translate(532.551875 200.289606)scale(0.1 -0.1)">
       <use xlink:href="#DejaVuSans-52"/>
       <use x="63.623047" xlink:href="#DejaVuSans-48"/>
       <use x="127.246094" xlink:href="#DejaVuSans-48"/>
      </g>
     </g>
    </g>
    <g id="ytick_27">
     <g id="line2d_117">
      <g>
       <use style="stroke:#000000;stroke-width:0.8;" x="525.551875" xlink:href="#m92f1203abc" y="142.314701"/>
      </g>
     </g>
     <g id="text_19">
      <!-- 600 -->
      <g transform="translate(532.551875 146.113919)scale(0.1 -0.1)">
       <use xlink:href="#DejaVuSans-54"/>
       <use x="63.623047" xlink:href="#DejaVuSans-48"/>
       <use x="127.246094" xlink:href="#DejaVuSans-48"/>
      </g>
     </g>
    </g>
    <g id="ytick_28">
     <g id="line2d_118">
      <g>
       <use style="stroke:#000000;stroke-width:0.8;" x="525.551875" xlink:href="#m92f1203abc" y="88.139014"/>
      </g>
     </g>
     <g id="text_20">
      <!-- 800 -->
      <g transform="translate(532.551875 91.938233)scale(0.1 -0.1)">
       <use xlink:href="#DejaVuSans-56"/>
       <use x="63.623047" xlink:href="#DejaVuSans-48"/>
       <use x="127.246094" xlink:href="#DejaVuSans-48"/>
      </g>
     </g>
    </g>
    <g id="ytick_29">
     <g id="line2d_119">
      <g>
       <use style="stroke:#000000;stroke-width:0.8;" x="525.551875" xlink:href="#m92f1203abc" y="33.963327"/>
      </g>
     </g>
     <g id="text_21">
      <!-- 1000 -->
      <g transform="translate(532.551875 37.762546)scale(0.1 -0.1)">
       <use xlink:href="#DejaVuSans-49"/>
       <use x="63.623047" xlink:href="#DejaVuSans-48"/>
       <use x="127.246094" xlink:href="#DejaVuSans-48"/>
       <use x="190.869141" xlink:href="#DejaVuSans-48"/>
      </g>
     </g>
    </g>
    <g id="text_22">
     <!-- Return (%) -->
     <defs>
      <path d="M 44.390625 34.1875 
Q 47.5625 33.109375 50.5625 29.59375 
Q 53.5625 26.078125 56.59375 19.921875 
L 66.609375 0 
L 56 0 
L 46.6875 18.703125 
Q 43.0625 26.03125 39.671875 28.421875 
Q 36.28125 30.8125 30.421875 30.8125 
L 19.671875 30.8125 
L 19.671875 0 
L 9.8125 0 
L 9.8125 72.90625 
L 32.078125 72.90625 
Q 44.578125 72.90625 50.734375 67.671875 
Q 56.890625 62.453125 56.890625 51.90625 
Q 56.890625 45.015625 53.6875 40.46875 
Q 50.484375 35.9375 44.390625 34.1875 
z
M 19.671875 64.796875 
L 19.671875 38.921875 
L 32.078125 38.921875 
Q 39.203125 38.921875 42.84375 42.21875 
Q 46.484375 45.515625 46.484375 51.90625 
Q 46.484375 58.296875 42.84375 61.546875 
Q 39.203125 64.796875 32.078125 64.796875 
z
" id="DejaVuSans-82"/>
      <path d="M 54.890625 33.015625 
L 54.890625 0 
L 45.90625 0 
L 45.90625 32.71875 
Q 45.90625 40.484375 42.875 44.328125 
Q 39.84375 48.1875 33.796875 48.1875 
Q 26.515625 48.1875 22.3125 43.546875 
Q 18.109375 38.921875 18.109375 30.90625 
L 18.109375 0 
L 9.078125 0 
L 9.078125 54.6875 
L 18.109375 54.6875 
L 18.109375 46.1875 
Q 21.34375 51.125 25.703125 53.5625 
Q 30.078125 56 35.796875 56 
Q 45.21875 56 50.046875 50.171875 
Q 54.890625 44.34375 54.890625 33.015625 
z
" id="DejaVuSans-110"/>
      <path d="M 72.703125 32.078125 
Q 68.453125 32.078125 66.03125 28.46875 
Q 63.625 24.859375 63.625 18.40625 
Q 63.625 12.0625 66.03125 8.421875 
Q 68.453125 4.78125 72.703125 4.78125 
Q 76.859375 4.78125 79.265625 8.421875 
Q 81.6875 12.0625 81.6875 18.40625 
Q 81.6875 24.8125 79.265625 28.4375 
Q 76.859375 32.078125 72.703125 32.078125 
z
M 72.703125 38.28125 
Q 80.421875 38.28125 84.953125 32.90625 
Q 89.5 27.546875 89.5 18.40625 
Q 89.5 9.28125 84.9375 3.921875 
Q 80.375 -1.421875 72.703125 -1.421875 
Q 64.890625 -1.421875 60.34375 3.921875 
Q 55.8125 9.28125 55.8125 18.40625 
Q 55.8125 27.59375 60.375 32.9375 
Q 64.9375 38.28125 72.703125 38.28125 
z
M 22.3125 68.015625 
Q 18.109375 68.015625 15.6875 64.375 
Q 13.28125 60.75 13.28125 54.390625 
Q 13.28125 47.953125 15.671875 44.328125 
Q 18.0625 40.71875 22.3125 40.71875 
Q 26.5625 40.71875 28.96875 44.328125 
Q 31.390625 47.953125 31.390625 54.390625 
Q 31.390625 60.6875 28.953125 64.34375 
Q 26.515625 68.015625 22.3125 68.015625 
z
M 66.40625 74.21875 
L 74.21875 74.21875 
L 28.609375 -1.421875 
L 20.796875 -1.421875 
z
M 22.3125 74.21875 
Q 30.03125 74.21875 34.609375 68.875 
Q 39.203125 63.53125 39.203125 54.390625 
Q 39.203125 45.171875 34.640625 39.84375 
Q 30.078125 34.515625 22.3125 34.515625 
Q 14.546875 34.515625 10.03125 39.859375 
Q 5.515625 45.21875 5.515625 54.390625 
Q 5.515625 63.484375 10.046875 68.84375 
Q 14.59375 74.21875 22.3125 74.21875 
z
" id="DejaVuSans-37"/>
     </defs>
     <g transform="translate(569.600312 191.654688)rotate(-90)scale(0.1 -0.1)">
      <use xlink:href="#DejaVuSans-82"/>
      <use x="64.982422" xlink:href="#DejaVuSans-101"/>
      <use x="126.505859" xlink:href="#DejaVuSans-116"/>
      <use x="165.714844" xlink:href="#DejaVuSans-117"/>
      <use x="229.09375" xlink:href="#DejaVuSans-114"/>
      <use x="268.457031" xlink:href="#DejaVuSans-110"/>
      <use x="331.835938" xlink:href="#DejaVuSans-32"/>
      <use x="363.623047" xlink:href="#DejaVuSans-40"/>
      <use x="402.636719" xlink:href="#DejaVuSans-37"/>
      <use x="497.65625" xlink:href="#DejaVuSans-41"/>
     </g>
    </g>
   </g>
   <g id="line2d_120">
    <path clip-path="url(#p70f0ac0a55)" d="M 88.356663 304.841761 
L 90.694606 302.959156 
L 93.032548 303.327081 
L 95.37049 301.244817 
L 97.708433 302.24821 
L 100.046375 303.450306 
L 102.384317 303.572767 
L 107.060202 301.335628 
L 109.398144 300.735986 
L 111.736087 298.917398 
L 114.074029 297.544091 
L 116.411971 298.200854 
L 118.749913 297.742143 
L 121.087856 298.805373 
L 123.425798 298.460881 
L 125.76374 296.409248 
L 128.101683 295.219316 
L 130.439625 295.718576 
L 132.777567 296.707137 
L 137.453452 296.031215 
L 139.791394 294.886056 
L 142.129337 296.15665 
L 144.467279 296.607389 
L 146.805221 296.134071 
L 149.143163 296.846402 
L 151.481106 296.372779 
L 153.819048 297.059026 
L 156.15699 296.274438 
L 158.494933 298.973534 
L 160.832875 299.444806 
L 163.170817 298.697655 
L 165.50876 297.052674 
L 167.846702 297.202645 
L 170.184644 292.219326 
L 172.522587 285.921276 
L 174.860529 291.906959 
L 177.198471 292.563331 
L 179.536413 291.201258 
L 181.874356 287.165078 
L 184.212298 285.437168 
L 186.55024 286.060166 
L 188.888183 281.106267 
L 191.226125 278.32623 
L 193.564067 274.230933 
L 195.90201 275.806106 
L 198.239952 274.318834 
L 200.577894 268.989837 
L 202.915837 272.457818 
L 205.253779 269.139293 
L 207.591721 261.956081 
L 209.929663 260.136769 
L 212.267606 263.977686 
L 214.605548 260.525729 
L 216.94349 261.196925 
L 219.281433 256.153685 
L 221.619375 258.010195 
L 223.957317 254.402928 
L 226.29526 259.310367 
L 228.633202 253.174041 
L 230.971144 253.221294 
L 233.309087 249.915545 
L 235.647029 251.629639 
L 237.984971 247.654791 
L 240.322913 251.135341 
L 242.660856 253.664201 
L 247.33674 259.822752 
L 252.012625 240.696088 
L 254.350567 238.013823 
L 256.68851 235.919501 
L 259.026452 230.293309 
L 261.364394 231.035254 
L 263.702337 230.783018 
L 266.040279 231.015655 
L 268.378221 236.323729 
L 270.716163 236.591425 
L 273.054106 234.751398 
L 277.72999 230.736172 
L 280.067933 229.086719 
L 282.405875 226.217402 
L 284.743817 224.959427 
L 287.08176 221.878686 
L 289.419702 220.602095 
L 291.757644 215.993136 
L 294.095587 214.76421 
L 296.433529 221.243456 
L 298.771471 222.427798 
L 301.109413 215.364931 
L 303.447356 219.141627 
L 305.785298 212.498415 
L 308.12324 207.553963 
L 310.461183 205.874892 
L 312.799125 202.584864 
L 315.137067 205.740876 
L 317.47501 200.781659 
L 319.812952 201.05707 
L 322.150894 198.007739 
L 324.488837 194.271319 
L 326.826779 193.761984 
L 329.164721 196.055566 
L 331.502663 192.196744 
L 333.840606 194.194924 
L 336.178548 188.175918 
L 338.51649 184.395196 
L 340.854433 181.916618 
L 343.192375 172.58581 
L 345.530317 171.438535 
L 347.86826 167.586749 
L 350.206202 169.246612 
L 352.544144 170.238978 
L 354.882087 174.847161 
L 357.220029 175.899613 
L 359.557971 184.106791 
L 361.895913 188.349306 
L 364.233856 178.91608 
L 366.571798 178.564149 
L 368.90974 178.686841 
L 371.247683 185.322253 
L 373.585625 181.950284 
L 375.923567 168.362157 
L 378.26151 172.042425 
L 380.599452 169.947903 
L 382.937394 172.814979 
L 385.275337 165.718467 
L 387.613279 165.02038 
L 389.951221 159.762739 
L 392.289163 163.068343 
L 394.627106 164.2166 
L 396.965048 161.231308 
L 399.30299 159.319487 
L 401.640933 153.243611 
L 403.978875 156.674382 
L 406.316817 151.3992 
L 408.65476 144.051613 
L 410.992702 145.235244 
L 413.330644 143.293623 
L 415.668587 144.74612 
L 418.006529 140.403463 
L 420.344471 138.220065 
L 422.682413 134.287761 
L 425.020356 133.022853 
L 427.358298 123.79358 
L 429.69624 131.973326 
L 432.034183 132.893125 
L 434.372125 131.679002 
L 436.710067 124.490006 
L 439.04801 120.818325 
L 441.385952 121.198325 
L 443.723894 116.414725 
L 446.061837 121.522428 
L 448.399779 138.039391 
L 450.737721 131.292012 
L 453.075663 146.841425 
L 455.413606 144.638876 
L 457.751548 143.852255 
L 460.08949 140.128323 
L 462.427433 141.12569 
L 464.765375 150.589564 
L 467.103317 145.221899 
L 469.44126 142.141222 
L 471.779202 135.498628 
L 474.117144 133.239672 
L 476.455087 127.060415 
L 478.793029 120.422653 
L 481.130971 115.494541 
L 483.468913 118.914215 
L 485.806856 105.68596 
L 488.144798 79.079707 
L 490.48274 50.988083 
L 492.820683 55.90456 
L 495.158625 53.779167 
L 499.83451 24.801989 
L 502.172452 40.28122 
L 504.510394 45.443397 
L 504.510394 45.443397 
" style="fill:none;stroke:#000000;stroke-linecap:square;stroke-width:1.5;"/>
   </g>
   <g id="patch_7">
    <path d="M 69.653125 318.84375 
L 69.653125 10.8 
" style="fill:none;stroke:#000000;stroke-linecap:square;stroke-linejoin:miter;stroke-width:0.8;"/>
   </g>
   <g id="patch_8">
    <path d="M 525.551875 318.84375 
L 525.551875 10.8 
" style="fill:none;stroke:#000000;stroke-linecap:square;stroke-linejoin:miter;stroke-width:0.8;"/>
   </g>
   <g id="patch_9">
    <path d="M 69.653125 318.84375 
L 525.551875 318.84375 
" style="fill:none;stroke:#000000;stroke-linecap:square;stroke-linejoin:miter;stroke-width:0.8;"/>
   </g>
   <g id="patch_10">
    <path d="M 69.653125 10.8 
L 525.551875 10.8 
" style="fill:none;stroke:#000000;stroke-linecap:square;stroke-linejoin:miter;stroke-width:0.8;"/>
   </g>
  </g>
 </g>
 <defs>
  <clipPath id="p70f0ac0a55">
   <rect height="308.04375" width="455.89875" x="69.653125" y="10.8"/>
  </clipPath>
 </defs>
</svg>
