<?xml version="1.0" encoding="utf-8" standalone="no"?>
<!DOCTYPE svg PUBLIC "-//W3C//DTD SVG 1.1//EN"
  "http://www.w3.org/Graphics/SVG/1.1/DTD/svg11.dtd">
<!-- Created with matplotlib (https://matplotlib.org/) -->
<svg height="360pt" version="1.1" viewBox="0 0 582.48 360" width="582.48pt" xmlns="http://www.w3.org/2000/svg" xmlns:xlink="http://www.w3.org/1999/xlink">
 <defs>
  <style type="text/css">
*{stroke-linecap:butt;stroke-linejoin:round;}
  </style>
 </defs>
 <g id="figure_1">
  <g id="patch_1">
   <path d="M 0 360 
L 582.48 360 
L 582.48 0 
L 0 0 
z
" style="fill:none;"/>
  </g>
  <g id="axes_1">
   <g id="patch_2">
    <path d="M 69.653125 318.84375 
L 525.551875 318.84375 
L 525.551875 10.8 
L 69.653125 10.8 
z
" style="fill:none;"/>
   </g>
   <g id="matplotlib.axis_1">
    <g id="xtick_1">
     <g id="line2d_1">
      <path clip-path="url(#p05fb719198)" d="M 115.036711 318.84375 
L 115.036711 10.8 
" style="fill:none;stroke:#b0b0b0;stroke-linecap:square;stroke-opacity:0.5;stroke-width:0.8;"/>
     </g>
     <g id="line2d_2">
      <defs>
       <path d="M 0 0 
L 0 3.5 
" id="m5c7563b39c" style="stroke:#000000;stroke-width:0.8;"/>
      </defs>
      <g>
       <use style="stroke:#000000;stroke-width:0.8;" x="115.036711" xlink:href="#m5c7563b39c" y="318.84375"/>
      </g>
     </g>
     <g id="text_1">
      <!-- 1989 -->
      <defs>
       <path d="M 12.40625 8.296875 
L 28.515625 8.296875 
L 28.515625 63.921875 
L 10.984375 60.40625 
L 10.984375 69.390625 
L 28.421875 72.90625 
L 38.28125 72.90625 
L 38.28125 8.296875 
L 54.390625 8.296875 
L 54.390625 0 
L 12.40625 0 
z
" id="DejaVuSans-49"/>
       <path d="M 10.984375 1.515625 
L 10.984375 10.5 
Q 14.703125 8.734375 18.5 7.8125 
Q 22.3125 6.890625 25.984375 6.890625 
Q 35.75 6.890625 40.890625 13.453125 
Q 46.046875 20.015625 46.78125 33.40625 
Q 43.953125 29.203125 39.59375 26.953125 
Q 35.25 24.703125 29.984375 24.703125 
Q 19.046875 24.703125 12.671875 31.3125 
Q 6.296875 37.9375 6.296875 49.421875 
Q 6.296875 60.640625 12.9375 67.421875 
Q 19.578125 74.21875 30.609375 74.21875 
Q 43.265625 74.21875 49.921875 64.515625 
Q 56.59375 54.828125 56.59375 36.375 
Q 56.59375 19.140625 48.40625 8.859375 
Q 40.234375 -1.421875 26.421875 -1.421875 
Q 22.703125 -1.421875 18.890625 -0.6875 
Q 15.09375 0.046875 10.984375 1.515625 
z
M 30.609375 32.421875 
Q 37.25 32.421875 41.125 36.953125 
Q 45.015625 41.5 45.015625 49.421875 
Q 45.015625 57.28125 41.125 61.84375 
Q 37.25 66.40625 30.609375 66.40625 
Q 23.96875 66.40625 20.09375 61.84375 
Q 16.21875 57.28125 16.21875 49.421875 
Q 16.21875 41.5 20.09375 36.953125 
Q 23.96875 32.421875 30.609375 32.421875 
z
" id="DejaVuSans-57"/>
       <path d="M 31.78125 34.625 
Q 24.75 34.625 20.71875 30.859375 
Q 16.703125 27.09375 16.703125 20.515625 
Q 16.703125 13.921875 20.71875 10.15625 
Q 24.75 6.390625 31.78125 6.390625 
Q 38.8125 6.390625 42.859375 10.171875 
Q 46.921875 13.96875 46.921875 20.515625 
Q 46.921875 27.09375 42.890625 30.859375 
Q 38.875 34.625 31.78125 34.625 
z
M 21.921875 38.8125 
Q 15.578125 40.375 12.03125 44.71875 
Q 8.5 49.078125 8.5 55.328125 
Q 8.5 64.0625 14.71875 69.140625 
Q 20.953125 74.21875 31.78125 74.21875 
Q 42.671875 74.21875 48.875 69.140625 
Q 55.078125 64.0625 55.078125 55.328125 
Q 55.078125 49.078125 51.53125 44.71875 
Q 48 40.375 41.703125 38.8125 
Q 48.828125 37.15625 52.796875 32.3125 
Q 56.78125 27.484375 56.78125 20.515625 
Q 56.78125 9.90625 50.3125 4.234375 
Q 43.84375 -1.421875 31.78125 -1.421875 
Q 19.734375 -1.421875 13.25 4.234375 
Q 6.78125 9.90625 6.78125 20.515625 
Q 6.78125 27.484375 10.78125 32.3125 
Q 14.796875 37.15625 21.921875 38.8125 
z
M 18.3125 54.390625 
Q 18.3125 48.734375 21.84375 45.5625 
Q 25.390625 42.390625 31.78125 42.390625 
Q 38.140625 42.390625 41.71875 45.5625 
Q 45.3125 48.734375 45.3125 54.390625 
Q 45.3125 60.0625 41.71875 63.234375 
Q 38.140625 66.40625 31.78125 66.40625 
Q 25.390625 66.40625 21.84375 63.234375 
Q 18.3125 60.0625 18.3125 54.390625 
z
" id="DejaVuSans-56"/>
      </defs>
      <g transform="translate(102.311711 333.442187)scale(0.1 -0.1)">
       <use xlink:href="#DejaVuSans-49"/>
       <use x="63.623047" xlink:href="#DejaVuSans-57"/>
       <use x="127.246094" xlink:href="#DejaVuSans-56"/>
       <use x="190.869141" xlink:href="#DejaVuSans-57"/>
      </g>
     </g>
    </g>
    <g id="xtick_2">
     <g id="line2d_3">
      <path clip-path="url(#p05fb719198)" d="M 176.923419 318.84375 
L 176.923419 10.8 
" style="fill:none;stroke:#b0b0b0;stroke-linecap:square;stroke-opacity:0.5;stroke-width:0.8;"/>
     </g>
     <g id="line2d_4">
      <g>
       <use style="stroke:#000000;stroke-width:0.8;" x="176.923419" xlink:href="#m5c7563b39c" y="318.84375"/>
      </g>
     </g>
     <g id="text_2">
      <!-- 1994 -->
      <defs>
       <path d="M 37.796875 64.3125 
L 12.890625 25.390625 
L 37.796875 25.390625 
z
M 35.203125 72.90625 
L 47.609375 72.90625 
L 47.609375 25.390625 
L 58.015625 25.390625 
L 58.015625 17.1875 
L 47.609375 17.1875 
L 47.609375 0 
L 37.796875 0 
L 37.796875 17.1875 
L 4.890625 17.1875 
L 4.890625 26.703125 
z
" id="DejaVuSans-52"/>
      </defs>
      <g transform="translate(164.198419 333.442187)scale(0.1 -0.1)">
       <use xlink:href="#DejaVuSans-49"/>
       <use x="63.623047" xlink:href="#DejaVuSans-57"/>
       <use x="127.246094" xlink:href="#DejaVuSans-57"/>
       <use x="190.869141" xlink:href="#DejaVuSans-52"/>
      </g>
     </g>
    </g>
    <g id="xtick_3">
     <g id="line2d_5">
      <path clip-path="url(#p05fb719198)" d="M 238.810127 318.84375 
L 238.810127 10.8 
" style="fill:none;stroke:#b0b0b0;stroke-linecap:square;stroke-opacity:0.5;stroke-width:0.8;"/>
     </g>
     <g id="line2d_6">
      <g>
       <use style="stroke:#000000;stroke-width:0.8;" x="238.810127" xlink:href="#m5c7563b39c" y="318.84375"/>
      </g>
     </g>
     <g id="text_3">
      <!-- 1999 -->
      <g transform="translate(226.085127 333.442187)scale(0.1 -0.1)">
       <use xlink:href="#DejaVuSans-49"/>
       <use x="63.623047" xlink:href="#DejaVuSans-57"/>
       <use x="127.246094" xlink:href="#DejaVuSans-57"/>
       <use x="190.869141" xlink:href="#DejaVuSans-57"/>
      </g>
     </g>
    </g>
    <g id="xtick_4">
     <g id="line2d_7">
      <path clip-path="url(#p05fb719198)" d="M 300.696835 318.84375 
L 300.696835 10.8 
" style="fill:none;stroke:#b0b0b0;stroke-linecap:square;stroke-opacity:0.5;stroke-width:0.8;"/>
     </g>
     <g id="line2d_8">
      <g>
       <use style="stroke:#000000;stroke-width:0.8;" x="300.696835" xlink:href="#m5c7563b39c" y="318.84375"/>
      </g>
     </g>
     <g id="text_4">
      <!-- 2004 -->
      <defs>
       <path d="M 19.1875 8.296875 
L 53.609375 8.296875 
L 53.609375 0 
L 7.328125 0 
L 7.328125 8.296875 
Q 12.9375 14.109375 22.625 23.890625 
Q 32.328125 33.6875 34.8125 36.53125 
Q 39.546875 41.84375 41.421875 45.53125 
Q 43.3125 49.21875 43.3125 52.78125 
Q 43.3125 58.59375 39.234375 62.25 
Q 35.15625 65.921875 28.609375 65.921875 
Q 23.96875 65.921875 18.8125 64.3125 
Q 13.671875 62.703125 7.8125 59.421875 
L 7.8125 69.390625 
Q 13.765625 71.78125 18.9375 73 
Q 24.125 74.21875 28.421875 74.21875 
Q 39.75 74.21875 46.484375 68.546875 
Q 53.21875 62.890625 53.21875 53.421875 
Q 53.21875 48.921875 51.53125 44.890625 
Q 49.859375 40.875 45.40625 35.40625 
Q 44.1875 33.984375 37.640625 27.21875 
Q 31.109375 20.453125 19.1875 8.296875 
z
" id="DejaVuSans-50"/>
       <path d="M 31.78125 66.40625 
Q 24.171875 66.40625 20.328125 58.90625 
Q 16.5 51.421875 16.5 36.375 
Q 16.5 21.390625 20.328125 13.890625 
Q 24.171875 6.390625 31.78125 6.390625 
Q 39.453125 6.390625 43.28125 13.890625 
Q 47.125 21.390625 47.125 36.375 
Q 47.125 51.421875 43.28125 58.90625 
Q 39.453125 66.40625 31.78125 66.40625 
z
M 31.78125 74.21875 
Q 44.046875 74.21875 50.515625 64.515625 
Q 56.984375 54.828125 56.984375 36.375 
Q 56.984375 17.96875 50.515625 8.265625 
Q 44.046875 -1.421875 31.78125 -1.421875 
Q 19.53125 -1.421875 13.0625 8.265625 
Q 6.59375 17.96875 6.59375 36.375 
Q 6.59375 54.828125 13.0625 64.515625 
Q 19.53125 74.21875 31.78125 74.21875 
z
" id="DejaVuSans-48"/>
      </defs>
      <g transform="translate(287.971835 333.442187)scale(0.1 -0.1)">
       <use xlink:href="#DejaVuSans-50"/>
       <use x="63.623047" xlink:href="#DejaVuSans-48"/>
       <use x="127.246094" xlink:href="#DejaVuSans-48"/>
       <use x="190.869141" xlink:href="#DejaVuSans-52"/>
      </g>
     </g>
    </g>
    <g id="xtick_5">
     <g id="line2d_9">
      <path clip-path="url(#p05fb719198)" d="M 362.583544 318.84375 
L 362.583544 10.8 
" style="fill:none;stroke:#b0b0b0;stroke-linecap:square;stroke-opacity:0.5;stroke-width:0.8;"/>
     </g>
     <g id="line2d_10">
      <g>
       <use style="stroke:#000000;stroke-width:0.8;" x="362.583544" xlink:href="#m5c7563b39c" y="318.84375"/>
      </g>
     </g>
     <g id="text_5">
      <!-- 2009 -->
      <g transform="translate(349.858544 333.442187)scale(0.1 -0.1)">
       <use xlink:href="#DejaVuSans-50"/>
       <use x="63.623047" xlink:href="#DejaVuSans-48"/>
       <use x="127.246094" xlink:href="#DejaVuSans-48"/>
       <use x="190.869141" xlink:href="#DejaVuSans-57"/>
      </g>
     </g>
    </g>
    <g id="xtick_6">
     <g id="line2d_11">
      <path clip-path="url(#p05fb719198)" d="M 424.470252 318.84375 
L 424.470252 10.8 
" style="fill:none;stroke:#b0b0b0;stroke-linecap:square;stroke-opacity:0.5;stroke-width:0.8;"/>
     </g>
     <g id="line2d_12">
      <g>
       <use style="stroke:#000000;stroke-width:0.8;" x="424.470252" xlink:href="#m5c7563b39c" y="318.84375"/>
      </g>
     </g>
     <g id="text_6">
      <!-- 2014 -->
      <g transform="translate(411.745252 333.442187)scale(0.1 -0.1)">
       <use xlink:href="#DejaVuSans-50"/>
       <use x="63.623047" xlink:href="#DejaVuSans-48"/>
       <use x="127.246094" xlink:href="#DejaVuSans-49"/>
       <use x="190.869141" xlink:href="#DejaVuSans-52"/>
      </g>
     </g>
    </g>
    <g id="xtick_7">
     <g id="line2d_13">
      <path clip-path="url(#p05fb719198)" d="M 486.35696 318.84375 
L 486.35696 10.8 
" style="fill:none;stroke:#b0b0b0;stroke-linecap:square;stroke-opacity:0.5;stroke-width:0.8;"/>
     </g>
     <g id="line2d_14">
      <g>
       <use style="stroke:#000000;stroke-width:0.8;" x="486.35696" xlink:href="#m5c7563b39c" y="318.84375"/>
      </g>
     </g>
     <g id="text_7">
      <!-- 2019 -->
      <g transform="translate(473.63196 333.442187)scale(0.1 -0.1)">
       <use xlink:href="#DejaVuSans-50"/>
       <use x="63.623047" xlink:href="#DejaVuSans-48"/>
       <use x="127.246094" xlink:href="#DejaVuSans-49"/>
       <use x="190.869141" xlink:href="#DejaVuSans-57"/>
      </g>
     </g>
    </g>
    <g id="xtick_8">
     <g id="line2d_15">
      <path clip-path="url(#p05fb719198)" d="M 84.093357 318.84375 
L 84.093357 10.8 
" style="fill:none;stroke:#b0b0b0;stroke-linecap:square;stroke-opacity:0.1;stroke-width:0.8;"/>
     </g>
     <g id="line2d_16">
      <defs>
       <path d="M 0 0 
L 0 2 
" id="m7dc825c256" style="stroke:#000000;stroke-width:0.6;"/>
      </defs>
      <g>
       <use style="stroke:#000000;stroke-width:0.6;" x="84.093357" xlink:href="#m7dc825c256" y="318.84375"/>
      </g>
     </g>
    </g>
    <g id="xtick_9">
     <g id="line2d_17">
      <path clip-path="url(#p05fb719198)" d="M 99.565034 318.84375 
L 99.565034 10.8 
" style="fill:none;stroke:#b0b0b0;stroke-linecap:square;stroke-opacity:0.1;stroke-width:0.8;"/>
     </g>
     <g id="line2d_18">
      <g>
       <use style="stroke:#000000;stroke-width:0.6;" x="99.565034" xlink:href="#m7dc825c256" y="318.84375"/>
      </g>
     </g>
    </g>
    <g id="xtick_10">
     <g id="line2d_19">
      <path clip-path="url(#p05fb719198)" d="M 130.508388 318.84375 
L 130.508388 10.8 
" style="fill:none;stroke:#b0b0b0;stroke-linecap:square;stroke-opacity:0.1;stroke-width:0.8;"/>
     </g>
     <g id="line2d_20">
      <g>
       <use style="stroke:#000000;stroke-width:0.6;" x="130.508388" xlink:href="#m7dc825c256" y="318.84375"/>
      </g>
     </g>
    </g>
    <g id="xtick_11">
     <g id="line2d_21">
      <path clip-path="url(#p05fb719198)" d="M 145.980065 318.84375 
L 145.980065 10.8 
" style="fill:none;stroke:#b0b0b0;stroke-linecap:square;stroke-opacity:0.1;stroke-width:0.8;"/>
     </g>
     <g id="line2d_22">
      <g>
       <use style="stroke:#000000;stroke-width:0.6;" x="145.980065" xlink:href="#m7dc825c256" y="318.84375"/>
      </g>
     </g>
    </g>
    <g id="xtick_12">
     <g id="line2d_23">
      <path clip-path="url(#p05fb719198)" d="M 161.451742 318.84375 
L 161.451742 10.8 
" style="fill:none;stroke:#b0b0b0;stroke-linecap:square;stroke-opacity:0.1;stroke-width:0.8;"/>
     </g>
     <g id="line2d_24">
      <g>
       <use style="stroke:#000000;stroke-width:0.6;" x="161.451742" xlink:href="#m7dc825c256" y="318.84375"/>
      </g>
     </g>
    </g>
    <g id="xtick_13">
     <g id="line2d_25">
      <path clip-path="url(#p05fb719198)" d="M 192.395096 318.84375 
L 192.395096 10.8 
" style="fill:none;stroke:#b0b0b0;stroke-linecap:square;stroke-opacity:0.1;stroke-width:0.8;"/>
     </g>
     <g id="line2d_26">
      <g>
       <use style="stroke:#000000;stroke-width:0.6;" x="192.395096" xlink:href="#m7dc825c256" y="318.84375"/>
      </g>
     </g>
    </g>
    <g id="xtick_14">
     <g id="line2d_27">
      <path clip-path="url(#p05fb719198)" d="M 207.866773 318.84375 
L 207.866773 10.8 
" style="fill:none;stroke:#b0b0b0;stroke-linecap:square;stroke-opacity:0.1;stroke-width:0.8;"/>
     </g>
     <g id="line2d_28">
      <g>
       <use style="stroke:#000000;stroke-width:0.6;" x="207.866773" xlink:href="#m7dc825c256" y="318.84375"/>
      </g>
     </g>
    </g>
    <g id="xtick_15">
     <g id="line2d_29">
      <path clip-path="url(#p05fb719198)" d="M 223.33845 318.84375 
L 223.33845 10.8 
" style="fill:none;stroke:#b0b0b0;stroke-linecap:square;stroke-opacity:0.1;stroke-width:0.8;"/>
     </g>
     <g id="line2d_30">
      <g>
       <use style="stroke:#000000;stroke-width:0.6;" x="223.33845" xlink:href="#m7dc825c256" y="318.84375"/>
      </g>
     </g>
    </g>
    <g id="xtick_16">
     <g id="line2d_31">
      <path clip-path="url(#p05fb719198)" d="M 254.281804 318.84375 
L 254.281804 10.8 
" style="fill:none;stroke:#b0b0b0;stroke-linecap:square;stroke-opacity:0.1;stroke-width:0.8;"/>
     </g>
     <g id="line2d_32">
      <g>
       <use style="stroke:#000000;stroke-width:0.6;" x="254.281804" xlink:href="#m7dc825c256" y="318.84375"/>
      </g>
     </g>
    </g>
    <g id="xtick_17">
     <g id="line2d_33">
      <path clip-path="url(#p05fb719198)" d="M 269.753481 318.84375 
L 269.753481 10.8 
" style="fill:none;stroke:#b0b0b0;stroke-linecap:square;stroke-opacity:0.1;stroke-width:0.8;"/>
     </g>
     <g id="line2d_34">
      <g>
       <use style="stroke:#000000;stroke-width:0.6;" x="269.753481" xlink:href="#m7dc825c256" y="318.84375"/>
      </g>
     </g>
    </g>
    <g id="xtick_18">
     <g id="line2d_35">
      <path clip-path="url(#p05fb719198)" d="M 285.225158 318.84375 
L 285.225158 10.8 
" style="fill:none;stroke:#b0b0b0;stroke-linecap:square;stroke-opacity:0.1;stroke-width:0.8;"/>
     </g>
     <g id="line2d_36">
      <g>
       <use style="stroke:#000000;stroke-width:0.6;" x="285.225158" xlink:href="#m7dc825c256" y="318.84375"/>
      </g>
     </g>
    </g>
    <g id="xtick_19">
     <g id="line2d_37">
      <path clip-path="url(#p05fb719198)" d="M 316.168512 318.84375 
L 316.168512 10.8 
" style="fill:none;stroke:#b0b0b0;stroke-linecap:square;stroke-opacity:0.1;stroke-width:0.8;"/>
     </g>
     <g id="line2d_38">
      <g>
       <use style="stroke:#000000;stroke-width:0.6;" x="316.168512" xlink:href="#m7dc825c256" y="318.84375"/>
      </g>
     </g>
    </g>
    <g id="xtick_20">
     <g id="line2d_39">
      <path clip-path="url(#p05fb719198)" d="M 331.640189 318.84375 
L 331.640189 10.8 
" style="fill:none;stroke:#b0b0b0;stroke-linecap:square;stroke-opacity:0.1;stroke-width:0.8;"/>
     </g>
     <g id="line2d_40">
      <g>
       <use style="stroke:#000000;stroke-width:0.6;" x="331.640189" xlink:href="#m7dc825c256" y="318.84375"/>
      </g>
     </g>
    </g>
    <g id="xtick_21">
     <g id="line2d_41">
      <path clip-path="url(#p05fb719198)" d="M 347.111867 318.84375 
L 347.111867 10.8 
" style="fill:none;stroke:#b0b0b0;stroke-linecap:square;stroke-opacity:0.1;stroke-width:0.8;"/>
     </g>
     <g id="line2d_42">
      <g>
       <use style="stroke:#000000;stroke-width:0.6;" x="347.111867" xlink:href="#m7dc825c256" y="318.84375"/>
      </g>
     </g>
    </g>
    <g id="xtick_22">
     <g id="line2d_43">
      <path clip-path="url(#p05fb719198)" d="M 378.055221 318.84375 
L 378.055221 10.8 
" style="fill:none;stroke:#b0b0b0;stroke-linecap:square;stroke-opacity:0.1;stroke-width:0.8;"/>
     </g>
     <g id="line2d_44">
      <g>
       <use style="stroke:#000000;stroke-width:0.6;" x="378.055221" xlink:href="#m7dc825c256" y="318.84375"/>
      </g>
     </g>
    </g>
    <g id="xtick_23">
     <g id="line2d_45">
      <path clip-path="url(#p05fb719198)" d="M 393.526898 318.84375 
L 393.526898 10.8 
" style="fill:none;stroke:#b0b0b0;stroke-linecap:square;stroke-opacity:0.1;stroke-width:0.8;"/>
     </g>
     <g id="line2d_46">
      <g>
       <use style="stroke:#000000;stroke-width:0.6;" x="393.526898" xlink:href="#m7dc825c256" y="318.84375"/>
      </g>
     </g>
    </g>
    <g id="xtick_24">
     <g id="line2d_47">
      <path clip-path="url(#p05fb719198)" d="M 408.998575 318.84375 
L 408.998575 10.8 
" style="fill:none;stroke:#b0b0b0;stroke-linecap:square;stroke-opacity:0.1;stroke-width:0.8;"/>
     </g>
     <g id="line2d_48">
      <g>
       <use style="stroke:#000000;stroke-width:0.6;" x="408.998575" xlink:href="#m7dc825c256" y="318.84375"/>
      </g>
     </g>
    </g>
    <g id="xtick_25">
     <g id="line2d_49">
      <path clip-path="url(#p05fb719198)" d="M 439.941929 318.84375 
L 439.941929 10.8 
" style="fill:none;stroke:#b0b0b0;stroke-linecap:square;stroke-opacity:0.1;stroke-width:0.8;"/>
     </g>
     <g id="line2d_50">
      <g>
       <use style="stroke:#000000;stroke-width:0.6;" x="439.941929" xlink:href="#m7dc825c256" y="318.84375"/>
      </g>
     </g>
    </g>
    <g id="xtick_26">
     <g id="line2d_51">
      <path clip-path="url(#p05fb719198)" d="M 455.413606 318.84375 
L 455.413606 10.8 
" style="fill:none;stroke:#b0b0b0;stroke-linecap:square;stroke-opacity:0.1;stroke-width:0.8;"/>
     </g>
     <g id="line2d_52">
      <g>
       <use style="stroke:#000000;stroke-width:0.6;" x="455.413606" xlink:href="#m7dc825c256" y="318.84375"/>
      </g>
     </g>
    </g>
    <g id="xtick_27">
     <g id="line2d_53">
      <path clip-path="url(#p05fb719198)" d="M 470.885283 318.84375 
L 470.885283 10.8 
" style="fill:none;stroke:#b0b0b0;stroke-linecap:square;stroke-opacity:0.1;stroke-width:0.8;"/>
     </g>
     <g id="line2d_54">
      <g>
       <use style="stroke:#000000;stroke-width:0.6;" x="470.885283" xlink:href="#m7dc825c256" y="318.84375"/>
      </g>
     </g>
    </g>
    <g id="xtick_28">
     <g id="line2d_55">
      <path clip-path="url(#p05fb719198)" d="M 501.828637 318.84375 
L 501.828637 10.8 
" style="fill:none;stroke:#b0b0b0;stroke-linecap:square;stroke-opacity:0.1;stroke-width:0.8;"/>
     </g>
     <g id="line2d_56">
      <g>
       <use style="stroke:#000000;stroke-width:0.6;" x="501.828637" xlink:href="#m7dc825c256" y="318.84375"/>
      </g>
     </g>
    </g>
    <g id="xtick_29">
     <g id="line2d_57">
      <path clip-path="url(#p05fb719198)" d="M 517.300314 318.84375 
L 517.300314 10.8 
" style="fill:none;stroke:#b0b0b0;stroke-linecap:square;stroke-opacity:0.1;stroke-width:0.8;"/>
     </g>
     <g id="line2d_58">
      <g>
       <use style="stroke:#000000;stroke-width:0.6;" x="517.300314" xlink:href="#m7dc825c256" y="318.84375"/>
      </g>
     </g>
    </g>
    <g id="text_8">
     <!-- Year -->
     <defs>
      <path d="M -0.203125 72.90625 
L 10.40625 72.90625 
L 30.609375 42.921875 
L 50.6875 72.90625 
L 61.28125 72.90625 
L 35.5 34.71875 
L 35.5 0 
L 25.59375 0 
L 25.59375 34.71875 
z
" id="DejaVuSans-89"/>
      <path d="M 56.203125 29.59375 
L 56.203125 25.203125 
L 14.890625 25.203125 
Q 15.484375 15.921875 20.484375 11.0625 
Q 25.484375 6.203125 34.421875 6.203125 
Q 39.59375 6.203125 44.453125 7.46875 
Q 49.3125 8.734375 54.109375 11.28125 
L 54.109375 2.78125 
Q 49.265625 0.734375 44.1875 -0.34375 
Q 39.109375 -1.421875 33.890625 -1.421875 
Q 20.796875 -1.421875 13.15625 6.1875 
Q 5.515625 13.8125 5.515625 26.8125 
Q 5.515625 40.234375 12.765625 48.109375 
Q 20.015625 56 32.328125 56 
Q 43.359375 56 49.78125 48.890625 
Q 56.203125 41.796875 56.203125 29.59375 
z
M 47.21875 32.234375 
Q 47.125 39.59375 43.09375 43.984375 
Q 39.0625 48.390625 32.421875 48.390625 
Q 24.90625 48.390625 20.390625 44.140625 
Q 15.875 39.890625 15.1875 32.171875 
z
" id="DejaVuSans-101"/>
      <path d="M 34.28125 27.484375 
Q 23.390625 27.484375 19.1875 25 
Q 14.984375 22.515625 14.984375 16.5 
Q 14.984375 11.71875 18.140625 8.90625 
Q 21.296875 6.109375 26.703125 6.109375 
Q 34.1875 6.109375 38.703125 11.40625 
Q 43.21875 16.703125 43.21875 25.484375 
L 43.21875 27.484375 
z
M 52.203125 31.203125 
L 52.203125 0 
L 43.21875 0 
L 43.21875 8.296875 
Q 40.140625 3.328125 35.546875 0.953125 
Q 30.953125 -1.421875 24.3125 -1.421875 
Q 15.921875 -1.421875 10.953125 3.296875 
Q 6 8.015625 6 15.921875 
Q 6 25.140625 12.171875 29.828125 
Q 18.359375 34.515625 30.609375 34.515625 
L 43.21875 34.515625 
L 43.21875 35.40625 
Q 43.21875 41.609375 39.140625 45 
Q 35.0625 48.390625 27.6875 48.390625 
Q 23 48.390625 18.546875 47.265625 
Q 14.109375 46.140625 10.015625 43.890625 
L 10.015625 52.203125 
Q 14.9375 54.109375 19.578125 55.046875 
Q 24.21875 56 28.609375 56 
Q 40.484375 56 46.34375 49.84375 
Q 52.203125 43.703125 52.203125 31.203125 
z
" id="DejaVuSans-97"/>
      <path d="M 41.109375 46.296875 
Q 39.59375 47.171875 37.8125 47.578125 
Q 36.03125 48 33.890625 48 
Q 26.265625 48 22.1875 43.046875 
Q 18.109375 38.09375 18.109375 28.8125 
L 18.109375 0 
L 9.078125 0 
L 9.078125 54.6875 
L 18.109375 54.6875 
L 18.109375 46.1875 
Q 20.953125 51.171875 25.484375 53.578125 
Q 30.03125 56 36.53125 56 
Q 37.453125 56 38.578125 55.875 
Q 39.703125 55.765625 41.0625 55.515625 
z
" id="DejaVuSans-114"/>
     </defs>
     <g transform="translate(287.015 347.120312)scale(0.1 -0.1)">
      <use xlink:href="#DejaVuSans-89"/>
      <use x="47.833984" xlink:href="#DejaVuSans-101"/>
      <use x="109.357422" xlink:href="#DejaVuSans-97"/>
      <use x="170.636719" xlink:href="#DejaVuSans-114"/>
     </g>
    </g>
   </g>
   <g id="matplotlib.axis_2">
    <g id="ytick_1">
     <g id="line2d_59">
      <path clip-path="url(#p05fb719198)" d="M 69.653125 285.430256 
L 525.551875 285.430256 
" style="fill:none;stroke:#b0b0b0;stroke-linecap:square;stroke-opacity:0.5;stroke-width:0.8;"/>
     </g>
     <g id="line2d_60">
      <defs>
       <path d="M 0 0 
L -3.5 0 
" id="mad9909da1c" style="stroke:#000000;stroke-width:0.8;"/>
      </defs>
      <g>
       <use style="stroke:#000000;stroke-width:0.8;" x="69.653125" xlink:href="#mad9909da1c" y="285.430256"/>
      </g>
     </g>
     <g id="text_9">
      <!-- 20000 -->
      <g transform="translate(30.840625 289.229475)scale(0.1 -0.1)">
       <use xlink:href="#DejaVuSans-50"/>
       <use x="63.623047" xlink:href="#DejaVuSans-48"/>
       <use x="127.246094" xlink:href="#DejaVuSans-48"/>
       <use x="190.869141" xlink:href="#DejaVuSans-48"/>
       <use x="254.492188" xlink:href="#DejaVuSans-48"/>
      </g>
     </g>
    </g>
    <g id="ytick_2">
     <g id="line2d_61">
      <path clip-path="url(#p05fb719198)" d="M 69.653125 245.203326 
L 525.551875 245.203326 
" style="fill:none;stroke:#b0b0b0;stroke-linecap:square;stroke-opacity:0.5;stroke-width:0.8;"/>
     </g>
     <g id="line2d_62">
      <g>
       <use style="stroke:#000000;stroke-width:0.8;" x="69.653125" xlink:href="#mad9909da1c" y="245.203326"/>
      </g>
     </g>
     <g id="text_10">
      <!-- 40000 -->
      <g transform="translate(30.840625 249.002545)scale(0.1 -0.1)">
       <use xlink:href="#DejaVuSans-52"/>
       <use x="63.623047" xlink:href="#DejaVuSans-48"/>
       <use x="127.246094" xlink:href="#DejaVuSans-48"/>
       <use x="190.869141" xlink:href="#DejaVuSans-48"/>
       <use x="254.492188" xlink:href="#DejaVuSans-48"/>
      </g>
     </g>
    </g>
    <g id="ytick_3">
     <g id="line2d_63">
      <path clip-path="url(#p05fb719198)" d="M 69.653125 204.976396 
L 525.551875 204.976396 
" style="fill:none;stroke:#b0b0b0;stroke-linecap:square;stroke-opacity:0.5;stroke-width:0.8;"/>
     </g>
     <g id="line2d_64">
      <g>
       <use style="stroke:#000000;stroke-width:0.8;" x="69.653125" xlink:href="#mad9909da1c" y="204.976396"/>
      </g>
     </g>
     <g id="text_11">
      <!-- 60000 -->
      <defs>
       <path d="M 33.015625 40.375 
Q 26.375 40.375 22.484375 35.828125 
Q 18.609375 31.296875 18.609375 23.390625 
Q 18.609375 15.53125 22.484375 10.953125 
Q 26.375 6.390625 33.015625 6.390625 
Q 39.65625 6.390625 43.53125 10.953125 
Q 47.40625 15.53125 47.40625 23.390625 
Q 47.40625 31.296875 43.53125 35.828125 
Q 39.65625 40.375 33.015625 40.375 
z
M 52.59375 71.296875 
L 52.59375 62.3125 
Q 48.875 64.0625 45.09375 64.984375 
Q 41.3125 65.921875 37.59375 65.921875 
Q 27.828125 65.921875 22.671875 59.328125 
Q 17.53125 52.734375 16.796875 39.40625 
Q 19.671875 43.65625 24.015625 45.921875 
Q 28.375 48.1875 33.59375 48.1875 
Q 44.578125 48.1875 50.953125 41.515625 
Q 57.328125 34.859375 57.328125 23.390625 
Q 57.328125 12.15625 50.6875 5.359375 
Q 44.046875 -1.421875 33.015625 -1.421875 
Q 20.359375 -1.421875 13.671875 8.265625 
Q 6.984375 17.96875 6.984375 36.375 
Q 6.984375 53.65625 15.1875 63.9375 
Q 23.390625 74.21875 37.203125 74.21875 
Q 40.921875 74.21875 44.703125 73.484375 
Q 48.484375 72.75 52.59375 71.296875 
z
" id="DejaVuSans-54"/>
      </defs>
      <g transform="translate(30.840625 208.775615)scale(0.1 -0.1)">
       <use xlink:href="#DejaVuSans-54"/>
       <use x="63.623047" xlink:href="#DejaVuSans-48"/>
       <use x="127.246094" xlink:href="#DejaVuSans-48"/>
       <use x="190.869141" xlink:href="#DejaVuSans-48"/>
       <use x="254.492188" xlink:href="#DejaVuSans-48"/>
      </g>
     </g>
    </g>
    <g id="ytick_4">
     <g id="line2d_65">
      <path clip-path="url(#p05fb719198)" d="M 69.653125 164.749467 
L 525.551875 164.749467 
" style="fill:none;stroke:#b0b0b0;stroke-linecap:square;stroke-opacity:0.5;stroke-width:0.8;"/>
     </g>
     <g id="line2d_66">
      <g>
       <use style="stroke:#000000;stroke-width:0.8;" x="69.653125" xlink:href="#mad9909da1c" y="164.749467"/>
      </g>
     </g>
     <g id="text_12">
      <!-- 80000 -->
      <g transform="translate(30.840625 168.548685)scale(0.1 -0.1)">
       <use xlink:href="#DejaVuSans-56"/>
       <use x="63.623047" xlink:href="#DejaVuSans-48"/>
       <use x="127.246094" xlink:href="#DejaVuSans-48"/>
       <use x="190.869141" xlink:href="#DejaVuSans-48"/>
       <use x="254.492188" xlink:href="#DejaVuSans-48"/>
      </g>
     </g>
    </g>
    <g id="ytick_5">
     <g id="line2d_67">
      <path clip-path="url(#p05fb719198)" d="M 69.653125 124.522537 
L 525.551875 124.522537 
" style="fill:none;stroke:#b0b0b0;stroke-linecap:square;stroke-opacity:0.5;stroke-width:0.8;"/>
     </g>
     <g id="line2d_68">
      <g>
       <use style="stroke:#000000;stroke-width:0.8;" x="69.653125" xlink:href="#mad9909da1c" y="124.522537"/>
      </g>
     </g>
     <g id="text_13">
      <!-- 100000 -->
      <g transform="translate(24.478125 128.321755)scale(0.1 -0.1)">
       <use xlink:href="#DejaVuSans-49"/>
       <use x="63.623047" xlink:href="#DejaVuSans-48"/>
       <use x="127.246094" xlink:href="#DejaVuSans-48"/>
       <use x="190.869141" xlink:href="#DejaVuSans-48"/>
       <use x="254.492188" xlink:href="#DejaVuSans-48"/>
       <use x="318.115234" xlink:href="#DejaVuSans-48"/>
      </g>
     </g>
    </g>
    <g id="ytick_6">
     <g id="line2d_69">
      <path clip-path="url(#p05fb719198)" d="M 69.653125 84.295607 
L 525.551875 84.295607 
" style="fill:none;stroke:#b0b0b0;stroke-linecap:square;stroke-opacity:0.5;stroke-width:0.8;"/>
     </g>
     <g id="line2d_70">
      <g>
       <use style="stroke:#000000;stroke-width:0.8;" x="69.653125" xlink:href="#mad9909da1c" y="84.295607"/>
      </g>
     </g>
     <g id="text_14">
      <!-- 120000 -->
      <g transform="translate(24.478125 88.094825)scale(0.1 -0.1)">
       <use xlink:href="#DejaVuSans-49"/>
       <use x="63.623047" xlink:href="#DejaVuSans-50"/>
       <use x="127.246094" xlink:href="#DejaVuSans-48"/>
       <use x="190.869141" xlink:href="#DejaVuSans-48"/>
       <use x="254.492188" xlink:href="#DejaVuSans-48"/>
       <use x="318.115234" xlink:href="#DejaVuSans-48"/>
      </g>
     </g>
    </g>
    <g id="ytick_7">
     <g id="line2d_71">
      <path clip-path="url(#p05fb719198)" d="M 69.653125 44.068677 
L 525.551875 44.068677 
" style="fill:none;stroke:#b0b0b0;stroke-linecap:square;stroke-opacity:0.5;stroke-width:0.8;"/>
     </g>
     <g id="line2d_72">
      <g>
       <use style="stroke:#000000;stroke-width:0.8;" x="69.653125" xlink:href="#mad9909da1c" y="44.068677"/>
      </g>
     </g>
     <g id="text_15">
      <!-- 140000 -->
      <g transform="translate(24.478125 47.867895)scale(0.1 -0.1)">
       <use xlink:href="#DejaVuSans-49"/>
       <use x="63.623047" xlink:href="#DejaVuSans-52"/>
       <use x="127.246094" xlink:href="#DejaVuSans-48"/>
       <use x="190.869141" xlink:href="#DejaVuSans-48"/>
       <use x="254.492188" xlink:href="#DejaVuSans-48"/>
       <use x="318.115234" xlink:href="#DejaVuSans-48"/>
      </g>
     </g>
    </g>
    <g id="ytick_8">
     <g id="line2d_73">
      <path clip-path="url(#p05fb719198)" d="M 69.653125 315.600454 
L 525.551875 315.600454 
" style="fill:none;stroke:#b0b0b0;stroke-linecap:square;stroke-opacity:0.1;stroke-width:0.8;"/>
     </g>
     <g id="line2d_74">
      <defs>
       <path d="M 0 0 
L -2 0 
" id="m24f2231f18" style="stroke:#000000;stroke-width:0.6;"/>
      </defs>
      <g>
       <use style="stroke:#000000;stroke-width:0.6;" x="69.653125" xlink:href="#m24f2231f18" y="315.600454"/>
      </g>
     </g>
    </g>
    <g id="ytick_9">
     <g id="line2d_75">
      <path clip-path="url(#p05fb719198)" d="M 69.653125 305.543721 
L 525.551875 305.543721 
" style="fill:none;stroke:#b0b0b0;stroke-linecap:square;stroke-opacity:0.1;stroke-width:0.8;"/>
     </g>
     <g id="line2d_76">
      <g>
       <use style="stroke:#000000;stroke-width:0.6;" x="69.653125" xlink:href="#m24f2231f18" y="305.543721"/>
      </g>
     </g>
    </g>
    <g id="ytick_10">
     <g id="line2d_77">
      <path clip-path="url(#p05fb719198)" d="M 69.653125 295.486989 
L 525.551875 295.486989 
" style="fill:none;stroke:#b0b0b0;stroke-linecap:square;stroke-opacity:0.1;stroke-width:0.8;"/>
     </g>
     <g id="line2d_78">
      <g>
       <use style="stroke:#000000;stroke-width:0.6;" x="69.653125" xlink:href="#m24f2231f18" y="295.486989"/>
      </g>
     </g>
    </g>
    <g id="ytick_11">
     <g id="line2d_79">
      <path clip-path="url(#p05fb719198)" d="M 69.653125 275.373524 
L 525.551875 275.373524 
" style="fill:none;stroke:#b0b0b0;stroke-linecap:square;stroke-opacity:0.1;stroke-width:0.8;"/>
     </g>
     <g id="line2d_80">
      <g>
       <use style="stroke:#000000;stroke-width:0.6;" x="69.653125" xlink:href="#m24f2231f18" y="275.373524"/>
      </g>
     </g>
    </g>
    <g id="ytick_12">
     <g id="line2d_81">
      <path clip-path="url(#p05fb719198)" d="M 69.653125 265.316791 
L 525.551875 265.316791 
" style="fill:none;stroke:#b0b0b0;stroke-linecap:square;stroke-opacity:0.1;stroke-width:0.8;"/>
     </g>
     <g id="line2d_82">
      <g>
       <use style="stroke:#000000;stroke-width:0.6;" x="69.653125" xlink:href="#m24f2231f18" y="265.316791"/>
      </g>
     </g>
    </g>
    <g id="ytick_13">
     <g id="line2d_83">
      <path clip-path="url(#p05fb719198)" d="M 69.653125 255.260059 
L 525.551875 255.260059 
" style="fill:none;stroke:#b0b0b0;stroke-linecap:square;stroke-opacity:0.1;stroke-width:0.8;"/>
     </g>
     <g id="line2d_84">
      <g>
       <use style="stroke:#000000;stroke-width:0.6;" x="69.653125" xlink:href="#m24f2231f18" y="255.260059"/>
      </g>
     </g>
    </g>
    <g id="ytick_14">
     <g id="line2d_85">
      <path clip-path="url(#p05fb719198)" d="M 69.653125 235.146594 
L 525.551875 235.146594 
" style="fill:none;stroke:#b0b0b0;stroke-linecap:square;stroke-opacity:0.1;stroke-width:0.8;"/>
     </g>
     <g id="line2d_86">
      <g>
       <use style="stroke:#000000;stroke-width:0.6;" x="69.653125" xlink:href="#m24f2231f18" y="235.146594"/>
      </g>
     </g>
    </g>
    <g id="ytick_15">
     <g id="line2d_87">
      <path clip-path="url(#p05fb719198)" d="M 69.653125 225.089861 
L 525.551875 225.089861 
" style="fill:none;stroke:#b0b0b0;stroke-linecap:square;stroke-opacity:0.1;stroke-width:0.8;"/>
     </g>
     <g id="line2d_88">
      <g>
       <use style="stroke:#000000;stroke-width:0.6;" x="69.653125" xlink:href="#m24f2231f18" y="225.089861"/>
      </g>
     </g>
    </g>
    <g id="ytick_16">
     <g id="line2d_89">
      <path clip-path="url(#p05fb719198)" d="M 69.653125 215.033129 
L 525.551875 215.033129 
" style="fill:none;stroke:#b0b0b0;stroke-linecap:square;stroke-opacity:0.1;stroke-width:0.8;"/>
     </g>
     <g id="line2d_90">
      <g>
       <use style="stroke:#000000;stroke-width:0.6;" x="69.653125" xlink:href="#m24f2231f18" y="215.033129"/>
      </g>
     </g>
    </g>
    <g id="ytick_17">
     <g id="line2d_91">
      <path clip-path="url(#p05fb719198)" d="M 69.653125 194.919664 
L 525.551875 194.919664 
" style="fill:none;stroke:#b0b0b0;stroke-linecap:square;stroke-opacity:0.1;stroke-width:0.8;"/>
     </g>
     <g id="line2d_92">
      <g>
       <use style="stroke:#000000;stroke-width:0.6;" x="69.653125" xlink:href="#m24f2231f18" y="194.919664"/>
      </g>
     </g>
    </g>
    <g id="ytick_18">
     <g id="line2d_93">
      <path clip-path="url(#p05fb719198)" d="M 69.653125 184.862931 
L 525.551875 184.862931 
" style="fill:none;stroke:#b0b0b0;stroke-linecap:square;stroke-opacity:0.1;stroke-width:0.8;"/>
     </g>
     <g id="line2d_94">
      <g>
       <use style="stroke:#000000;stroke-width:0.6;" x="69.653125" xlink:href="#m24f2231f18" y="184.862931"/>
      </g>
     </g>
    </g>
    <g id="ytick_19">
     <g id="line2d_95">
      <path clip-path="url(#p05fb719198)" d="M 69.653125 174.806199 
L 525.551875 174.806199 
" style="fill:none;stroke:#b0b0b0;stroke-linecap:square;stroke-opacity:0.1;stroke-width:0.8;"/>
     </g>
     <g id="line2d_96">
      <g>
       <use style="stroke:#000000;stroke-width:0.6;" x="69.653125" xlink:href="#m24f2231f18" y="174.806199"/>
      </g>
     </g>
    </g>
    <g id="ytick_20">
     <g id="line2d_97">
      <path clip-path="url(#p05fb719198)" d="M 69.653125 154.692734 
L 525.551875 154.692734 
" style="fill:none;stroke:#b0b0b0;stroke-linecap:square;stroke-opacity:0.1;stroke-width:0.8;"/>
     </g>
     <g id="line2d_98">
      <g>
       <use style="stroke:#000000;stroke-width:0.6;" x="69.653125" xlink:href="#m24f2231f18" y="154.692734"/>
      </g>
     </g>
    </g>
    <g id="ytick_21">
     <g id="line2d_99">
      <path clip-path="url(#p05fb719198)" d="M 69.653125 144.636002 
L 525.551875 144.636002 
" style="fill:none;stroke:#b0b0b0;stroke-linecap:square;stroke-opacity:0.1;stroke-width:0.8;"/>
     </g>
     <g id="line2d_100">
      <g>
       <use style="stroke:#000000;stroke-width:0.6;" x="69.653125" xlink:href="#m24f2231f18" y="144.636002"/>
      </g>
     </g>
    </g>
    <g id="ytick_22">
     <g id="line2d_101">
      <path clip-path="url(#p05fb719198)" d="M 69.653125 134.579269 
L 525.551875 134.579269 
" style="fill:none;stroke:#b0b0b0;stroke-linecap:square;stroke-opacity:0.1;stroke-width:0.8;"/>
     </g>
     <g id="line2d_102">
      <g>
       <use style="stroke:#000000;stroke-width:0.6;" x="69.653125" xlink:href="#m24f2231f18" y="134.579269"/>
      </g>
     </g>
    </g>
    <g id="ytick_23">
     <g id="line2d_103">
      <path clip-path="url(#p05fb719198)" d="M 69.653125 114.465804 
L 525.551875 114.465804 
" style="fill:none;stroke:#b0b0b0;stroke-linecap:square;stroke-opacity:0.1;stroke-width:0.8;"/>
     </g>
     <g id="line2d_104">
      <g>
       <use style="stroke:#000000;stroke-width:0.6;" x="69.653125" xlink:href="#m24f2231f18" y="114.465804"/>
      </g>
     </g>
    </g>
    <g id="ytick_24">
     <g id="line2d_105">
      <path clip-path="url(#p05fb719198)" d="M 69.653125 104.409072 
L 525.551875 104.409072 
" style="fill:none;stroke:#b0b0b0;stroke-linecap:square;stroke-opacity:0.1;stroke-width:0.8;"/>
     </g>
     <g id="line2d_106">
      <g>
       <use style="stroke:#000000;stroke-width:0.6;" x="69.653125" xlink:href="#m24f2231f18" y="104.409072"/>
      </g>
     </g>
    </g>
    <g id="ytick_25">
     <g id="line2d_107">
      <path clip-path="url(#p05fb719198)" d="M 69.653125 94.352339 
L 525.551875 94.352339 
" style="fill:none;stroke:#b0b0b0;stroke-linecap:square;stroke-opacity:0.1;stroke-width:0.8;"/>
     </g>
     <g id="line2d_108">
      <g>
       <use style="stroke:#000000;stroke-width:0.6;" x="69.653125" xlink:href="#m24f2231f18" y="94.352339"/>
      </g>
     </g>
    </g>
    <g id="ytick_26">
     <g id="line2d_109">
      <path clip-path="url(#p05fb719198)" d="M 69.653125 74.238874 
L 525.551875 74.238874 
" style="fill:none;stroke:#b0b0b0;stroke-linecap:square;stroke-opacity:0.1;stroke-width:0.8;"/>
     </g>
     <g id="line2d_110">
      <g>
       <use style="stroke:#000000;stroke-width:0.6;" x="69.653125" xlink:href="#m24f2231f18" y="74.238874"/>
      </g>
     </g>
    </g>
    <g id="ytick_27">
     <g id="line2d_111">
      <path clip-path="url(#p05fb719198)" d="M 69.653125 64.182142 
L 525.551875 64.182142 
" style="fill:none;stroke:#b0b0b0;stroke-linecap:square;stroke-opacity:0.1;stroke-width:0.8;"/>
     </g>
     <g id="line2d_112">
      <g>
       <use style="stroke:#000000;stroke-width:0.6;" x="69.653125" xlink:href="#m24f2231f18" y="64.182142"/>
      </g>
     </g>
    </g>
    <g id="ytick_28">
     <g id="line2d_113">
      <path clip-path="url(#p05fb719198)" d="M 69.653125 54.125409 
L 525.551875 54.125409 
" style="fill:none;stroke:#b0b0b0;stroke-linecap:square;stroke-opacity:0.1;stroke-width:0.8;"/>
     </g>
     <g id="line2d_114">
      <g>
       <use style="stroke:#000000;stroke-width:0.6;" x="69.653125" xlink:href="#m24f2231f18" y="54.125409"/>
      </g>
     </g>
    </g>
    <g id="ytick_29">
     <g id="line2d_115">
      <path clip-path="url(#p05fb719198)" d="M 69.653125 34.011944 
L 525.551875 34.011944 
" style="fill:none;stroke:#b0b0b0;stroke-linecap:square;stroke-opacity:0.1;stroke-width:0.8;"/>
     </g>
     <g id="line2d_116">
      <g>
       <use style="stroke:#000000;stroke-width:0.6;" x="69.653125" xlink:href="#m24f2231f18" y="34.011944"/>
      </g>
     </g>
    </g>
    <g id="ytick_30">
     <g id="line2d_117">
      <path clip-path="url(#p05fb719198)" d="M 69.653125 23.955212 
L 525.551875 23.955212 
" style="fill:none;stroke:#b0b0b0;stroke-linecap:square;stroke-opacity:0.1;stroke-width:0.8;"/>
     </g>
     <g id="line2d_118">
      <g>
       <use style="stroke:#000000;stroke-width:0.6;" x="69.653125" xlink:href="#m24f2231f18" y="23.955212"/>
      </g>
     </g>
    </g>
    <g id="ytick_31">
     <g id="line2d_119">
      <path clip-path="url(#p05fb719198)" d="M 69.653125 13.898479 
L 525.551875 13.898479 
" style="fill:none;stroke:#b0b0b0;stroke-linecap:square;stroke-opacity:0.1;stroke-width:0.8;"/>
     </g>
     <g id="line2d_120">
      <g>
       <use style="stroke:#000000;stroke-width:0.6;" x="69.653125" xlink:href="#m24f2231f18" y="13.898479"/>
      </g>
     </g>
    </g>
    <g id="text_16">
     <!-- Equity ($) -->
     <defs>
      <path d="M 9.8125 72.90625 
L 55.90625 72.90625 
L 55.90625 64.59375 
L 19.671875 64.59375 
L 19.671875 43.015625 
L 54.390625 43.015625 
L 54.390625 34.71875 
L 19.671875 34.71875 
L 19.671875 8.296875 
L 56.78125 8.296875 
L 56.78125 0 
L 9.8125 0 
z
" id="DejaVuSans-69"/>
      <path d="M 14.796875 27.296875 
Q 14.796875 17.390625 18.875 11.75 
Q 22.953125 6.109375 30.078125 6.109375 
Q 37.203125 6.109375 41.296875 11.75 
Q 45.40625 17.390625 45.40625 27.296875 
Q 45.40625 37.203125 41.296875 42.84375 
Q 37.203125 48.484375 30.078125 48.484375 
Q 22.953125 48.484375 18.875 42.84375 
Q 14.796875 37.203125 14.796875 27.296875 
z
M 45.40625 8.203125 
Q 42.578125 3.328125 38.25 0.953125 
Q 33.9375 -1.421875 27.875 -1.421875 
Q 17.96875 -1.421875 11.734375 6.484375 
Q 5.515625 14.40625 5.515625 27.296875 
Q 5.515625 40.1875 11.734375 48.09375 
Q 17.96875 56 27.875 56 
Q 33.9375 56 38.25 53.625 
Q 42.578125 51.265625 45.40625 46.390625 
L 45.40625 54.6875 
L 54.390625 54.6875 
L 54.390625 -20.796875 
L 45.40625 -20.796875 
z
" id="DejaVuSans-113"/>
      <path d="M 8.5 21.578125 
L 8.5 54.6875 
L 17.484375 54.6875 
L 17.484375 21.921875 
Q 17.484375 14.15625 20.5 10.265625 
Q 23.53125 6.390625 29.59375 6.390625 
Q 36.859375 6.390625 41.078125 11.03125 
Q 45.3125 15.671875 45.3125 23.6875 
L 45.3125 54.6875 
L 54.296875 54.6875 
L 54.296875 0 
L 45.3125 0 
L 45.3125 8.40625 
Q 42.046875 3.421875 37.71875 1 
Q 33.40625 -1.421875 27.6875 -1.421875 
Q 18.265625 -1.421875 13.375 4.4375 
Q 8.5 10.296875 8.5 21.578125 
z
M 31.109375 56 
z
" id="DejaVuSans-117"/>
      <path d="M 9.421875 54.6875 
L 18.40625 54.6875 
L 18.40625 0 
L 9.421875 0 
z
M 9.421875 75.984375 
L 18.40625 75.984375 
L 18.40625 64.59375 
L 9.421875 64.59375 
z
" id="DejaVuSans-105"/>
      <path d="M 18.3125 70.21875 
L 18.3125 54.6875 
L 36.8125 54.6875 
L 36.8125 47.703125 
L 18.3125 47.703125 
L 18.3125 18.015625 
Q 18.3125 11.328125 20.140625 9.421875 
Q 21.96875 7.515625 27.59375 7.515625 
L 36.8125 7.515625 
L 36.8125 0 
L 27.59375 0 
Q 17.1875 0 13.234375 3.875 
Q 9.28125 7.765625 9.28125 18.015625 
L 9.28125 47.703125 
L 2.6875 47.703125 
L 2.6875 54.6875 
L 9.28125 54.6875 
L 9.28125 70.21875 
z
" id="DejaVuSans-116"/>
      <path d="M 32.171875 -5.078125 
Q 28.375 -14.84375 24.75 -17.8125 
Q 21.140625 -20.796875 15.09375 -20.796875 
L 7.90625 -20.796875 
L 7.90625 -13.28125 
L 13.1875 -13.28125 
Q 16.890625 -13.28125 18.9375 -11.515625 
Q 21 -9.765625 23.484375 -3.21875 
L 25.09375 0.875 
L 2.984375 54.6875 
L 12.5 54.6875 
L 29.59375 11.921875 
L 46.6875 54.6875 
L 56.203125 54.6875 
z
" id="DejaVuSans-121"/>
      <path id="DejaVuSans-32"/>
      <path d="M 31 75.875 
Q 24.46875 64.65625 21.28125 53.65625 
Q 18.109375 42.671875 18.109375 31.390625 
Q 18.109375 20.125 21.3125 9.0625 
Q 24.515625 -2 31 -13.1875 
L 23.1875 -13.1875 
Q 15.875 -1.703125 12.234375 9.375 
Q 8.59375 20.453125 8.59375 31.390625 
Q 8.59375 42.28125 12.203125 53.3125 
Q 15.828125 64.359375 23.1875 75.875 
z
" id="DejaVuSans-40"/>
      <path d="M 33.796875 -14.703125 
L 28.90625 -14.703125 
L 28.859375 0 
Q 23.734375 0.09375 18.609375 1.1875 
Q 13.484375 2.296875 8.296875 4.5 
L 8.296875 13.28125 
Q 13.28125 10.15625 18.375 8.5625 
Q 23.484375 6.984375 28.90625 6.9375 
L 28.90625 29.203125 
Q 18.109375 30.953125 13.203125 35.15625 
Q 8.296875 39.359375 8.296875 46.6875 
Q 8.296875 54.640625 13.625 59.21875 
Q 18.953125 63.8125 28.90625 64.5 
L 28.90625 75.984375 
L 33.796875 75.984375 
L 33.796875 64.65625 
Q 38.328125 64.453125 42.578125 63.6875 
Q 46.828125 62.9375 50.875 61.625 
L 50.875 53.078125 
Q 46.828125 55.125 42.546875 56.25 
Q 38.28125 57.375 33.796875 57.5625 
L 33.796875 36.71875 
Q 44.875 35.015625 50.09375 30.609375 
Q 55.328125 26.21875 55.328125 18.609375 
Q 55.328125 10.359375 49.78125 5.59375 
Q 44.234375 0.828125 33.796875 0.09375 
z
M 28.90625 37.59375 
L 28.90625 57.625 
Q 23.25 56.984375 20.265625 54.390625 
Q 17.28125 51.8125 17.28125 47.515625 
Q 17.28125 43.3125 20.03125 40.96875 
Q 22.796875 38.625 28.90625 37.59375 
z
M 33.796875 28.21875 
L 33.796875 7.078125 
Q 39.984375 7.90625 43.140625 10.59375 
Q 46.296875 13.28125 46.296875 17.671875 
Q 46.296875 21.96875 43.28125 24.5 
Q 40.28125 27.046875 33.796875 28.21875 
z
" id="DejaVuSans-36"/>
      <path d="M 8.015625 75.875 
L 15.828125 75.875 
Q 23.140625 64.359375 26.78125 53.3125 
Q 30.421875 42.28125 30.421875 31.390625 
Q 30.421875 20.453125 26.78125 9.375 
Q 23.140625 -1.703125 15.828125 -13.1875 
L 8.015625 -13.1875 
Q 14.5 -2 17.703125 9.0625 
Q 20.90625 20.125 20.90625 31.390625 
Q 20.90625 42.671875 17.703125 53.65625 
Q 14.5 64.65625 8.015625 75.875 
z
" id="DejaVuSans-41"/>
     </defs>
     <g transform="translate(18.398437 189.304688)rotate(-90)scale(0.1 -0.1)">
      <use xlink:href="#DejaVuSans-69"/>
      <use x="63.183594" xlink:href="#DejaVuSans-113"/>
      <use x="126.660156" xlink:href="#DejaVuSans-117"/>
      <use x="190.039062" xlink:href="#DejaVuSans-105"/>
      <use x="217.822266" xlink:href="#DejaVuSans-116"/>
      <use x="257.03125" xlink:href="#DejaVuSans-121"/>
      <use x="316.210938" xlink:href="#DejaVuSans-32"/>
      <use x="347.998047" xlink:href="#DejaVuSans-40"/>
      <use x="387.011719" xlink:href="#DejaVuSans-36"/>
      <use x="450.634766" xlink:href="#DejaVuSans-41"/>
     </g>
    </g>
   </g>
   <g id="line2d_121">
    <path clip-path="url(#p05fb719198)" d="M 90.282028 304.548105 
L 91.313473 304.178017 
L 92.344918 304.089518 
L 93.376363 304.799523 
L 94.407808 304.841761 
L 95.439253 304.42139 
L 96.470699 304.123711 
L 97.502144 304.00303 
L 98.533589 304.692922 
L 99.565034 304.783432 
L 100.596479 304.678842 
L 101.627924 304.214221 
L 102.659369 303.264866 
L 103.690814 302.963164 
L 104.72226 303.335263 
L 105.753705 303.355376 
L 106.78515 303.496171 
L 107.816595 302.760018 
L 109.879485 303.009425 
L 110.91093 302.301431 
L 111.942376 301.756356 
L 112.973821 302.146557 
L 114.005266 302.027888 
L 115.036711 301.167031 
L 116.068156 301.512983 
L 117.099601 301.319894 
L 118.131046 300.636036 
L 119.162492 299.811384 
L 120.193937 299.167753 
L 121.225382 298.228454 
L 122.256827 298.367237 
L 123.288272 298.300863 
L 126.382607 297.401791 
L 127.414053 298.379305 
L 129.476943 298.015251 
L 130.508388 298.50602 
L 131.539833 297.047794 
L 133.602723 296.47456 
L 134.634169 297.584823 
L 135.665614 297.588846 
L 136.697059 297.315303 
L 137.728504 296.43031 
L 140.822839 294.640212 
L 142.88573 294.105194 
L 143.917175 293.640573 
L 144.94862 294.048876 
L 147.01151 292.437788 
L 149.0744 291.67951 
L 150.105846 291.981212 
L 151.137291 290.116694 
L 152.168736 290.87296 
L 153.200181 290.516952 
L 154.231626 290.907153 
L 156.294516 289.768731 
L 157.325962 289.635982 
L 158.357407 288.48348 
L 159.388852 288.477446 
L 160.420297 288.055064 
L 161.451742 288.316539 
L 164.546077 286.564656 
L 165.577523 285.925048 
L 166.608968 285.571051 
L 167.640413 285.73397 
L 169.703303 284.762489 
L 170.734748 284.605604 
L 171.766193 283.567749 
L 172.797639 283.70251 
L 173.829084 283.310297 
L 174.860529 283.795032 
L 175.891974 283.420921 
L 176.923419 282.411225 
L 177.954864 283.368626 
L 178.986309 284.71824 
L 180.017755 284.796682 
L 181.0492 284.601582 
L 182.080645 284.921386 
L 183.11209 283.923758 
L 184.143535 283.358569 
L 185.17498 284.203335 
L 186.206425 284.022314 
L 187.23787 284.376311 
L 188.269316 283.82319 
L 189.300761 282.845676 
L 190.332206 281.528244 
L 191.363651 280.900704 
L 192.395096 279.971462 
L 193.426541 277.551812 
L 194.457986 276.964499 
L 195.489432 276.658774 
L 196.520877 276.145881 
L 197.552322 274.818392 
L 198.583767 274.305499 
L 199.615212 272.905602 
L 200.646657 271.859702 
L 201.678102 271.133605 
L 202.709548 271.78327 
L 204.772438 272.109108 
L 205.803883 271.940155 
L 206.835328 271.252275 
L 207.866773 272.08095 
L 208.898218 271.96228 
L 210.961109 268.935204 
L 211.992554 266.811222 
L 213.023999 267.814884 
L 214.055444 266.831335 
L 215.086889 266.624167 
L 216.118334 267.822929 
L 217.149779 266.252067 
L 219.21267 263.868622 
L 220.244115 261.551551 
L 221.27556 262.712098 
L 222.307005 261.237781 
L 223.33845 260.932056 
L 224.369895 260.322618 
L 226.432786 258.717564 
L 227.464231 257.683731 
L 228.495676 256.376356 
L 229.527121 255.919781 
L 230.558566 255.654283 
L 231.590011 254.222204 
L 232.621456 254.318749 
L 233.652902 255.955985 
L 234.684347 254.481668 
L 235.715792 253.956706 
L 236.747237 252.882647 
L 237.778682 251.309774 
L 238.810127 250.165318 
L 239.841572 251.48275 
L 241.904463 249.871662 
L 242.935908 250.816994 
L 243.967353 250.60178 
L 244.998798 251.428444 
L 246.030243 251.641647 
L 247.061688 250.947732 
L 248.093133 249.787185 
L 249.124579 249.571971 
L 250.156024 248.678933 
L 251.187469 250.032569 
L 252.218914 249.234065 
L 253.250359 246.695745 
L 254.281804 247.168412 
L 255.313249 247.168412 
L 256.344695 245.690072 
L 257.37614 245.549278 
L 258.407585 243.417251 
L 259.43903 244.813125 
L 260.470475 244.422924 
L 261.50192 244.227823 
L 262.533365 243.14773 
L 263.564811 241.669391 
L 265.627701 243.608329 
L 266.659146 242.842006 
L 267.690591 242.284863 
L 268.722036 242.475941 
L 269.753481 241.319416 
L 270.784926 241.798117 
L 271.816372 243.065265 
L 272.847817 241.621118 
L 273.879262 241.460211 
L 274.910707 241.725708 
L 276.973597 240.999612 
L 278.005042 241.452165 
L 280.067933 240.933238 
L 281.099378 241.486358 
L 282.130823 241.765935 
L 283.162268 240.83267 
L 284.193713 240.98151 
L 285.225158 239.971814 
L 286.256604 239.348297 
L 287.288049 239.374444 
L 288.319494 239.895383 
L 289.350939 239.346285 
L 290.382384 239.283934 
L 291.413829 237.682902 
L 292.445274 235.611215 
L 293.476719 235.446285 
L 294.508165 237.970524 
L 295.53961 236.890431 
L 296.571055 235.339683 
L 297.6025 234.400384 
L 298.633945 233.91565 
L 299.66539 231.506057 
L 301.728281 229.142725 
L 302.759726 229.168872 
L 303.791171 231.504045 
L 304.822616 231.359228 
L 305.854061 230.248965 
L 306.885506 230.474236 
L 307.916951 229.00193 
L 308.948396 228.398526 
L 309.979842 227.133389 
L 311.011287 226.290635 
L 312.042732 224.486457 
L 313.074177 224.408015 
L 314.105622 224.090222 
L 315.137067 224.934988 
L 316.168512 224.339629 
L 317.199958 222.519361 
L 319.262848 221.232099 
L 320.294293 220.489912 
L 321.325738 221.09935 
L 322.357183 222.674234 
L 323.388628 221.407086 
L 325.451519 219.234832 
L 326.482964 218.826528 
L 327.514409 219.498318 
L 328.545854 219.623022 
L 329.577299 220.851954 
L 330.608744 220.721217 
L 331.640189 219.419876 
L 332.671635 217.287848 
L 334.734525 213.321473 
L 335.76597 211.440864 
L 336.797415 211.477068 
L 337.82886 210.885732 
L 338.860305 210.499554 
L 339.891751 210.294397 
L 340.923196 208.341379 
L 341.954641 207.16273 
L 342.986086 208.530446 
L 344.017531 208.319254 
L 346.080421 205.107134 
L 347.111867 203.606669 
L 348.143312 202.836324 
L 349.174757 203.019356 
L 350.206202 203.56242 
L 351.237647 203.705225 
L 352.269092 203.475932 
L 353.300537 202.936891 
L 354.331982 203.409558 
L 355.363428 205.841275 
L 356.394873 206.002183 
L 357.426318 204.560048 
L 358.457763 206.271704 
L 359.489208 209.837821 
L 360.520653 205.790992 
L 361.552098 203.401512 
L 362.583544 205.002544 
L 363.614989 206.040399 
L 364.646434 202.753859 
L 366.709324 200.847102 
L 367.740769 200.764637 
L 368.772214 197.783821 
L 369.80366 196.080211 
L 370.835105 193.580107 
L 371.86655 194.121159 
L 372.897995 190.909039 
L 373.92944 192.705171 
L 374.960885 193.608266 
L 375.99233 192.310948 
L 377.023775 190.369998 
L 378.055221 188.145449 
L 379.086666 189.989854 
L 380.118111 189.16319 
L 381.149556 186.393566 
L 382.181001 185.999342 
L 383.212446 182.692689 
L 384.243891 181.23044 
L 385.275337 181.777526 
L 386.306782 180.822136 
L 387.338227 180.343436 
L 388.369672 177.54163 
L 389.401117 177.420949 
L 390.432562 174.381805 
L 391.464007 173.088509 
L 392.495452 175.095833 
L 393.526898 173.957411 
L 394.558343 172.300061 
L 395.589788 171.994337 
L 396.621233 168.858647 
L 397.652678 168.078245 
L 398.684123 166.551633 
L 400.747014 161.287939 
L 401.778459 160.539718 
L 402.809904 158.743586 
L 403.841349 158.918573 
L 405.904239 154.378964 
L 406.935684 153.127906 
L 407.96713 152.100108 
L 408.998575 153.94049 
L 410.03002 152.697478 
L 411.061465 152.856375 
L 412.09291 150.320067 
L 413.124355 148.367049 
L 414.1558 145.368132 
L 415.187245 140.51073 
L 417.250136 146.572928 
L 418.281581 145.695981 
L 419.313026 148.220221 
L 420.344471 144.712433 
L 421.375916 140.46648 
L 423.438807 140.281436 
L 424.470252 138.219806 
L 425.501697 134.535019 
L 426.533142 133.949718 
L 427.564587 131.795566 
L 428.596032 128.0082 
L 429.627477 125.771583 
L 430.658923 126.94822 
L 431.690368 120.731148 
L 432.721813 123.830633 
L 433.753258 119.701339 
L 434.784703 116.561627 
L 435.816148 114.536201 
L 436.847593 111.802781 
L 437.879038 110.392827 
L 440.973374 111.100821 
L 442.004819 114.409486 
L 443.036264 110.018717 
L 444.067709 115.553943 
L 445.099154 114.944505 
L 446.1306 110.917789 
L 447.162045 111.09881 
L 448.19349 112.376015 
L 450.25638 110.169568 
L 451.287825 105.515312 
L 452.31927 105.450949 
L 453.350715 103.089628 
L 454.382161 97.954661 
L 455.413606 94.247749 
L 456.445051 94.718404 
L 457.476496 95.329854 
L 459.539386 100.41856 
L 460.570831 99.079003 
L 461.602277 97.258735 
L 462.633722 91.391637 
L 463.665167 91.801952 
L 464.696612 89.277712 
L 465.728057 85.667345 
L 466.759502 84.176937 
L 467.790947 82.25409 
L 468.822393 79.100299 
L 469.853838 78.514997 
L 470.885283 75.097719 
L 471.916728 69.864196 
L 472.948173 66.720461 
L 473.979618 62.892869 
L 475.011063 68.834386 
L 476.042508 67.885031 
L 477.073954 69.166258 
L 478.105399 65.83748 
L 479.136844 64.785546 
L 480.168289 60.668319 
L 481.199734 56.018086 
L 482.231179 58.045524 
L 483.262624 71.342535 
L 484.29407 68.301379 
L 485.325515 68.66141 
L 486.35696 63.842224 
L 487.388405 62.313601 
L 488.41985 55.169298 
L 489.451295 51.820406 
L 490.48274 54.940005 
L 491.514186 46.932834 
L 492.545631 44.96976 
L 493.577076 37.65047 
L 494.608521 37.533812 
L 495.639966 35.697453 
L 496.671411 32.537627 
L 497.702856 31.175946 
L 498.734301 24.801989 
L 499.765747 29.277235 
L 500.797192 31.226229 
L 501.828637 27.73252 
L 502.860082 26.340669 
L 503.891527 25.312871 
L 503.891527 25.312871 
" style="fill:none;stroke:#000000;stroke-linecap:square;stroke-width:1.5;"/>
   </g>
   <g id="patch_3">
    <path d="M 69.653125 318.84375 
L 69.653125 10.8 
" style="fill:none;stroke:#000000;stroke-linecap:square;stroke-linejoin:miter;stroke-width:0.8;"/>
   </g>
   <g id="patch_4">
    <path d="M 525.551875 318.84375 
L 525.551875 10.8 
" style="fill:none;stroke:#000000;stroke-linecap:square;stroke-linejoin:miter;stroke-width:0.8;"/>
   </g>
   <g id="patch_5">
    <path d="M 69.653125 318.84375 
L 525.551875 318.84375 
" style="fill:none;stroke:#000000;stroke-linecap:square;stroke-linejoin:miter;stroke-width:0.8;"/>
   </g>
   <g id="patch_6">
    <path d="M 69.653125 10.8 
L 525.551875 10.8 
" style="fill:none;stroke:#000000;stroke-linecap:square;stroke-linejoin:miter;stroke-width:0.8;"/>
   </g>
  </g>
  <g id="axes_2">
   <g id="matplotlib.axis_3">
    <g id="ytick_32">
     <g id="line2d_122">
      <defs>
       <path d="M 0 0 
L 3.5 0 
" id="m05a5ce6e9f" style="stroke:#000000;stroke-width:0.8;"/>
      </defs>
      <g>
       <use style="stroke:#000000;stroke-width:0.8;" x="525.551875" xlink:href="#m05a5ce6e9f" y="304.548105"/>
      </g>
     </g>
     <g id="text_17">
      <!-- 0 -->
      <g transform="translate(532.551875 308.347324)scale(0.1 -0.1)">
       <use xlink:href="#DejaVuSans-48"/>
      </g>
     </g>
    </g>
    <g id="ytick_33">
     <g id="line2d_123">
      <g>
       <use style="stroke:#000000;stroke-width:0.8;" x="525.551875" xlink:href="#m05a5ce6e9f" y="262.329942"/>
      </g>
     </g>
     <g id="text_18">
      <!-- 200 -->
      <g transform="translate(532.551875 266.129161)scale(0.1 -0.1)">
       <use xlink:href="#DejaVuSans-50"/>
       <use x="63.623047" xlink:href="#DejaVuSans-48"/>
       <use x="127.246094" xlink:href="#DejaVuSans-48"/>
      </g>
     </g>
    </g>
    <g id="ytick_34">
     <g id="line2d_124">
      <g>
       <use style="stroke:#000000;stroke-width:0.8;" x="525.551875" xlink:href="#m05a5ce6e9f" y="220.111779"/>
      </g>
     </g>
     <g id="text_19">
      <!-- 400 -->
      <g transform="translate(532.551875 223.910998)scale(0.1 -0.1)">
       <use xlink:href="#DejaVuSans-52"/>
       <use x="63.623047" xlink:href="#DejaVuSans-48"/>
       <use x="127.246094" xlink:href="#DejaVuSans-48"/>
      </g>
     </g>
    </g>
    <g id="ytick_35">
     <g id="line2d_125">
      <g>
       <use style="stroke:#000000;stroke-width:0.8;" x="525.551875" xlink:href="#m05a5ce6e9f" y="177.893616"/>
      </g>
     </g>
     <g id="text_20">
      <!-- 600 -->
      <g transform="translate(532.551875 181.692835)scale(0.1 -0.1)">
       <use xlink:href="#DejaVuSans-54"/>
       <use x="63.623047" xlink:href="#DejaVuSans-48"/>
       <use x="127.246094" xlink:href="#DejaVuSans-48"/>
      </g>
     </g>
    </g>
    <g id="ytick_36">
     <g id="line2d_126">
      <g>
       <use style="stroke:#000000;stroke-width:0.8;" x="525.551875" xlink:href="#m05a5ce6e9f" y="135.675453"/>
      </g>
     </g>
     <g id="text_21">
      <!-- 800 -->
      <g transform="translate(532.551875 139.474672)scale(0.1 -0.1)">
       <use xlink:href="#DejaVuSans-56"/>
       <use x="63.623047" xlink:href="#DejaVuSans-48"/>
       <use x="127.246094" xlink:href="#DejaVuSans-48"/>
      </g>
     </g>
    </g>
    <g id="ytick_37">
     <g id="line2d_127">
      <g>
       <use style="stroke:#000000;stroke-width:0.8;" x="525.551875" xlink:href="#m05a5ce6e9f" y="93.45729"/>
      </g>
     </g>
     <g id="text_22">
      <!-- 1000 -->
      <g transform="translate(532.551875 97.256509)scale(0.1 -0.1)">
       <use xlink:href="#DejaVuSans-49"/>
       <use x="63.623047" xlink:href="#DejaVuSans-48"/>
       <use x="127.246094" xlink:href="#DejaVuSans-48"/>
       <use x="190.869141" xlink:href="#DejaVuSans-48"/>
      </g>
     </g>
    </g>
    <g id="ytick_38">
     <g id="line2d_128">
      <g>
       <use style="stroke:#000000;stroke-width:0.8;" x="525.551875" xlink:href="#m05a5ce6e9f" y="51.239127"/>
      </g>
     </g>
     <g id="text_23">
      <!-- 1200 -->
      <g transform="translate(532.551875 55.038346)scale(0.1 -0.1)">
       <use xlink:href="#DejaVuSans-49"/>
       <use x="63.623047" xlink:href="#DejaVuSans-50"/>
       <use x="127.246094" xlink:href="#DejaVuSans-48"/>
       <use x="190.869141" xlink:href="#DejaVuSans-48"/>
      </g>
     </g>
    </g>
    <g id="text_24">
     <!-- Return (%) -->
     <defs>
      <path d="M 44.390625 34.1875 
Q 47.5625 33.109375 50.5625 29.59375 
Q 53.5625 26.078125 56.59375 19.921875 
L 66.609375 0 
L 56 0 
L 46.6875 18.703125 
Q 43.0625 26.03125 39.671875 28.421875 
Q 36.28125 30.8125 30.421875 30.8125 
L 19.671875 30.8125 
L 19.671875 0 
L 9.8125 0 
L 9.8125 72.90625 
L 32.078125 72.90625 
Q 44.578125 72.90625 50.734375 67.671875 
Q 56.890625 62.453125 56.890625 51.90625 
Q 56.890625 45.015625 53.6875 40.46875 
Q 50.484375 35.9375 44.390625 34.1875 
z
M 19.671875 64.796875 
L 19.671875 38.921875 
L 32.078125 38.921875 
Q 39.203125 38.921875 42.84375 42.21875 
Q 46.484375 45.515625 46.484375 51.90625 
Q 46.484375 58.296875 42.84375 61.546875 
Q 39.203125 64.796875 32.078125 64.796875 
z
" id="DejaVuSans-82"/>
      <path d="M 54.890625 33.015625 
L 54.890625 0 
L 45.90625 0 
L 45.90625 32.71875 
Q 45.90625 40.484375 42.875 44.328125 
Q 39.84375 48.1875 33.796875 48.1875 
Q 26.515625 48.1875 22.3125 43.546875 
Q 18.109375 38.921875 18.109375 30.90625 
L 18.109375 0 
L 9.078125 0 
L 9.078125 54.6875 
L 18.109375 54.6875 
L 18.109375 46.1875 
Q 21.34375 51.125 25.703125 53.5625 
Q 30.078125 56 35.796875 56 
Q 45.21875 56 50.046875 50.171875 
Q 54.890625 44.34375 54.890625 33.015625 
z
" id="DejaVuSans-110"/>
      <path d="M 72.703125 32.078125 
Q 68.453125 32.078125 66.03125 28.46875 
Q 63.625 24.859375 63.625 18.40625 
Q 63.625 12.0625 66.03125 8.421875 
Q 68.453125 4.78125 72.703125 4.78125 
Q 76.859375 4.78125 79.265625 8.421875 
Q 81.6875 12.0625 81.6875 18.40625 
Q 81.6875 24.8125 79.265625 28.4375 
Q 76.859375 32.078125 72.703125 32.078125 
z
M 72.703125 38.28125 
Q 80.421875 38.28125 84.953125 32.90625 
Q 89.5 27.546875 89.5 18.40625 
Q 89.5 9.28125 84.9375 3.921875 
Q 80.375 -1.421875 72.703125 -1.421875 
Q 64.890625 -1.421875 60.34375 3.921875 
Q 55.8125 9.28125 55.8125 18.40625 
Q 55.8125 27.59375 60.375 32.9375 
Q 64.9375 38.28125 72.703125 38.28125 
z
M 22.3125 68.015625 
Q 18.109375 68.015625 15.6875 64.375 
Q 13.28125 60.75 13.28125 54.390625 
Q 13.28125 47.953125 15.671875 44.328125 
Q 18.0625 40.71875 22.3125 40.71875 
Q 26.5625 40.71875 28.96875 44.328125 
Q 31.390625 47.953125 31.390625 54.390625 
Q 31.390625 60.6875 28.953125 64.34375 
Q 26.515625 68.015625 22.3125 68.015625 
z
M 66.40625 74.21875 
L 74.21875 74.21875 
L 28.609375 -1.421875 
L 20.796875 -1.421875 
z
M 22.3125 74.21875 
Q 30.03125 74.21875 34.609375 68.875 
Q 39.203125 63.53125 39.203125 54.390625 
Q 39.203125 45.171875 34.640625 39.84375 
Q 30.078125 34.515625 22.3125 34.515625 
Q 14.546875 34.515625 10.03125 39.859375 
Q 5.515625 45.21875 5.515625 54.390625 
Q 5.515625 63.484375 10.046875 68.84375 
Q 14.59375 74.21875 22.3125 74.21875 
z
" id="DejaVuSans-37"/>
     </defs>
     <g transform="translate(569.600312 191.654688)rotate(-90)scale(0.1 -0.1)">
      <use xlink:href="#DejaVuSans-82"/>
      <use x="64.982422" xlink:href="#DejaVuSans-101"/>
      <use x="126.505859" xlink:href="#DejaVuSans-116"/>
      <use x="165.714844" xlink:href="#DejaVuSans-117"/>
      <use x="229.09375" xlink:href="#DejaVuSans-114"/>
      <use x="268.457031" xlink:href="#DejaVuSans-110"/>
      <use x="331.835938" xlink:href="#DejaVuSans-32"/>
      <use x="363.623047" xlink:href="#DejaVuSans-40"/>
      <use x="402.636719" xlink:href="#DejaVuSans-37"/>
      <use x="497.65625" xlink:href="#DejaVuSans-41"/>
     </g>
    </g>
   </g>
   <g id="line2d_129">
    <path clip-path="url(#p05fb719198)" d="M 90.282028 304.548105 
L 91.313473 304.178017 
L 92.344918 304.089518 
L 93.376363 304.799523 
L 94.407808 304.841761 
L 95.439253 304.42139 
L 96.470699 304.123711 
L 97.502144 304.00303 
L 98.533589 304.692922 
L 99.565034 304.783432 
L 100.596479 304.678842 
L 101.627924 304.214221 
L 102.659369 303.264866 
L 103.690814 302.963164 
L 104.72226 303.335263 
L 105.753705 303.355376 
L 106.78515 303.496171 
L 107.816595 302.760018 
L 109.879485 303.009425 
L 110.91093 302.301431 
L 111.942376 301.756356 
L 112.973821 302.146557 
L 114.005266 302.027888 
L 115.036711 301.167031 
L 116.068156 301.512983 
L 117.099601 301.319894 
L 118.131046 300.636036 
L 119.162492 299.811384 
L 120.193937 299.167753 
L 121.225382 298.228454 
L 122.256827 298.367237 
L 123.288272 298.300863 
L 126.382607 297.401791 
L 127.414053 298.379305 
L 129.476943 298.015251 
L 130.508388 298.50602 
L 131.539833 297.047794 
L 133.602723 296.47456 
L 134.634169 297.584823 
L 135.665614 297.588846 
L 136.697059 297.315303 
L 137.728504 296.43031 
L 140.822839 294.640212 
L 142.88573 294.105194 
L 143.917175 293.640573 
L 144.94862 294.048876 
L 147.01151 292.437788 
L 149.0744 291.67951 
L 150.105846 291.981212 
L 151.137291 290.116694 
L 152.168736 290.87296 
L 153.200181 290.516952 
L 154.231626 290.907153 
L 156.294516 289.768731 
L 157.325962 289.635982 
L 158.357407 288.48348 
L 159.388852 288.477446 
L 160.420297 288.055064 
L 161.451742 288.316539 
L 164.546077 286.564656 
L 165.577523 285.925048 
L 166.608968 285.571051 
L 167.640413 285.73397 
L 169.703303 284.762489 
L 170.734748 284.605604 
L 171.766193 283.567749 
L 172.797639 283.70251 
L 173.829084 283.310297 
L 174.860529 283.795032 
L 175.891974 283.420921 
L 176.923419 282.411225 
L 177.954864 283.368626 
L 178.986309 284.71824 
L 180.017755 284.796682 
L 181.0492 284.601582 
L 182.080645 284.921386 
L 183.11209 283.923758 
L 184.143535 283.358569 
L 185.17498 284.203335 
L 186.206425 284.022314 
L 187.23787 284.376311 
L 188.269316 283.82319 
L 189.300761 282.845676 
L 190.332206 281.528244 
L 191.363651 280.900704 
L 192.395096 279.971462 
L 193.426541 277.551812 
L 194.457986 276.964499 
L 195.489432 276.658774 
L 196.520877 276.145881 
L 197.552322 274.818392 
L 198.583767 274.305499 
L 199.615212 272.905602 
L 200.646657 271.859702 
L 201.678102 271.133605 
L 202.709548 271.78327 
L 204.772438 272.109108 
L 205.803883 271.940155 
L 206.835328 271.252275 
L 207.866773 272.08095 
L 208.898218 271.96228 
L 210.961109 268.935204 
L 211.992554 266.811222 
L 213.023999 267.814884 
L 214.055444 266.831335 
L 215.086889 266.624167 
L 216.118334 267.822929 
L 217.149779 266.252067 
L 219.21267 263.868622 
L 220.244115 261.551551 
L 221.27556 262.712098 
L 222.307005 261.237781 
L 223.33845 260.932056 
L 224.369895 260.322618 
L 226.432786 258.717564 
L 227.464231 257.683731 
L 228.495676 256.376356 
L 229.527121 255.919781 
L 230.558566 255.654283 
L 231.590011 254.222204 
L 232.621456 254.318749 
L 233.652902 255.955985 
L 234.684347 254.481668 
L 235.715792 253.956706 
L 236.747237 252.882647 
L 237.778682 251.309774 
L 238.810127 250.165318 
L 239.841572 251.48275 
L 241.904463 249.871662 
L 242.935908 250.816994 
L 243.967353 250.60178 
L 244.998798 251.428444 
L 246.030243 251.641647 
L 247.061688 250.947732 
L 248.093133 249.787185 
L 249.124579 249.571971 
L 250.156024 248.678933 
L 251.187469 250.032569 
L 252.218914 249.234065 
L 253.250359 246.695745 
L 254.281804 247.168412 
L 255.313249 247.168412 
L 256.344695 245.690072 
L 257.37614 245.549278 
L 258.407585 243.417251 
L 259.43903 244.813125 
L 260.470475 244.422924 
L 261.50192 244.227823 
L 262.533365 243.14773 
L 263.564811 241.669391 
L 265.627701 243.608329 
L 266.659146 242.842006 
L 267.690591 242.284863 
L 268.722036 242.475941 
L 269.753481 241.319416 
L 270.784926 241.798117 
L 271.816372 243.065265 
L 272.847817 241.621118 
L 273.879262 241.460211 
L 274.910707 241.725708 
L 276.973597 240.999612 
L 278.005042 241.452165 
L 280.067933 240.933238 
L 281.099378 241.486358 
L 282.130823 241.765935 
L 283.162268 240.83267 
L 284.193713 240.98151 
L 285.225158 239.971814 
L 286.256604 239.348297 
L 287.288049 239.374444 
L 288.319494 239.895383 
L 289.350939 239.346285 
L 290.382384 239.283934 
L 291.413829 237.682902 
L 292.445274 235.611215 
L 293.476719 235.446285 
L 294.508165 237.970524 
L 295.53961 236.890431 
L 296.571055 235.339683 
L 297.6025 234.400384 
L 298.633945 233.91565 
L 299.66539 231.506057 
L 301.728281 229.142725 
L 302.759726 229.168872 
L 303.791171 231.504045 
L 304.822616 231.359228 
L 305.854061 230.248965 
L 306.885506 230.474236 
L 307.916951 229.00193 
L 308.948396 228.398526 
L 309.979842 227.133389 
L 311.011287 226.290635 
L 312.042732 224.486457 
L 313.074177 224.408015 
L 314.105622 224.090222 
L 315.137067 224.934988 
L 316.168512 224.339629 
L 317.199958 222.519361 
L 319.262848 221.232099 
L 320.294293 220.489912 
L 321.325738 221.09935 
L 322.357183 222.674234 
L 323.388628 221.407086 
L 325.451519 219.234832 
L 326.482964 218.826528 
L 327.514409 219.498318 
L 328.545854 219.623022 
L 329.577299 220.851954 
L 330.608744 220.721217 
L 331.640189 219.419876 
L 332.671635 217.287848 
L 334.734525 213.321473 
L 335.76597 211.440864 
L 336.797415 211.477068 
L 337.82886 210.885732 
L 338.860305 210.499554 
L 339.891751 210.294397 
L 340.923196 208.341379 
L 341.954641 207.16273 
L 342.986086 208.530446 
L 344.017531 208.319254 
L 346.080421 205.107134 
L 347.111867 203.606669 
L 348.143312 202.836324 
L 349.174757 203.019356 
L 350.206202 203.56242 
L 351.237647 203.705225 
L 352.269092 203.475932 
L 353.300537 202.936891 
L 354.331982 203.409558 
L 355.363428 205.841275 
L 356.394873 206.002183 
L 357.426318 204.560048 
L 358.457763 206.271704 
L 359.489208 209.837821 
L 360.520653 205.790992 
L 361.552098 203.401512 
L 362.583544 205.002544 
L 363.614989 206.040399 
L 364.646434 202.753859 
L 366.709324 200.847102 
L 367.740769 200.764637 
L 368.772214 197.783821 
L 369.80366 196.080211 
L 370.835105 193.580107 
L 371.86655 194.121159 
L 372.897995 190.909039 
L 373.92944 192.705171 
L 374.960885 193.608266 
L 375.99233 192.310948 
L 377.023775 190.369998 
L 378.055221 188.145449 
L 379.086666 189.989854 
L 380.118111 189.16319 
L 381.149556 186.393566 
L 382.181001 185.999342 
L 383.212446 182.692689 
L 384.243891 181.23044 
L 385.275337 181.777526 
L 386.306782 180.822136 
L 387.338227 180.343436 
L 388.369672 177.54163 
L 389.401117 177.420949 
L 390.432562 174.381805 
L 391.464007 173.088509 
L 392.495452 175.095833 
L 393.526898 173.957411 
L 394.558343 172.300061 
L 395.589788 171.994337 
L 396.621233 168.858647 
L 397.652678 168.078245 
L 398.684123 166.551633 
L 400.747014 161.287939 
L 401.778459 160.539718 
L 402.809904 158.743586 
L 403.841349 158.918573 
L 405.904239 154.378964 
L 406.935684 153.127906 
L 407.96713 152.100108 
L 408.998575 153.94049 
L 410.03002 152.697478 
L 411.061465 152.856375 
L 412.09291 150.320067 
L 413.124355 148.367049 
L 414.1558 145.368132 
L 415.187245 140.51073 
L 417.250136 146.572928 
L 418.281581 145.695981 
L 419.313026 148.220221 
L 420.344471 144.712433 
L 421.375916 140.46648 
L 423.438807 140.281436 
L 424.470252 138.219806 
L 425.501697 134.535019 
L 426.533142 133.949718 
L 427.564587 131.795566 
L 428.596032 128.0082 
L 429.627477 125.771583 
L 430.658923 126.94822 
L 431.690368 120.731148 
L 432.721813 123.830633 
L 433.753258 119.701339 
L 434.784703 116.561627 
L 435.816148 114.536201 
L 436.847593 111.802781 
L 437.879038 110.392827 
L 440.973374 111.100821 
L 442.004819 114.409486 
L 443.036264 110.018717 
L 444.067709 115.553943 
L 445.099154 114.944505 
L 446.1306 110.917789 
L 447.162045 111.09881 
L 448.19349 112.376015 
L 450.25638 110.169568 
L 451.287825 105.515312 
L 452.31927 105.450949 
L 453.350715 103.089628 
L 454.382161 97.954661 
L 455.413606 94.247749 
L 456.445051 94.718404 
L 457.476496 95.329854 
L 459.539386 100.41856 
L 460.570831 99.079003 
L 461.602277 97.258735 
L 462.633722 91.391637 
L 463.665167 91.801952 
L 464.696612 89.277712 
L 465.728057 85.667345 
L 466.759502 84.176937 
L 467.790947 82.25409 
L 468.822393 79.100299 
L 469.853838 78.514997 
L 470.885283 75.097719 
L 471.916728 69.864196 
L 472.948173 66.720461 
L 473.979618 62.892869 
L 475.011063 68.834386 
L 476.042508 67.885031 
L 477.073954 69.166258 
L 478.105399 65.83748 
L 479.136844 64.785546 
L 480.168289 60.668319 
L 481.199734 56.018086 
L 482.231179 58.045524 
L 483.262624 71.342535 
L 484.29407 68.301379 
L 485.325515 68.66141 
L 486.35696 63.842224 
L 487.388405 62.313601 
L 488.41985 55.169298 
L 489.451295 51.820406 
L 490.48274 54.940005 
L 491.514186 46.932834 
L 492.545631 44.96976 
L 493.577076 37.65047 
L 494.608521 37.533812 
L 495.639966 35.697453 
L 496.671411 32.537627 
L 497.702856 31.175946 
L 498.734301 24.801989 
L 499.765747 29.277235 
L 500.797192 31.226229 
L 501.828637 27.73252 
L 502.860082 26.340669 
L 503.891527 25.312871 
L 503.891527 25.312871 
" style="fill:none;stroke:#000000;stroke-linecap:square;stroke-width:1.5;"/>
   </g>
   <g id="patch_7">
    <path d="M 69.653125 318.84375 
L 69.653125 10.8 
" style="fill:none;stroke:#000000;stroke-linecap:square;stroke-linejoin:miter;stroke-width:0.8;"/>
   </g>
   <g id="patch_8">
    <path d="M 525.551875 318.84375 
L 525.551875 10.8 
" style="fill:none;stroke:#000000;stroke-linecap:square;stroke-linejoin:miter;stroke-width:0.8;"/>
   </g>
   <g id="patch_9">
    <path d="M 69.653125 318.84375 
L 525.551875 318.84375 
" style="fill:none;stroke:#000000;stroke-linecap:square;stroke-linejoin:miter;stroke-width:0.8;"/>
   </g>
   <g id="patch_10">
    <path d="M 69.653125 10.8 
L 525.551875 10.8 
" style="fill:none;stroke:#000000;stroke-linecap:square;stroke-linejoin:miter;stroke-width:0.8;"/>
   </g>
  </g>
 </g>
 <defs>
  <clipPath id="p05fb719198">
   <rect height="308.04375" width="455.89875" x="69.653125" y="10.8"/>
  </clipPath>
 </defs>
</svg>
