<?xml version="1.0" encoding="utf-8" standalone="no"?>
<!DOCTYPE svg PUBLIC "-//W3C//DTD SVG 1.1//EN"
  "http://www.w3.org/Graphics/SVG/1.1/DTD/svg11.dtd">
<!-- Created with matplotlib (https://matplotlib.org/) -->
<svg height="345.6pt" version="1.1" viewBox="0 0 460.8 345.6" width="460.8pt" xmlns="http://www.w3.org/2000/svg" xmlns:xlink="http://www.w3.org/1999/xlink">
 <defs>
  <style type="text/css">
*{stroke-linecap:butt;stroke-linejoin:round;}
  </style>
 </defs>
 <g id="figure_1">
  <g id="patch_1">
   <path d="M 0 345.6 
L 460.8 345.6 
L 460.8 0 
L 0 0 
z
" style="fill:#ffffff;"/>
  </g>
  <g id="axes_1">
   <g id="patch_2">
    <path d="M 57.6 307.584 
L 414.72 307.584 
L 414.72 41.472 
L 57.6 41.472 
z
" style="fill:#ffffff;"/>
   </g>
   <g id="matplotlib.axis_1">
    <g id="xtick_1">
     <g id="line2d_1">
      <defs>
       <path d="M 0 0 
L 0 3.5 
" id="m48535e49cf" style="stroke:#000000;stroke-width:0.8;"/>
      </defs>
      <g>
       <use style="stroke:#000000;stroke-width:0.8;" x="82.7445" xlink:href="#m48535e49cf" y="307.584"/>
      </g>
     </g>
     <g id="text_1">
      <!-- 1988 -->
      <defs>
       <path d="M 12.40625 8.296875 
L 28.515625 8.296875 
L 28.515625 63.921875 
L 10.984375 60.40625 
L 10.984375 69.390625 
L 28.421875 72.90625 
L 38.28125 72.90625 
L 38.28125 8.296875 
L 54.390625 8.296875 
L 54.390625 0 
L 12.40625 0 
z
" id="DejaVuSans-49"/>
       <path d="M 10.984375 1.515625 
L 10.984375 10.5 
Q 14.703125 8.734375 18.5 7.8125 
Q 22.3125 6.890625 25.984375 6.890625 
Q 35.75 6.890625 40.890625 13.453125 
Q 46.046875 20.015625 46.78125 33.40625 
Q 43.953125 29.203125 39.59375 26.953125 
Q 35.25 24.703125 29.984375 24.703125 
Q 19.046875 24.703125 12.671875 31.3125 
Q 6.296875 37.9375 6.296875 49.421875 
Q 6.296875 60.640625 12.9375 67.421875 
Q 19.578125 74.21875 30.609375 74.21875 
Q 43.265625 74.21875 49.921875 64.515625 
Q 56.59375 54.828125 56.59375 36.375 
Q 56.59375 19.140625 48.40625 8.859375 
Q 40.234375 -1.421875 26.421875 -1.421875 
Q 22.703125 -1.421875 18.890625 -0.6875 
Q 15.09375 0.046875 10.984375 1.515625 
z
M 30.609375 32.421875 
Q 37.25 32.421875 41.125 36.953125 
Q 45.015625 41.5 45.015625 49.421875 
Q 45.015625 57.28125 41.125 61.84375 
Q 37.25 66.40625 30.609375 66.40625 
Q 23.96875 66.40625 20.09375 61.84375 
Q 16.21875 57.28125 16.21875 49.421875 
Q 16.21875 41.5 20.09375 36.953125 
Q 23.96875 32.421875 30.609375 32.421875 
z
" id="DejaVuSans-57"/>
       <path d="M 31.78125 34.625 
Q 24.75 34.625 20.71875 30.859375 
Q 16.703125 27.09375 16.703125 20.515625 
Q 16.703125 13.921875 20.71875 10.15625 
Q 24.75 6.390625 31.78125 6.390625 
Q 38.8125 6.390625 42.859375 10.171875 
Q 46.921875 13.96875 46.921875 20.515625 
Q 46.921875 27.09375 42.890625 30.859375 
Q 38.875 34.625 31.78125 34.625 
z
M 21.921875 38.8125 
Q 15.578125 40.375 12.03125 44.71875 
Q 8.5 49.078125 8.5 55.328125 
Q 8.5 64.0625 14.71875 69.140625 
Q 20.953125 74.21875 31.78125 74.21875 
Q 42.671875 74.21875 48.875 69.140625 
Q 55.078125 64.0625 55.078125 55.328125 
Q 55.078125 49.078125 51.53125 44.71875 
Q 48 40.375 41.703125 38.8125 
Q 48.828125 37.15625 52.796875 32.3125 
Q 56.78125 27.484375 56.78125 20.515625 
Q 56.78125 9.90625 50.3125 4.234375 
Q 43.84375 -1.421875 31.78125 -1.421875 
Q 19.734375 -1.421875 13.25 4.234375 
Q 6.78125 9.90625 6.78125 20.515625 
Q 6.78125 27.484375 10.78125 32.3125 
Q 14.796875 37.15625 21.921875 38.8125 
z
M 18.3125 54.390625 
Q 18.3125 48.734375 21.84375 45.5625 
Q 25.390625 42.390625 31.78125 42.390625 
Q 38.140625 42.390625 41.71875 45.5625 
Q 45.3125 48.734375 45.3125 54.390625 
Q 45.3125 60.0625 41.71875 63.234375 
Q 38.140625 66.40625 31.78125 66.40625 
Q 25.390625 66.40625 21.84375 63.234375 
Q 18.3125 60.0625 18.3125 54.390625 
z
" id="DejaVuSans-56"/>
      </defs>
      <g transform="translate(70.0195 322.182437)scale(0.1 -0.1)">
       <use xlink:href="#DejaVuSans-49"/>
       <use x="63.623047" xlink:href="#DejaVuSans-57"/>
       <use x="127.246094" xlink:href="#DejaVuSans-56"/>
       <use x="190.869141" xlink:href="#DejaVuSans-56"/>
      </g>
     </g>
    </g>
    <g id="xtick_2">
     <g id="line2d_2">
      <g>
       <use style="stroke:#000000;stroke-width:0.8;" x="121.610469" xlink:href="#m48535e49cf" y="307.584"/>
      </g>
     </g>
     <g id="text_2">
      <!-- 1992 -->
      <defs>
       <path d="M 19.1875 8.296875 
L 53.609375 8.296875 
L 53.609375 0 
L 7.328125 0 
L 7.328125 8.296875 
Q 12.9375 14.109375 22.625 23.890625 
Q 32.328125 33.6875 34.8125 36.53125 
Q 39.546875 41.84375 41.421875 45.53125 
Q 43.3125 49.21875 43.3125 52.78125 
Q 43.3125 58.59375 39.234375 62.25 
Q 35.15625 65.921875 28.609375 65.921875 
Q 23.96875 65.921875 18.8125 64.3125 
Q 13.671875 62.703125 7.8125 59.421875 
L 7.8125 69.390625 
Q 13.765625 71.78125 18.9375 73 
Q 24.125 74.21875 28.421875 74.21875 
Q 39.75 74.21875 46.484375 68.546875 
Q 53.21875 62.890625 53.21875 53.421875 
Q 53.21875 48.921875 51.53125 44.890625 
Q 49.859375 40.875 45.40625 35.40625 
Q 44.1875 33.984375 37.640625 27.21875 
Q 31.109375 20.453125 19.1875 8.296875 
z
" id="DejaVuSans-50"/>
      </defs>
      <g transform="translate(108.885469 322.182437)scale(0.1 -0.1)">
       <use xlink:href="#DejaVuSans-49"/>
       <use x="63.623047" xlink:href="#DejaVuSans-57"/>
       <use x="127.246094" xlink:href="#DejaVuSans-57"/>
       <use x="190.869141" xlink:href="#DejaVuSans-50"/>
      </g>
     </g>
    </g>
    <g id="xtick_3">
     <g id="line2d_3">
      <g>
       <use style="stroke:#000000;stroke-width:0.8;" x="160.476439" xlink:href="#m48535e49cf" y="307.584"/>
      </g>
     </g>
     <g id="text_3">
      <!-- 1996 -->
      <defs>
       <path d="M 33.015625 40.375 
Q 26.375 40.375 22.484375 35.828125 
Q 18.609375 31.296875 18.609375 23.390625 
Q 18.609375 15.53125 22.484375 10.953125 
Q 26.375 6.390625 33.015625 6.390625 
Q 39.65625 6.390625 43.53125 10.953125 
Q 47.40625 15.53125 47.40625 23.390625 
Q 47.40625 31.296875 43.53125 35.828125 
Q 39.65625 40.375 33.015625 40.375 
z
M 52.59375 71.296875 
L 52.59375 62.3125 
Q 48.875 64.0625 45.09375 64.984375 
Q 41.3125 65.921875 37.59375 65.921875 
Q 27.828125 65.921875 22.671875 59.328125 
Q 17.53125 52.734375 16.796875 39.40625 
Q 19.671875 43.65625 24.015625 45.921875 
Q 28.375 48.1875 33.59375 48.1875 
Q 44.578125 48.1875 50.953125 41.515625 
Q 57.328125 34.859375 57.328125 23.390625 
Q 57.328125 12.15625 50.6875 5.359375 
Q 44.046875 -1.421875 33.015625 -1.421875 
Q 20.359375 -1.421875 13.671875 8.265625 
Q 6.984375 17.96875 6.984375 36.375 
Q 6.984375 53.65625 15.1875 63.9375 
Q 23.390625 74.21875 37.203125 74.21875 
Q 40.921875 74.21875 44.703125 73.484375 
Q 48.484375 72.75 52.59375 71.296875 
z
" id="DejaVuSans-54"/>
      </defs>
      <g transform="translate(147.751439 322.182437)scale(0.1 -0.1)">
       <use xlink:href="#DejaVuSans-49"/>
       <use x="63.623047" xlink:href="#DejaVuSans-57"/>
       <use x="127.246094" xlink:href="#DejaVuSans-57"/>
       <use x="190.869141" xlink:href="#DejaVuSans-54"/>
      </g>
     </g>
    </g>
    <g id="xtick_4">
     <g id="line2d_4">
      <g>
       <use style="stroke:#000000;stroke-width:0.8;" x="199.342408" xlink:href="#m48535e49cf" y="307.584"/>
      </g>
     </g>
     <g id="text_4">
      <!-- 2000 -->
      <defs>
       <path d="M 31.78125 66.40625 
Q 24.171875 66.40625 20.328125 58.90625 
Q 16.5 51.421875 16.5 36.375 
Q 16.5 21.390625 20.328125 13.890625 
Q 24.171875 6.390625 31.78125 6.390625 
Q 39.453125 6.390625 43.28125 13.890625 
Q 47.125 21.390625 47.125 36.375 
Q 47.125 51.421875 43.28125 58.90625 
Q 39.453125 66.40625 31.78125 66.40625 
z
M 31.78125 74.21875 
Q 44.046875 74.21875 50.515625 64.515625 
Q 56.984375 54.828125 56.984375 36.375 
Q 56.984375 17.96875 50.515625 8.265625 
Q 44.046875 -1.421875 31.78125 -1.421875 
Q 19.53125 -1.421875 13.0625 8.265625 
Q 6.59375 17.96875 6.59375 36.375 
Q 6.59375 54.828125 13.0625 64.515625 
Q 19.53125 74.21875 31.78125 74.21875 
z
" id="DejaVuSans-48"/>
      </defs>
      <g transform="translate(186.617408 322.182437)scale(0.1 -0.1)">
       <use xlink:href="#DejaVuSans-50"/>
       <use x="63.623047" xlink:href="#DejaVuSans-48"/>
       <use x="127.246094" xlink:href="#DejaVuSans-48"/>
       <use x="190.869141" xlink:href="#DejaVuSans-48"/>
      </g>
     </g>
    </g>
    <g id="xtick_5">
     <g id="line2d_5">
      <g>
       <use style="stroke:#000000;stroke-width:0.8;" x="238.208378" xlink:href="#m48535e49cf" y="307.584"/>
      </g>
     </g>
     <g id="text_5">
      <!-- 2004 -->
      <defs>
       <path d="M 37.796875 64.3125 
L 12.890625 25.390625 
L 37.796875 25.390625 
z
M 35.203125 72.90625 
L 47.609375 72.90625 
L 47.609375 25.390625 
L 58.015625 25.390625 
L 58.015625 17.1875 
L 47.609375 17.1875 
L 47.609375 0 
L 37.796875 0 
L 37.796875 17.1875 
L 4.890625 17.1875 
L 4.890625 26.703125 
z
" id="DejaVuSans-52"/>
      </defs>
      <g transform="translate(225.483378 322.182437)scale(0.1 -0.1)">
       <use xlink:href="#DejaVuSans-50"/>
       <use x="63.623047" xlink:href="#DejaVuSans-48"/>
       <use x="127.246094" xlink:href="#DejaVuSans-48"/>
       <use x="190.869141" xlink:href="#DejaVuSans-52"/>
      </g>
     </g>
    </g>
    <g id="xtick_6">
     <g id="line2d_6">
      <g>
       <use style="stroke:#000000;stroke-width:0.8;" x="277.074347" xlink:href="#m48535e49cf" y="307.584"/>
      </g>
     </g>
     <g id="text_6">
      <!-- 2008 -->
      <g transform="translate(264.349347 322.182437)scale(0.1 -0.1)">
       <use xlink:href="#DejaVuSans-50"/>
       <use x="63.623047" xlink:href="#DejaVuSans-48"/>
       <use x="127.246094" xlink:href="#DejaVuSans-48"/>
       <use x="190.869141" xlink:href="#DejaVuSans-56"/>
      </g>
     </g>
    </g>
    <g id="xtick_7">
     <g id="line2d_7">
      <g>
       <use style="stroke:#000000;stroke-width:0.8;" x="315.940316" xlink:href="#m48535e49cf" y="307.584"/>
      </g>
     </g>
     <g id="text_7">
      <!-- 2012 -->
      <g transform="translate(303.215316 322.182437)scale(0.1 -0.1)">
       <use xlink:href="#DejaVuSans-50"/>
       <use x="63.623047" xlink:href="#DejaVuSans-48"/>
       <use x="127.246094" xlink:href="#DejaVuSans-49"/>
       <use x="190.869141" xlink:href="#DejaVuSans-50"/>
      </g>
     </g>
    </g>
    <g id="xtick_8">
     <g id="line2d_8">
      <g>
       <use style="stroke:#000000;stroke-width:0.8;" x="354.806286" xlink:href="#m48535e49cf" y="307.584"/>
      </g>
     </g>
     <g id="text_8">
      <!-- 2016 -->
      <g transform="translate(342.081286 322.182437)scale(0.1 -0.1)">
       <use xlink:href="#DejaVuSans-50"/>
       <use x="63.623047" xlink:href="#DejaVuSans-48"/>
       <use x="127.246094" xlink:href="#DejaVuSans-49"/>
       <use x="190.869141" xlink:href="#DejaVuSans-54"/>
      </g>
     </g>
    </g>
    <g id="xtick_9">
     <g id="line2d_9">
      <g>
       <use style="stroke:#000000;stroke-width:0.8;" x="393.672255" xlink:href="#m48535e49cf" y="307.584"/>
      </g>
     </g>
     <g id="text_9">
      <!-- 2020 -->
      <g transform="translate(380.947255 322.182437)scale(0.1 -0.1)">
       <use xlink:href="#DejaVuSans-50"/>
       <use x="63.623047" xlink:href="#DejaVuSans-48"/>
       <use x="127.246094" xlink:href="#DejaVuSans-50"/>
       <use x="190.869141" xlink:href="#DejaVuSans-48"/>
      </g>
     </g>
    </g>
    <g id="text_10">
     <!-- Year -->
     <defs>
      <path d="M -0.203125 72.90625 
L 10.40625 72.90625 
L 30.609375 42.921875 
L 50.6875 72.90625 
L 61.28125 72.90625 
L 35.5 34.71875 
L 35.5 0 
L 25.59375 0 
L 25.59375 34.71875 
z
" id="DejaVuSans-89"/>
      <path d="M 56.203125 29.59375 
L 56.203125 25.203125 
L 14.890625 25.203125 
Q 15.484375 15.921875 20.484375 11.0625 
Q 25.484375 6.203125 34.421875 6.203125 
Q 39.59375 6.203125 44.453125 7.46875 
Q 49.3125 8.734375 54.109375 11.28125 
L 54.109375 2.78125 
Q 49.265625 0.734375 44.1875 -0.34375 
Q 39.109375 -1.421875 33.890625 -1.421875 
Q 20.796875 -1.421875 13.15625 6.1875 
Q 5.515625 13.8125 5.515625 26.8125 
Q 5.515625 40.234375 12.765625 48.109375 
Q 20.015625 56 32.328125 56 
Q 43.359375 56 49.78125 48.890625 
Q 56.203125 41.796875 56.203125 29.59375 
z
M 47.21875 32.234375 
Q 47.125 39.59375 43.09375 43.984375 
Q 39.0625 48.390625 32.421875 48.390625 
Q 24.90625 48.390625 20.390625 44.140625 
Q 15.875 39.890625 15.1875 32.171875 
z
" id="DejaVuSans-101"/>
      <path d="M 34.28125 27.484375 
Q 23.390625 27.484375 19.1875 25 
Q 14.984375 22.515625 14.984375 16.5 
Q 14.984375 11.71875 18.140625 8.90625 
Q 21.296875 6.109375 26.703125 6.109375 
Q 34.1875 6.109375 38.703125 11.40625 
Q 43.21875 16.703125 43.21875 25.484375 
L 43.21875 27.484375 
z
M 52.203125 31.203125 
L 52.203125 0 
L 43.21875 0 
L 43.21875 8.296875 
Q 40.140625 3.328125 35.546875 0.953125 
Q 30.953125 -1.421875 24.3125 -1.421875 
Q 15.921875 -1.421875 10.953125 3.296875 
Q 6 8.015625 6 15.921875 
Q 6 25.140625 12.171875 29.828125 
Q 18.359375 34.515625 30.609375 34.515625 
L 43.21875 34.515625 
L 43.21875 35.40625 
Q 43.21875 41.609375 39.140625 45 
Q 35.0625 48.390625 27.6875 48.390625 
Q 23 48.390625 18.546875 47.265625 
Q 14.109375 46.140625 10.015625 43.890625 
L 10.015625 52.203125 
Q 14.9375 54.109375 19.578125 55.046875 
Q 24.21875 56 28.609375 56 
Q 40.484375 56 46.34375 49.84375 
Q 52.203125 43.703125 52.203125 31.203125 
z
" id="DejaVuSans-97"/>
      <path d="M 41.109375 46.296875 
Q 39.59375 47.171875 37.8125 47.578125 
Q 36.03125 48 33.890625 48 
Q 26.265625 48 22.1875 43.046875 
Q 18.109375 38.09375 18.109375 28.8125 
L 18.109375 0 
L 9.078125 0 
L 9.078125 54.6875 
L 18.109375 54.6875 
L 18.109375 46.1875 
Q 20.953125 51.171875 25.484375 53.578125 
Q 30.03125 56 36.53125 56 
Q 37.453125 56 38.578125 55.875 
Q 39.703125 55.765625 41.0625 55.515625 
z
" id="DejaVuSans-114"/>
     </defs>
     <g transform="translate(225.5725 335.860562)scale(0.1 -0.1)">
      <use xlink:href="#DejaVuSans-89"/>
      <use x="47.833984" xlink:href="#DejaVuSans-101"/>
      <use x="109.357422" xlink:href="#DejaVuSans-97"/>
      <use x="170.636719" xlink:href="#DejaVuSans-114"/>
     </g>
    </g>
   </g>
   <g id="matplotlib.axis_2">
    <g id="ytick_1">
     <g id="line2d_10">
      <defs>
       <path d="M 0 0 
L -3.5 0 
" id="m3824cba38f" style="stroke:#000000;stroke-width:0.8;"/>
      </defs>
      <g>
       <use style="stroke:#000000;stroke-width:0.8;" x="57.6" xlink:href="#m3824cba38f" y="278.718842"/>
      </g>
     </g>
     <g id="text_11">
      <!-- 20000 -->
      <g transform="translate(18.7875 282.51806)scale(0.1 -0.1)">
       <use xlink:href="#DejaVuSans-50"/>
       <use x="63.623047" xlink:href="#DejaVuSans-48"/>
       <use x="127.246094" xlink:href="#DejaVuSans-48"/>
       <use x="190.869141" xlink:href="#DejaVuSans-48"/>
       <use x="254.492188" xlink:href="#DejaVuSans-48"/>
      </g>
     </g>
    </g>
    <g id="ytick_2">
     <g id="line2d_11">
      <g>
       <use style="stroke:#000000;stroke-width:0.8;" x="57.6" xlink:href="#m3824cba38f" y="243.96771"/>
      </g>
     </g>
     <g id="text_12">
      <!-- 40000 -->
      <g transform="translate(18.7875 247.766929)scale(0.1 -0.1)">
       <use xlink:href="#DejaVuSans-52"/>
       <use x="63.623047" xlink:href="#DejaVuSans-48"/>
       <use x="127.246094" xlink:href="#DejaVuSans-48"/>
       <use x="190.869141" xlink:href="#DejaVuSans-48"/>
       <use x="254.492188" xlink:href="#DejaVuSans-48"/>
      </g>
     </g>
    </g>
    <g id="ytick_3">
     <g id="line2d_12">
      <g>
       <use style="stroke:#000000;stroke-width:0.8;" x="57.6" xlink:href="#m3824cba38f" y="209.216579"/>
      </g>
     </g>
     <g id="text_13">
      <!-- 60000 -->
      <g transform="translate(18.7875 213.015798)scale(0.1 -0.1)">
       <use xlink:href="#DejaVuSans-54"/>
       <use x="63.623047" xlink:href="#DejaVuSans-48"/>
       <use x="127.246094" xlink:href="#DejaVuSans-48"/>
       <use x="190.869141" xlink:href="#DejaVuSans-48"/>
       <use x="254.492188" xlink:href="#DejaVuSans-48"/>
      </g>
     </g>
    </g>
    <g id="ytick_4">
     <g id="line2d_13">
      <g>
       <use style="stroke:#000000;stroke-width:0.8;" x="57.6" xlink:href="#m3824cba38f" y="174.465448"/>
      </g>
     </g>
     <g id="text_14">
      <!-- 80000 -->
      <g transform="translate(18.7875 178.264667)scale(0.1 -0.1)">
       <use xlink:href="#DejaVuSans-56"/>
       <use x="63.623047" xlink:href="#DejaVuSans-48"/>
       <use x="127.246094" xlink:href="#DejaVuSans-48"/>
       <use x="190.869141" xlink:href="#DejaVuSans-48"/>
       <use x="254.492188" xlink:href="#DejaVuSans-48"/>
      </g>
     </g>
    </g>
    <g id="ytick_5">
     <g id="line2d_14">
      <g>
       <use style="stroke:#000000;stroke-width:0.8;" x="57.6" xlink:href="#m3824cba38f" y="139.714317"/>
      </g>
     </g>
     <g id="text_15">
      <!-- 100000 -->
      <g transform="translate(12.425 143.513535)scale(0.1 -0.1)">
       <use xlink:href="#DejaVuSans-49"/>
       <use x="63.623047" xlink:href="#DejaVuSans-48"/>
       <use x="127.246094" xlink:href="#DejaVuSans-48"/>
       <use x="190.869141" xlink:href="#DejaVuSans-48"/>
       <use x="254.492188" xlink:href="#DejaVuSans-48"/>
       <use x="318.115234" xlink:href="#DejaVuSans-48"/>
      </g>
     </g>
    </g>
    <g id="ytick_6">
     <g id="line2d_15">
      <g>
       <use style="stroke:#000000;stroke-width:0.8;" x="57.6" xlink:href="#m3824cba38f" y="104.963186"/>
      </g>
     </g>
     <g id="text_16">
      <!-- 120000 -->
      <g transform="translate(12.425 108.762404)scale(0.1 -0.1)">
       <use xlink:href="#DejaVuSans-49"/>
       <use x="63.623047" xlink:href="#DejaVuSans-50"/>
       <use x="127.246094" xlink:href="#DejaVuSans-48"/>
       <use x="190.869141" xlink:href="#DejaVuSans-48"/>
       <use x="254.492188" xlink:href="#DejaVuSans-48"/>
       <use x="318.115234" xlink:href="#DejaVuSans-48"/>
      </g>
     </g>
    </g>
    <g id="ytick_7">
     <g id="line2d_16">
      <g>
       <use style="stroke:#000000;stroke-width:0.8;" x="57.6" xlink:href="#m3824cba38f" y="70.212054"/>
      </g>
     </g>
     <g id="text_17">
      <!-- 140000 -->
      <g transform="translate(12.425 74.011273)scale(0.1 -0.1)">
       <use xlink:href="#DejaVuSans-49"/>
       <use x="63.623047" xlink:href="#DejaVuSans-52"/>
       <use x="127.246094" xlink:href="#DejaVuSans-48"/>
       <use x="190.869141" xlink:href="#DejaVuSans-48"/>
       <use x="254.492188" xlink:href="#DejaVuSans-48"/>
       <use x="318.115234" xlink:href="#DejaVuSans-48"/>
      </g>
     </g>
    </g>
    <g id="text_18">
     <!-- Return -->
     <defs>
      <path d="M 44.390625 34.1875 
Q 47.5625 33.109375 50.5625 29.59375 
Q 53.5625 26.078125 56.59375 19.921875 
L 66.609375 0 
L 56 0 
L 46.6875 18.703125 
Q 43.0625 26.03125 39.671875 28.421875 
Q 36.28125 30.8125 30.421875 30.8125 
L 19.671875 30.8125 
L 19.671875 0 
L 9.8125 0 
L 9.8125 72.90625 
L 32.078125 72.90625 
Q 44.578125 72.90625 50.734375 67.671875 
Q 56.890625 62.453125 56.890625 51.90625 
Q 56.890625 45.015625 53.6875 40.46875 
Q 50.484375 35.9375 44.390625 34.1875 
z
M 19.671875 64.796875 
L 19.671875 38.921875 
L 32.078125 38.921875 
Q 39.203125 38.921875 42.84375 42.21875 
Q 46.484375 45.515625 46.484375 51.90625 
Q 46.484375 58.296875 42.84375 61.546875 
Q 39.203125 64.796875 32.078125 64.796875 
z
" id="DejaVuSans-82"/>
      <path d="M 18.3125 70.21875 
L 18.3125 54.6875 
L 36.8125 54.6875 
L 36.8125 47.703125 
L 18.3125 47.703125 
L 18.3125 18.015625 
Q 18.3125 11.328125 20.140625 9.421875 
Q 21.96875 7.515625 27.59375 7.515625 
L 36.8125 7.515625 
L 36.8125 0 
L 27.59375 0 
Q 17.1875 0 13.234375 3.875 
Q 9.28125 7.765625 9.28125 18.015625 
L 9.28125 47.703125 
L 2.6875 47.703125 
L 2.6875 54.6875 
L 9.28125 54.6875 
L 9.28125 70.21875 
z
" id="DejaVuSans-116"/>
      <path d="M 8.5 21.578125 
L 8.5 54.6875 
L 17.484375 54.6875 
L 17.484375 21.921875 
Q 17.484375 14.15625 20.5 10.265625 
Q 23.53125 6.390625 29.59375 6.390625 
Q 36.859375 6.390625 41.078125 11.03125 
Q 45.3125 15.671875 45.3125 23.6875 
L 45.3125 54.6875 
L 54.296875 54.6875 
L 54.296875 0 
L 45.3125 0 
L 45.3125 8.40625 
Q 42.046875 3.421875 37.71875 1 
Q 33.40625 -1.421875 27.6875 -1.421875 
Q 18.265625 -1.421875 13.375 4.4375 
Q 8.5 10.296875 8.5 21.578125 
z
M 31.109375 56 
z
" id="DejaVuSans-117"/>
      <path d="M 54.890625 33.015625 
L 54.890625 0 
L 45.90625 0 
L 45.90625 32.71875 
Q 45.90625 40.484375 42.875 44.328125 
Q 39.84375 48.1875 33.796875 48.1875 
Q 26.515625 48.1875 22.3125 43.546875 
Q 18.109375 38.921875 18.109375 30.90625 
L 18.109375 0 
L 9.078125 0 
L 9.078125 54.6875 
L 18.109375 54.6875 
L 18.109375 46.1875 
Q 21.34375 51.125 25.703125 53.5625 
Q 30.078125 56 35.796875 56 
Q 45.21875 56 50.046875 50.171875 
Q 54.890625 44.34375 54.890625 33.015625 
z
" id="DejaVuSans-110"/>
     </defs>
     <g transform="translate(6.345312 191.119406)rotate(-90)scale(0.1 -0.1)">
      <use xlink:href="#DejaVuSans-82"/>
      <use x="64.982422" xlink:href="#DejaVuSans-101"/>
      <use x="126.505859" xlink:href="#DejaVuSans-116"/>
      <use x="165.714844" xlink:href="#DejaVuSans-117"/>
      <use x="229.09375" xlink:href="#DejaVuSans-114"/>
      <use x="268.457031" xlink:href="#DejaVuSans-110"/>
     </g>
    </g>
   </g>
   <g id="line2d_17">
    <path clip-path="url(#pda8632ee15)" d="M 73.832727 295.234317 
L 74.577592 294.914606 
L 75.402263 294.838154 
L 76.200333 295.451511 
L 77.025004 295.488 
L 78.647745 294.867692 
L 79.472416 294.763439 
L 80.270485 295.359421 
L 81.095157 295.437611 
L 81.893226 295.347258 
L 82.717898 294.945882 
L 83.542569 294.125756 
L 84.314036 293.865122 
L 85.138707 294.18657 
L 86.761448 294.325575 
L 87.559517 293.689629 
L 89.20886 293.905086 
L 90.006929 293.293466 
L 90.831601 292.822588 
L 91.62967 293.159674 
L 92.454342 293.057158 
L 93.279013 292.313484 
L 94.023878 292.612344 
L 94.848549 292.445538 
L 97.269359 290.586353 
L 98.094031 289.774914 
L 98.918702 289.894805 
L 99.716771 289.837466 
L 102.164183 289.060778 
L 102.988855 289.905231 
L 104.558391 289.590733 
L 105.35646 290.014697 
L 106.181132 288.754968 
L 107.803872 288.259765 
L 108.628544 289.218896 
L 109.426613 289.222371 
L 110.251285 288.986063 
L 111.049354 288.221538 
L 113.443561 286.675113 
L 115.066302 286.212923 
L 115.890973 285.811548 
L 116.689043 286.164271 
L 118.338386 284.772489 
L 119.961126 284.11743 
L 120.759195 284.378063 
L 121.583867 282.767348 
L 122.408538 283.42067 
L 123.180005 283.113122 
L 124.004677 283.450208 
L 125.627418 282.466751 
L 126.425487 282.352072 
L 127.250158 281.356452 
L 128.07483 281.35124 
L 128.872899 280.986353 
L 129.69757 281.212235 
L 132.144983 279.698824 
L 132.889847 279.146281 
L 133.714519 278.840471 
L 134.512588 278.981213 
L 136.135329 278.141973 
L 136.96 278.006443 
L 137.784671 277.109864 
L 138.582741 277.226281 
L 139.407412 276.887457 
L 140.205481 277.306208 
L 141.030153 276.983023 
L 141.854824 276.110769 
L 142.599689 276.937846 
L 143.42436 278.103747 
L 144.22243 278.171511 
L 145.047101 278.002968 
L 145.84517 278.27924 
L 146.669842 277.417412 
L 147.494513 276.929158 
L 148.292582 277.658932 
L 149.117254 277.502552 
L 149.915323 277.808362 
L 150.739995 277.330534 
L 151.564666 276.486081 
L 152.309531 275.347982 
L 153.134202 274.805864 
L 153.932271 274.003113 
L 154.756943 271.912833 
L 155.555012 271.405466 
L 156.379684 271.141357 
L 157.204355 270.698281 
L 158.002424 269.551493 
L 158.827096 269.108416 
L 159.625165 267.899077 
L 160.449836 266.995548 
L 161.274508 266.36829 
L 162.045975 266.92952 
L 163.668715 267.211005 
L 164.493387 267.06505 
L 165.291456 266.470805 
L 166.116128 267.186679 
L 166.940799 267.084163 
L 168.56354 264.46914 
L 169.361609 262.634281 
L 170.186281 263.501321 
L 171.010952 262.651656 
L 171.755817 262.472688 
L 172.580488 263.508271 
L 173.378557 262.15124 
L 175.001298 260.092235 
L 175.825969 258.09057 
L 176.650641 259.09314 
L 177.44871 257.819511 
L 178.273382 257.555403 
L 179.071451 257.028923 
L 180.720794 255.642353 
L 182.29033 253.619837 
L 183.088399 253.225412 
L 183.913071 252.996054 
L 184.71114 251.758914 
L 185.535811 251.842317 
L 186.360483 253.256688 
L 187.158552 251.983059 
L 187.983223 251.529557 
L 188.781293 250.601701 
L 189.605964 249.242932 
L 190.430636 248.254262 
L 191.1755 249.392362 
L 192.798241 248.000579 
L 193.622912 248.817231 
L 194.420981 248.631312 
L 195.245653 249.345448 
L 196.070324 249.529629 
L 196.868394 248.930172 
L 197.693065 247.927602 
L 198.491134 247.741683 
L 199.315806 246.970208 
L 200.140477 248.139584 
L 200.911944 247.449774 
L 201.736616 245.256977 
L 202.534685 245.665303 
L 203.359356 245.665303 
L 204.157426 244.388199 
L 204.982097 244.26657 
L 205.806769 242.42476 
L 206.604838 243.630624 
L 207.429509 243.293538 
L 208.227578 243.124995 
L 209.05225 242.191928 
L 209.876921 240.914824 
L 211.446457 242.589828 
L 212.244527 241.927819 
L 213.069198 241.446516 
L 213.867267 241.611584 
L 214.691939 240.612489 
L 215.51661 241.026027 
L 216.31468 242.120688 
L 217.139351 240.873122 
L 217.93742 240.734118 
L 218.762092 240.963475 
L 220.331628 240.336217 
L 221.156299 240.727167 
L 222.77904 240.278878 
L 223.577109 240.756706 
L 224.401781 240.998226 
L 225.226452 240.192 
L 226.024521 240.320579 
L 226.849193 239.448326 
L 227.647262 238.909683 
L 228.471933 238.932271 
L 229.296605 239.382299 
L 230.04147 238.907946 
L 230.866141 238.854081 
L 231.66421 237.470986 
L 232.488882 235.681303 
L 233.286951 235.538824 
L 234.111622 237.719457 
L 234.936294 236.786389 
L 235.734363 235.446733 
L 236.559035 234.635294 
L 237.357104 234.216543 
L 238.181775 232.13495 
L 239.777914 230.093321 
L 240.602585 230.11591 
L 241.400654 232.133213 
L 242.225326 232.008109 
L 243.023395 231.048977 
L 243.848067 231.243584 
L 244.672738 229.971692 
L 245.470807 229.450425 
L 246.295479 228.357502 
L 247.093548 227.629466 
L 247.918219 226.070878 
L 248.742891 226.003113 
L 249.487755 225.728579 
L 250.312427 226.458353 
L 251.110496 225.944036 
L 251.935168 224.371548 
L 253.557908 223.259511 
L 254.38258 222.618353 
L 255.180649 223.144833 
L 256.00532 224.505339 
L 256.80339 223.410679 
L 258.452733 221.534118 
L 259.197597 221.181394 
L 260.022269 221.761738 
L 260.820338 221.869466 
L 261.645009 222.931113 
L 262.443079 222.818172 
L 263.26775 221.693973 
L 265.715162 216.425701 
L 266.513231 214.801086 
L 267.337903 214.832362 
L 268.907439 213.98791 
L 269.73211 213.810679 
L 270.53018 212.123511 
L 271.354851 211.105303 
L 272.15292 212.286842 
L 272.977592 212.104398 
L 274.600333 209.32952 
L 275.425004 208.033303 
L 276.223073 207.367819 
L 277.047745 207.525937 
L 277.872416 207.995077 
L 278.643883 208.118443 
L 279.468555 207.920362 
L 280.266624 207.454697 
L 281.091295 207.863023 
L 281.889364 209.963729 
L 282.714036 210.102733 
L 283.538707 208.856905 
L 284.336777 210.335566 
L 285.161448 213.416253 
L 285.959517 209.92029 
L 286.784189 207.856072 
L 287.60886 209.239167 
L 288.353725 210.135747 
L 289.178396 207.296579 
L 290.801137 205.649376 
L 291.599206 205.578136 
L 292.423878 203.003077 
L 293.248549 201.531367 
L 294.046618 199.371584 
L 294.87129 199.838986 
L 295.669359 197.064109 
L 296.494031 198.615747 
L 297.318702 199.39591 
L 298.063567 198.275186 
L 298.888238 196.598443 
L 299.686307 194.676706 
L 300.510979 196.270045 
L 301.309048 195.55591 
L 302.133719 193.163294 
L 302.958391 192.822733 
L 303.75646 189.96619 
L 304.581132 188.702986 
L 305.379201 189.175602 
L 306.203872 188.350262 
L 307.028544 187.936724 
L 307.773408 185.516308 
L 308.59808 185.412054 
L 309.396149 182.786606 
L 310.220821 181.669357 
L 311.01889 183.403439 
L 311.843561 182.419982 
L 312.668233 180.988235 
L 313.466302 180.724127 
L 314.290973 178.015276 
L 315.089043 177.341104 
L 315.913714 176.022299 
L 317.509853 171.475113 
L 318.334524 170.828742 
L 319.132593 169.277104 
L 319.957265 169.428271 
L 321.580005 165.506606 
L 323.202746 163.537955 
L 324.027418 165.127819 
L 324.825487 164.054009 
L 325.650158 164.191276 
L 328.044366 157.722353 
L 328.842435 153.526154 
L 330.465176 158.763149 
L 331.289847 158.005575 
L 332.114519 160.186208 
L 332.912588 157.15591 
L 333.737259 153.487928 
L 335.36 153.328072 
L 336.184671 151.547077 
L 336.929536 148.363873 
L 337.754208 147.858244 
L 338.552277 145.997321 
L 339.376948 142.725502 
L 340.175017 140.793339 
L 340.999689 141.80981 
L 341.82436 136.439023 
L 342.62243 139.116597 
L 343.447101 135.549394 
L 344.24517 132.837068 
L 345.069842 131.087348 
L 345.894513 128.726009 
L 346.639378 127.507982 
L 349.08679 128.119602 
L 349.884859 130.977882 
L 350.709531 127.184796 
L 351.534202 131.966552 
L 352.332271 131.440072 
L 353.156943 127.961484 
L 353.955012 128.117864 
L 354.779684 129.221213 
L 356.375822 127.315113 
L 357.200493 123.294407 
L 357.998563 123.238805 
L 358.823234 121.198914 
L 359.621303 116.762932 
L 360.445975 113.560615 
L 361.270646 113.967204 
L 362.068715 114.495421 
L 363.691456 118.891439 
L 364.516128 117.734226 
L 365.340799 116.161738 
L 366.085664 111.093285 
L 366.910335 111.447747 
L 367.708404 109.267113 
L 368.533076 106.148199 
L 369.331145 104.86067 
L 370.155817 103.199566 
L 370.980488 100.475077 
L 371.778557 99.969448 
L 372.603229 97.017339 
L 373.401298 92.496217 
L 374.225969 89.780416 
L 375.050641 86.473846 
L 375.795505 91.606588 
L 376.620177 90.786462 
L 377.418246 91.893285 
L 378.242918 89.017629 
L 379.040987 88.108887 
L 380.69033 80.534878 
L 381.488399 82.286335 
L 382.313071 93.773321 
L 383.11114 91.146136 
L 383.935811 91.457158 
L 384.760483 87.293973 
L 385.505347 85.97343 
L 386.330019 79.801629 
L 387.128088 76.908597 
L 387.952759 79.603548 
L 388.750829 72.686335 
L 389.5755 70.99048 
L 390.400172 64.667511 
L 391.198241 64.566733 
L 392.022912 62.980344 
L 392.820981 60.250643 
L 393.645653 59.074317 
L 394.470324 53.568 
L 395.241791 57.434063 
L 396.066463 59.117756 
L 396.864532 56.09962 
L 397.689204 54.897231 
L 398.487273 54.009339 
L 398.487273 54.009339 
" style="fill:none;stroke:#000000;stroke-linecap:square;stroke-width:1.5;"/>
   </g>
   <g id="patch_3">
    <path d="M 57.6 307.584 
L 57.6 41.472 
" style="fill:none;stroke:#000000;stroke-linecap:square;stroke-linejoin:miter;stroke-width:0.8;"/>
   </g>
   <g id="patch_4">
    <path d="M 414.72 307.584 
L 414.72 41.472 
" style="fill:none;stroke:#000000;stroke-linecap:square;stroke-linejoin:miter;stroke-width:0.8;"/>
   </g>
   <g id="patch_5">
    <path d="M 57.6 307.584 
L 414.72 307.584 
" style="fill:none;stroke:#000000;stroke-linecap:square;stroke-linejoin:miter;stroke-width:0.8;"/>
   </g>
   <g id="patch_6">
    <path d="M 57.6 41.472 
L 414.72 41.472 
" style="fill:none;stroke:#000000;stroke-linecap:square;stroke-linejoin:miter;stroke-width:0.8;"/>
   </g>
  </g>
  <g id="axes_2">
   <g id="matplotlib.axis_3">
    <g id="ytick_8">
     <g id="line2d_18">
      <defs>
       <path d="M 0 0 
L 3.5 0 
" id="m1a40d23c55" style="stroke:#000000;stroke-width:0.8;"/>
      </defs>
      <g>
       <use style="stroke:#000000;stroke-width:0.8;" x="414.72" xlink:href="#m1a40d23c55" y="295.234317"/>
      </g>
     </g>
     <g id="text_19">
      <!-- 0 -->
      <g transform="translate(421.72 299.033535)scale(0.1 -0.1)">
       <use xlink:href="#DejaVuSans-48"/>
      </g>
     </g>
    </g>
    <g id="ytick_9">
     <g id="line2d_19">
      <g>
       <use style="stroke:#000000;stroke-width:0.8;" x="414.72" xlink:href="#m1a40d23c55" y="258.763005"/>
      </g>
     </g>
     <g id="text_20">
      <!-- 200 -->
      <g transform="translate(421.72 262.562223)scale(0.1 -0.1)">
       <use xlink:href="#DejaVuSans-50"/>
       <use x="63.623047" xlink:href="#DejaVuSans-48"/>
       <use x="127.246094" xlink:href="#DejaVuSans-48"/>
      </g>
     </g>
    </g>
    <g id="ytick_10">
     <g id="line2d_20">
      <g>
       <use style="stroke:#000000;stroke-width:0.8;" x="414.72" xlink:href="#m1a40d23c55" y="222.291692"/>
      </g>
     </g>
     <g id="text_21">
      <!-- 400 -->
      <g transform="translate(421.72 226.090911)scale(0.1 -0.1)">
       <use xlink:href="#DejaVuSans-52"/>
       <use x="63.623047" xlink:href="#DejaVuSans-48"/>
       <use x="127.246094" xlink:href="#DejaVuSans-48"/>
      </g>
     </g>
    </g>
    <g id="ytick_11">
     <g id="line2d_21">
      <g>
       <use style="stroke:#000000;stroke-width:0.8;" x="414.72" xlink:href="#m1a40d23c55" y="185.82038"/>
      </g>
     </g>
     <g id="text_22">
      <!-- 600 -->
      <g transform="translate(421.72 189.619599)scale(0.1 -0.1)">
       <use xlink:href="#DejaVuSans-54"/>
       <use x="63.623047" xlink:href="#DejaVuSans-48"/>
       <use x="127.246094" xlink:href="#DejaVuSans-48"/>
      </g>
     </g>
    </g>
    <g id="ytick_12">
     <g id="line2d_22">
      <g>
       <use style="stroke:#000000;stroke-width:0.8;" x="414.72" xlink:href="#m1a40d23c55" y="149.349068"/>
      </g>
     </g>
     <g id="text_23">
      <!-- 800 -->
      <g transform="translate(421.72 153.148287)scale(0.1 -0.1)">
       <use xlink:href="#DejaVuSans-56"/>
       <use x="63.623047" xlink:href="#DejaVuSans-48"/>
       <use x="127.246094" xlink:href="#DejaVuSans-48"/>
      </g>
     </g>
    </g>
    <g id="ytick_13">
     <g id="line2d_23">
      <g>
       <use style="stroke:#000000;stroke-width:0.8;" x="414.72" xlink:href="#m1a40d23c55" y="112.877756"/>
      </g>
     </g>
     <g id="text_24">
      <!-- 1000 -->
      <g transform="translate(421.72 116.676974)scale(0.1 -0.1)">
       <use xlink:href="#DejaVuSans-49"/>
       <use x="63.623047" xlink:href="#DejaVuSans-48"/>
       <use x="127.246094" xlink:href="#DejaVuSans-48"/>
       <use x="190.869141" xlink:href="#DejaVuSans-48"/>
      </g>
     </g>
    </g>
    <g id="ytick_14">
     <g id="line2d_24">
      <g>
       <use style="stroke:#000000;stroke-width:0.8;" x="414.72" xlink:href="#m1a40d23c55" y="76.406443"/>
      </g>
     </g>
     <g id="text_25">
      <!-- 1200 -->
      <g transform="translate(421.72 80.205662)scale(0.1 -0.1)">
       <use xlink:href="#DejaVuSans-49"/>
       <use x="63.623047" xlink:href="#DejaVuSans-50"/>
       <use x="127.246094" xlink:href="#DejaVuSans-48"/>
       <use x="190.869141" xlink:href="#DejaVuSans-48"/>
      </g>
     </g>
    </g>
    <g id="text_26">
     <!-- Return (%) -->
     <defs>
      <path id="DejaVuSans-32"/>
      <path d="M 31 75.875 
Q 24.46875 64.65625 21.28125 53.65625 
Q 18.109375 42.671875 18.109375 31.390625 
Q 18.109375 20.125 21.3125 9.0625 
Q 24.515625 -2 31 -13.1875 
L 23.1875 -13.1875 
Q 15.875 -1.703125 12.234375 9.375 
Q 8.59375 20.453125 8.59375 31.390625 
Q 8.59375 42.28125 12.203125 53.3125 
Q 15.828125 64.359375 23.1875 75.875 
z
" id="DejaVuSans-40"/>
      <path d="M 72.703125 32.078125 
Q 68.453125 32.078125 66.03125 28.46875 
Q 63.625 24.859375 63.625 18.40625 
Q 63.625 12.0625 66.03125 8.421875 
Q 68.453125 4.78125 72.703125 4.78125 
Q 76.859375 4.78125 79.265625 8.421875 
Q 81.6875 12.0625 81.6875 18.40625 
Q 81.6875 24.8125 79.265625 28.4375 
Q 76.859375 32.078125 72.703125 32.078125 
z
M 72.703125 38.28125 
Q 80.421875 38.28125 84.953125 32.90625 
Q 89.5 27.546875 89.5 18.40625 
Q 89.5 9.28125 84.9375 3.921875 
Q 80.375 -1.421875 72.703125 -1.421875 
Q 64.890625 -1.421875 60.34375 3.921875 
Q 55.8125 9.28125 55.8125 18.40625 
Q 55.8125 27.59375 60.375 32.9375 
Q 64.9375 38.28125 72.703125 38.28125 
z
M 22.3125 68.015625 
Q 18.109375 68.015625 15.6875 64.375 
Q 13.28125 60.75 13.28125 54.390625 
Q 13.28125 47.953125 15.671875 44.328125 
Q 18.0625 40.71875 22.3125 40.71875 
Q 26.5625 40.71875 28.96875 44.328125 
Q 31.390625 47.953125 31.390625 54.390625 
Q 31.390625 60.6875 28.953125 64.34375 
Q 26.515625 68.015625 22.3125 68.015625 
z
M 66.40625 74.21875 
L 74.21875 74.21875 
L 28.609375 -1.421875 
L 20.796875 -1.421875 
z
M 22.3125 74.21875 
Q 30.03125 74.21875 34.609375 68.875 
Q 39.203125 63.53125 39.203125 54.390625 
Q 39.203125 45.171875 34.640625 39.84375 
Q 30.078125 34.515625 22.3125 34.515625 
Q 14.546875 34.515625 10.03125 39.859375 
Q 5.515625 45.21875 5.515625 54.390625 
Q 5.515625 63.484375 10.046875 68.84375 
Q 14.59375 74.21875 22.3125 74.21875 
z
" id="DejaVuSans-37"/>
      <path d="M 8.015625 75.875 
L 15.828125 75.875 
Q 23.140625 64.359375 26.78125 53.3125 
Q 30.421875 42.28125 30.421875 31.390625 
Q 30.421875 20.453125 26.78125 9.375 
Q 23.140625 -1.703125 15.828125 -13.1875 
L 8.015625 -13.1875 
Q 14.5 -2 17.703125 9.0625 
Q 20.90625 20.125 20.90625 31.390625 
Q 20.90625 42.671875 17.703125 53.65625 
Q 14.5 64.65625 8.015625 75.875 
z
" id="DejaVuSans-41"/>
     </defs>
     <g transform="translate(458.768438 201.360813)rotate(-90)scale(0.1 -0.1)">
      <use xlink:href="#DejaVuSans-82"/>
      <use x="64.982422" xlink:href="#DejaVuSans-101"/>
      <use x="126.505859" xlink:href="#DejaVuSans-116"/>
      <use x="165.714844" xlink:href="#DejaVuSans-117"/>
      <use x="229.09375" xlink:href="#DejaVuSans-114"/>
      <use x="268.457031" xlink:href="#DejaVuSans-110"/>
      <use x="331.835938" xlink:href="#DejaVuSans-32"/>
      <use x="363.623047" xlink:href="#DejaVuSans-40"/>
      <use x="402.636719" xlink:href="#DejaVuSans-37"/>
      <use x="497.65625" xlink:href="#DejaVuSans-41"/>
     </g>
    </g>
   </g>
   <g id="line2d_25">
    <path clip-path="url(#pda8632ee15)" d="M 73.832727 295.234317 
L 74.577592 294.914606 
L 75.402263 294.838154 
L 76.200333 295.451511 
L 77.025004 295.488 
L 78.647745 294.867692 
L 79.472416 294.763439 
L 80.270485 295.359421 
L 81.095157 295.437611 
L 81.893226 295.347258 
L 82.717898 294.945882 
L 83.542569 294.125756 
L 84.314036 293.865122 
L 85.138707 294.18657 
L 86.761448 294.325575 
L 87.559517 293.689629 
L 89.20886 293.905086 
L 90.006929 293.293466 
L 90.831601 292.822588 
L 91.62967 293.159674 
L 92.454342 293.057158 
L 93.279013 292.313484 
L 94.023878 292.612344 
L 94.848549 292.445538 
L 97.269359 290.586353 
L 98.094031 289.774914 
L 98.918702 289.894805 
L 99.716771 289.837466 
L 102.164183 289.060778 
L 102.988855 289.905231 
L 104.558391 289.590733 
L 105.35646 290.014697 
L 106.181132 288.754968 
L 107.803872 288.259765 
L 108.628544 289.218896 
L 109.426613 289.222371 
L 110.251285 288.986063 
L 111.049354 288.221538 
L 113.443561 286.675113 
L 115.066302 286.212923 
L 115.890973 285.811548 
L 116.689043 286.164271 
L 118.338386 284.772489 
L 119.961126 284.11743 
L 120.759195 284.378063 
L 121.583867 282.767348 
L 122.408538 283.42067 
L 123.180005 283.113122 
L 124.004677 283.450208 
L 125.627418 282.466751 
L 126.425487 282.352072 
L 127.250158 281.356452 
L 128.07483 281.35124 
L 128.872899 280.986353 
L 129.69757 281.212235 
L 132.144983 279.698824 
L 132.889847 279.146281 
L 133.714519 278.840471 
L 134.512588 278.981213 
L 136.135329 278.141973 
L 136.96 278.006443 
L 137.784671 277.109864 
L 138.582741 277.226281 
L 139.407412 276.887457 
L 140.205481 277.306208 
L 141.030153 276.983023 
L 141.854824 276.110769 
L 142.599689 276.937846 
L 143.42436 278.103747 
L 144.22243 278.171511 
L 145.047101 278.002968 
L 145.84517 278.27924 
L 146.669842 277.417412 
L 147.494513 276.929158 
L 148.292582 277.658932 
L 149.117254 277.502552 
L 149.915323 277.808362 
L 150.739995 277.330534 
L 151.564666 276.486081 
L 152.309531 275.347982 
L 153.134202 274.805864 
L 153.932271 274.003113 
L 154.756943 271.912833 
L 155.555012 271.405466 
L 156.379684 271.141357 
L 157.204355 270.698281 
L 158.002424 269.551493 
L 158.827096 269.108416 
L 159.625165 267.899077 
L 160.449836 266.995548 
L 161.274508 266.36829 
L 162.045975 266.92952 
L 163.668715 267.211005 
L 164.493387 267.06505 
L 165.291456 266.470805 
L 166.116128 267.186679 
L 166.940799 267.084163 
L 168.56354 264.46914 
L 169.361609 262.634281 
L 170.186281 263.501321 
L 171.010952 262.651656 
L 171.755817 262.472688 
L 172.580488 263.508271 
L 173.378557 262.15124 
L 175.001298 260.092235 
L 175.825969 258.09057 
L 176.650641 259.09314 
L 177.44871 257.819511 
L 178.273382 257.555403 
L 179.071451 257.028923 
L 180.720794 255.642353 
L 182.29033 253.619837 
L 183.088399 253.225412 
L 183.913071 252.996054 
L 184.71114 251.758914 
L 185.535811 251.842317 
L 186.360483 253.256688 
L 187.158552 251.983059 
L 187.983223 251.529557 
L 188.781293 250.601701 
L 189.605964 249.242932 
L 190.430636 248.254262 
L 191.1755 249.392362 
L 192.798241 248.000579 
L 193.622912 248.817231 
L 194.420981 248.631312 
L 195.245653 249.345448 
L 196.070324 249.529629 
L 196.868394 248.930172 
L 197.693065 247.927602 
L 198.491134 247.741683 
L 199.315806 246.970208 
L 200.140477 248.139584 
L 200.911944 247.449774 
L 201.736616 245.256977 
L 202.534685 245.665303 
L 203.359356 245.665303 
L 204.157426 244.388199 
L 204.982097 244.26657 
L 205.806769 242.42476 
L 206.604838 243.630624 
L 207.429509 243.293538 
L 208.227578 243.124995 
L 209.05225 242.191928 
L 209.876921 240.914824 
L 211.446457 242.589828 
L 212.244527 241.927819 
L 213.069198 241.446516 
L 213.867267 241.611584 
L 214.691939 240.612489 
L 215.51661 241.026027 
L 216.31468 242.120688 
L 217.139351 240.873122 
L 217.93742 240.734118 
L 218.762092 240.963475 
L 220.331628 240.336217 
L 221.156299 240.727167 
L 222.77904 240.278878 
L 223.577109 240.756706 
L 224.401781 240.998226 
L 225.226452 240.192 
L 226.024521 240.320579 
L 226.849193 239.448326 
L 227.647262 238.909683 
L 228.471933 238.932271 
L 229.296605 239.382299 
L 230.04147 238.907946 
L 230.866141 238.854081 
L 231.66421 237.470986 
L 232.488882 235.681303 
L 233.286951 235.538824 
L 234.111622 237.719457 
L 234.936294 236.786389 
L 235.734363 235.446733 
L 236.559035 234.635294 
L 237.357104 234.216543 
L 238.181775 232.13495 
L 239.777914 230.093321 
L 240.602585 230.11591 
L 241.400654 232.133213 
L 242.225326 232.008109 
L 243.023395 231.048977 
L 243.848067 231.243584 
L 244.672738 229.971692 
L 245.470807 229.450425 
L 246.295479 228.357502 
L 247.093548 227.629466 
L 247.918219 226.070878 
L 248.742891 226.003113 
L 249.487755 225.728579 
L 250.312427 226.458353 
L 251.110496 225.944036 
L 251.935168 224.371548 
L 253.557908 223.259511 
L 254.38258 222.618353 
L 255.180649 223.144833 
L 256.00532 224.505339 
L 256.80339 223.410679 
L 258.452733 221.534118 
L 259.197597 221.181394 
L 260.022269 221.761738 
L 260.820338 221.869466 
L 261.645009 222.931113 
L 262.443079 222.818172 
L 263.26775 221.693973 
L 265.715162 216.425701 
L 266.513231 214.801086 
L 267.337903 214.832362 
L 268.907439 213.98791 
L 269.73211 213.810679 
L 270.53018 212.123511 
L 271.354851 211.105303 
L 272.15292 212.286842 
L 272.977592 212.104398 
L 274.600333 209.32952 
L 275.425004 208.033303 
L 276.223073 207.367819 
L 277.047745 207.525937 
L 277.872416 207.995077 
L 278.643883 208.118443 
L 279.468555 207.920362 
L 280.266624 207.454697 
L 281.091295 207.863023 
L 281.889364 209.963729 
L 282.714036 210.102733 
L 283.538707 208.856905 
L 284.336777 210.335566 
L 285.161448 213.416253 
L 285.959517 209.92029 
L 286.784189 207.856072 
L 287.60886 209.239167 
L 288.353725 210.135747 
L 289.178396 207.296579 
L 290.801137 205.649376 
L 291.599206 205.578136 
L 292.423878 203.003077 
L 293.248549 201.531367 
L 294.046618 199.371584 
L 294.87129 199.838986 
L 295.669359 197.064109 
L 296.494031 198.615747 
L 297.318702 199.39591 
L 298.063567 198.275186 
L 298.888238 196.598443 
L 299.686307 194.676706 
L 300.510979 196.270045 
L 301.309048 195.55591 
L 302.133719 193.163294 
L 302.958391 192.822733 
L 303.75646 189.96619 
L 304.581132 188.702986 
L 305.379201 189.175602 
L 306.203872 188.350262 
L 307.028544 187.936724 
L 307.773408 185.516308 
L 308.59808 185.412054 
L 309.396149 182.786606 
L 310.220821 181.669357 
L 311.01889 183.403439 
L 311.843561 182.419982 
L 312.668233 180.988235 
L 313.466302 180.724127 
L 314.290973 178.015276 
L 315.089043 177.341104 
L 315.913714 176.022299 
L 317.509853 171.475113 
L 318.334524 170.828742 
L 319.132593 169.277104 
L 319.957265 169.428271 
L 321.580005 165.506606 
L 323.202746 163.537955 
L 324.027418 165.127819 
L 324.825487 164.054009 
L 325.650158 164.191276 
L 328.044366 157.722353 
L 328.842435 153.526154 
L 330.465176 158.763149 
L 331.289847 158.005575 
L 332.114519 160.186208 
L 332.912588 157.15591 
L 333.737259 153.487928 
L 335.36 153.328072 
L 336.184671 151.547077 
L 336.929536 148.363873 
L 337.754208 147.858244 
L 338.552277 145.997321 
L 339.376948 142.725502 
L 340.175017 140.793339 
L 340.999689 141.80981 
L 341.82436 136.439023 
L 342.62243 139.116597 
L 343.447101 135.549394 
L 344.24517 132.837068 
L 345.069842 131.087348 
L 345.894513 128.726009 
L 346.639378 127.507982 
L 349.08679 128.119602 
L 349.884859 130.977882 
L 350.709531 127.184796 
L 351.534202 131.966552 
L 352.332271 131.440072 
L 353.156943 127.961484 
L 353.955012 128.117864 
L 354.779684 129.221213 
L 356.375822 127.315113 
L 357.200493 123.294407 
L 357.998563 123.238805 
L 358.823234 121.198914 
L 359.621303 116.762932 
L 360.445975 113.560615 
L 361.270646 113.967204 
L 362.068715 114.495421 
L 363.691456 118.891439 
L 364.516128 117.734226 
L 365.340799 116.161738 
L 366.085664 111.093285 
L 366.910335 111.447747 
L 367.708404 109.267113 
L 368.533076 106.148199 
L 369.331145 104.86067 
L 370.155817 103.199566 
L 370.980488 100.475077 
L 371.778557 99.969448 
L 372.603229 97.017339 
L 373.401298 92.496217 
L 374.225969 89.780416 
L 375.050641 86.473846 
L 375.795505 91.606588 
L 376.620177 90.786462 
L 377.418246 91.893285 
L 378.242918 89.017629 
L 379.040987 88.108887 
L 380.69033 80.534878 
L 381.488399 82.286335 
L 382.313071 93.773321 
L 383.11114 91.146136 
L 383.935811 91.457158 
L 384.760483 87.293973 
L 385.505347 85.97343 
L 386.330019 79.801629 
L 387.128088 76.908597 
L 387.952759 79.603548 
L 388.750829 72.686335 
L 389.5755 70.99048 
L 390.400172 64.667511 
L 391.198241 64.566733 
L 392.022912 62.980344 
L 392.820981 60.250643 
L 393.645653 59.074317 
L 394.470324 53.568 
L 395.241791 57.434063 
L 396.066463 59.117756 
L 396.864532 56.09962 
L 397.689204 54.897231 
L 398.487273 54.009339 
L 398.487273 54.009339 
" style="fill:none;stroke:#000000;stroke-linecap:square;stroke-width:1.5;"/>
   </g>
   <g id="patch_7">
    <path d="M 57.6 307.584 
L 57.6 41.472 
" style="fill:none;stroke:#000000;stroke-linecap:square;stroke-linejoin:miter;stroke-width:0.8;"/>
   </g>
   <g id="patch_8">
    <path d="M 414.72 307.584 
L 414.72 41.472 
" style="fill:none;stroke:#000000;stroke-linecap:square;stroke-linejoin:miter;stroke-width:0.8;"/>
   </g>
   <g id="patch_9">
    <path d="M 57.6 307.584 
L 414.72 307.584 
" style="fill:none;stroke:#000000;stroke-linecap:square;stroke-linejoin:miter;stroke-width:0.8;"/>
   </g>
   <g id="patch_10">
    <path d="M 57.6 41.472 
L 414.72 41.472 
" style="fill:none;stroke:#000000;stroke-linecap:square;stroke-linejoin:miter;stroke-width:0.8;"/>
   </g>
  </g>
 </g>
 <defs>
  <clipPath id="pda8632ee15">
   <rect height="266.112" width="357.12" x="57.6" y="41.472"/>
  </clipPath>
 </defs>
</svg>
