<?xml version="1.0" encoding="utf-8" standalone="no"?>
<!DOCTYPE svg PUBLIC "-//W3C//DTD SVG 1.1//EN"
  "http://www.w3.org/Graphics/SVG/1.1/DTD/svg11.dtd">
<!-- Created with matplotlib (https://matplotlib.org/) -->
<svg height="360pt" version="1.1" viewBox="0 0 582.48 360" width="582.48pt" xmlns="http://www.w3.org/2000/svg" xmlns:xlink="http://www.w3.org/1999/xlink">
 <defs>
  <style type="text/css">
*{stroke-linecap:butt;stroke-linejoin:round;}
  </style>
 </defs>
 <g id="figure_1">
  <g id="patch_1">
   <path d="M 0 360 
L 582.48 360 
L 582.48 0 
L 0 0 
z
" style="fill:none;"/>
  </g>
  <g id="axes_1">
   <g id="patch_2">
    <path d="M 72.81 320.4 
L 524.232 320.4 
L 524.232 43.2 
L 72.81 43.2 
z
" style="fill:none;"/>
   </g>
   <g id="matplotlib.axis_1">
    <g id="xtick_1">
     <g id="line2d_1">
      <defs>
       <path d="M 0 0 
L 0 3.5 
" id="mf668aec5ef" style="stroke:#000000;stroke-width:0.8;"/>
      </defs>
      <g>
       <use style="stroke:#000000;stroke-width:0.8;" x="104.594219" xlink:href="#mf668aec5ef" y="320.4"/>
      </g>
     </g>
     <g id="text_1">
      <!-- 1988 -->
      <defs>
       <path d="M 12.40625 8.296875 
L 28.515625 8.296875 
L 28.515625 63.921875 
L 10.984375 60.40625 
L 10.984375 69.390625 
L 28.421875 72.90625 
L 38.28125 72.90625 
L 38.28125 8.296875 
L 54.390625 8.296875 
L 54.390625 0 
L 12.40625 0 
z
" id="DejaVuSans-49"/>
       <path d="M 10.984375 1.515625 
L 10.984375 10.5 
Q 14.703125 8.734375 18.5 7.8125 
Q 22.3125 6.890625 25.984375 6.890625 
Q 35.75 6.890625 40.890625 13.453125 
Q 46.046875 20.015625 46.78125 33.40625 
Q 43.953125 29.203125 39.59375 26.953125 
Q 35.25 24.703125 29.984375 24.703125 
Q 19.046875 24.703125 12.671875 31.3125 
Q 6.296875 37.9375 6.296875 49.421875 
Q 6.296875 60.640625 12.9375 67.421875 
Q 19.578125 74.21875 30.609375 74.21875 
Q 43.265625 74.21875 49.921875 64.515625 
Q 56.59375 54.828125 56.59375 36.375 
Q 56.59375 19.140625 48.40625 8.859375 
Q 40.234375 -1.421875 26.421875 -1.421875 
Q 22.703125 -1.421875 18.890625 -0.6875 
Q 15.09375 0.046875 10.984375 1.515625 
z
M 30.609375 32.421875 
Q 37.25 32.421875 41.125 36.953125 
Q 45.015625 41.5 45.015625 49.421875 
Q 45.015625 57.28125 41.125 61.84375 
Q 37.25 66.40625 30.609375 66.40625 
Q 23.96875 66.40625 20.09375 61.84375 
Q 16.21875 57.28125 16.21875 49.421875 
Q 16.21875 41.5 20.09375 36.953125 
Q 23.96875 32.421875 30.609375 32.421875 
z
" id="DejaVuSans-57"/>
       <path d="M 31.78125 34.625 
Q 24.75 34.625 20.71875 30.859375 
Q 16.703125 27.09375 16.703125 20.515625 
Q 16.703125 13.921875 20.71875 10.15625 
Q 24.75 6.390625 31.78125 6.390625 
Q 38.8125 6.390625 42.859375 10.171875 
Q 46.921875 13.96875 46.921875 20.515625 
Q 46.921875 27.09375 42.890625 30.859375 
Q 38.875 34.625 31.78125 34.625 
z
M 21.921875 38.8125 
Q 15.578125 40.375 12.03125 44.71875 
Q 8.5 49.078125 8.5 55.328125 
Q 8.5 64.0625 14.71875 69.140625 
Q 20.953125 74.21875 31.78125 74.21875 
Q 42.671875 74.21875 48.875 69.140625 
Q 55.078125 64.0625 55.078125 55.328125 
Q 55.078125 49.078125 51.53125 44.71875 
Q 48 40.375 41.703125 38.8125 
Q 48.828125 37.15625 52.796875 32.3125 
Q 56.78125 27.484375 56.78125 20.515625 
Q 56.78125 9.90625 50.3125 4.234375 
Q 43.84375 -1.421875 31.78125 -1.421875 
Q 19.734375 -1.421875 13.25 4.234375 
Q 6.78125 9.90625 6.78125 20.515625 
Q 6.78125 27.484375 10.78125 32.3125 
Q 14.796875 37.15625 21.921875 38.8125 
z
M 18.3125 54.390625 
Q 18.3125 48.734375 21.84375 45.5625 
Q 25.390625 42.390625 31.78125 42.390625 
Q 38.140625 42.390625 41.71875 45.5625 
Q 45.3125 48.734375 45.3125 54.390625 
Q 45.3125 60.0625 41.71875 63.234375 
Q 38.140625 66.40625 31.78125 66.40625 
Q 25.390625 66.40625 21.84375 63.234375 
Q 18.3125 60.0625 18.3125 54.390625 
z
" id="DejaVuSans-56"/>
      </defs>
      <g transform="translate(91.869219 334.998438)scale(0.1 -0.1)">
       <use xlink:href="#DejaVuSans-49"/>
       <use x="63.623047" xlink:href="#DejaVuSans-57"/>
       <use x="127.246094" xlink:href="#DejaVuSans-56"/>
       <use x="190.869141" xlink:href="#DejaVuSans-56"/>
      </g>
     </g>
    </g>
    <g id="xtick_2">
     <g id="line2d_2">
      <g>
       <use style="stroke:#000000;stroke-width:0.8;" x="153.723234" xlink:href="#mf668aec5ef" y="320.4"/>
      </g>
     </g>
     <g id="text_2">
      <!-- 1992 -->
      <defs>
       <path d="M 19.1875 8.296875 
L 53.609375 8.296875 
L 53.609375 0 
L 7.328125 0 
L 7.328125 8.296875 
Q 12.9375 14.109375 22.625 23.890625 
Q 32.328125 33.6875 34.8125 36.53125 
Q 39.546875 41.84375 41.421875 45.53125 
Q 43.3125 49.21875 43.3125 52.78125 
Q 43.3125 58.59375 39.234375 62.25 
Q 35.15625 65.921875 28.609375 65.921875 
Q 23.96875 65.921875 18.8125 64.3125 
Q 13.671875 62.703125 7.8125 59.421875 
L 7.8125 69.390625 
Q 13.765625 71.78125 18.9375 73 
Q 24.125 74.21875 28.421875 74.21875 
Q 39.75 74.21875 46.484375 68.546875 
Q 53.21875 62.890625 53.21875 53.421875 
Q 53.21875 48.921875 51.53125 44.890625 
Q 49.859375 40.875 45.40625 35.40625 
Q 44.1875 33.984375 37.640625 27.21875 
Q 31.109375 20.453125 19.1875 8.296875 
z
" id="DejaVuSans-50"/>
      </defs>
      <g transform="translate(140.998234 334.998438)scale(0.1 -0.1)">
       <use xlink:href="#DejaVuSans-49"/>
       <use x="63.623047" xlink:href="#DejaVuSans-57"/>
       <use x="127.246094" xlink:href="#DejaVuSans-57"/>
       <use x="190.869141" xlink:href="#DejaVuSans-50"/>
      </g>
     </g>
    </g>
    <g id="xtick_3">
     <g id="line2d_3">
      <g>
       <use style="stroke:#000000;stroke-width:0.8;" x="202.852248" xlink:href="#mf668aec5ef" y="320.4"/>
      </g>
     </g>
     <g id="text_3">
      <!-- 1996 -->
      <defs>
       <path d="M 33.015625 40.375 
Q 26.375 40.375 22.484375 35.828125 
Q 18.609375 31.296875 18.609375 23.390625 
Q 18.609375 15.53125 22.484375 10.953125 
Q 26.375 6.390625 33.015625 6.390625 
Q 39.65625 6.390625 43.53125 10.953125 
Q 47.40625 15.53125 47.40625 23.390625 
Q 47.40625 31.296875 43.53125 35.828125 
Q 39.65625 40.375 33.015625 40.375 
z
M 52.59375 71.296875 
L 52.59375 62.3125 
Q 48.875 64.0625 45.09375 64.984375 
Q 41.3125 65.921875 37.59375 65.921875 
Q 27.828125 65.921875 22.671875 59.328125 
Q 17.53125 52.734375 16.796875 39.40625 
Q 19.671875 43.65625 24.015625 45.921875 
Q 28.375 48.1875 33.59375 48.1875 
Q 44.578125 48.1875 50.953125 41.515625 
Q 57.328125 34.859375 57.328125 23.390625 
Q 57.328125 12.15625 50.6875 5.359375 
Q 44.046875 -1.421875 33.015625 -1.421875 
Q 20.359375 -1.421875 13.671875 8.265625 
Q 6.984375 17.96875 6.984375 36.375 
Q 6.984375 53.65625 15.1875 63.9375 
Q 23.390625 74.21875 37.203125 74.21875 
Q 40.921875 74.21875 44.703125 73.484375 
Q 48.484375 72.75 52.59375 71.296875 
z
" id="DejaVuSans-54"/>
      </defs>
      <g transform="translate(190.127248 334.998438)scale(0.1 -0.1)">
       <use xlink:href="#DejaVuSans-49"/>
       <use x="63.623047" xlink:href="#DejaVuSans-57"/>
       <use x="127.246094" xlink:href="#DejaVuSans-57"/>
       <use x="190.869141" xlink:href="#DejaVuSans-54"/>
      </g>
     </g>
    </g>
    <g id="xtick_4">
     <g id="line2d_4">
      <g>
       <use style="stroke:#000000;stroke-width:0.8;" x="251.981263" xlink:href="#mf668aec5ef" y="320.4"/>
      </g>
     </g>
     <g id="text_4">
      <!-- 2000 -->
      <defs>
       <path d="M 31.78125 66.40625 
Q 24.171875 66.40625 20.328125 58.90625 
Q 16.5 51.421875 16.5 36.375 
Q 16.5 21.390625 20.328125 13.890625 
Q 24.171875 6.390625 31.78125 6.390625 
Q 39.453125 6.390625 43.28125 13.890625 
Q 47.125 21.390625 47.125 36.375 
Q 47.125 51.421875 43.28125 58.90625 
Q 39.453125 66.40625 31.78125 66.40625 
z
M 31.78125 74.21875 
Q 44.046875 74.21875 50.515625 64.515625 
Q 56.984375 54.828125 56.984375 36.375 
Q 56.984375 17.96875 50.515625 8.265625 
Q 44.046875 -1.421875 31.78125 -1.421875 
Q 19.53125 -1.421875 13.0625 8.265625 
Q 6.59375 17.96875 6.59375 36.375 
Q 6.59375 54.828125 13.0625 64.515625 
Q 19.53125 74.21875 31.78125 74.21875 
z
" id="DejaVuSans-48"/>
      </defs>
      <g transform="translate(239.256263 334.998438)scale(0.1 -0.1)">
       <use xlink:href="#DejaVuSans-50"/>
       <use x="63.623047" xlink:href="#DejaVuSans-48"/>
       <use x="127.246094" xlink:href="#DejaVuSans-48"/>
       <use x="190.869141" xlink:href="#DejaVuSans-48"/>
      </g>
     </g>
    </g>
    <g id="xtick_5">
     <g id="line2d_5">
      <g>
       <use style="stroke:#000000;stroke-width:0.8;" x="301.110277" xlink:href="#mf668aec5ef" y="320.4"/>
      </g>
     </g>
     <g id="text_5">
      <!-- 2004 -->
      <defs>
       <path d="M 37.796875 64.3125 
L 12.890625 25.390625 
L 37.796875 25.390625 
z
M 35.203125 72.90625 
L 47.609375 72.90625 
L 47.609375 25.390625 
L 58.015625 25.390625 
L 58.015625 17.1875 
L 47.609375 17.1875 
L 47.609375 0 
L 37.796875 0 
L 37.796875 17.1875 
L 4.890625 17.1875 
L 4.890625 26.703125 
z
" id="DejaVuSans-52"/>
      </defs>
      <g transform="translate(288.385277 334.998438)scale(0.1 -0.1)">
       <use xlink:href="#DejaVuSans-50"/>
       <use x="63.623047" xlink:href="#DejaVuSans-48"/>
       <use x="127.246094" xlink:href="#DejaVuSans-48"/>
       <use x="190.869141" xlink:href="#DejaVuSans-52"/>
      </g>
     </g>
    </g>
    <g id="xtick_6">
     <g id="line2d_6">
      <g>
       <use style="stroke:#000000;stroke-width:0.8;" x="350.239292" xlink:href="#mf668aec5ef" y="320.4"/>
      </g>
     </g>
     <g id="text_6">
      <!-- 2008 -->
      <g transform="translate(337.514292 334.998438)scale(0.1 -0.1)">
       <use xlink:href="#DejaVuSans-50"/>
       <use x="63.623047" xlink:href="#DejaVuSans-48"/>
       <use x="127.246094" xlink:href="#DejaVuSans-48"/>
       <use x="190.869141" xlink:href="#DejaVuSans-56"/>
      </g>
     </g>
    </g>
    <g id="xtick_7">
     <g id="line2d_7">
      <g>
       <use style="stroke:#000000;stroke-width:0.8;" x="399.368306" xlink:href="#mf668aec5ef" y="320.4"/>
      </g>
     </g>
     <g id="text_7">
      <!-- 2012 -->
      <g transform="translate(386.643306 334.998438)scale(0.1 -0.1)">
       <use xlink:href="#DejaVuSans-50"/>
       <use x="63.623047" xlink:href="#DejaVuSans-48"/>
       <use x="127.246094" xlink:href="#DejaVuSans-49"/>
       <use x="190.869141" xlink:href="#DejaVuSans-50"/>
      </g>
     </g>
    </g>
    <g id="xtick_8">
     <g id="line2d_8">
      <g>
       <use style="stroke:#000000;stroke-width:0.8;" x="448.497321" xlink:href="#mf668aec5ef" y="320.4"/>
      </g>
     </g>
     <g id="text_8">
      <!-- 2016 -->
      <g transform="translate(435.772321 334.998438)scale(0.1 -0.1)">
       <use xlink:href="#DejaVuSans-50"/>
       <use x="63.623047" xlink:href="#DejaVuSans-48"/>
       <use x="127.246094" xlink:href="#DejaVuSans-49"/>
       <use x="190.869141" xlink:href="#DejaVuSans-54"/>
      </g>
     </g>
    </g>
    <g id="xtick_9">
     <g id="line2d_9">
      <g>
       <use style="stroke:#000000;stroke-width:0.8;" x="497.626335" xlink:href="#mf668aec5ef" y="320.4"/>
      </g>
     </g>
     <g id="text_9">
      <!-- 2020 -->
      <g transform="translate(484.901335 334.998438)scale(0.1 -0.1)">
       <use xlink:href="#DejaVuSans-50"/>
       <use x="63.623047" xlink:href="#DejaVuSans-48"/>
       <use x="127.246094" xlink:href="#DejaVuSans-50"/>
       <use x="190.869141" xlink:href="#DejaVuSans-48"/>
      </g>
     </g>
    </g>
    <g id="text_10">
     <!-- Year -->
     <defs>
      <path d="M -0.203125 72.90625 
L 10.40625 72.90625 
L 30.609375 42.921875 
L 50.6875 72.90625 
L 61.28125 72.90625 
L 35.5 34.71875 
L 35.5 0 
L 25.59375 0 
L 25.59375 34.71875 
z
" id="DejaVuSans-89"/>
      <path d="M 56.203125 29.59375 
L 56.203125 25.203125 
L 14.890625 25.203125 
Q 15.484375 15.921875 20.484375 11.0625 
Q 25.484375 6.203125 34.421875 6.203125 
Q 39.59375 6.203125 44.453125 7.46875 
Q 49.3125 8.734375 54.109375 11.28125 
L 54.109375 2.78125 
Q 49.265625 0.734375 44.1875 -0.34375 
Q 39.109375 -1.421875 33.890625 -1.421875 
Q 20.796875 -1.421875 13.15625 6.1875 
Q 5.515625 13.8125 5.515625 26.8125 
Q 5.515625 40.234375 12.765625 48.109375 
Q 20.015625 56 32.328125 56 
Q 43.359375 56 49.78125 48.890625 
Q 56.203125 41.796875 56.203125 29.59375 
z
M 47.21875 32.234375 
Q 47.125 39.59375 43.09375 43.984375 
Q 39.0625 48.390625 32.421875 48.390625 
Q 24.90625 48.390625 20.390625 44.140625 
Q 15.875 39.890625 15.1875 32.171875 
z
" id="DejaVuSans-101"/>
      <path d="M 34.28125 27.484375 
Q 23.390625 27.484375 19.1875 25 
Q 14.984375 22.515625 14.984375 16.5 
Q 14.984375 11.71875 18.140625 8.90625 
Q 21.296875 6.109375 26.703125 6.109375 
Q 34.1875 6.109375 38.703125 11.40625 
Q 43.21875 16.703125 43.21875 25.484375 
L 43.21875 27.484375 
z
M 52.203125 31.203125 
L 52.203125 0 
L 43.21875 0 
L 43.21875 8.296875 
Q 40.140625 3.328125 35.546875 0.953125 
Q 30.953125 -1.421875 24.3125 -1.421875 
Q 15.921875 -1.421875 10.953125 3.296875 
Q 6 8.015625 6 15.921875 
Q 6 25.140625 12.171875 29.828125 
Q 18.359375 34.515625 30.609375 34.515625 
L 43.21875 34.515625 
L 43.21875 35.40625 
Q 43.21875 41.609375 39.140625 45 
Q 35.0625 48.390625 27.6875 48.390625 
Q 23 48.390625 18.546875 47.265625 
Q 14.109375 46.140625 10.015625 43.890625 
L 10.015625 52.203125 
Q 14.9375 54.109375 19.578125 55.046875 
Q 24.21875 56 28.609375 56 
Q 40.484375 56 46.34375 49.84375 
Q 52.203125 43.703125 52.203125 31.203125 
z
" id="DejaVuSans-97"/>
      <path d="M 41.109375 46.296875 
Q 39.59375 47.171875 37.8125 47.578125 
Q 36.03125 48 33.890625 48 
Q 26.265625 48 22.1875 43.046875 
Q 18.109375 38.09375 18.109375 28.8125 
L 18.109375 0 
L 9.078125 0 
L 9.078125 54.6875 
L 18.109375 54.6875 
L 18.109375 46.1875 
Q 20.953125 51.171875 25.484375 53.578125 
Q 30.03125 56 36.53125 56 
Q 37.453125 56 38.578125 55.875 
Q 39.703125 55.765625 41.0625 55.515625 
z
" id="DejaVuSans-114"/>
     </defs>
     <g transform="translate(287.9335 348.676562)scale(0.1 -0.1)">
      <use xlink:href="#DejaVuSans-89"/>
      <use x="47.833984" xlink:href="#DejaVuSans-101"/>
      <use x="109.357422" xlink:href="#DejaVuSans-97"/>
      <use x="170.636719" xlink:href="#DejaVuSans-114"/>
     </g>
    </g>
   </g>
   <g id="matplotlib.axis_2">
    <g id="ytick_1">
     <g id="line2d_10">
      <defs>
       <path d="M 0 0 
L -3.5 0 
" id="m1e9df63d60" style="stroke:#000000;stroke-width:0.8;"/>
      </defs>
      <g>
       <use style="stroke:#000000;stroke-width:0.8;" x="72.81" xlink:href="#m1e9df63d60" y="290.332127"/>
      </g>
     </g>
     <g id="text_11">
      <!-- 20000 -->
      <g transform="translate(33.9975 294.131345)scale(0.1 -0.1)">
       <use xlink:href="#DejaVuSans-50"/>
       <use x="63.623047" xlink:href="#DejaVuSans-48"/>
       <use x="127.246094" xlink:href="#DejaVuSans-48"/>
       <use x="190.869141" xlink:href="#DejaVuSans-48"/>
       <use x="254.492188" xlink:href="#DejaVuSans-48"/>
      </g>
     </g>
    </g>
    <g id="ytick_2">
     <g id="line2d_11">
      <g>
       <use style="stroke:#000000;stroke-width:0.8;" x="72.81" xlink:href="#m1e9df63d60" y="254.133032"/>
      </g>
     </g>
     <g id="text_12">
      <!-- 40000 -->
      <g transform="translate(33.9975 257.93225)scale(0.1 -0.1)">
       <use xlink:href="#DejaVuSans-52"/>
       <use x="63.623047" xlink:href="#DejaVuSans-48"/>
       <use x="127.246094" xlink:href="#DejaVuSans-48"/>
       <use x="190.869141" xlink:href="#DejaVuSans-48"/>
       <use x="254.492188" xlink:href="#DejaVuSans-48"/>
      </g>
     </g>
    </g>
    <g id="ytick_3">
     <g id="line2d_12">
      <g>
       <use style="stroke:#000000;stroke-width:0.8;" x="72.81" xlink:href="#m1e9df63d60" y="217.933937"/>
      </g>
     </g>
     <g id="text_13">
      <!-- 60000 -->
      <g transform="translate(33.9975 221.733155)scale(0.1 -0.1)">
       <use xlink:href="#DejaVuSans-54"/>
       <use x="63.623047" xlink:href="#DejaVuSans-48"/>
       <use x="127.246094" xlink:href="#DejaVuSans-48"/>
       <use x="190.869141" xlink:href="#DejaVuSans-48"/>
       <use x="254.492188" xlink:href="#DejaVuSans-48"/>
      </g>
     </g>
    </g>
    <g id="ytick_4">
     <g id="line2d_13">
      <g>
       <use style="stroke:#000000;stroke-width:0.8;" x="72.81" xlink:href="#m1e9df63d60" y="181.734842"/>
      </g>
     </g>
     <g id="text_14">
      <!-- 80000 -->
      <g transform="translate(33.9975 185.53406)scale(0.1 -0.1)">
       <use xlink:href="#DejaVuSans-56"/>
       <use x="63.623047" xlink:href="#DejaVuSans-48"/>
       <use x="127.246094" xlink:href="#DejaVuSans-48"/>
       <use x="190.869141" xlink:href="#DejaVuSans-48"/>
       <use x="254.492188" xlink:href="#DejaVuSans-48"/>
      </g>
     </g>
    </g>
    <g id="ytick_5">
     <g id="line2d_14">
      <g>
       <use style="stroke:#000000;stroke-width:0.8;" x="72.81" xlink:href="#m1e9df63d60" y="145.535747"/>
      </g>
     </g>
     <g id="text_15">
      <!-- 100000 -->
      <g transform="translate(27.635 149.334965)scale(0.1 -0.1)">
       <use xlink:href="#DejaVuSans-49"/>
       <use x="63.623047" xlink:href="#DejaVuSans-48"/>
       <use x="127.246094" xlink:href="#DejaVuSans-48"/>
       <use x="190.869141" xlink:href="#DejaVuSans-48"/>
       <use x="254.492188" xlink:href="#DejaVuSans-48"/>
       <use x="318.115234" xlink:href="#DejaVuSans-48"/>
      </g>
     </g>
    </g>
    <g id="ytick_6">
     <g id="line2d_15">
      <g>
       <use style="stroke:#000000;stroke-width:0.8;" x="72.81" xlink:href="#m1e9df63d60" y="109.336652"/>
      </g>
     </g>
     <g id="text_16">
      <!-- 120000 -->
      <g transform="translate(27.635 113.13587)scale(0.1 -0.1)">
       <use xlink:href="#DejaVuSans-49"/>
       <use x="63.623047" xlink:href="#DejaVuSans-50"/>
       <use x="127.246094" xlink:href="#DejaVuSans-48"/>
       <use x="190.869141" xlink:href="#DejaVuSans-48"/>
       <use x="254.492188" xlink:href="#DejaVuSans-48"/>
       <use x="318.115234" xlink:href="#DejaVuSans-48"/>
      </g>
     </g>
    </g>
    <g id="ytick_7">
     <g id="line2d_16">
      <g>
       <use style="stroke:#000000;stroke-width:0.8;" x="72.81" xlink:href="#m1e9df63d60" y="73.137557"/>
      </g>
     </g>
     <g id="text_17">
      <!-- 140000 -->
      <g transform="translate(27.635 76.936775)scale(0.1 -0.1)">
       <use xlink:href="#DejaVuSans-49"/>
       <use x="63.623047" xlink:href="#DejaVuSans-52"/>
       <use x="127.246094" xlink:href="#DejaVuSans-48"/>
       <use x="190.869141" xlink:href="#DejaVuSans-48"/>
       <use x="254.492188" xlink:href="#DejaVuSans-48"/>
       <use x="318.115234" xlink:href="#DejaVuSans-48"/>
      </g>
     </g>
    </g>
    <g id="text_18">
     <!-- Return -->
     <defs>
      <path d="M 44.390625 34.1875 
Q 47.5625 33.109375 50.5625 29.59375 
Q 53.5625 26.078125 56.59375 19.921875 
L 66.609375 0 
L 56 0 
L 46.6875 18.703125 
Q 43.0625 26.03125 39.671875 28.421875 
Q 36.28125 30.8125 30.421875 30.8125 
L 19.671875 30.8125 
L 19.671875 0 
L 9.8125 0 
L 9.8125 72.90625 
L 32.078125 72.90625 
Q 44.578125 72.90625 50.734375 67.671875 
Q 56.890625 62.453125 56.890625 51.90625 
Q 56.890625 45.015625 53.6875 40.46875 
Q 50.484375 35.9375 44.390625 34.1875 
z
M 19.671875 64.796875 
L 19.671875 38.921875 
L 32.078125 38.921875 
Q 39.203125 38.921875 42.84375 42.21875 
Q 46.484375 45.515625 46.484375 51.90625 
Q 46.484375 58.296875 42.84375 61.546875 
Q 39.203125 64.796875 32.078125 64.796875 
z
" id="DejaVuSans-82"/>
      <path d="M 18.3125 70.21875 
L 18.3125 54.6875 
L 36.8125 54.6875 
L 36.8125 47.703125 
L 18.3125 47.703125 
L 18.3125 18.015625 
Q 18.3125 11.328125 20.140625 9.421875 
Q 21.96875 7.515625 27.59375 7.515625 
L 36.8125 7.515625 
L 36.8125 0 
L 27.59375 0 
Q 17.1875 0 13.234375 3.875 
Q 9.28125 7.765625 9.28125 18.015625 
L 9.28125 47.703125 
L 2.6875 47.703125 
L 2.6875 54.6875 
L 9.28125 54.6875 
L 9.28125 70.21875 
z
" id="DejaVuSans-116"/>
      <path d="M 8.5 21.578125 
L 8.5 54.6875 
L 17.484375 54.6875 
L 17.484375 21.921875 
Q 17.484375 14.15625 20.5 10.265625 
Q 23.53125 6.390625 29.59375 6.390625 
Q 36.859375 6.390625 41.078125 11.03125 
Q 45.3125 15.671875 45.3125 23.6875 
L 45.3125 54.6875 
L 54.296875 54.6875 
L 54.296875 0 
L 45.3125 0 
L 45.3125 8.40625 
Q 42.046875 3.421875 37.71875 1 
Q 33.40625 -1.421875 27.6875 -1.421875 
Q 18.265625 -1.421875 13.375 4.4375 
Q 8.5 10.296875 8.5 21.578125 
z
M 31.109375 56 
z
" id="DejaVuSans-117"/>
      <path d="M 54.890625 33.015625 
L 54.890625 0 
L 45.90625 0 
L 45.90625 32.71875 
Q 45.90625 40.484375 42.875 44.328125 
Q 39.84375 48.1875 33.796875 48.1875 
Q 26.515625 48.1875 22.3125 43.546875 
Q 18.109375 38.921875 18.109375 30.90625 
L 18.109375 0 
L 9.078125 0 
L 9.078125 54.6875 
L 18.109375 54.6875 
L 18.109375 46.1875 
Q 21.34375 51.125 25.703125 53.5625 
Q 30.078125 56 35.796875 56 
Q 45.21875 56 50.046875 50.171875 
Q 54.890625 44.34375 54.890625 33.015625 
z
" id="DejaVuSans-110"/>
     </defs>
     <g transform="translate(21.555312 198.391406)rotate(-90)scale(0.1 -0.1)">
      <use xlink:href="#DejaVuSans-82"/>
      <use x="64.982422" xlink:href="#DejaVuSans-101"/>
      <use x="126.505859" xlink:href="#DejaVuSans-116"/>
      <use x="165.714844" xlink:href="#DejaVuSans-117"/>
      <use x="229.09375" xlink:href="#DejaVuSans-114"/>
      <use x="268.457031" xlink:href="#DejaVuSans-110"/>
     </g>
    </g>
   </g>
   <g id="line2d_17">
    <path clip-path="url(#p9adbf32612)" d="M 93.329182 307.535747 
L 94.270737 307.202715 
L 95.313174 307.123077 
L 96.321983 307.761991 
L 97.364419 307.8 
L 98.373228 307.421719 
L 99.415665 307.153846 
L 100.458101 307.045249 
L 101.46691 307.666063 
L 102.509347 307.747511 
L 103.518156 307.653394 
L 104.560592 307.235294 
L 105.603029 306.380995 
L 106.578211 306.109502 
L 107.620647 306.444344 
L 109.671893 306.58914 
L 110.680702 305.926697 
L 112.765575 306.151131 
L 113.774384 305.514027 
L 114.816821 305.023529 
L 115.82563 305.374661 
L 116.868066 305.267873 
L 117.910503 304.493213 
L 118.852058 304.804525 
L 119.894494 304.630769 
L 122.954549 302.694118 
L 123.996986 301.848869 
L 125.039422 301.973756 
L 126.048231 301.914027 
L 129.141913 301.104977 
L 130.184349 301.984615 
L 132.168341 301.657014 
L 133.17715 302.098643 
L 134.219587 300.786425 
L 136.270832 300.270588 
L 137.313269 301.269683 
L 138.322078 301.273303 
L 139.364514 301.027149 
L 140.373324 300.230769 
L 143.399752 298.61991 
L 145.450997 298.138462 
L 146.493434 297.720362 
L 147.502243 298.087783 
L 149.587116 296.638009 
L 151.638361 295.955656 
L 152.647171 296.227149 
L 153.689607 294.549321 
L 154.732043 295.229864 
L 155.707226 294.909502 
L 156.749662 295.260633 
L 158.800907 294.236199 
L 159.809717 294.116742 
L 160.852153 293.079638 
L 161.894589 293.074208 
L 162.903399 292.694118 
L 163.945835 292.929412 
L 167.039517 291.352941 
L 167.981072 290.777376 
L 169.023509 290.458824 
L 170.032318 290.60543 
L 172.083564 289.731222 
L 173.126 289.590045 
L 174.168436 288.656109 
L 175.177246 288.777376 
L 176.219682 288.424434 
L 177.228491 288.860633 
L 178.270928 288.523982 
L 179.313364 287.615385 
L 180.254919 288.476923 
L 181.297356 289.691403 
L 182.306165 289.761991 
L 183.348601 289.586425 
L 184.357411 289.874208 
L 185.399847 288.976471 
L 186.442283 288.467873 
L 187.451093 289.228054 
L 188.493529 289.065158 
L 189.502338 289.38371 
L 190.544774 288.885973 
L 191.587211 288.006335 
L 192.528766 286.820814 
L 193.571202 286.256109 
L 194.580012 285.41991 
L 195.622448 283.242534 
L 196.631257 282.714027 
L 197.673694 282.438914 
L 198.71613 281.977376 
L 199.724939 280.782805 
L 200.767376 280.321267 
L 201.776185 279.061538 
L 202.818621 278.120362 
L 203.861058 277.466968 
L 204.83624 278.051584 
L 206.887486 278.344796 
L 207.929922 278.19276 
L 208.938731 277.573756 
L 209.981168 278.319457 
L 211.023604 278.21267 
L 213.07485 275.488688 
L 214.083659 273.577376 
L 215.126095 274.480543 
L 216.168532 273.595475 
L 217.110087 273.40905 
L 218.152523 274.487783 
L 219.161333 273.074208 
L 220.203769 272.064253 
L 221.212578 270.929412 
L 222.255014 268.844344 
L 223.297451 269.888688 
L 224.30626 268.561991 
L 225.348696 268.286878 
L 226.357506 267.738462 
L 228.442378 266.294118 
L 230.42637 264.18733 
L 231.435179 263.776471 
L 232.477616 263.537557 
L 233.486425 262.248869 
L 234.528861 262.335747 
L 235.571298 263.80905 
L 236.580107 262.482353 
L 237.622543 262.009955 
L 238.631353 261.043439 
L 239.673789 259.628054 
L 240.716225 258.59819 
L 241.657781 259.78371 
L 243.709026 258.333937 
L 244.751463 259.184615 
L 245.760272 258.99095 
L 246.802708 259.734842 
L 247.845145 259.926697 
L 248.853954 259.302262 
L 249.89639 258.257919 
L 250.9052 258.064253 
L 251.947636 257.260633 
L 252.990072 258.478733 
L 253.965254 257.760181 
L 255.007691 255.476018 
L 256.0165 255.901357 
L 257.058936 255.901357 
L 258.067746 254.571041 
L 259.110182 254.444344 
L 260.152618 252.525792 
L 261.161428 253.7819 
L 262.203864 253.430769 
L 263.212673 253.255204 
L 264.25511 252.283258 
L 265.297546 250.952941 
L 267.281538 252.697738 
L 268.290347 252.008145 
L 269.332783 251.506787 
L 270.341593 251.678733 
L 271.384029 250.638009 
L 272.426465 251.068778 
L 273.435275 252.20905 
L 274.477711 250.909502 
L 275.48652 250.764706 
L 276.528957 251.00362 
L 278.512948 250.350226 
L 279.555385 250.757466 
L 281.60663 250.290498 
L 282.61544 250.788235 
L 283.657876 251.039819 
L 284.700312 250.2 
L 285.709121 250.333937 
L 286.751558 249.425339 
L 287.760367 248.864253 
L 288.802803 248.887783 
L 289.84524 249.356561 
L 290.786795 248.862443 
L 291.829231 248.806335 
L 292.838041 247.365611 
L 293.880477 245.501357 
L 294.889286 245.352941 
L 295.931723 247.624434 
L 296.974159 246.652489 
L 297.982968 245.257014 
L 299.025405 244.411765 
L 300.034214 243.975566 
L 301.07665 241.80724 
L 303.094269 239.680543 
L 304.136705 239.704072 
L 305.145515 241.80543 
L 306.187951 241.675113 
L 307.19676 240.676018 
L 308.239197 240.878733 
L 309.281633 239.553846 
L 310.290442 239.01086 
L 311.332879 237.872398 
L 312.341688 237.114027 
L 313.384124 235.490498 
L 314.42656 235.41991 
L 315.368116 235.133937 
L 316.410552 235.894118 
L 317.419361 235.358371 
L 318.461798 233.720362 
L 320.513043 232.561991 
L 321.55548 231.894118 
L 322.564289 232.442534 
L 323.606725 233.859729 
L 324.615535 232.719457 
L 326.700407 230.764706 
L 327.641963 230.397285 
L 328.684399 231.00181 
L 329.693208 231.114027 
L 330.735645 232.21991 
L 331.744454 232.102262 
L 332.78689 230.931222 
L 335.880572 225.443439 
L 336.889382 223.751131 
L 337.931818 223.78371 
L 338.974254 223.251584 
L 339.91581 222.904072 
L 340.958246 222.719457 
L 341.967055 220.961991 
L 343.009492 219.901357 
L 344.018301 221.132127 
L 345.060737 220.942081 
L 347.111983 218.051584 
L 348.154419 216.701357 
L 349.163228 216.008145 
L 350.205665 216.172851 
L 351.248101 216.661538 
L 352.223283 216.790045 
L 353.26572 216.58371 
L 354.274529 216.098643 
L 355.316965 216.523982 
L 356.325775 218.712217 
L 357.368211 218.857014 
L 358.410647 217.559276 
L 359.419457 219.099548 
L 360.461893 222.308597 
L 361.470702 218.666968 
L 362.513139 216.516742 
L 363.555575 217.957466 
L 364.49713 218.891403 
L 365.539567 215.933937 
L 366.548376 215.00905 
L 367.590812 214.2181 
L 368.599622 214.143891 
L 369.642058 211.461538 
L 370.684494 209.928507 
L 371.693304 207.678733 
L 372.73574 208.165611 
L 373.744549 205.275113 
L 374.786986 206.891403 
L 375.829422 207.704072 
L 376.770977 206.536652 
L 377.813414 204.790045 
L 378.822223 202.788235 
L 379.864659 204.447964 
L 380.873468 203.704072 
L 381.915905 201.211765 
L 382.958341 200.857014 
L 383.96715 197.881448 
L 385.009587 196.565611 
L 386.018396 197.057919 
L 387.060832 196.19819 
L 388.103269 195.767421 
L 389.044824 193.246154 
L 390.08726 193.137557 
L 391.09607 190.402715 
L 392.138506 189.238914 
L 393.147315 191.045249 
L 394.189752 190.020814 
L 395.232188 188.529412 
L 396.240997 188.254299 
L 397.283434 185.432579 
L 398.292243 184.730317 
L 399.334679 183.356561 
L 401.352298 178.61991 
L 402.394734 177.946606 
L 403.403544 176.330317 
L 404.44598 176.487783 
L 406.497226 172.402715 
L 407.539662 171.276923 
L 408.548471 170.352036 
L 409.590907 172.008145 
L 410.599717 170.889593 
L 411.642153 171.032579 
L 412.684589 168.750226 
L 413.626145 166.99276 
L 414.668581 164.294118 
L 415.67739 159.923077 
L 417.728636 165.378281 
L 418.771072 164.58914 
L 419.813509 166.860633 
L 420.822318 163.704072 
L 421.864754 159.883258 
L 423.916 159.716742 
L 424.958436 157.861538 
L 425.899992 154.545701 
L 426.942428 154.019005 
L 427.951237 152.080543 
L 428.993674 148.672398 
L 430.002483 146.659729 
L 431.044919 147.718552 
L 432.087356 142.123982 
L 433.096165 144.913122 
L 434.138601 141.197285 
L 435.147411 138.371946 
L 436.189847 136.549321 
L 437.232283 134.089593 
L 438.173839 132.820814 
L 441.267521 133.457919 
L 442.27633 136.435294 
L 443.318766 132.484163 
L 444.361202 137.465158 
L 445.370012 136.916742 
L 446.412448 133.293213 
L 447.421257 133.456109 
L 448.463694 134.60543 
L 450.481312 132.61991 
L 451.523749 128.431674 
L 452.532558 128.373756 
L 453.574994 126.248869 
L 454.583804 121.628054 
L 455.62624 118.292308 
L 456.668676 118.715837 
L 457.677486 119.266063 
L 459.728731 123.845249 
L 460.771168 122.639819 
L 461.813604 121.00181 
L 462.755159 115.722172 
L 463.797596 116.091403 
L 464.806405 113.81991 
L 465.848841 110.571041 
L 466.857651 109.229864 
L 467.900087 107.499548 
L 468.942523 104.661538 
L 469.951333 104.134842 
L 470.993769 101.059729 
L 472.002578 96.350226 
L 473.045014 93.521267 
L 474.087451 90.076923 
L 475.029006 95.423529 
L 476.071442 94.569231 
L 477.080252 95.722172 
L 478.122688 92.726697 
L 479.131497 91.78009 
L 480.173934 88.075113 
L 481.21637 83.890498 
L 482.225179 85.714932 
L 483.267616 97.680543 
L 484.276425 94.943891 
L 485.318861 95.267873 
L 486.361298 90.931222 
L 487.302853 89.555656 
L 488.345289 83.126697 
L 489.354099 80.113122 
L 490.396535 82.920362 
L 491.405344 75.714932 
L 492.447781 73.948416 
L 493.490217 67.361991 
L 494.499026 67.257014 
L 495.541463 65.604525 
L 496.550272 62.761086 
L 497.592708 61.535747 
L 498.635145 55.8 
L 499.610327 59.827149 
L 500.652763 61.580995 
L 501.661573 58.437104 
L 502.704009 57.184615 
L 503.712818 56.259729 
L 503.712818 56.259729 
" style="fill:none;stroke:#000000;stroke-linecap:square;stroke-width:1.5;"/>
   </g>
   <g id="patch_3">
    <path d="M 72.81 320.4 
L 72.81 43.2 
" style="fill:none;stroke:#000000;stroke-linecap:square;stroke-linejoin:miter;stroke-width:0.8;"/>
   </g>
   <g id="patch_4">
    <path d="M 524.232 320.4 
L 524.232 43.2 
" style="fill:none;stroke:#000000;stroke-linecap:square;stroke-linejoin:miter;stroke-width:0.8;"/>
   </g>
   <g id="patch_5">
    <path d="M 72.81 320.4 
L 524.232 320.4 
" style="fill:none;stroke:#000000;stroke-linecap:square;stroke-linejoin:miter;stroke-width:0.8;"/>
   </g>
   <g id="patch_6">
    <path d="M 72.81 43.2 
L 524.232 43.2 
" style="fill:none;stroke:#000000;stroke-linecap:square;stroke-linejoin:miter;stroke-width:0.8;"/>
   </g>
  </g>
  <g id="axes_2">
   <g id="matplotlib.axis_3">
    <g id="ytick_8">
     <g id="line2d_18">
      <defs>
       <path d="M 0 0 
L 3.5 0 
" id="m03f5a20918" style="stroke:#000000;stroke-width:0.8;"/>
      </defs>
      <g>
       <use style="stroke:#000000;stroke-width:0.8;" x="524.232" xlink:href="#m03f5a20918" y="307.535747"/>
      </g>
     </g>
     <g id="text_19">
      <!-- 0 -->
      <g transform="translate(531.232 311.334965)scale(0.1 -0.1)">
       <use xlink:href="#DejaVuSans-48"/>
      </g>
     </g>
    </g>
    <g id="ytick_9">
     <g id="line2d_19">
      <g>
       <use style="stroke:#000000;stroke-width:0.8;" x="524.232" xlink:href="#m03f5a20918" y="269.544796"/>
      </g>
     </g>
     <g id="text_20">
      <!-- 200 -->
      <g transform="translate(531.232 273.344015)scale(0.1 -0.1)">
       <use xlink:href="#DejaVuSans-50"/>
       <use x="63.623047" xlink:href="#DejaVuSans-48"/>
       <use x="127.246094" xlink:href="#DejaVuSans-48"/>
      </g>
     </g>
    </g>
    <g id="ytick_10">
     <g id="line2d_20">
      <g>
       <use style="stroke:#000000;stroke-width:0.8;" x="524.232" xlink:href="#m03f5a20918" y="231.553846"/>
      </g>
     </g>
     <g id="text_21">
      <!-- 400 -->
      <g transform="translate(531.232 235.353065)scale(0.1 -0.1)">
       <use xlink:href="#DejaVuSans-52"/>
       <use x="63.623047" xlink:href="#DejaVuSans-48"/>
       <use x="127.246094" xlink:href="#DejaVuSans-48"/>
      </g>
     </g>
    </g>
    <g id="ytick_11">
     <g id="line2d_21">
      <g>
       <use style="stroke:#000000;stroke-width:0.8;" x="524.232" xlink:href="#m03f5a20918" y="193.562896"/>
      </g>
     </g>
     <g id="text_22">
      <!-- 600 -->
      <g transform="translate(531.232 197.362115)scale(0.1 -0.1)">
       <use xlink:href="#DejaVuSans-54"/>
       <use x="63.623047" xlink:href="#DejaVuSans-48"/>
       <use x="127.246094" xlink:href="#DejaVuSans-48"/>
      </g>
     </g>
    </g>
    <g id="ytick_12">
     <g id="line2d_22">
      <g>
       <use style="stroke:#000000;stroke-width:0.8;" x="524.232" xlink:href="#m03f5a20918" y="155.571946"/>
      </g>
     </g>
     <g id="text_23">
      <!-- 800 -->
      <g transform="translate(531.232 159.371164)scale(0.1 -0.1)">
       <use xlink:href="#DejaVuSans-56"/>
       <use x="63.623047" xlink:href="#DejaVuSans-48"/>
       <use x="127.246094" xlink:href="#DejaVuSans-48"/>
      </g>
     </g>
    </g>
    <g id="ytick_13">
     <g id="line2d_23">
      <g>
       <use style="stroke:#000000;stroke-width:0.8;" x="524.232" xlink:href="#m03f5a20918" y="117.580995"/>
      </g>
     </g>
     <g id="text_24">
      <!-- 1000 -->
      <g transform="translate(531.232 121.380214)scale(0.1 -0.1)">
       <use xlink:href="#DejaVuSans-49"/>
       <use x="63.623047" xlink:href="#DejaVuSans-48"/>
       <use x="127.246094" xlink:href="#DejaVuSans-48"/>
       <use x="190.869141" xlink:href="#DejaVuSans-48"/>
      </g>
     </g>
    </g>
    <g id="ytick_14">
     <g id="line2d_24">
      <g>
       <use style="stroke:#000000;stroke-width:0.8;" x="524.232" xlink:href="#m03f5a20918" y="79.590045"/>
      </g>
     </g>
     <g id="text_25">
      <!-- 1200 -->
      <g transform="translate(531.232 83.389264)scale(0.1 -0.1)">
       <use xlink:href="#DejaVuSans-49"/>
       <use x="63.623047" xlink:href="#DejaVuSans-50"/>
       <use x="127.246094" xlink:href="#DejaVuSans-48"/>
       <use x="190.869141" xlink:href="#DejaVuSans-48"/>
      </g>
     </g>
    </g>
    <g id="text_26">
     <!-- Return (%) -->
     <defs>
      <path id="DejaVuSans-32"/>
      <path d="M 31 75.875 
Q 24.46875 64.65625 21.28125 53.65625 
Q 18.109375 42.671875 18.109375 31.390625 
Q 18.109375 20.125 21.3125 9.0625 
Q 24.515625 -2 31 -13.1875 
L 23.1875 -13.1875 
Q 15.875 -1.703125 12.234375 9.375 
Q 8.59375 20.453125 8.59375 31.390625 
Q 8.59375 42.28125 12.203125 53.3125 
Q 15.828125 64.359375 23.1875 75.875 
z
" id="DejaVuSans-40"/>
      <path d="M 72.703125 32.078125 
Q 68.453125 32.078125 66.03125 28.46875 
Q 63.625 24.859375 63.625 18.40625 
Q 63.625 12.0625 66.03125 8.421875 
Q 68.453125 4.78125 72.703125 4.78125 
Q 76.859375 4.78125 79.265625 8.421875 
Q 81.6875 12.0625 81.6875 18.40625 
Q 81.6875 24.8125 79.265625 28.4375 
Q 76.859375 32.078125 72.703125 32.078125 
z
M 72.703125 38.28125 
Q 80.421875 38.28125 84.953125 32.90625 
Q 89.5 27.546875 89.5 18.40625 
Q 89.5 9.28125 84.9375 3.921875 
Q 80.375 -1.421875 72.703125 -1.421875 
Q 64.890625 -1.421875 60.34375 3.921875 
Q 55.8125 9.28125 55.8125 18.40625 
Q 55.8125 27.59375 60.375 32.9375 
Q 64.9375 38.28125 72.703125 38.28125 
z
M 22.3125 68.015625 
Q 18.109375 68.015625 15.6875 64.375 
Q 13.28125 60.75 13.28125 54.390625 
Q 13.28125 47.953125 15.671875 44.328125 
Q 18.0625 40.71875 22.3125 40.71875 
Q 26.5625 40.71875 28.96875 44.328125 
Q 31.390625 47.953125 31.390625 54.390625 
Q 31.390625 60.6875 28.953125 64.34375 
Q 26.515625 68.015625 22.3125 68.015625 
z
M 66.40625 74.21875 
L 74.21875 74.21875 
L 28.609375 -1.421875 
L 20.796875 -1.421875 
z
M 22.3125 74.21875 
Q 30.03125 74.21875 34.609375 68.875 
Q 39.203125 63.53125 39.203125 54.390625 
Q 39.203125 45.171875 34.640625 39.84375 
Q 30.078125 34.515625 22.3125 34.515625 
Q 14.546875 34.515625 10.03125 39.859375 
Q 5.515625 45.21875 5.515625 54.390625 
Q 5.515625 63.484375 10.046875 68.84375 
Q 14.59375 74.21875 22.3125 74.21875 
z
" id="DejaVuSans-37"/>
      <path d="M 8.015625 75.875 
L 15.828125 75.875 
Q 23.140625 64.359375 26.78125 53.3125 
Q 30.421875 42.28125 30.421875 31.390625 
Q 30.421875 20.453125 26.78125 9.375 
Q 23.140625 -1.703125 15.828125 -13.1875 
L 8.015625 -13.1875 
Q 14.5 -2 17.703125 9.0625 
Q 20.90625 20.125 20.90625 31.390625 
Q 20.90625 42.671875 17.703125 53.65625 
Q 14.5 64.65625 8.015625 75.875 
z
" id="DejaVuSans-41"/>
     </defs>
     <g transform="translate(568.280438 208.632812)rotate(-90)scale(0.1 -0.1)">
      <use xlink:href="#DejaVuSans-82"/>
      <use x="64.982422" xlink:href="#DejaVuSans-101"/>
      <use x="126.505859" xlink:href="#DejaVuSans-116"/>
      <use x="165.714844" xlink:href="#DejaVuSans-117"/>
      <use x="229.09375" xlink:href="#DejaVuSans-114"/>
      <use x="268.457031" xlink:href="#DejaVuSans-110"/>
      <use x="331.835938" xlink:href="#DejaVuSans-32"/>
      <use x="363.623047" xlink:href="#DejaVuSans-40"/>
      <use x="402.636719" xlink:href="#DejaVuSans-37"/>
      <use x="497.65625" xlink:href="#DejaVuSans-41"/>
     </g>
    </g>
   </g>
   <g id="line2d_25">
    <path clip-path="url(#p9adbf32612)" d="M 93.329182 307.535747 
L 94.270737 307.202715 
L 95.313174 307.123077 
L 96.321983 307.761991 
L 97.364419 307.8 
L 98.373228 307.421719 
L 99.415665 307.153846 
L 100.458101 307.045249 
L 101.46691 307.666063 
L 102.509347 307.747511 
L 103.518156 307.653394 
L 104.560592 307.235294 
L 105.603029 306.380995 
L 106.578211 306.109502 
L 107.620647 306.444344 
L 109.671893 306.58914 
L 110.680702 305.926697 
L 112.765575 306.151131 
L 113.774384 305.514027 
L 114.816821 305.023529 
L 115.82563 305.374661 
L 116.868066 305.267873 
L 117.910503 304.493213 
L 118.852058 304.804525 
L 119.894494 304.630769 
L 122.954549 302.694118 
L 123.996986 301.848869 
L 125.039422 301.973756 
L 126.048231 301.914027 
L 129.141913 301.104977 
L 130.184349 301.984615 
L 132.168341 301.657014 
L 133.17715 302.098643 
L 134.219587 300.786425 
L 136.270832 300.270588 
L 137.313269 301.269683 
L 138.322078 301.273303 
L 139.364514 301.027149 
L 140.373324 300.230769 
L 143.399752 298.61991 
L 145.450997 298.138462 
L 146.493434 297.720362 
L 147.502243 298.087783 
L 149.587116 296.638009 
L 151.638361 295.955656 
L 152.647171 296.227149 
L 153.689607 294.549321 
L 154.732043 295.229864 
L 155.707226 294.909502 
L 156.749662 295.260633 
L 158.800907 294.236199 
L 159.809717 294.116742 
L 160.852153 293.079638 
L 161.894589 293.074208 
L 162.903399 292.694118 
L 163.945835 292.929412 
L 167.039517 291.352941 
L 167.981072 290.777376 
L 169.023509 290.458824 
L 170.032318 290.60543 
L 172.083564 289.731222 
L 173.126 289.590045 
L 174.168436 288.656109 
L 175.177246 288.777376 
L 176.219682 288.424434 
L 177.228491 288.860633 
L 178.270928 288.523982 
L 179.313364 287.615385 
L 180.254919 288.476923 
L 181.297356 289.691403 
L 182.306165 289.761991 
L 183.348601 289.586425 
L 184.357411 289.874208 
L 185.399847 288.976471 
L 186.442283 288.467873 
L 187.451093 289.228054 
L 188.493529 289.065158 
L 189.502338 289.38371 
L 190.544774 288.885973 
L 191.587211 288.006335 
L 192.528766 286.820814 
L 193.571202 286.256109 
L 194.580012 285.41991 
L 195.622448 283.242534 
L 196.631257 282.714027 
L 197.673694 282.438914 
L 198.71613 281.977376 
L 199.724939 280.782805 
L 200.767376 280.321267 
L 201.776185 279.061538 
L 202.818621 278.120362 
L 203.861058 277.466968 
L 204.83624 278.051584 
L 206.887486 278.344796 
L 207.929922 278.19276 
L 208.938731 277.573756 
L 209.981168 278.319457 
L 211.023604 278.21267 
L 213.07485 275.488688 
L 214.083659 273.577376 
L 215.126095 274.480543 
L 216.168532 273.595475 
L 217.110087 273.40905 
L 218.152523 274.487783 
L 219.161333 273.074208 
L 220.203769 272.064253 
L 221.212578 270.929412 
L 222.255014 268.844344 
L 223.297451 269.888688 
L 224.30626 268.561991 
L 225.348696 268.286878 
L 226.357506 267.738462 
L 228.442378 266.294118 
L 230.42637 264.18733 
L 231.435179 263.776471 
L 232.477616 263.537557 
L 233.486425 262.248869 
L 234.528861 262.335747 
L 235.571298 263.80905 
L 236.580107 262.482353 
L 237.622543 262.009955 
L 238.631353 261.043439 
L 239.673789 259.628054 
L 240.716225 258.59819 
L 241.657781 259.78371 
L 243.709026 258.333937 
L 244.751463 259.184615 
L 245.760272 258.99095 
L 246.802708 259.734842 
L 247.845145 259.926697 
L 248.853954 259.302262 
L 249.89639 258.257919 
L 250.9052 258.064253 
L 251.947636 257.260633 
L 252.990072 258.478733 
L 253.965254 257.760181 
L 255.007691 255.476018 
L 256.0165 255.901357 
L 257.058936 255.901357 
L 258.067746 254.571041 
L 259.110182 254.444344 
L 260.152618 252.525792 
L 261.161428 253.7819 
L 262.203864 253.430769 
L 263.212673 253.255204 
L 264.25511 252.283258 
L 265.297546 250.952941 
L 267.281538 252.697738 
L 268.290347 252.008145 
L 269.332783 251.506787 
L 270.341593 251.678733 
L 271.384029 250.638009 
L 272.426465 251.068778 
L 273.435275 252.20905 
L 274.477711 250.909502 
L 275.48652 250.764706 
L 276.528957 251.00362 
L 278.512948 250.350226 
L 279.555385 250.757466 
L 281.60663 250.290498 
L 282.61544 250.788235 
L 283.657876 251.039819 
L 284.700312 250.2 
L 285.709121 250.333937 
L 286.751558 249.425339 
L 287.760367 248.864253 
L 288.802803 248.887783 
L 289.84524 249.356561 
L 290.786795 248.862443 
L 291.829231 248.806335 
L 292.838041 247.365611 
L 293.880477 245.501357 
L 294.889286 245.352941 
L 295.931723 247.624434 
L 296.974159 246.652489 
L 297.982968 245.257014 
L 299.025405 244.411765 
L 300.034214 243.975566 
L 301.07665 241.80724 
L 303.094269 239.680543 
L 304.136705 239.704072 
L 305.145515 241.80543 
L 306.187951 241.675113 
L 307.19676 240.676018 
L 308.239197 240.878733 
L 309.281633 239.553846 
L 310.290442 239.01086 
L 311.332879 237.872398 
L 312.341688 237.114027 
L 313.384124 235.490498 
L 314.42656 235.41991 
L 315.368116 235.133937 
L 316.410552 235.894118 
L 317.419361 235.358371 
L 318.461798 233.720362 
L 320.513043 232.561991 
L 321.55548 231.894118 
L 322.564289 232.442534 
L 323.606725 233.859729 
L 324.615535 232.719457 
L 326.700407 230.764706 
L 327.641963 230.397285 
L 328.684399 231.00181 
L 329.693208 231.114027 
L 330.735645 232.21991 
L 331.744454 232.102262 
L 332.78689 230.931222 
L 335.880572 225.443439 
L 336.889382 223.751131 
L 337.931818 223.78371 
L 338.974254 223.251584 
L 339.91581 222.904072 
L 340.958246 222.719457 
L 341.967055 220.961991 
L 343.009492 219.901357 
L 344.018301 221.132127 
L 345.060737 220.942081 
L 347.111983 218.051584 
L 348.154419 216.701357 
L 349.163228 216.008145 
L 350.205665 216.172851 
L 351.248101 216.661538 
L 352.223283 216.790045 
L 353.26572 216.58371 
L 354.274529 216.098643 
L 355.316965 216.523982 
L 356.325775 218.712217 
L 357.368211 218.857014 
L 358.410647 217.559276 
L 359.419457 219.099548 
L 360.461893 222.308597 
L 361.470702 218.666968 
L 362.513139 216.516742 
L 363.555575 217.957466 
L 364.49713 218.891403 
L 365.539567 215.933937 
L 366.548376 215.00905 
L 367.590812 214.2181 
L 368.599622 214.143891 
L 369.642058 211.461538 
L 370.684494 209.928507 
L 371.693304 207.678733 
L 372.73574 208.165611 
L 373.744549 205.275113 
L 374.786986 206.891403 
L 375.829422 207.704072 
L 376.770977 206.536652 
L 377.813414 204.790045 
L 378.822223 202.788235 
L 379.864659 204.447964 
L 380.873468 203.704072 
L 381.915905 201.211765 
L 382.958341 200.857014 
L 383.96715 197.881448 
L 385.009587 196.565611 
L 386.018396 197.057919 
L 387.060832 196.19819 
L 388.103269 195.767421 
L 389.044824 193.246154 
L 390.08726 193.137557 
L 391.09607 190.402715 
L 392.138506 189.238914 
L 393.147315 191.045249 
L 394.189752 190.020814 
L 395.232188 188.529412 
L 396.240997 188.254299 
L 397.283434 185.432579 
L 398.292243 184.730317 
L 399.334679 183.356561 
L 401.352298 178.61991 
L 402.394734 177.946606 
L 403.403544 176.330317 
L 404.44598 176.487783 
L 406.497226 172.402715 
L 407.539662 171.276923 
L 408.548471 170.352036 
L 409.590907 172.008145 
L 410.599717 170.889593 
L 411.642153 171.032579 
L 412.684589 168.750226 
L 413.626145 166.99276 
L 414.668581 164.294118 
L 415.67739 159.923077 
L 417.728636 165.378281 
L 418.771072 164.58914 
L 419.813509 166.860633 
L 420.822318 163.704072 
L 421.864754 159.883258 
L 423.916 159.716742 
L 424.958436 157.861538 
L 425.899992 154.545701 
L 426.942428 154.019005 
L 427.951237 152.080543 
L 428.993674 148.672398 
L 430.002483 146.659729 
L 431.044919 147.718552 
L 432.087356 142.123982 
L 433.096165 144.913122 
L 434.138601 141.197285 
L 435.147411 138.371946 
L 436.189847 136.549321 
L 437.232283 134.089593 
L 438.173839 132.820814 
L 441.267521 133.457919 
L 442.27633 136.435294 
L 443.318766 132.484163 
L 444.361202 137.465158 
L 445.370012 136.916742 
L 446.412448 133.293213 
L 447.421257 133.456109 
L 448.463694 134.60543 
L 450.481312 132.61991 
L 451.523749 128.431674 
L 452.532558 128.373756 
L 453.574994 126.248869 
L 454.583804 121.628054 
L 455.62624 118.292308 
L 456.668676 118.715837 
L 457.677486 119.266063 
L 459.728731 123.845249 
L 460.771168 122.639819 
L 461.813604 121.00181 
L 462.755159 115.722172 
L 463.797596 116.091403 
L 464.806405 113.81991 
L 465.848841 110.571041 
L 466.857651 109.229864 
L 467.900087 107.499548 
L 468.942523 104.661538 
L 469.951333 104.134842 
L 470.993769 101.059729 
L 472.002578 96.350226 
L 473.045014 93.521267 
L 474.087451 90.076923 
L 475.029006 95.423529 
L 476.071442 94.569231 
L 477.080252 95.722172 
L 478.122688 92.726697 
L 479.131497 91.78009 
L 480.173934 88.075113 
L 481.21637 83.890498 
L 482.225179 85.714932 
L 483.267616 97.680543 
L 484.276425 94.943891 
L 485.318861 95.267873 
L 486.361298 90.931222 
L 487.302853 89.555656 
L 488.345289 83.126697 
L 489.354099 80.113122 
L 490.396535 82.920362 
L 491.405344 75.714932 
L 492.447781 73.948416 
L 493.490217 67.361991 
L 494.499026 67.257014 
L 495.541463 65.604525 
L 496.550272 62.761086 
L 497.592708 61.535747 
L 498.635145 55.8 
L 499.610327 59.827149 
L 500.652763 61.580995 
L 501.661573 58.437104 
L 502.704009 57.184615 
L 503.712818 56.259729 
L 503.712818 56.259729 
" style="fill:none;stroke:#000000;stroke-linecap:square;stroke-width:1.5;"/>
   </g>
   <g id="patch_7">
    <path d="M 72.81 320.4 
L 72.81 43.2 
" style="fill:none;stroke:#000000;stroke-linecap:square;stroke-linejoin:miter;stroke-width:0.8;"/>
   </g>
   <g id="patch_8">
    <path d="M 524.232 320.4 
L 524.232 43.2 
" style="fill:none;stroke:#000000;stroke-linecap:square;stroke-linejoin:miter;stroke-width:0.8;"/>
   </g>
   <g id="patch_9">
    <path d="M 72.81 320.4 
L 524.232 320.4 
" style="fill:none;stroke:#000000;stroke-linecap:square;stroke-linejoin:miter;stroke-width:0.8;"/>
   </g>
   <g id="patch_10">
    <path d="M 72.81 43.2 
L 524.232 43.2 
" style="fill:none;stroke:#000000;stroke-linecap:square;stroke-linejoin:miter;stroke-width:0.8;"/>
   </g>
  </g>
 </g>
 <defs>
  <clipPath id="p9adbf32612">
   <rect height="277.2" width="451.422" x="72.81" y="43.2"/>
  </clipPath>
 </defs>
</svg>
