<?xml version="1.0" encoding="utf-8" standalone="no"?>
<!DOCTYPE svg PUBLIC "-//W3C//DTD SVG 1.1//EN"
  "http://www.w3.org/Graphics/SVG/1.1/DTD/svg11.dtd">
<!-- Created with matplotlib (https://matplotlib.org/) -->
<svg height="360pt" version="1.1" viewBox="0 0 582.48 360" width="582.48pt" xmlns="http://www.w3.org/2000/svg" xmlns:xlink="http://www.w3.org/1999/xlink">
 <defs>
  <style type="text/css">
*{stroke-linecap:butt;stroke-linejoin:round;}
  </style>
 </defs>
 <g id="figure_1">
  <g id="patch_1">
   <path d="M 0 360 
L 582.48 360 
L 582.48 0 
L 0 0 
z
" style="fill:none;"/>
  </g>
  <g id="axes_1">
   <g id="patch_2">
    <path d="M 69.653125 318.84375 
L 525.551875 318.84375 
L 525.551875 12.870585 
L 69.653125 12.870585 
z
" style="fill:none;"/>
   </g>
   <g id="matplotlib.axis_1">
    <g id="xtick_1">
     <g id="line2d_1">
      <path clip-path="url(#p9a9e14fbde)" d="M 114.730754 318.84375 
L 114.730754 12.870585 
" style="fill:none;stroke:#b0b0b0;stroke-linecap:square;stroke-opacity:0.5;stroke-width:0.8;"/>
     </g>
     <g id="line2d_2">
      <defs>
       <path d="M 0 0 
L 0 3.5 
" id="m5e82b00b6d" style="stroke:#000000;stroke-width:0.8;"/>
      </defs>
      <g>
       <use style="stroke:#000000;stroke-width:0.8;" x="114.730754" xlink:href="#m5e82b00b6d" y="318.84375"/>
      </g>
     </g>
     <g id="text_1">
      <!-- 1989 -->
      <defs>
       <path d="M 12.40625 8.296875 
L 28.515625 8.296875 
L 28.515625 63.921875 
L 10.984375 60.40625 
L 10.984375 69.390625 
L 28.421875 72.90625 
L 38.28125 72.90625 
L 38.28125 8.296875 
L 54.390625 8.296875 
L 54.390625 0 
L 12.40625 0 
z
" id="DejaVuSans-49"/>
       <path d="M 10.984375 1.515625 
L 10.984375 10.5 
Q 14.703125 8.734375 18.5 7.8125 
Q 22.3125 6.890625 25.984375 6.890625 
Q 35.75 6.890625 40.890625 13.453125 
Q 46.046875 20.015625 46.78125 33.40625 
Q 43.953125 29.203125 39.59375 26.953125 
Q 35.25 24.703125 29.984375 24.703125 
Q 19.046875 24.703125 12.671875 31.3125 
Q 6.296875 37.9375 6.296875 49.421875 
Q 6.296875 60.640625 12.9375 67.421875 
Q 19.578125 74.21875 30.609375 74.21875 
Q 43.265625 74.21875 49.921875 64.515625 
Q 56.59375 54.828125 56.59375 36.375 
Q 56.59375 19.140625 48.40625 8.859375 
Q 40.234375 -1.421875 26.421875 -1.421875 
Q 22.703125 -1.421875 18.890625 -0.6875 
Q 15.09375 0.046875 10.984375 1.515625 
z
M 30.609375 32.421875 
Q 37.25 32.421875 41.125 36.953125 
Q 45.015625 41.5 45.015625 49.421875 
Q 45.015625 57.28125 41.125 61.84375 
Q 37.25 66.40625 30.609375 66.40625 
Q 23.96875 66.40625 20.09375 61.84375 
Q 16.21875 57.28125 16.21875 49.421875 
Q 16.21875 41.5 20.09375 36.953125 
Q 23.96875 32.421875 30.609375 32.421875 
z
" id="DejaVuSans-57"/>
       <path d="M 31.78125 34.625 
Q 24.75 34.625 20.71875 30.859375 
Q 16.703125 27.09375 16.703125 20.515625 
Q 16.703125 13.921875 20.71875 10.15625 
Q 24.75 6.390625 31.78125 6.390625 
Q 38.8125 6.390625 42.859375 10.171875 
Q 46.921875 13.96875 46.921875 20.515625 
Q 46.921875 27.09375 42.890625 30.859375 
Q 38.875 34.625 31.78125 34.625 
z
M 21.921875 38.8125 
Q 15.578125 40.375 12.03125 44.71875 
Q 8.5 49.078125 8.5 55.328125 
Q 8.5 64.0625 14.71875 69.140625 
Q 20.953125 74.21875 31.78125 74.21875 
Q 42.671875 74.21875 48.875 69.140625 
Q 55.078125 64.0625 55.078125 55.328125 
Q 55.078125 49.078125 51.53125 44.71875 
Q 48 40.375 41.703125 38.8125 
Q 48.828125 37.15625 52.796875 32.3125 
Q 56.78125 27.484375 56.78125 20.515625 
Q 56.78125 9.90625 50.3125 4.234375 
Q 43.84375 -1.421875 31.78125 -1.421875 
Q 19.734375 -1.421875 13.25 4.234375 
Q 6.78125 9.90625 6.78125 20.515625 
Q 6.78125 27.484375 10.78125 32.3125 
Q 14.796875 37.15625 21.921875 38.8125 
z
M 18.3125 54.390625 
Q 18.3125 48.734375 21.84375 45.5625 
Q 25.390625 42.390625 31.78125 42.390625 
Q 38.140625 42.390625 41.71875 45.5625 
Q 45.3125 48.734375 45.3125 54.390625 
Q 45.3125 60.0625 41.71875 63.234375 
Q 38.140625 66.40625 31.78125 66.40625 
Q 25.390625 66.40625 21.84375 63.234375 
Q 18.3125 60.0625 18.3125 54.390625 
z
" id="DejaVuSans-56"/>
      </defs>
      <g transform="translate(102.005754 333.442187)scale(0.1 -0.1)">
       <use xlink:href="#DejaVuSans-49"/>
       <use x="63.623047" xlink:href="#DejaVuSans-57"/>
       <use x="127.246094" xlink:href="#DejaVuSans-56"/>
       <use x="190.869141" xlink:href="#DejaVuSans-57"/>
      </g>
     </g>
    </g>
    <g id="xtick_2">
     <g id="line2d_3">
      <path clip-path="url(#p9a9e14fbde)" d="M 176.200249 318.84375 
L 176.200249 12.870585 
" style="fill:none;stroke:#b0b0b0;stroke-linecap:square;stroke-opacity:0.5;stroke-width:0.8;"/>
     </g>
     <g id="line2d_4">
      <g>
       <use style="stroke:#000000;stroke-width:0.8;" x="176.200249" xlink:href="#m5e82b00b6d" y="318.84375"/>
      </g>
     </g>
     <g id="text_2">
      <!-- 1994 -->
      <defs>
       <path d="M 37.796875 64.3125 
L 12.890625 25.390625 
L 37.796875 25.390625 
z
M 35.203125 72.90625 
L 47.609375 72.90625 
L 47.609375 25.390625 
L 58.015625 25.390625 
L 58.015625 17.1875 
L 47.609375 17.1875 
L 47.609375 0 
L 37.796875 0 
L 37.796875 17.1875 
L 4.890625 17.1875 
L 4.890625 26.703125 
z
" id="DejaVuSans-52"/>
      </defs>
      <g transform="translate(163.475249 333.442187)scale(0.1 -0.1)">
       <use xlink:href="#DejaVuSans-49"/>
       <use x="63.623047" xlink:href="#DejaVuSans-57"/>
       <use x="127.246094" xlink:href="#DejaVuSans-57"/>
       <use x="190.869141" xlink:href="#DejaVuSans-52"/>
      </g>
     </g>
    </g>
    <g id="xtick_3">
     <g id="line2d_5">
      <path clip-path="url(#p9a9e14fbde)" d="M 237.669743 318.84375 
L 237.669743 12.870585 
" style="fill:none;stroke:#b0b0b0;stroke-linecap:square;stroke-opacity:0.5;stroke-width:0.8;"/>
     </g>
     <g id="line2d_6">
      <g>
       <use style="stroke:#000000;stroke-width:0.8;" x="237.669743" xlink:href="#m5e82b00b6d" y="318.84375"/>
      </g>
     </g>
     <g id="text_3">
      <!-- 1999 -->
      <g transform="translate(224.944743 333.442187)scale(0.1 -0.1)">
       <use xlink:href="#DejaVuSans-49"/>
       <use x="63.623047" xlink:href="#DejaVuSans-57"/>
       <use x="127.246094" xlink:href="#DejaVuSans-57"/>
       <use x="190.869141" xlink:href="#DejaVuSans-57"/>
      </g>
     </g>
    </g>
    <g id="xtick_4">
     <g id="line2d_7">
      <path clip-path="url(#p9a9e14fbde)" d="M 299.139237 318.84375 
L 299.139237 12.870585 
" style="fill:none;stroke:#b0b0b0;stroke-linecap:square;stroke-opacity:0.5;stroke-width:0.8;"/>
     </g>
     <g id="line2d_8">
      <g>
       <use style="stroke:#000000;stroke-width:0.8;" x="299.139237" xlink:href="#m5e82b00b6d" y="318.84375"/>
      </g>
     </g>
     <g id="text_4">
      <!-- 2004 -->
      <defs>
       <path d="M 19.1875 8.296875 
L 53.609375 8.296875 
L 53.609375 0 
L 7.328125 0 
L 7.328125 8.296875 
Q 12.9375 14.109375 22.625 23.890625 
Q 32.328125 33.6875 34.8125 36.53125 
Q 39.546875 41.84375 41.421875 45.53125 
Q 43.3125 49.21875 43.3125 52.78125 
Q 43.3125 58.59375 39.234375 62.25 
Q 35.15625 65.921875 28.609375 65.921875 
Q 23.96875 65.921875 18.8125 64.3125 
Q 13.671875 62.703125 7.8125 59.421875 
L 7.8125 69.390625 
Q 13.765625 71.78125 18.9375 73 
Q 24.125 74.21875 28.421875 74.21875 
Q 39.75 74.21875 46.484375 68.546875 
Q 53.21875 62.890625 53.21875 53.421875 
Q 53.21875 48.921875 51.53125 44.890625 
Q 49.859375 40.875 45.40625 35.40625 
Q 44.1875 33.984375 37.640625 27.21875 
Q 31.109375 20.453125 19.1875 8.296875 
z
" id="DejaVuSans-50"/>
       <path d="M 31.78125 66.40625 
Q 24.171875 66.40625 20.328125 58.90625 
Q 16.5 51.421875 16.5 36.375 
Q 16.5 21.390625 20.328125 13.890625 
Q 24.171875 6.390625 31.78125 6.390625 
Q 39.453125 6.390625 43.28125 13.890625 
Q 47.125 21.390625 47.125 36.375 
Q 47.125 51.421875 43.28125 58.90625 
Q 39.453125 66.40625 31.78125 66.40625 
z
M 31.78125 74.21875 
Q 44.046875 74.21875 50.515625 64.515625 
Q 56.984375 54.828125 56.984375 36.375 
Q 56.984375 17.96875 50.515625 8.265625 
Q 44.046875 -1.421875 31.78125 -1.421875 
Q 19.53125 -1.421875 13.0625 8.265625 
Q 6.59375 17.96875 6.59375 36.375 
Q 6.59375 54.828125 13.0625 64.515625 
Q 19.53125 74.21875 31.78125 74.21875 
z
" id="DejaVuSans-48"/>
      </defs>
      <g transform="translate(286.414237 333.442187)scale(0.1 -0.1)">
       <use xlink:href="#DejaVuSans-50"/>
       <use x="63.623047" xlink:href="#DejaVuSans-48"/>
       <use x="127.246094" xlink:href="#DejaVuSans-48"/>
       <use x="190.869141" xlink:href="#DejaVuSans-52"/>
      </g>
     </g>
    </g>
    <g id="xtick_5">
     <g id="line2d_9">
      <path clip-path="url(#p9a9e14fbde)" d="M 360.608732 318.84375 
L 360.608732 12.870585 
" style="fill:none;stroke:#b0b0b0;stroke-linecap:square;stroke-opacity:0.5;stroke-width:0.8;"/>
     </g>
     <g id="line2d_10">
      <g>
       <use style="stroke:#000000;stroke-width:0.8;" x="360.608732" xlink:href="#m5e82b00b6d" y="318.84375"/>
      </g>
     </g>
     <g id="text_5">
      <!-- 2009 -->
      <g transform="translate(347.883732 333.442187)scale(0.1 -0.1)">
       <use xlink:href="#DejaVuSans-50"/>
       <use x="63.623047" xlink:href="#DejaVuSans-48"/>
       <use x="127.246094" xlink:href="#DejaVuSans-48"/>
       <use x="190.869141" xlink:href="#DejaVuSans-57"/>
      </g>
     </g>
    </g>
    <g id="xtick_6">
     <g id="line2d_11">
      <path clip-path="url(#p9a9e14fbde)" d="M 422.078226 318.84375 
L 422.078226 12.870585 
" style="fill:none;stroke:#b0b0b0;stroke-linecap:square;stroke-opacity:0.5;stroke-width:0.8;"/>
     </g>
     <g id="line2d_12">
      <g>
       <use style="stroke:#000000;stroke-width:0.8;" x="422.078226" xlink:href="#m5e82b00b6d" y="318.84375"/>
      </g>
     </g>
     <g id="text_6">
      <!-- 2014 -->
      <g transform="translate(409.353226 333.442187)scale(0.1 -0.1)">
       <use xlink:href="#DejaVuSans-50"/>
       <use x="63.623047" xlink:href="#DejaVuSans-48"/>
       <use x="127.246094" xlink:href="#DejaVuSans-49"/>
       <use x="190.869141" xlink:href="#DejaVuSans-52"/>
      </g>
     </g>
    </g>
    <g id="xtick_7">
     <g id="line2d_13">
      <path clip-path="url(#p9a9e14fbde)" d="M 483.547721 318.84375 
L 483.547721 12.870585 
" style="fill:none;stroke:#b0b0b0;stroke-linecap:square;stroke-opacity:0.5;stroke-width:0.8;"/>
     </g>
     <g id="line2d_14">
      <g>
       <use style="stroke:#000000;stroke-width:0.8;" x="483.547721" xlink:href="#m5e82b00b6d" y="318.84375"/>
      </g>
     </g>
     <g id="text_7">
      <!-- 2019 -->
      <g transform="translate(470.822721 333.442187)scale(0.1 -0.1)">
       <use xlink:href="#DejaVuSans-50"/>
       <use x="63.623047" xlink:href="#DejaVuSans-48"/>
       <use x="127.246094" xlink:href="#DejaVuSans-49"/>
       <use x="190.869141" xlink:href="#DejaVuSans-57"/>
      </g>
     </g>
    </g>
    <g id="xtick_8">
     <g id="line2d_15">
      <path clip-path="url(#p9a9e14fbde)" d="M 83.996007 318.84375 
L 83.996007 12.870585 
" style="fill:none;stroke:#b0b0b0;stroke-linecap:square;stroke-opacity:0.1;stroke-width:0.8;"/>
     </g>
     <g id="line2d_16">
      <defs>
       <path d="M 0 0 
L 0 2 
" id="m64b4214d7d" style="stroke:#000000;stroke-width:0.6;"/>
      </defs>
      <g>
       <use style="stroke:#000000;stroke-width:0.6;" x="83.996007" xlink:href="#m64b4214d7d" y="318.84375"/>
      </g>
     </g>
    </g>
    <g id="xtick_9">
     <g id="line2d_17">
      <path clip-path="url(#p9a9e14fbde)" d="M 99.363381 318.84375 
L 99.363381 12.870585 
" style="fill:none;stroke:#b0b0b0;stroke-linecap:square;stroke-opacity:0.1;stroke-width:0.8;"/>
     </g>
     <g id="line2d_18">
      <g>
       <use style="stroke:#000000;stroke-width:0.6;" x="99.363381" xlink:href="#m64b4214d7d" y="318.84375"/>
      </g>
     </g>
    </g>
    <g id="xtick_10">
     <g id="line2d_19">
      <path clip-path="url(#p9a9e14fbde)" d="M 130.098128 318.84375 
L 130.098128 12.870585 
" style="fill:none;stroke:#b0b0b0;stroke-linecap:square;stroke-opacity:0.1;stroke-width:0.8;"/>
     </g>
     <g id="line2d_20">
      <g>
       <use style="stroke:#000000;stroke-width:0.6;" x="130.098128" xlink:href="#m64b4214d7d" y="318.84375"/>
      </g>
     </g>
    </g>
    <g id="xtick_11">
     <g id="line2d_21">
      <path clip-path="url(#p9a9e14fbde)" d="M 145.465501 318.84375 
L 145.465501 12.870585 
" style="fill:none;stroke:#b0b0b0;stroke-linecap:square;stroke-opacity:0.1;stroke-width:0.8;"/>
     </g>
     <g id="line2d_22">
      <g>
       <use style="stroke:#000000;stroke-width:0.6;" x="145.465501" xlink:href="#m64b4214d7d" y="318.84375"/>
      </g>
     </g>
    </g>
    <g id="xtick_12">
     <g id="line2d_23">
      <path clip-path="url(#p9a9e14fbde)" d="M 160.832875 318.84375 
L 160.832875 12.870585 
" style="fill:none;stroke:#b0b0b0;stroke-linecap:square;stroke-opacity:0.1;stroke-width:0.8;"/>
     </g>
     <g id="line2d_24">
      <g>
       <use style="stroke:#000000;stroke-width:0.6;" x="160.832875" xlink:href="#m64b4214d7d" y="318.84375"/>
      </g>
     </g>
    </g>
    <g id="xtick_13">
     <g id="line2d_25">
      <path clip-path="url(#p9a9e14fbde)" d="M 191.567622 318.84375 
L 191.567622 12.870585 
" style="fill:none;stroke:#b0b0b0;stroke-linecap:square;stroke-opacity:0.1;stroke-width:0.8;"/>
     </g>
     <g id="line2d_26">
      <g>
       <use style="stroke:#000000;stroke-width:0.6;" x="191.567622" xlink:href="#m64b4214d7d" y="318.84375"/>
      </g>
     </g>
    </g>
    <g id="xtick_14">
     <g id="line2d_27">
      <path clip-path="url(#p9a9e14fbde)" d="M 206.934996 318.84375 
L 206.934996 12.870585 
" style="fill:none;stroke:#b0b0b0;stroke-linecap:square;stroke-opacity:0.1;stroke-width:0.8;"/>
     </g>
     <g id="line2d_28">
      <g>
       <use style="stroke:#000000;stroke-width:0.6;" x="206.934996" xlink:href="#m64b4214d7d" y="318.84375"/>
      </g>
     </g>
    </g>
    <g id="xtick_15">
     <g id="line2d_29">
      <path clip-path="url(#p9a9e14fbde)" d="M 222.302369 318.84375 
L 222.302369 12.870585 
" style="fill:none;stroke:#b0b0b0;stroke-linecap:square;stroke-opacity:0.1;stroke-width:0.8;"/>
     </g>
     <g id="line2d_30">
      <g>
       <use style="stroke:#000000;stroke-width:0.6;" x="222.302369" xlink:href="#m64b4214d7d" y="318.84375"/>
      </g>
     </g>
    </g>
    <g id="xtick_16">
     <g id="line2d_31">
      <path clip-path="url(#p9a9e14fbde)" d="M 253.037117 318.84375 
L 253.037117 12.870585 
" style="fill:none;stroke:#b0b0b0;stroke-linecap:square;stroke-opacity:0.1;stroke-width:0.8;"/>
     </g>
     <g id="line2d_32">
      <g>
       <use style="stroke:#000000;stroke-width:0.6;" x="253.037117" xlink:href="#m64b4214d7d" y="318.84375"/>
      </g>
     </g>
    </g>
    <g id="xtick_17">
     <g id="line2d_33">
      <path clip-path="url(#p9a9e14fbde)" d="M 268.40449 318.84375 
L 268.40449 12.870585 
" style="fill:none;stroke:#b0b0b0;stroke-linecap:square;stroke-opacity:0.1;stroke-width:0.8;"/>
     </g>
     <g id="line2d_34">
      <g>
       <use style="stroke:#000000;stroke-width:0.6;" x="268.40449" xlink:href="#m64b4214d7d" y="318.84375"/>
      </g>
     </g>
    </g>
    <g id="xtick_18">
     <g id="line2d_35">
      <path clip-path="url(#p9a9e14fbde)" d="M 283.771864 318.84375 
L 283.771864 12.870585 
" style="fill:none;stroke:#b0b0b0;stroke-linecap:square;stroke-opacity:0.1;stroke-width:0.8;"/>
     </g>
     <g id="line2d_36">
      <g>
       <use style="stroke:#000000;stroke-width:0.6;" x="283.771864" xlink:href="#m64b4214d7d" y="318.84375"/>
      </g>
     </g>
    </g>
    <g id="xtick_19">
     <g id="line2d_37">
      <path clip-path="url(#p9a9e14fbde)" d="M 314.506611 318.84375 
L 314.506611 12.870585 
" style="fill:none;stroke:#b0b0b0;stroke-linecap:square;stroke-opacity:0.1;stroke-width:0.8;"/>
     </g>
     <g id="line2d_38">
      <g>
       <use style="stroke:#000000;stroke-width:0.6;" x="314.506611" xlink:href="#m64b4214d7d" y="318.84375"/>
      </g>
     </g>
    </g>
    <g id="xtick_20">
     <g id="line2d_39">
      <path clip-path="url(#p9a9e14fbde)" d="M 329.873985 318.84375 
L 329.873985 12.870585 
" style="fill:none;stroke:#b0b0b0;stroke-linecap:square;stroke-opacity:0.1;stroke-width:0.8;"/>
     </g>
     <g id="line2d_40">
      <g>
       <use style="stroke:#000000;stroke-width:0.6;" x="329.873985" xlink:href="#m64b4214d7d" y="318.84375"/>
      </g>
     </g>
    </g>
    <g id="xtick_21">
     <g id="line2d_41">
      <path clip-path="url(#p9a9e14fbde)" d="M 345.241358 318.84375 
L 345.241358 12.870585 
" style="fill:none;stroke:#b0b0b0;stroke-linecap:square;stroke-opacity:0.1;stroke-width:0.8;"/>
     </g>
     <g id="line2d_42">
      <g>
       <use style="stroke:#000000;stroke-width:0.6;" x="345.241358" xlink:href="#m64b4214d7d" y="318.84375"/>
      </g>
     </g>
    </g>
    <g id="xtick_22">
     <g id="line2d_43">
      <path clip-path="url(#p9a9e14fbde)" d="M 375.976105 318.84375 
L 375.976105 12.870585 
" style="fill:none;stroke:#b0b0b0;stroke-linecap:square;stroke-opacity:0.1;stroke-width:0.8;"/>
     </g>
     <g id="line2d_44">
      <g>
       <use style="stroke:#000000;stroke-width:0.6;" x="375.976105" xlink:href="#m64b4214d7d" y="318.84375"/>
      </g>
     </g>
    </g>
    <g id="xtick_23">
     <g id="line2d_45">
      <path clip-path="url(#p9a9e14fbde)" d="M 391.343479 318.84375 
L 391.343479 12.870585 
" style="fill:none;stroke:#b0b0b0;stroke-linecap:square;stroke-opacity:0.1;stroke-width:0.8;"/>
     </g>
     <g id="line2d_46">
      <g>
       <use style="stroke:#000000;stroke-width:0.6;" x="391.343479" xlink:href="#m64b4214d7d" y="318.84375"/>
      </g>
     </g>
    </g>
    <g id="xtick_24">
     <g id="line2d_47">
      <path clip-path="url(#p9a9e14fbde)" d="M 406.710853 318.84375 
L 406.710853 12.870585 
" style="fill:none;stroke:#b0b0b0;stroke-linecap:square;stroke-opacity:0.1;stroke-width:0.8;"/>
     </g>
     <g id="line2d_48">
      <g>
       <use style="stroke:#000000;stroke-width:0.6;" x="406.710853" xlink:href="#m64b4214d7d" y="318.84375"/>
      </g>
     </g>
    </g>
    <g id="xtick_25">
     <g id="line2d_49">
      <path clip-path="url(#p9a9e14fbde)" d="M 437.4456 318.84375 
L 437.4456 12.870585 
" style="fill:none;stroke:#b0b0b0;stroke-linecap:square;stroke-opacity:0.1;stroke-width:0.8;"/>
     </g>
     <g id="line2d_50">
      <g>
       <use style="stroke:#000000;stroke-width:0.6;" x="437.4456" xlink:href="#m64b4214d7d" y="318.84375"/>
      </g>
     </g>
    </g>
    <g id="xtick_26">
     <g id="line2d_51">
      <path clip-path="url(#p9a9e14fbde)" d="M 452.812973 318.84375 
L 452.812973 12.870585 
" style="fill:none;stroke:#b0b0b0;stroke-linecap:square;stroke-opacity:0.1;stroke-width:0.8;"/>
     </g>
     <g id="line2d_52">
      <g>
       <use style="stroke:#000000;stroke-width:0.6;" x="452.812973" xlink:href="#m64b4214d7d" y="318.84375"/>
      </g>
     </g>
    </g>
    <g id="xtick_27">
     <g id="line2d_53">
      <path clip-path="url(#p9a9e14fbde)" d="M 468.180347 318.84375 
L 468.180347 12.870585 
" style="fill:none;stroke:#b0b0b0;stroke-linecap:square;stroke-opacity:0.1;stroke-width:0.8;"/>
     </g>
     <g id="line2d_54">
      <g>
       <use style="stroke:#000000;stroke-width:0.6;" x="468.180347" xlink:href="#m64b4214d7d" y="318.84375"/>
      </g>
     </g>
    </g>
    <g id="xtick_28">
     <g id="line2d_55">
      <path clip-path="url(#p9a9e14fbde)" d="M 498.915094 318.84375 
L 498.915094 12.870585 
" style="fill:none;stroke:#b0b0b0;stroke-linecap:square;stroke-opacity:0.1;stroke-width:0.8;"/>
     </g>
     <g id="line2d_56">
      <g>
       <use style="stroke:#000000;stroke-width:0.6;" x="498.915094" xlink:href="#m64b4214d7d" y="318.84375"/>
      </g>
     </g>
    </g>
    <g id="xtick_29">
     <g id="line2d_57">
      <path clip-path="url(#p9a9e14fbde)" d="M 514.282468 318.84375 
L 514.282468 12.870585 
" style="fill:none;stroke:#b0b0b0;stroke-linecap:square;stroke-opacity:0.1;stroke-width:0.8;"/>
     </g>
     <g id="line2d_58">
      <g>
       <use style="stroke:#000000;stroke-width:0.6;" x="514.282468" xlink:href="#m64b4214d7d" y="318.84375"/>
      </g>
     </g>
    </g>
    <g id="text_8">
     <!-- Year -->
     <defs>
      <path d="M -0.203125 72.90625 
L 10.40625 72.90625 
L 30.609375 42.921875 
L 50.6875 72.90625 
L 61.28125 72.90625 
L 35.5 34.71875 
L 35.5 0 
L 25.59375 0 
L 25.59375 34.71875 
z
" id="DejaVuSans-89"/>
      <path d="M 56.203125 29.59375 
L 56.203125 25.203125 
L 14.890625 25.203125 
Q 15.484375 15.921875 20.484375 11.0625 
Q 25.484375 6.203125 34.421875 6.203125 
Q 39.59375 6.203125 44.453125 7.46875 
Q 49.3125 8.734375 54.109375 11.28125 
L 54.109375 2.78125 
Q 49.265625 0.734375 44.1875 -0.34375 
Q 39.109375 -1.421875 33.890625 -1.421875 
Q 20.796875 -1.421875 13.15625 6.1875 
Q 5.515625 13.8125 5.515625 26.8125 
Q 5.515625 40.234375 12.765625 48.109375 
Q 20.015625 56 32.328125 56 
Q 43.359375 56 49.78125 48.890625 
Q 56.203125 41.796875 56.203125 29.59375 
z
M 47.21875 32.234375 
Q 47.125 39.59375 43.09375 43.984375 
Q 39.0625 48.390625 32.421875 48.390625 
Q 24.90625 48.390625 20.390625 44.140625 
Q 15.875 39.890625 15.1875 32.171875 
z
" id="DejaVuSans-101"/>
      <path d="M 34.28125 27.484375 
Q 23.390625 27.484375 19.1875 25 
Q 14.984375 22.515625 14.984375 16.5 
Q 14.984375 11.71875 18.140625 8.90625 
Q 21.296875 6.109375 26.703125 6.109375 
Q 34.1875 6.109375 38.703125 11.40625 
Q 43.21875 16.703125 43.21875 25.484375 
L 43.21875 27.484375 
z
M 52.203125 31.203125 
L 52.203125 0 
L 43.21875 0 
L 43.21875 8.296875 
Q 40.140625 3.328125 35.546875 0.953125 
Q 30.953125 -1.421875 24.3125 -1.421875 
Q 15.921875 -1.421875 10.953125 3.296875 
Q 6 8.015625 6 15.921875 
Q 6 25.140625 12.171875 29.828125 
Q 18.359375 34.515625 30.609375 34.515625 
L 43.21875 34.515625 
L 43.21875 35.40625 
Q 43.21875 41.609375 39.140625 45 
Q 35.0625 48.390625 27.6875 48.390625 
Q 23 48.390625 18.546875 47.265625 
Q 14.109375 46.140625 10.015625 43.890625 
L 10.015625 52.203125 
Q 14.9375 54.109375 19.578125 55.046875 
Q 24.21875 56 28.609375 56 
Q 40.484375 56 46.34375 49.84375 
Q 52.203125 43.703125 52.203125 31.203125 
z
" id="DejaVuSans-97"/>
      <path d="M 41.109375 46.296875 
Q 39.59375 47.171875 37.8125 47.578125 
Q 36.03125 48 33.890625 48 
Q 26.265625 48 22.1875 43.046875 
Q 18.109375 38.09375 18.109375 28.8125 
L 18.109375 0 
L 9.078125 0 
L 9.078125 54.6875 
L 18.109375 54.6875 
L 18.109375 46.1875 
Q 20.953125 51.171875 25.484375 53.578125 
Q 30.03125 56 36.53125 56 
Q 37.453125 56 38.578125 55.875 
Q 39.703125 55.765625 41.0625 55.515625 
z
" id="DejaVuSans-114"/>
     </defs>
     <g transform="translate(287.015 347.120312)scale(0.1 -0.1)">
      <use xlink:href="#DejaVuSans-89"/>
      <use x="47.833984" xlink:href="#DejaVuSans-101"/>
      <use x="109.357422" xlink:href="#DejaVuSans-97"/>
      <use x="170.636719" xlink:href="#DejaVuSans-114"/>
     </g>
    </g>
   </g>
   <g id="matplotlib.axis_2">
    <g id="ytick_1">
     <g id="line2d_59">
      <path clip-path="url(#p9a9e14fbde)" d="M 69.653125 286.223626 
L 525.551875 286.223626 
" style="fill:none;stroke:#b0b0b0;stroke-linecap:square;stroke-opacity:0.5;stroke-width:0.8;"/>
     </g>
     <g id="line2d_60">
      <defs>
       <path d="M 0 0 
L -3.5 0 
" id="mca7a52b7db" style="stroke:#000000;stroke-width:0.8;"/>
      </defs>
      <g>
       <use style="stroke:#000000;stroke-width:0.8;" x="69.653125" xlink:href="#mca7a52b7db" y="286.223626"/>
      </g>
     </g>
     <g id="text_9">
      <!-- 20000 -->
      <g transform="translate(30.840625 290.022844)scale(0.1 -0.1)">
       <use xlink:href="#DejaVuSans-50"/>
       <use x="63.623047" xlink:href="#DejaVuSans-48"/>
       <use x="127.246094" xlink:href="#DejaVuSans-48"/>
       <use x="190.869141" xlink:href="#DejaVuSans-48"/>
       <use x="254.492188" xlink:href="#DejaVuSans-48"/>
      </g>
     </g>
    </g>
    <g id="ytick_2">
     <g id="line2d_61">
      <path clip-path="url(#p9a9e14fbde)" d="M 69.653125 247.445772 
L 525.551875 247.445772 
" style="fill:none;stroke:#b0b0b0;stroke-linecap:square;stroke-opacity:0.5;stroke-width:0.8;"/>
     </g>
     <g id="line2d_62">
      <g>
       <use style="stroke:#000000;stroke-width:0.8;" x="69.653125" xlink:href="#mca7a52b7db" y="247.445772"/>
      </g>
     </g>
     <g id="text_10">
      <!-- 40000 -->
      <g transform="translate(30.840625 251.244991)scale(0.1 -0.1)">
       <use xlink:href="#DejaVuSans-52"/>
       <use x="63.623047" xlink:href="#DejaVuSans-48"/>
       <use x="127.246094" xlink:href="#DejaVuSans-48"/>
       <use x="190.869141" xlink:href="#DejaVuSans-48"/>
       <use x="254.492188" xlink:href="#DejaVuSans-48"/>
      </g>
     </g>
    </g>
    <g id="ytick_3">
     <g id="line2d_63">
      <path clip-path="url(#p9a9e14fbde)" d="M 69.653125 208.667918 
L 525.551875 208.667918 
" style="fill:none;stroke:#b0b0b0;stroke-linecap:square;stroke-opacity:0.5;stroke-width:0.8;"/>
     </g>
     <g id="line2d_64">
      <g>
       <use style="stroke:#000000;stroke-width:0.8;" x="69.653125" xlink:href="#mca7a52b7db" y="208.667918"/>
      </g>
     </g>
     <g id="text_11">
      <!-- 60000 -->
      <defs>
       <path d="M 33.015625 40.375 
Q 26.375 40.375 22.484375 35.828125 
Q 18.609375 31.296875 18.609375 23.390625 
Q 18.609375 15.53125 22.484375 10.953125 
Q 26.375 6.390625 33.015625 6.390625 
Q 39.65625 6.390625 43.53125 10.953125 
Q 47.40625 15.53125 47.40625 23.390625 
Q 47.40625 31.296875 43.53125 35.828125 
Q 39.65625 40.375 33.015625 40.375 
z
M 52.59375 71.296875 
L 52.59375 62.3125 
Q 48.875 64.0625 45.09375 64.984375 
Q 41.3125 65.921875 37.59375 65.921875 
Q 27.828125 65.921875 22.671875 59.328125 
Q 17.53125 52.734375 16.796875 39.40625 
Q 19.671875 43.65625 24.015625 45.921875 
Q 28.375 48.1875 33.59375 48.1875 
Q 44.578125 48.1875 50.953125 41.515625 
Q 57.328125 34.859375 57.328125 23.390625 
Q 57.328125 12.15625 50.6875 5.359375 
Q 44.046875 -1.421875 33.015625 -1.421875 
Q 20.359375 -1.421875 13.671875 8.265625 
Q 6.984375 17.96875 6.984375 36.375 
Q 6.984375 53.65625 15.1875 63.9375 
Q 23.390625 74.21875 37.203125 74.21875 
Q 40.921875 74.21875 44.703125 73.484375 
Q 48.484375 72.75 52.59375 71.296875 
z
" id="DejaVuSans-54"/>
      </defs>
      <g transform="translate(30.840625 212.467137)scale(0.1 -0.1)">
       <use xlink:href="#DejaVuSans-54"/>
       <use x="63.623047" xlink:href="#DejaVuSans-48"/>
       <use x="127.246094" xlink:href="#DejaVuSans-48"/>
       <use x="190.869141" xlink:href="#DejaVuSans-48"/>
       <use x="254.492188" xlink:href="#DejaVuSans-48"/>
      </g>
     </g>
    </g>
    <g id="ytick_4">
     <g id="line2d_65">
      <path clip-path="url(#p9a9e14fbde)" d="M 69.653125 169.890064 
L 525.551875 169.890064 
" style="fill:none;stroke:#b0b0b0;stroke-linecap:square;stroke-opacity:0.5;stroke-width:0.8;"/>
     </g>
     <g id="line2d_66">
      <g>
       <use style="stroke:#000000;stroke-width:0.8;" x="69.653125" xlink:href="#mca7a52b7db" y="169.890064"/>
      </g>
     </g>
     <g id="text_12">
      <!-- 80000 -->
      <g transform="translate(30.840625 173.689283)scale(0.1 -0.1)">
       <use xlink:href="#DejaVuSans-56"/>
       <use x="63.623047" xlink:href="#DejaVuSans-48"/>
       <use x="127.246094" xlink:href="#DejaVuSans-48"/>
       <use x="190.869141" xlink:href="#DejaVuSans-48"/>
       <use x="254.492188" xlink:href="#DejaVuSans-48"/>
      </g>
     </g>
    </g>
    <g id="ytick_5">
     <g id="line2d_67">
      <path clip-path="url(#p9a9e14fbde)" d="M 69.653125 131.112211 
L 525.551875 131.112211 
" style="fill:none;stroke:#b0b0b0;stroke-linecap:square;stroke-opacity:0.5;stroke-width:0.8;"/>
     </g>
     <g id="line2d_68">
      <g>
       <use style="stroke:#000000;stroke-width:0.8;" x="69.653125" xlink:href="#mca7a52b7db" y="131.112211"/>
      </g>
     </g>
     <g id="text_13">
      <!-- 100000 -->
      <g transform="translate(24.478125 134.91143)scale(0.1 -0.1)">
       <use xlink:href="#DejaVuSans-49"/>
       <use x="63.623047" xlink:href="#DejaVuSans-48"/>
       <use x="127.246094" xlink:href="#DejaVuSans-48"/>
       <use x="190.869141" xlink:href="#DejaVuSans-48"/>
       <use x="254.492188" xlink:href="#DejaVuSans-48"/>
       <use x="318.115234" xlink:href="#DejaVuSans-48"/>
      </g>
     </g>
    </g>
    <g id="ytick_6">
     <g id="line2d_69">
      <path clip-path="url(#p9a9e14fbde)" d="M 69.653125 92.334357 
L 525.551875 92.334357 
" style="fill:none;stroke:#b0b0b0;stroke-linecap:square;stroke-opacity:0.5;stroke-width:0.8;"/>
     </g>
     <g id="line2d_70">
      <g>
       <use style="stroke:#000000;stroke-width:0.8;" x="69.653125" xlink:href="#mca7a52b7db" y="92.334357"/>
      </g>
     </g>
     <g id="text_14">
      <!-- 120000 -->
      <g transform="translate(24.478125 96.133576)scale(0.1 -0.1)">
       <use xlink:href="#DejaVuSans-49"/>
       <use x="63.623047" xlink:href="#DejaVuSans-50"/>
       <use x="127.246094" xlink:href="#DejaVuSans-48"/>
       <use x="190.869141" xlink:href="#DejaVuSans-48"/>
       <use x="254.492188" xlink:href="#DejaVuSans-48"/>
       <use x="318.115234" xlink:href="#DejaVuSans-48"/>
      </g>
     </g>
    </g>
    <g id="ytick_7">
     <g id="line2d_71">
      <path clip-path="url(#p9a9e14fbde)" d="M 69.653125 53.556503 
L 525.551875 53.556503 
" style="fill:none;stroke:#b0b0b0;stroke-linecap:square;stroke-opacity:0.5;stroke-width:0.8;"/>
     </g>
     <g id="line2d_72">
      <g>
       <use style="stroke:#000000;stroke-width:0.8;" x="69.653125" xlink:href="#mca7a52b7db" y="53.556503"/>
      </g>
     </g>
     <g id="text_15">
      <!-- 140000 -->
      <g transform="translate(24.478125 57.355722)scale(0.1 -0.1)">
       <use xlink:href="#DejaVuSans-49"/>
       <use x="63.623047" xlink:href="#DejaVuSans-52"/>
       <use x="127.246094" xlink:href="#DejaVuSans-48"/>
       <use x="190.869141" xlink:href="#DejaVuSans-48"/>
       <use x="254.492188" xlink:href="#DejaVuSans-48"/>
       <use x="318.115234" xlink:href="#DejaVuSans-48"/>
      </g>
     </g>
    </g>
    <g id="ytick_8">
     <g id="line2d_73">
      <path clip-path="url(#p9a9e14fbde)" d="M 69.653125 14.77865 
L 525.551875 14.77865 
" style="fill:none;stroke:#b0b0b0;stroke-linecap:square;stroke-opacity:0.5;stroke-width:0.8;"/>
     </g>
     <g id="line2d_74">
      <g>
       <use style="stroke:#000000;stroke-width:0.8;" x="69.653125" xlink:href="#mca7a52b7db" y="14.77865"/>
      </g>
     </g>
     <g id="text_16">
      <!-- 160000 -->
      <g transform="translate(24.478125 18.577868)scale(0.1 -0.1)">
       <use xlink:href="#DejaVuSans-49"/>
       <use x="63.623047" xlink:href="#DejaVuSans-54"/>
       <use x="127.246094" xlink:href="#DejaVuSans-48"/>
       <use x="190.869141" xlink:href="#DejaVuSans-48"/>
       <use x="254.492188" xlink:href="#DejaVuSans-48"/>
       <use x="318.115234" xlink:href="#DejaVuSans-48"/>
      </g>
     </g>
    </g>
    <g id="ytick_9">
     <g id="line2d_75">
      <path clip-path="url(#p9a9e14fbde)" d="M 69.653125 315.307016 
L 525.551875 315.307016 
" style="fill:none;stroke:#b0b0b0;stroke-linecap:square;stroke-opacity:0.1;stroke-width:0.8;"/>
     </g>
     <g id="line2d_76">
      <defs>
       <path d="M 0 0 
L -2 0 
" id="m6a6f3e8f12" style="stroke:#000000;stroke-width:0.6;"/>
      </defs>
      <g>
       <use style="stroke:#000000;stroke-width:0.6;" x="69.653125" xlink:href="#m6a6f3e8f12" y="315.307016"/>
      </g>
     </g>
    </g>
    <g id="ytick_10">
     <g id="line2d_77">
      <path clip-path="url(#p9a9e14fbde)" d="M 69.653125 305.612552 
L 525.551875 305.612552 
" style="fill:none;stroke:#b0b0b0;stroke-linecap:square;stroke-opacity:0.1;stroke-width:0.8;"/>
     </g>
     <g id="line2d_78">
      <g>
       <use style="stroke:#000000;stroke-width:0.6;" x="69.653125" xlink:href="#m6a6f3e8f12" y="305.612552"/>
      </g>
     </g>
    </g>
    <g id="ytick_11">
     <g id="line2d_79">
      <path clip-path="url(#p9a9e14fbde)" d="M 69.653125 295.918089 
L 525.551875 295.918089 
" style="fill:none;stroke:#b0b0b0;stroke-linecap:square;stroke-opacity:0.1;stroke-width:0.8;"/>
     </g>
     <g id="line2d_80">
      <g>
       <use style="stroke:#000000;stroke-width:0.6;" x="69.653125" xlink:href="#m6a6f3e8f12" y="295.918089"/>
      </g>
     </g>
    </g>
    <g id="ytick_12">
     <g id="line2d_81">
      <path clip-path="url(#p9a9e14fbde)" d="M 69.653125 276.529162 
L 525.551875 276.529162 
" style="fill:none;stroke:#b0b0b0;stroke-linecap:square;stroke-opacity:0.1;stroke-width:0.8;"/>
     </g>
     <g id="line2d_82">
      <g>
       <use style="stroke:#000000;stroke-width:0.6;" x="69.653125" xlink:href="#m6a6f3e8f12" y="276.529162"/>
      </g>
     </g>
    </g>
    <g id="ytick_13">
     <g id="line2d_83">
      <path clip-path="url(#p9a9e14fbde)" d="M 69.653125 266.834699 
L 525.551875 266.834699 
" style="fill:none;stroke:#b0b0b0;stroke-linecap:square;stroke-opacity:0.1;stroke-width:0.8;"/>
     </g>
     <g id="line2d_84">
      <g>
       <use style="stroke:#000000;stroke-width:0.6;" x="69.653125" xlink:href="#m6a6f3e8f12" y="266.834699"/>
      </g>
     </g>
    </g>
    <g id="ytick_14">
     <g id="line2d_85">
      <path clip-path="url(#p9a9e14fbde)" d="M 69.653125 257.140235 
L 525.551875 257.140235 
" style="fill:none;stroke:#b0b0b0;stroke-linecap:square;stroke-opacity:0.1;stroke-width:0.8;"/>
     </g>
     <g id="line2d_86">
      <g>
       <use style="stroke:#000000;stroke-width:0.6;" x="69.653125" xlink:href="#m6a6f3e8f12" y="257.140235"/>
      </g>
     </g>
    </g>
    <g id="ytick_15">
     <g id="line2d_87">
      <path clip-path="url(#p9a9e14fbde)" d="M 69.653125 237.751308 
L 525.551875 237.751308 
" style="fill:none;stroke:#b0b0b0;stroke-linecap:square;stroke-opacity:0.1;stroke-width:0.8;"/>
     </g>
     <g id="line2d_88">
      <g>
       <use style="stroke:#000000;stroke-width:0.6;" x="69.653125" xlink:href="#m6a6f3e8f12" y="237.751308"/>
      </g>
     </g>
    </g>
    <g id="ytick_16">
     <g id="line2d_89">
      <path clip-path="url(#p9a9e14fbde)" d="M 69.653125 228.056845 
L 525.551875 228.056845 
" style="fill:none;stroke:#b0b0b0;stroke-linecap:square;stroke-opacity:0.1;stroke-width:0.8;"/>
     </g>
     <g id="line2d_90">
      <g>
       <use style="stroke:#000000;stroke-width:0.6;" x="69.653125" xlink:href="#m6a6f3e8f12" y="228.056845"/>
      </g>
     </g>
    </g>
    <g id="ytick_17">
     <g id="line2d_91">
      <path clip-path="url(#p9a9e14fbde)" d="M 69.653125 218.362382 
L 525.551875 218.362382 
" style="fill:none;stroke:#b0b0b0;stroke-linecap:square;stroke-opacity:0.1;stroke-width:0.8;"/>
     </g>
     <g id="line2d_92">
      <g>
       <use style="stroke:#000000;stroke-width:0.6;" x="69.653125" xlink:href="#m6a6f3e8f12" y="218.362382"/>
      </g>
     </g>
    </g>
    <g id="ytick_18">
     <g id="line2d_93">
      <path clip-path="url(#p9a9e14fbde)" d="M 69.653125 198.973455 
L 525.551875 198.973455 
" style="fill:none;stroke:#b0b0b0;stroke-linecap:square;stroke-opacity:0.1;stroke-width:0.8;"/>
     </g>
     <g id="line2d_94">
      <g>
       <use style="stroke:#000000;stroke-width:0.6;" x="69.653125" xlink:href="#m6a6f3e8f12" y="198.973455"/>
      </g>
     </g>
    </g>
    <g id="ytick_19">
     <g id="line2d_95">
      <path clip-path="url(#p9a9e14fbde)" d="M 69.653125 189.278991 
L 525.551875 189.278991 
" style="fill:none;stroke:#b0b0b0;stroke-linecap:square;stroke-opacity:0.1;stroke-width:0.8;"/>
     </g>
     <g id="line2d_96">
      <g>
       <use style="stroke:#000000;stroke-width:0.6;" x="69.653125" xlink:href="#m6a6f3e8f12" y="189.278991"/>
      </g>
     </g>
    </g>
    <g id="ytick_20">
     <g id="line2d_97">
      <path clip-path="url(#p9a9e14fbde)" d="M 69.653125 179.584528 
L 525.551875 179.584528 
" style="fill:none;stroke:#b0b0b0;stroke-linecap:square;stroke-opacity:0.1;stroke-width:0.8;"/>
     </g>
     <g id="line2d_98">
      <g>
       <use style="stroke:#000000;stroke-width:0.6;" x="69.653125" xlink:href="#m6a6f3e8f12" y="179.584528"/>
      </g>
     </g>
    </g>
    <g id="ytick_21">
     <g id="line2d_99">
      <path clip-path="url(#p9a9e14fbde)" d="M 69.653125 160.195601 
L 525.551875 160.195601 
" style="fill:none;stroke:#b0b0b0;stroke-linecap:square;stroke-opacity:0.1;stroke-width:0.8;"/>
     </g>
     <g id="line2d_100">
      <g>
       <use style="stroke:#000000;stroke-width:0.6;" x="69.653125" xlink:href="#m6a6f3e8f12" y="160.195601"/>
      </g>
     </g>
    </g>
    <g id="ytick_22">
     <g id="line2d_101">
      <path clip-path="url(#p9a9e14fbde)" d="M 69.653125 150.501138 
L 525.551875 150.501138 
" style="fill:none;stroke:#b0b0b0;stroke-linecap:square;stroke-opacity:0.1;stroke-width:0.8;"/>
     </g>
     <g id="line2d_102">
      <g>
       <use style="stroke:#000000;stroke-width:0.6;" x="69.653125" xlink:href="#m6a6f3e8f12" y="150.501138"/>
      </g>
     </g>
    </g>
    <g id="ytick_23">
     <g id="line2d_103">
      <path clip-path="url(#p9a9e14fbde)" d="M 69.653125 140.806674 
L 525.551875 140.806674 
" style="fill:none;stroke:#b0b0b0;stroke-linecap:square;stroke-opacity:0.1;stroke-width:0.8;"/>
     </g>
     <g id="line2d_104">
      <g>
       <use style="stroke:#000000;stroke-width:0.6;" x="69.653125" xlink:href="#m6a6f3e8f12" y="140.806674"/>
      </g>
     </g>
    </g>
    <g id="ytick_24">
     <g id="line2d_105">
      <path clip-path="url(#p9a9e14fbde)" d="M 69.653125 121.417747 
L 525.551875 121.417747 
" style="fill:none;stroke:#b0b0b0;stroke-linecap:square;stroke-opacity:0.1;stroke-width:0.8;"/>
     </g>
     <g id="line2d_106">
      <g>
       <use style="stroke:#000000;stroke-width:0.6;" x="69.653125" xlink:href="#m6a6f3e8f12" y="121.417747"/>
      </g>
     </g>
    </g>
    <g id="ytick_25">
     <g id="line2d_107">
      <path clip-path="url(#p9a9e14fbde)" d="M 69.653125 111.723284 
L 525.551875 111.723284 
" style="fill:none;stroke:#b0b0b0;stroke-linecap:square;stroke-opacity:0.1;stroke-width:0.8;"/>
     </g>
     <g id="line2d_108">
      <g>
       <use style="stroke:#000000;stroke-width:0.6;" x="69.653125" xlink:href="#m6a6f3e8f12" y="111.723284"/>
      </g>
     </g>
    </g>
    <g id="ytick_26">
     <g id="line2d_109">
      <path clip-path="url(#p9a9e14fbde)" d="M 69.653125 102.028821 
L 525.551875 102.028821 
" style="fill:none;stroke:#b0b0b0;stroke-linecap:square;stroke-opacity:0.1;stroke-width:0.8;"/>
     </g>
     <g id="line2d_110">
      <g>
       <use style="stroke:#000000;stroke-width:0.6;" x="69.653125" xlink:href="#m6a6f3e8f12" y="102.028821"/>
      </g>
     </g>
    </g>
    <g id="ytick_27">
     <g id="line2d_111">
      <path clip-path="url(#p9a9e14fbde)" d="M 69.653125 82.639894 
L 525.551875 82.639894 
" style="fill:none;stroke:#b0b0b0;stroke-linecap:square;stroke-opacity:0.1;stroke-width:0.8;"/>
     </g>
     <g id="line2d_112">
      <g>
       <use style="stroke:#000000;stroke-width:0.6;" x="69.653125" xlink:href="#m6a6f3e8f12" y="82.639894"/>
      </g>
     </g>
    </g>
    <g id="ytick_28">
     <g id="line2d_113">
      <path clip-path="url(#p9a9e14fbde)" d="M 69.653125 72.94543 
L 525.551875 72.94543 
" style="fill:none;stroke:#b0b0b0;stroke-linecap:square;stroke-opacity:0.1;stroke-width:0.8;"/>
     </g>
     <g id="line2d_114">
      <g>
       <use style="stroke:#000000;stroke-width:0.6;" x="69.653125" xlink:href="#m6a6f3e8f12" y="72.94543"/>
      </g>
     </g>
    </g>
    <g id="ytick_29">
     <g id="line2d_115">
      <path clip-path="url(#p9a9e14fbde)" d="M 69.653125 63.250967 
L 525.551875 63.250967 
" style="fill:none;stroke:#b0b0b0;stroke-linecap:square;stroke-opacity:0.1;stroke-width:0.8;"/>
     </g>
     <g id="line2d_116">
      <g>
       <use style="stroke:#000000;stroke-width:0.6;" x="69.653125" xlink:href="#m6a6f3e8f12" y="63.250967"/>
      </g>
     </g>
    </g>
    <g id="ytick_30">
     <g id="line2d_117">
      <path clip-path="url(#p9a9e14fbde)" d="M 69.653125 43.86204 
L 525.551875 43.86204 
" style="fill:none;stroke:#b0b0b0;stroke-linecap:square;stroke-opacity:0.1;stroke-width:0.8;"/>
     </g>
     <g id="line2d_118">
      <g>
       <use style="stroke:#000000;stroke-width:0.6;" x="69.653125" xlink:href="#m6a6f3e8f12" y="43.86204"/>
      </g>
     </g>
    </g>
    <g id="ytick_31">
     <g id="line2d_119">
      <path clip-path="url(#p9a9e14fbde)" d="M 69.653125 34.167577 
L 525.551875 34.167577 
" style="fill:none;stroke:#b0b0b0;stroke-linecap:square;stroke-opacity:0.1;stroke-width:0.8;"/>
     </g>
     <g id="line2d_120">
      <g>
       <use style="stroke:#000000;stroke-width:0.6;" x="69.653125" xlink:href="#m6a6f3e8f12" y="34.167577"/>
      </g>
     </g>
    </g>
    <g id="ytick_32">
     <g id="line2d_121">
      <path clip-path="url(#p9a9e14fbde)" d="M 69.653125 24.473113 
L 525.551875 24.473113 
" style="fill:none;stroke:#b0b0b0;stroke-linecap:square;stroke-opacity:0.1;stroke-width:0.8;"/>
     </g>
     <g id="line2d_122">
      <g>
       <use style="stroke:#000000;stroke-width:0.6;" x="69.653125" xlink:href="#m6a6f3e8f12" y="24.473113"/>
      </g>
     </g>
    </g>
    <g id="text_17">
     <!-- Equity ($) -->
     <defs>
      <path d="M 9.8125 72.90625 
L 55.90625 72.90625 
L 55.90625 64.59375 
L 19.671875 64.59375 
L 19.671875 43.015625 
L 54.390625 43.015625 
L 54.390625 34.71875 
L 19.671875 34.71875 
L 19.671875 8.296875 
L 56.78125 8.296875 
L 56.78125 0 
L 9.8125 0 
z
" id="DejaVuSans-69"/>
      <path d="M 14.796875 27.296875 
Q 14.796875 17.390625 18.875 11.75 
Q 22.953125 6.109375 30.078125 6.109375 
Q 37.203125 6.109375 41.296875 11.75 
Q 45.40625 17.390625 45.40625 27.296875 
Q 45.40625 37.203125 41.296875 42.84375 
Q 37.203125 48.484375 30.078125 48.484375 
Q 22.953125 48.484375 18.875 42.84375 
Q 14.796875 37.203125 14.796875 27.296875 
z
M 45.40625 8.203125 
Q 42.578125 3.328125 38.25 0.953125 
Q 33.9375 -1.421875 27.875 -1.421875 
Q 17.96875 -1.421875 11.734375 6.484375 
Q 5.515625 14.40625 5.515625 27.296875 
Q 5.515625 40.1875 11.734375 48.09375 
Q 17.96875 56 27.875 56 
Q 33.9375 56 38.25 53.625 
Q 42.578125 51.265625 45.40625 46.390625 
L 45.40625 54.6875 
L 54.390625 54.6875 
L 54.390625 -20.796875 
L 45.40625 -20.796875 
z
" id="DejaVuSans-113"/>
      <path d="M 8.5 21.578125 
L 8.5 54.6875 
L 17.484375 54.6875 
L 17.484375 21.921875 
Q 17.484375 14.15625 20.5 10.265625 
Q 23.53125 6.390625 29.59375 6.390625 
Q 36.859375 6.390625 41.078125 11.03125 
Q 45.3125 15.671875 45.3125 23.6875 
L 45.3125 54.6875 
L 54.296875 54.6875 
L 54.296875 0 
L 45.3125 0 
L 45.3125 8.40625 
Q 42.046875 3.421875 37.71875 1 
Q 33.40625 -1.421875 27.6875 -1.421875 
Q 18.265625 -1.421875 13.375 4.4375 
Q 8.5 10.296875 8.5 21.578125 
z
M 31.109375 56 
z
" id="DejaVuSans-117"/>
      <path d="M 9.421875 54.6875 
L 18.40625 54.6875 
L 18.40625 0 
L 9.421875 0 
z
M 9.421875 75.984375 
L 18.40625 75.984375 
L 18.40625 64.59375 
L 9.421875 64.59375 
z
" id="DejaVuSans-105"/>
      <path d="M 18.3125 70.21875 
L 18.3125 54.6875 
L 36.8125 54.6875 
L 36.8125 47.703125 
L 18.3125 47.703125 
L 18.3125 18.015625 
Q 18.3125 11.328125 20.140625 9.421875 
Q 21.96875 7.515625 27.59375 7.515625 
L 36.8125 7.515625 
L 36.8125 0 
L 27.59375 0 
Q 17.1875 0 13.234375 3.875 
Q 9.28125 7.765625 9.28125 18.015625 
L 9.28125 47.703125 
L 2.6875 47.703125 
L 2.6875 54.6875 
L 9.28125 54.6875 
L 9.28125 70.21875 
z
" id="DejaVuSans-116"/>
      <path d="M 32.171875 -5.078125 
Q 28.375 -14.84375 24.75 -17.8125 
Q 21.140625 -20.796875 15.09375 -20.796875 
L 7.90625 -20.796875 
L 7.90625 -13.28125 
L 13.1875 -13.28125 
Q 16.890625 -13.28125 18.9375 -11.515625 
Q 21 -9.765625 23.484375 -3.21875 
L 25.09375 0.875 
L 2.984375 54.6875 
L 12.5 54.6875 
L 29.59375 11.921875 
L 46.6875 54.6875 
L 56.203125 54.6875 
z
" id="DejaVuSans-121"/>
      <path id="DejaVuSans-32"/>
      <path d="M 31 75.875 
Q 24.46875 64.65625 21.28125 53.65625 
Q 18.109375 42.671875 18.109375 31.390625 
Q 18.109375 20.125 21.3125 9.0625 
Q 24.515625 -2 31 -13.1875 
L 23.1875 -13.1875 
Q 15.875 -1.703125 12.234375 9.375 
Q 8.59375 20.453125 8.59375 31.390625 
Q 8.59375 42.28125 12.203125 53.3125 
Q 15.828125 64.359375 23.1875 75.875 
z
" id="DejaVuSans-40"/>
      <path d="M 33.796875 -14.703125 
L 28.90625 -14.703125 
L 28.859375 0 
Q 23.734375 0.09375 18.609375 1.1875 
Q 13.484375 2.296875 8.296875 4.5 
L 8.296875 13.28125 
Q 13.28125 10.15625 18.375 8.5625 
Q 23.484375 6.984375 28.90625 6.9375 
L 28.90625 29.203125 
Q 18.109375 30.953125 13.203125 35.15625 
Q 8.296875 39.359375 8.296875 46.6875 
Q 8.296875 54.640625 13.625 59.21875 
Q 18.953125 63.8125 28.90625 64.5 
L 28.90625 75.984375 
L 33.796875 75.984375 
L 33.796875 64.65625 
Q 38.328125 64.453125 42.578125 63.6875 
Q 46.828125 62.9375 50.875 61.625 
L 50.875 53.078125 
Q 46.828125 55.125 42.546875 56.25 
Q 38.28125 57.375 33.796875 57.5625 
L 33.796875 36.71875 
Q 44.875 35.015625 50.09375 30.609375 
Q 55.328125 26.21875 55.328125 18.609375 
Q 55.328125 10.359375 49.78125 5.59375 
Q 44.234375 0.828125 33.796875 0.09375 
z
M 28.90625 37.59375 
L 28.90625 57.625 
Q 23.25 56.984375 20.265625 54.390625 
Q 17.28125 51.8125 17.28125 47.515625 
Q 17.28125 43.3125 20.03125 40.96875 
Q 22.796875 38.625 28.90625 37.59375 
z
M 33.796875 28.21875 
L 33.796875 7.078125 
Q 39.984375 7.90625 43.140625 10.59375 
Q 46.296875 13.28125 46.296875 17.671875 
Q 46.296875 21.96875 43.28125 24.5 
Q 40.28125 27.046875 33.796875 28.21875 
z
" id="DejaVuSans-36"/>
      <path d="M 8.015625 75.875 
L 15.828125 75.875 
Q 23.140625 64.359375 26.78125 53.3125 
Q 30.421875 42.28125 30.421875 31.390625 
Q 30.421875 20.453125 26.78125 9.375 
Q 23.140625 -1.703125 15.828125 -13.1875 
L 8.015625 -13.1875 
Q 14.5 -2 17.703125 9.0625 
Q 20.90625 20.125 20.90625 31.390625 
Q 20.90625 42.671875 17.703125 53.65625 
Q 14.5 64.65625 8.015625 75.875 
z
" id="DejaVuSans-41"/>
     </defs>
     <g transform="translate(18.398437 190.33998)rotate(-90)scale(0.1 -0.1)">
      <use xlink:href="#DejaVuSans-69"/>
      <use x="63.183594" xlink:href="#DejaVuSans-113"/>
      <use x="126.660156" xlink:href="#DejaVuSans-117"/>
      <use x="190.039062" xlink:href="#DejaVuSans-105"/>
      <use x="217.822266" xlink:href="#DejaVuSans-116"/>
      <use x="257.03125" xlink:href="#DejaVuSans-121"/>
      <use x="316.210938" xlink:href="#DejaVuSans-32"/>
      <use x="347.998047" xlink:href="#DejaVuSans-40"/>
      <use x="387.011719" xlink:href="#DejaVuSans-36"/>
      <use x="450.634766" xlink:href="#DejaVuSans-41"/>
     </g>
    </g>
   </g>
   <g id="line2d_123">
    <path clip-path="url(#p9a9e14fbde)" d="M 90.142956 304.652801 
L 91.167448 304.296044 
L 92.19194 304.210733 
L 93.216431 304.895162 
L 94.240923 304.935879 
L 96.289906 304.243694 
L 97.314397 304.127361 
L 98.338889 304.792401 
L 99.363381 304.879651 
L 100.387872 304.778829 
L 101.412364 304.330944 
L 102.436855 303.415787 
L 103.461347 303.124953 
L 104.485838 303.483648 
L 105.51033 303.503037 
L 106.534822 303.63876 
L 107.559313 302.929125 
L 109.608296 303.169548 
L 110.632788 302.487057 
L 111.657279 301.961618 
L 112.681771 302.337763 
L 113.706263 302.223368 
L 114.730754 301.393522 
L 115.755246 301.727011 
L 116.779737 301.540878 
L 117.804229 300.881654 
L 118.828721 300.086708 
L 119.853212 299.466263 
L 120.877704 298.5608 
L 121.902195 298.694583 
L 122.926687 298.6306 
L 126.000162 297.763915 
L 127.024653 298.706217 
L 129.073636 298.355277 
L 130.098128 298.828367 
L 131.122619 297.42267 
L 133.171603 296.870085 
L 134.196094 297.940354 
L 135.220586 297.944232 
L 136.245077 297.680542 
L 137.269569 296.82743 
L 140.343044 295.101815 
L 142.392027 294.58607 
L 143.416518 294.138186 
L 144.44101 294.531781 
L 146.489993 292.978728 
L 148.538976 292.247765 
L 149.563468 292.538599 
L 150.587959 290.741246 
L 151.612451 291.470269 
L 152.636942 291.127085 
L 153.661434 291.50323 
L 155.710417 290.405817 
L 156.734909 290.27785 
L 157.7594 289.166865 
L 158.783892 289.161048 
L 159.808383 288.753881 
L 160.832875 289.005937 
L 163.90635 287.317161 
L 164.930841 286.700593 
L 165.955333 286.359348 
L 166.979824 286.516398 
L 169.028808 285.579913 
L 170.053299 285.42868 
L 171.077791 284.428211 
L 172.102282 284.558117 
L 173.126774 284.180033 
L 174.151265 284.647306 
L 175.175757 284.286672 
L 176.200249 283.313348 
L 177.22474 284.236261 
L 178.249232 285.537258 
L 179.273723 285.612874 
L 180.298215 285.424802 
L 181.322706 285.733086 
L 182.347198 284.771395 
L 183.37169 284.226566 
L 184.396181 285.040901 
L 185.420673 284.866401 
L 186.445164 285.207646 
L 187.469656 284.67445 
L 188.494147 283.732148 
L 189.518639 282.462174 
L 190.543131 281.857239 
L 191.567622 280.961471 
L 192.592114 278.628983 
L 193.616605 278.062826 
L 194.641097 277.768115 
L 195.665588 277.273697 
L 196.69008 275.994028 
L 197.714572 275.49961 
L 198.739063 274.150141 
L 199.763555 273.141917 
L 200.788046 272.441976 
L 201.812538 273.068239 
L 203.861521 273.382339 
L 204.886013 273.219472 
L 205.910504 272.556371 
L 206.934996 273.355195 
L 207.959487 273.2408 
L 210.008471 270.322767 
L 211.032962 268.275296 
L 212.057454 269.242803 
L 213.081945 268.294685 
L 214.106437 268.094979 
L 215.130928 269.250559 
L 216.15542 267.736284 
L 218.204403 265.438696 
L 219.228895 263.205092 
L 220.253386 264.323833 
L 221.277878 262.902624 
L 222.302369 262.607913 
L 223.326861 262.020428 
L 225.375844 260.473192 
L 226.400336 259.476601 
L 227.424827 258.216321 
L 228.449319 257.776192 
L 229.47381 257.520258 
L 230.498302 256.139767 
L 231.522794 256.232834 
L 232.547285 257.811092 
L 233.571777 256.389884 
L 234.596268 255.883833 
L 235.62076 254.848464 
L 236.645251 253.33225 
L 237.669743 252.22902 
L 238.694235 253.498995 
L 240.743218 251.945942 
L 241.767709 252.857221 
L 242.792201 252.64976 
L 243.816692 253.446645 
L 244.841184 253.652167 
L 245.865676 252.983249 
L 246.890167 251.864508 
L 247.914659 251.657047 
L 248.93915 250.796178 
L 249.963642 252.101053 
L 250.988133 251.331313 
L 252.012625 248.88443 
L 253.037117 249.34007 
L 254.061608 249.34007 
L 255.0861 247.914984 
L 256.110591 247.779261 
L 257.135083 245.724035 
L 258.159574 247.069627 
L 259.184066 246.693482 
L 260.208558 246.505409 
L 261.233049 245.464224 
L 262.257541 244.039137 
L 264.306524 245.90823 
L 265.331015 245.169512 
L 266.355507 244.632439 
L 267.379999 244.816633 
L 268.40449 243.70177 
L 269.428982 244.163227 
L 270.453473 245.384729 
L 271.477965 243.992604 
L 272.502456 243.837493 
L 273.526948 244.093426 
L 275.575931 243.393486 
L 276.600423 243.829737 
L 278.649406 243.329503 
L 279.673897 243.862698 
L 280.698389 244.132204 
L 281.722881 243.232558 
L 282.747372 243.376036 
L 283.771864 242.402712 
L 284.796355 241.801655 
L 285.820847 241.826861 
L 286.845338 242.329034 
L 287.86983 241.799716 
L 288.894322 241.739611 
L 289.918813 240.196252 
L 290.943305 238.199193 
L 291.967796 238.040203 
L 292.992288 240.473514 
L 294.016779 239.432328 
L 295.041271 237.937442 
L 296.065763 237.031979 
L 297.090254 236.564706 
L 298.114746 234.241913 
L 300.163729 231.963714 
L 301.188221 231.988919 
L 302.212712 234.239974 
L 303.237204 234.100374 
L 304.261695 233.030105 
L 305.286187 233.247261 
L 306.310678 231.827991 
L 307.33517 231.246323 
L 308.359662 230.02676 
L 309.384153 229.214364 
L 310.408645 227.475177 
L 311.433136 227.39956 
L 312.457628 227.093215 
L 313.482119 227.90755 
L 314.506611 227.333638 
L 315.531103 225.57894 
L 317.580086 224.338049 
L 318.604577 223.622597 
L 319.629069 224.210082 
L 320.65356 225.728235 
L 321.678052 224.506733 
L 323.727035 222.412728 
L 324.751527 222.019133 
L 325.776018 222.666723 
L 326.80051 222.786935 
L 327.825001 223.971598 
L 328.849493 223.84557 
L 329.873985 222.591107 
L 330.898476 220.53588 
L 332.947459 216.712384 
L 333.971951 214.899519 
L 334.996442 214.934419 
L 336.020934 214.364385 
L 337.045426 213.992117 
L 338.069917 213.79435 
L 339.094409 211.911686 
L 340.1189 210.775495 
L 341.143392 212.093942 
L 342.167883 211.890358 
L 344.216867 208.793946 
L 345.241358 207.347532 
L 346.26585 206.604936 
L 347.290341 206.781376 
L 348.314833 207.304877 
L 349.339324 207.442538 
L 350.363816 207.221504 
L 351.388308 206.701881 
L 352.412799 207.157521 
L 353.437291 209.501642 
L 354.461782 209.656753 
L 355.486274 208.266567 
L 356.510765 209.916565 
L 357.535257 213.354222 
L 358.559749 209.45317 
L 359.58424 207.149765 
L 360.608732 208.693124 
L 361.633223 209.693592 
L 362.657715 206.525442 
L 364.706698 204.687371 
L 365.73119 204.607877 
L 366.755681 201.734438 
L 367.780173 200.092196 
L 368.804664 197.682152 
L 369.829156 198.203714 
L 370.853647 195.107303 
L 371.878139 196.838734 
L 372.902631 197.709297 
L 373.927122 196.458711 
L 374.951614 194.587679 
L 375.976105 192.443264 
L 377.000597 194.221229 
L 378.025088 193.424344 
L 379.04958 190.754489 
L 380.074072 190.374466 
L 381.098563 187.186926 
L 382.123055 185.777351 
L 383.147546 186.30473 
L 384.172038 185.383756 
L 385.196529 184.922299 
L 386.221021 182.221422 
L 387.245513 182.105088 
L 388.270004 179.175422 
L 389.294496 177.928714 
L 390.318987 179.863728 
L 391.343479 178.766315 
L 392.367971 177.168668 
L 393.392462 176.873956 
L 394.416954 173.851222 
L 395.441445 173.098932 
L 396.465937 171.627312 
L 398.51492 166.55323 
L 399.539412 165.831962 
L 400.563903 164.100531 
L 401.588395 164.269215 
L 403.637378 159.893134 
L 404.661869 158.687143 
L 405.686361 157.696368 
L 406.710853 159.470455 
L 407.735344 158.27222 
L 408.759836 158.425392 
L 409.784327 155.980448 
L 410.808819 154.097784 
L 411.83331 151.206895 
L 412.857802 146.524469 
L 414.906785 152.368291 
L 415.931277 151.522934 
L 416.955768 153.956244 
L 417.98026 150.574816 
L 419.004751 146.481813 
L 421.053735 146.303435 
L 422.078226 144.31607 
L 423.102718 140.764019 
L 424.127209 140.199801 
L 425.151701 138.123247 
L 426.176192 134.472312 
L 427.200684 132.316263 
L 428.225176 133.450515 
L 429.249667 127.457398 
L 430.274159 130.445232 
L 431.29865 126.464685 
L 432.323142 123.438074 
L 433.347633 121.485609 
L 434.372125 118.850653 
L 435.396617 117.49149 
L 438.470091 118.17398 
L 439.494583 121.363458 
L 440.519074 117.130856 
L 441.543566 122.466688 
L 442.568058 121.879204 
L 443.592549 117.997541 
L 444.617041 118.172041 
L 445.641532 119.403238 
L 447.690515 117.276273 
L 448.715007 112.789675 
L 449.739499 112.72763 
L 450.76399 110.45137 
L 451.788482 105.501377 
L 452.812973 101.927998 
L 453.837465 102.381699 
L 454.861956 102.971122 
L 456.91094 107.876521 
L 457.935431 106.585218 
L 458.959923 104.83052 
L 459.984414 99.17477 
L 461.008906 99.570305 
L 462.033397 97.136994 
L 463.057889 93.656682 
L 464.082381 92.219962 
L 465.106872 90.366381 
L 466.131364 87.326197 
L 467.155855 86.761979 
L 468.180347 83.467801 
L 469.204838 78.422802 
L 470.22933 75.392313 
L 471.253822 71.7026 
L 472.278313 77.430089 
L 473.302805 76.514932 
L 474.327296 77.750006 
L 475.351788 74.541139 
L 476.376279 73.527098 
L 477.400771 69.558185 
L 478.425263 65.075465 
L 479.449754 67.029869 
L 480.474246 79.847888 
L 481.498737 76.916282 
L 482.523229 77.263344 
L 483.547721 72.617757 
L 484.572212 71.144199 
L 485.596704 64.257252 
L 486.621195 61.028996 
L 487.645687 64.036218 
L 488.670178 56.317487 
L 489.69467 54.425127 
L 490.719162 47.369497 
L 491.743653 47.257041 
L 492.768145 45.486832 
L 493.792636 42.440832 
L 494.817128 41.128201 
L 495.841619 34.98385 
L 496.866111 39.297887 
L 497.890603 41.176674 
L 498.915094 37.808817 
L 499.939586 36.467103 
L 500.964077 35.476329 
L 501.988569 31.660588 
L 503.01306 26.778457 
L 504.037552 30.210297 
L 504.037552 30.210297 
" style="fill:none;stroke:#000000;stroke-linecap:square;stroke-width:1.5;"/>
   </g>
   <g id="patch_3">
    <path d="M 69.653125 318.84375 
L 69.653125 12.870585 
" style="fill:none;stroke:#000000;stroke-linecap:square;stroke-linejoin:miter;stroke-width:0.8;"/>
   </g>
   <g id="patch_4">
    <path d="M 525.551875 318.84375 
L 525.551875 12.870585 
" style="fill:none;stroke:#000000;stroke-linecap:square;stroke-linejoin:miter;stroke-width:0.8;"/>
   </g>
   <g id="patch_5">
    <path d="M 69.653125 318.84375 
L 525.551875 318.84375 
" style="fill:none;stroke:#000000;stroke-linecap:square;stroke-linejoin:miter;stroke-width:0.8;"/>
   </g>
   <g id="patch_6">
    <path d="M 69.653125 12.870585 
L 525.551875 12.870585 
" style="fill:none;stroke:#000000;stroke-linecap:square;stroke-linejoin:miter;stroke-width:0.8;"/>
   </g>
  </g>
  <g id="axes_2">
   <g id="matplotlib.axis_3">
    <g id="ytick_33">
     <g id="line2d_124">
      <defs>
       <path d="M 0 0 
L 3.5 0 
" id="m8b84872330" style="stroke:#000000;stroke-width:0.8;"/>
      </defs>
      <g>
       <use style="stroke:#000000;stroke-width:0.8;" x="525.551875" xlink:href="#m8b84872330" y="304.652801"/>
      </g>
     </g>
     <g id="text_18">
      <!-- 0 -->
      <g transform="translate(532.551875 308.452019)scale(0.1 -0.1)">
       <use xlink:href="#DejaVuSans-48"/>
      </g>
     </g>
    </g>
    <g id="ytick_34">
     <g id="line2d_125">
      <g>
       <use style="stroke:#000000;stroke-width:0.8;" x="525.551875" xlink:href="#m8b84872330" y="263.955443"/>
      </g>
     </g>
     <g id="text_19">
      <!-- 200 -->
      <g transform="translate(532.551875 267.754662)scale(0.1 -0.1)">
       <use xlink:href="#DejaVuSans-50"/>
       <use x="63.623047" xlink:href="#DejaVuSans-48"/>
       <use x="127.246094" xlink:href="#DejaVuSans-48"/>
      </g>
     </g>
    </g>
    <g id="ytick_35">
     <g id="line2d_126">
      <g>
       <use style="stroke:#000000;stroke-width:0.8;" x="525.551875" xlink:href="#m8b84872330" y="223.258086"/>
      </g>
     </g>
     <g id="text_20">
      <!-- 400 -->
      <g transform="translate(532.551875 227.057304)scale(0.1 -0.1)">
       <use xlink:href="#DejaVuSans-52"/>
       <use x="63.623047" xlink:href="#DejaVuSans-48"/>
       <use x="127.246094" xlink:href="#DejaVuSans-48"/>
      </g>
     </g>
    </g>
    <g id="ytick_36">
     <g id="line2d_127">
      <g>
       <use style="stroke:#000000;stroke-width:0.8;" x="525.551875" xlink:href="#m8b84872330" y="182.560728"/>
      </g>
     </g>
     <g id="text_21">
      <!-- 600 -->
      <g transform="translate(532.551875 186.359947)scale(0.1 -0.1)">
       <use xlink:href="#DejaVuSans-54"/>
       <use x="63.623047" xlink:href="#DejaVuSans-48"/>
       <use x="127.246094" xlink:href="#DejaVuSans-48"/>
      </g>
     </g>
    </g>
    <g id="ytick_37">
     <g id="line2d_128">
      <g>
       <use style="stroke:#000000;stroke-width:0.8;" x="525.551875" xlink:href="#m8b84872330" y="141.863371"/>
      </g>
     </g>
     <g id="text_22">
      <!-- 800 -->
      <g transform="translate(532.551875 145.662589)scale(0.1 -0.1)">
       <use xlink:href="#DejaVuSans-56"/>
       <use x="63.623047" xlink:href="#DejaVuSans-48"/>
       <use x="127.246094" xlink:href="#DejaVuSans-48"/>
      </g>
     </g>
    </g>
    <g id="ytick_38">
     <g id="line2d_129">
      <g>
       <use style="stroke:#000000;stroke-width:0.8;" x="525.551875" xlink:href="#m8b84872330" y="101.166013"/>
      </g>
     </g>
     <g id="text_23">
      <!-- 1000 -->
      <g transform="translate(532.551875 104.965232)scale(0.1 -0.1)">
       <use xlink:href="#DejaVuSans-49"/>
       <use x="63.623047" xlink:href="#DejaVuSans-48"/>
       <use x="127.246094" xlink:href="#DejaVuSans-48"/>
       <use x="190.869141" xlink:href="#DejaVuSans-48"/>
      </g>
     </g>
    </g>
    <g id="ytick_39">
     <g id="line2d_130">
      <g>
       <use style="stroke:#000000;stroke-width:0.8;" x="525.551875" xlink:href="#m8b84872330" y="60.468656"/>
      </g>
     </g>
     <g id="text_24">
      <!-- 1200 -->
      <g transform="translate(532.551875 64.267875)scale(0.1 -0.1)">
       <use xlink:href="#DejaVuSans-49"/>
       <use x="63.623047" xlink:href="#DejaVuSans-50"/>
       <use x="127.246094" xlink:href="#DejaVuSans-48"/>
       <use x="190.869141" xlink:href="#DejaVuSans-48"/>
      </g>
     </g>
    </g>
    <g id="ytick_40">
     <g id="line2d_131">
      <g>
       <use style="stroke:#000000;stroke-width:0.8;" x="525.551875" xlink:href="#m8b84872330" y="19.771298"/>
      </g>
     </g>
     <g id="text_25">
      <!-- 1400 -->
      <g transform="translate(532.551875 23.570517)scale(0.1 -0.1)">
       <use xlink:href="#DejaVuSans-49"/>
       <use x="63.623047" xlink:href="#DejaVuSans-52"/>
       <use x="127.246094" xlink:href="#DejaVuSans-48"/>
       <use x="190.869141" xlink:href="#DejaVuSans-48"/>
      </g>
     </g>
    </g>
    <g id="text_26">
     <!-- Return (%) -->
     <defs>
      <path d="M 44.390625 34.1875 
Q 47.5625 33.109375 50.5625 29.59375 
Q 53.5625 26.078125 56.59375 19.921875 
L 66.609375 0 
L 56 0 
L 46.6875 18.703125 
Q 43.0625 26.03125 39.671875 28.421875 
Q 36.28125 30.8125 30.421875 30.8125 
L 19.671875 30.8125 
L 19.671875 0 
L 9.8125 0 
L 9.8125 72.90625 
L 32.078125 72.90625 
Q 44.578125 72.90625 50.734375 67.671875 
Q 56.890625 62.453125 56.890625 51.90625 
Q 56.890625 45.015625 53.6875 40.46875 
Q 50.484375 35.9375 44.390625 34.1875 
z
M 19.671875 64.796875 
L 19.671875 38.921875 
L 32.078125 38.921875 
Q 39.203125 38.921875 42.84375 42.21875 
Q 46.484375 45.515625 46.484375 51.90625 
Q 46.484375 58.296875 42.84375 61.546875 
Q 39.203125 64.796875 32.078125 64.796875 
z
" id="DejaVuSans-82"/>
      <path d="M 54.890625 33.015625 
L 54.890625 0 
L 45.90625 0 
L 45.90625 32.71875 
Q 45.90625 40.484375 42.875 44.328125 
Q 39.84375 48.1875 33.796875 48.1875 
Q 26.515625 48.1875 22.3125 43.546875 
Q 18.109375 38.921875 18.109375 30.90625 
L 18.109375 0 
L 9.078125 0 
L 9.078125 54.6875 
L 18.109375 54.6875 
L 18.109375 46.1875 
Q 21.34375 51.125 25.703125 53.5625 
Q 30.078125 56 35.796875 56 
Q 45.21875 56 50.046875 50.171875 
Q 54.890625 44.34375 54.890625 33.015625 
z
" id="DejaVuSans-110"/>
      <path d="M 72.703125 32.078125 
Q 68.453125 32.078125 66.03125 28.46875 
Q 63.625 24.859375 63.625 18.40625 
Q 63.625 12.0625 66.03125 8.421875 
Q 68.453125 4.78125 72.703125 4.78125 
Q 76.859375 4.78125 79.265625 8.421875 
Q 81.6875 12.0625 81.6875 18.40625 
Q 81.6875 24.8125 79.265625 28.4375 
Q 76.859375 32.078125 72.703125 32.078125 
z
M 72.703125 38.28125 
Q 80.421875 38.28125 84.953125 32.90625 
Q 89.5 27.546875 89.5 18.40625 
Q 89.5 9.28125 84.9375 3.921875 
Q 80.375 -1.421875 72.703125 -1.421875 
Q 64.890625 -1.421875 60.34375 3.921875 
Q 55.8125 9.28125 55.8125 18.40625 
Q 55.8125 27.59375 60.375 32.9375 
Q 64.9375 38.28125 72.703125 38.28125 
z
M 22.3125 68.015625 
Q 18.109375 68.015625 15.6875 64.375 
Q 13.28125 60.75 13.28125 54.390625 
Q 13.28125 47.953125 15.671875 44.328125 
Q 18.0625 40.71875 22.3125 40.71875 
Q 26.5625 40.71875 28.96875 44.328125 
Q 31.390625 47.953125 31.390625 54.390625 
Q 31.390625 60.6875 28.953125 64.34375 
Q 26.515625 68.015625 22.3125 68.015625 
z
M 66.40625 74.21875 
L 74.21875 74.21875 
L 28.609375 -1.421875 
L 20.796875 -1.421875 
z
M 22.3125 74.21875 
Q 30.03125 74.21875 34.609375 68.875 
Q 39.203125 63.53125 39.203125 54.390625 
Q 39.203125 45.171875 34.640625 39.84375 
Q 30.078125 34.515625 22.3125 34.515625 
Q 14.546875 34.515625 10.03125 39.859375 
Q 5.515625 45.21875 5.515625 54.390625 
Q 5.515625 63.484375 10.046875 68.84375 
Q 14.59375 74.21875 22.3125 74.21875 
z
" id="DejaVuSans-37"/>
     </defs>
     <g transform="translate(569.600312 192.68998)rotate(-90)scale(0.1 -0.1)">
      <use xlink:href="#DejaVuSans-82"/>
      <use x="64.982422" xlink:href="#DejaVuSans-101"/>
      <use x="126.505859" xlink:href="#DejaVuSans-116"/>
      <use x="165.714844" xlink:href="#DejaVuSans-117"/>
      <use x="229.09375" xlink:href="#DejaVuSans-114"/>
      <use x="268.457031" xlink:href="#DejaVuSans-110"/>
      <use x="331.835938" xlink:href="#DejaVuSans-32"/>
      <use x="363.623047" xlink:href="#DejaVuSans-40"/>
      <use x="402.636719" xlink:href="#DejaVuSans-37"/>
      <use x="497.65625" xlink:href="#DejaVuSans-41"/>
     </g>
    </g>
   </g>
   <g id="line2d_132">
    <path clip-path="url(#p9a9e14fbde)" d="M 90.142956 304.652801 
L 91.167448 304.296044 
L 92.19194 304.210733 
L 93.216431 304.895162 
L 94.240923 304.935879 
L 96.289906 304.243694 
L 97.314397 304.127361 
L 98.338889 304.792401 
L 99.363381 304.879651 
L 100.387872 304.778829 
L 101.412364 304.330944 
L 102.436855 303.415787 
L 103.461347 303.124953 
L 104.485838 303.483648 
L 105.51033 303.503037 
L 106.534822 303.63876 
L 107.559313 302.929125 
L 109.608296 303.169548 
L 110.632788 302.487057 
L 111.657279 301.961618 
L 112.681771 302.337763 
L 113.706263 302.223368 
L 114.730754 301.393522 
L 115.755246 301.727011 
L 116.779737 301.540878 
L 117.804229 300.881654 
L 118.828721 300.086708 
L 119.853212 299.466263 
L 120.877704 298.5608 
L 121.902195 298.694583 
L 122.926687 298.6306 
L 126.000162 297.763915 
L 127.024653 298.706217 
L 129.073636 298.355277 
L 130.098128 298.828367 
L 131.122619 297.42267 
L 133.171603 296.870085 
L 134.196094 297.940354 
L 135.220586 297.944232 
L 136.245077 297.680542 
L 137.269569 296.82743 
L 140.343044 295.101815 
L 142.392027 294.58607 
L 143.416518 294.138186 
L 144.44101 294.531781 
L 146.489993 292.978728 
L 148.538976 292.247765 
L 149.563468 292.538599 
L 150.587959 290.741246 
L 151.612451 291.470269 
L 152.636942 291.127085 
L 153.661434 291.50323 
L 155.710417 290.405817 
L 156.734909 290.27785 
L 157.7594 289.166865 
L 158.783892 289.161048 
L 159.808383 288.753881 
L 160.832875 289.005937 
L 163.90635 287.317161 
L 164.930841 286.700593 
L 165.955333 286.359348 
L 166.979824 286.516398 
L 169.028808 285.579913 
L 170.053299 285.42868 
L 171.077791 284.428211 
L 172.102282 284.558117 
L 173.126774 284.180033 
L 174.151265 284.647306 
L 175.175757 284.286672 
L 176.200249 283.313348 
L 177.22474 284.236261 
L 178.249232 285.537258 
L 179.273723 285.612874 
L 180.298215 285.424802 
L 181.322706 285.733086 
L 182.347198 284.771395 
L 183.37169 284.226566 
L 184.396181 285.040901 
L 185.420673 284.866401 
L 186.445164 285.207646 
L 187.469656 284.67445 
L 188.494147 283.732148 
L 189.518639 282.462174 
L 190.543131 281.857239 
L 191.567622 280.961471 
L 192.592114 278.628983 
L 193.616605 278.062826 
L 194.641097 277.768115 
L 195.665588 277.273697 
L 196.69008 275.994028 
L 197.714572 275.49961 
L 198.739063 274.150141 
L 199.763555 273.141917 
L 200.788046 272.441976 
L 201.812538 273.068239 
L 203.861521 273.382339 
L 204.886013 273.219472 
L 205.910504 272.556371 
L 206.934996 273.355195 
L 207.959487 273.2408 
L 210.008471 270.322767 
L 211.032962 268.275296 
L 212.057454 269.242803 
L 213.081945 268.294685 
L 214.106437 268.094979 
L 215.130928 269.250559 
L 216.15542 267.736284 
L 218.204403 265.438696 
L 219.228895 263.205092 
L 220.253386 264.323833 
L 221.277878 262.902624 
L 222.302369 262.607913 
L 223.326861 262.020428 
L 225.375844 260.473192 
L 226.400336 259.476601 
L 227.424827 258.216321 
L 228.449319 257.776192 
L 229.47381 257.520258 
L 230.498302 256.139767 
L 231.522794 256.232834 
L 232.547285 257.811092 
L 233.571777 256.389884 
L 234.596268 255.883833 
L 235.62076 254.848464 
L 236.645251 253.33225 
L 237.669743 252.22902 
L 238.694235 253.498995 
L 240.743218 251.945942 
L 241.767709 252.857221 
L 242.792201 252.64976 
L 243.816692 253.446645 
L 244.841184 253.652167 
L 245.865676 252.983249 
L 246.890167 251.864508 
L 247.914659 251.657047 
L 248.93915 250.796178 
L 249.963642 252.101053 
L 250.988133 251.331313 
L 252.012625 248.88443 
L 253.037117 249.34007 
L 254.061608 249.34007 
L 255.0861 247.914984 
L 256.110591 247.779261 
L 257.135083 245.724035 
L 258.159574 247.069627 
L 259.184066 246.693482 
L 260.208558 246.505409 
L 261.233049 245.464224 
L 262.257541 244.039137 
L 264.306524 245.90823 
L 265.331015 245.169512 
L 266.355507 244.632439 
L 267.379999 244.816633 
L 268.40449 243.70177 
L 269.428982 244.163227 
L 270.453473 245.384729 
L 271.477965 243.992604 
L 272.502456 243.837493 
L 273.526948 244.093426 
L 275.575931 243.393486 
L 276.600423 243.829737 
L 278.649406 243.329503 
L 279.673897 243.862698 
L 280.698389 244.132204 
L 281.722881 243.232558 
L 282.747372 243.376036 
L 283.771864 242.402712 
L 284.796355 241.801655 
L 285.820847 241.826861 
L 286.845338 242.329034 
L 287.86983 241.799716 
L 288.894322 241.739611 
L 289.918813 240.196252 
L 290.943305 238.199193 
L 291.967796 238.040203 
L 292.992288 240.473514 
L 294.016779 239.432328 
L 295.041271 237.937442 
L 296.065763 237.031979 
L 297.090254 236.564706 
L 298.114746 234.241913 
L 300.163729 231.963714 
L 301.188221 231.988919 
L 302.212712 234.239974 
L 303.237204 234.100374 
L 304.261695 233.030105 
L 305.286187 233.247261 
L 306.310678 231.827991 
L 307.33517 231.246323 
L 308.359662 230.02676 
L 309.384153 229.214364 
L 310.408645 227.475177 
L 311.433136 227.39956 
L 312.457628 227.093215 
L 313.482119 227.90755 
L 314.506611 227.333638 
L 315.531103 225.57894 
L 317.580086 224.338049 
L 318.604577 223.622597 
L 319.629069 224.210082 
L 320.65356 225.728235 
L 321.678052 224.506733 
L 323.727035 222.412728 
L 324.751527 222.019133 
L 325.776018 222.666723 
L 326.80051 222.786935 
L 327.825001 223.971598 
L 328.849493 223.84557 
L 329.873985 222.591107 
L 330.898476 220.53588 
L 332.947459 216.712384 
L 333.971951 214.899519 
L 334.996442 214.934419 
L 336.020934 214.364385 
L 337.045426 213.992117 
L 338.069917 213.79435 
L 339.094409 211.911686 
L 340.1189 210.775495 
L 341.143392 212.093942 
L 342.167883 211.890358 
L 344.216867 208.793946 
L 345.241358 207.347532 
L 346.26585 206.604936 
L 347.290341 206.781376 
L 348.314833 207.304877 
L 349.339324 207.442538 
L 350.363816 207.221504 
L 351.388308 206.701881 
L 352.412799 207.157521 
L 353.437291 209.501642 
L 354.461782 209.656753 
L 355.486274 208.266567 
L 356.510765 209.916565 
L 357.535257 213.354222 
L 358.559749 209.45317 
L 359.58424 207.149765 
L 360.608732 208.693124 
L 361.633223 209.693592 
L 362.657715 206.525442 
L 364.706698 204.687371 
L 365.73119 204.607877 
L 366.755681 201.734438 
L 367.780173 200.092196 
L 368.804664 197.682152 
L 369.829156 198.203714 
L 370.853647 195.107303 
L 371.878139 196.838734 
L 372.902631 197.709297 
L 373.927122 196.458711 
L 374.951614 194.587679 
L 375.976105 192.443264 
L 377.000597 194.221229 
L 378.025088 193.424344 
L 379.04958 190.754489 
L 380.074072 190.374466 
L 381.098563 187.186926 
L 382.123055 185.777351 
L 383.147546 186.30473 
L 384.172038 185.383756 
L 385.196529 184.922299 
L 386.221021 182.221422 
L 387.245513 182.105088 
L 388.270004 179.175422 
L 389.294496 177.928714 
L 390.318987 179.863728 
L 391.343479 178.766315 
L 392.367971 177.168668 
L 393.392462 176.873956 
L 394.416954 173.851222 
L 395.441445 173.098932 
L 396.465937 171.627312 
L 398.51492 166.55323 
L 399.539412 165.831962 
L 400.563903 164.100531 
L 401.588395 164.269215 
L 403.637378 159.893134 
L 404.661869 158.687143 
L 405.686361 157.696368 
L 406.710853 159.470455 
L 407.735344 158.27222 
L 408.759836 158.425392 
L 409.784327 155.980448 
L 410.808819 154.097784 
L 411.83331 151.206895 
L 412.857802 146.524469 
L 414.906785 152.368291 
L 415.931277 151.522934 
L 416.955768 153.956244 
L 417.98026 150.574816 
L 419.004751 146.481813 
L 421.053735 146.303435 
L 422.078226 144.31607 
L 423.102718 140.764019 
L 424.127209 140.199801 
L 425.151701 138.123247 
L 426.176192 134.472312 
L 427.200684 132.316263 
L 428.225176 133.450515 
L 429.249667 127.457398 
L 430.274159 130.445232 
L 431.29865 126.464685 
L 432.323142 123.438074 
L 433.347633 121.485609 
L 434.372125 118.850653 
L 435.396617 117.49149 
L 438.470091 118.17398 
L 439.494583 121.363458 
L 440.519074 117.130856 
L 441.543566 122.466688 
L 442.568058 121.879204 
L 443.592549 117.997541 
L 444.617041 118.172041 
L 445.641532 119.403238 
L 447.690515 117.276273 
L 448.715007 112.789675 
L 449.739499 112.72763 
L 450.76399 110.45137 
L 451.788482 105.501377 
L 452.812973 101.927998 
L 453.837465 102.381699 
L 454.861956 102.971122 
L 456.91094 107.876521 
L 457.935431 106.585218 
L 458.959923 104.83052 
L 459.984414 99.17477 
L 461.008906 99.570305 
L 462.033397 97.136994 
L 463.057889 93.656682 
L 464.082381 92.219962 
L 465.106872 90.366381 
L 466.131364 87.326197 
L 467.155855 86.761979 
L 468.180347 83.467801 
L 469.204838 78.422802 
L 470.22933 75.392313 
L 471.253822 71.7026 
L 472.278313 77.430089 
L 473.302805 76.514932 
L 474.327296 77.750006 
L 475.351788 74.541139 
L 476.376279 73.527098 
L 477.400771 69.558185 
L 478.425263 65.075465 
L 479.449754 67.029869 
L 480.474246 79.847888 
L 481.498737 76.916282 
L 482.523229 77.263344 
L 483.547721 72.617757 
L 484.572212 71.144199 
L 485.596704 64.257252 
L 486.621195 61.028996 
L 487.645687 64.036218 
L 488.670178 56.317487 
L 489.69467 54.425127 
L 490.719162 47.369497 
L 491.743653 47.257041 
L 492.768145 45.486832 
L 493.792636 42.440832 
L 494.817128 41.128201 
L 495.841619 34.98385 
L 496.866111 39.297887 
L 497.890603 41.176674 
L 498.915094 37.808817 
L 499.939586 36.467103 
L 500.964077 35.476329 
L 501.988569 31.660588 
L 503.01306 26.778457 
L 504.037552 30.210297 
L 504.037552 30.210297 
" style="fill:none;stroke:#000000;stroke-linecap:square;stroke-width:1.5;"/>
   </g>
   <g id="patch_7">
    <path d="M 69.653125 318.84375 
L 69.653125 12.870585 
" style="fill:none;stroke:#000000;stroke-linecap:square;stroke-linejoin:miter;stroke-width:0.8;"/>
   </g>
   <g id="patch_8">
    <path d="M 525.551875 318.84375 
L 525.551875 12.870585 
" style="fill:none;stroke:#000000;stroke-linecap:square;stroke-linejoin:miter;stroke-width:0.8;"/>
   </g>
   <g id="patch_9">
    <path d="M 69.653125 318.84375 
L 525.551875 318.84375 
" style="fill:none;stroke:#000000;stroke-linecap:square;stroke-linejoin:miter;stroke-width:0.8;"/>
   </g>
   <g id="patch_10">
    <path d="M 69.653125 12.870585 
L 525.551875 12.870585 
" style="fill:none;stroke:#000000;stroke-linecap:square;stroke-linejoin:miter;stroke-width:0.8;"/>
   </g>
  </g>
 </g>
 <defs>
  <clipPath id="p9a9e14fbde">
   <rect height="305.973165" width="455.89875" x="69.653125" y="12.870585"/>
  </clipPath>
 </defs>
</svg>
