<?xml version="1.0" encoding="utf-8" standalone="no"?>
<!DOCTYPE svg PUBLIC "-//W3C//DTD SVG 1.1//EN"
  "http://www.w3.org/Graphics/SVG/1.1/DTD/svg11.dtd">
<!-- Created with matplotlib (https://matplotlib.org/) -->
<svg height="360pt" version="1.1" viewBox="0 0 582.48 360" width="582.48pt" xmlns="http://www.w3.org/2000/svg" xmlns:xlink="http://www.w3.org/1999/xlink">
 <defs>
  <style type="text/css">
*{stroke-linecap:butt;stroke-linejoin:round;}
  </style>
 </defs>
 <g id="figure_1">
  <g id="patch_1">
   <path d="M 0 360 
L 582.48 360 
L 582.48 0 
L 0 0 
z
" style="fill:none;"/>
  </g>
  <g id="axes_1">
   <g id="patch_2">
    <path d="M 69.653125 318.84375 
L 525.551875 318.84375 
L 525.551875 10.8 
L 69.653125 10.8 
z
" style="fill:none;"/>
   </g>
   <g id="matplotlib.axis_1">
    <g id="xtick_1">
     <g id="line2d_1">
      <defs>
       <path d="M 0 0 
L 0 3.5 
" id="m91b9228d5c" style="stroke:#000000;stroke-width:0.8;"/>
      </defs>
      <g>
       <use style="stroke:#000000;stroke-width:0.8;" x="101.752548" xlink:href="#m91b9228d5c" y="318.84375"/>
      </g>
     </g>
     <g id="text_1">
      <!-- 1988 -->
      <defs>
       <path d="M 12.40625 8.296875 
L 28.515625 8.296875 
L 28.515625 63.921875 
L 10.984375 60.40625 
L 10.984375 69.390625 
L 28.421875 72.90625 
L 38.28125 72.90625 
L 38.28125 8.296875 
L 54.390625 8.296875 
L 54.390625 0 
L 12.40625 0 
z
" id="DejaVuSans-49"/>
       <path d="M 10.984375 1.515625 
L 10.984375 10.5 
Q 14.703125 8.734375 18.5 7.8125 
Q 22.3125 6.890625 25.984375 6.890625 
Q 35.75 6.890625 40.890625 13.453125 
Q 46.046875 20.015625 46.78125 33.40625 
Q 43.953125 29.203125 39.59375 26.953125 
Q 35.25 24.703125 29.984375 24.703125 
Q 19.046875 24.703125 12.671875 31.3125 
Q 6.296875 37.9375 6.296875 49.421875 
Q 6.296875 60.640625 12.9375 67.421875 
Q 19.578125 74.21875 30.609375 74.21875 
Q 43.265625 74.21875 49.921875 64.515625 
Q 56.59375 54.828125 56.59375 36.375 
Q 56.59375 19.140625 48.40625 8.859375 
Q 40.234375 -1.421875 26.421875 -1.421875 
Q 22.703125 -1.421875 18.890625 -0.6875 
Q 15.09375 0.046875 10.984375 1.515625 
z
M 30.609375 32.421875 
Q 37.25 32.421875 41.125 36.953125 
Q 45.015625 41.5 45.015625 49.421875 
Q 45.015625 57.28125 41.125 61.84375 
Q 37.25 66.40625 30.609375 66.40625 
Q 23.96875 66.40625 20.09375 61.84375 
Q 16.21875 57.28125 16.21875 49.421875 
Q 16.21875 41.5 20.09375 36.953125 
Q 23.96875 32.421875 30.609375 32.421875 
z
" id="DejaVuSans-57"/>
       <path d="M 31.78125 34.625 
Q 24.75 34.625 20.71875 30.859375 
Q 16.703125 27.09375 16.703125 20.515625 
Q 16.703125 13.921875 20.71875 10.15625 
Q 24.75 6.390625 31.78125 6.390625 
Q 38.8125 6.390625 42.859375 10.171875 
Q 46.921875 13.96875 46.921875 20.515625 
Q 46.921875 27.09375 42.890625 30.859375 
Q 38.875 34.625 31.78125 34.625 
z
M 21.921875 38.8125 
Q 15.578125 40.375 12.03125 44.71875 
Q 8.5 49.078125 8.5 55.328125 
Q 8.5 64.0625 14.71875 69.140625 
Q 20.953125 74.21875 31.78125 74.21875 
Q 42.671875 74.21875 48.875 69.140625 
Q 55.078125 64.0625 55.078125 55.328125 
Q 55.078125 49.078125 51.53125 44.71875 
Q 48 40.375 41.703125 38.8125 
Q 48.828125 37.15625 52.796875 32.3125 
Q 56.78125 27.484375 56.78125 20.515625 
Q 56.78125 9.90625 50.3125 4.234375 
Q 43.84375 -1.421875 31.78125 -1.421875 
Q 19.734375 -1.421875 13.25 4.234375 
Q 6.78125 9.90625 6.78125 20.515625 
Q 6.78125 27.484375 10.78125 32.3125 
Q 14.796875 37.15625 21.921875 38.8125 
z
M 18.3125 54.390625 
Q 18.3125 48.734375 21.84375 45.5625 
Q 25.390625 42.390625 31.78125 42.390625 
Q 38.140625 42.390625 41.71875 45.5625 
Q 45.3125 48.734375 45.3125 54.390625 
Q 45.3125 60.0625 41.71875 63.234375 
Q 38.140625 66.40625 31.78125 66.40625 
Q 25.390625 66.40625 21.84375 63.234375 
Q 18.3125 60.0625 18.3125 54.390625 
z
" id="DejaVuSans-56"/>
      </defs>
      <g transform="translate(89.027548 333.442187)scale(0.1 -0.1)">
       <use xlink:href="#DejaVuSans-49"/>
       <use x="63.623047" xlink:href="#DejaVuSans-57"/>
       <use x="127.246094" xlink:href="#DejaVuSans-56"/>
       <use x="190.869141" xlink:href="#DejaVuSans-56"/>
      </g>
     </g>
    </g>
    <g id="xtick_2">
     <g id="line2d_2">
      <g>
       <use style="stroke:#000000;stroke-width:0.8;" x="151.368775" xlink:href="#m91b9228d5c" y="318.84375"/>
      </g>
     </g>
     <g id="text_2">
      <!-- 1992 -->
      <defs>
       <path d="M 19.1875 8.296875 
L 53.609375 8.296875 
L 53.609375 0 
L 7.328125 0 
L 7.328125 8.296875 
Q 12.9375 14.109375 22.625 23.890625 
Q 32.328125 33.6875 34.8125 36.53125 
Q 39.546875 41.84375 41.421875 45.53125 
Q 43.3125 49.21875 43.3125 52.78125 
Q 43.3125 58.59375 39.234375 62.25 
Q 35.15625 65.921875 28.609375 65.921875 
Q 23.96875 65.921875 18.8125 64.3125 
Q 13.671875 62.703125 7.8125 59.421875 
L 7.8125 69.390625 
Q 13.765625 71.78125 18.9375 73 
Q 24.125 74.21875 28.421875 74.21875 
Q 39.75 74.21875 46.484375 68.546875 
Q 53.21875 62.890625 53.21875 53.421875 
Q 53.21875 48.921875 51.53125 44.890625 
Q 49.859375 40.875 45.40625 35.40625 
Q 44.1875 33.984375 37.640625 27.21875 
Q 31.109375 20.453125 19.1875 8.296875 
z
" id="DejaVuSans-50"/>
      </defs>
      <g transform="translate(138.643775 333.442187)scale(0.1 -0.1)">
       <use xlink:href="#DejaVuSans-49"/>
       <use x="63.623047" xlink:href="#DejaVuSans-57"/>
       <use x="127.246094" xlink:href="#DejaVuSans-57"/>
       <use x="190.869141" xlink:href="#DejaVuSans-50"/>
      </g>
     </g>
    </g>
    <g id="xtick_3">
     <g id="line2d_3">
      <g>
       <use style="stroke:#000000;stroke-width:0.8;" x="200.985002" xlink:href="#m91b9228d5c" y="318.84375"/>
      </g>
     </g>
     <g id="text_3">
      <!-- 1996 -->
      <defs>
       <path d="M 33.015625 40.375 
Q 26.375 40.375 22.484375 35.828125 
Q 18.609375 31.296875 18.609375 23.390625 
Q 18.609375 15.53125 22.484375 10.953125 
Q 26.375 6.390625 33.015625 6.390625 
Q 39.65625 6.390625 43.53125 10.953125 
Q 47.40625 15.53125 47.40625 23.390625 
Q 47.40625 31.296875 43.53125 35.828125 
Q 39.65625 40.375 33.015625 40.375 
z
M 52.59375 71.296875 
L 52.59375 62.3125 
Q 48.875 64.0625 45.09375 64.984375 
Q 41.3125 65.921875 37.59375 65.921875 
Q 27.828125 65.921875 22.671875 59.328125 
Q 17.53125 52.734375 16.796875 39.40625 
Q 19.671875 43.65625 24.015625 45.921875 
Q 28.375 48.1875 33.59375 48.1875 
Q 44.578125 48.1875 50.953125 41.515625 
Q 57.328125 34.859375 57.328125 23.390625 
Q 57.328125 12.15625 50.6875 5.359375 
Q 44.046875 -1.421875 33.015625 -1.421875 
Q 20.359375 -1.421875 13.671875 8.265625 
Q 6.984375 17.96875 6.984375 36.375 
Q 6.984375 53.65625 15.1875 63.9375 
Q 23.390625 74.21875 37.203125 74.21875 
Q 40.921875 74.21875 44.703125 73.484375 
Q 48.484375 72.75 52.59375 71.296875 
z
" id="DejaVuSans-54"/>
      </defs>
      <g transform="translate(188.260002 333.442187)scale(0.1 -0.1)">
       <use xlink:href="#DejaVuSans-49"/>
       <use x="63.623047" xlink:href="#DejaVuSans-57"/>
       <use x="127.246094" xlink:href="#DejaVuSans-57"/>
       <use x="190.869141" xlink:href="#DejaVuSans-54"/>
      </g>
     </g>
    </g>
    <g id="xtick_4">
     <g id="line2d_4">
      <g>
       <use style="stroke:#000000;stroke-width:0.8;" x="250.601228" xlink:href="#m91b9228d5c" y="318.84375"/>
      </g>
     </g>
     <g id="text_4">
      <!-- 2000 -->
      <defs>
       <path d="M 31.78125 66.40625 
Q 24.171875 66.40625 20.328125 58.90625 
Q 16.5 51.421875 16.5 36.375 
Q 16.5 21.390625 20.328125 13.890625 
Q 24.171875 6.390625 31.78125 6.390625 
Q 39.453125 6.390625 43.28125 13.890625 
Q 47.125 21.390625 47.125 36.375 
Q 47.125 51.421875 43.28125 58.90625 
Q 39.453125 66.40625 31.78125 66.40625 
z
M 31.78125 74.21875 
Q 44.046875 74.21875 50.515625 64.515625 
Q 56.984375 54.828125 56.984375 36.375 
Q 56.984375 17.96875 50.515625 8.265625 
Q 44.046875 -1.421875 31.78125 -1.421875 
Q 19.53125 -1.421875 13.0625 8.265625 
Q 6.59375 17.96875 6.59375 36.375 
Q 6.59375 54.828125 13.0625 64.515625 
Q 19.53125 74.21875 31.78125 74.21875 
z
" id="DejaVuSans-48"/>
      </defs>
      <g transform="translate(237.876228 333.442187)scale(0.1 -0.1)">
       <use xlink:href="#DejaVuSans-50"/>
       <use x="63.623047" xlink:href="#DejaVuSans-48"/>
       <use x="127.246094" xlink:href="#DejaVuSans-48"/>
       <use x="190.869141" xlink:href="#DejaVuSans-48"/>
      </g>
     </g>
    </g>
    <g id="xtick_5">
     <g id="line2d_5">
      <g>
       <use style="stroke:#000000;stroke-width:0.8;" x="300.217455" xlink:href="#m91b9228d5c" y="318.84375"/>
      </g>
     </g>
     <g id="text_5">
      <!-- 2004 -->
      <defs>
       <path d="M 37.796875 64.3125 
L 12.890625 25.390625 
L 37.796875 25.390625 
z
M 35.203125 72.90625 
L 47.609375 72.90625 
L 47.609375 25.390625 
L 58.015625 25.390625 
L 58.015625 17.1875 
L 47.609375 17.1875 
L 47.609375 0 
L 37.796875 0 
L 37.796875 17.1875 
L 4.890625 17.1875 
L 4.890625 26.703125 
z
" id="DejaVuSans-52"/>
      </defs>
      <g transform="translate(287.492455 333.442187)scale(0.1 -0.1)">
       <use xlink:href="#DejaVuSans-50"/>
       <use x="63.623047" xlink:href="#DejaVuSans-48"/>
       <use x="127.246094" xlink:href="#DejaVuSans-48"/>
       <use x="190.869141" xlink:href="#DejaVuSans-52"/>
      </g>
     </g>
    </g>
    <g id="xtick_6">
     <g id="line2d_6">
      <g>
       <use style="stroke:#000000;stroke-width:0.8;" x="349.833682" xlink:href="#m91b9228d5c" y="318.84375"/>
      </g>
     </g>
     <g id="text_6">
      <!-- 2008 -->
      <g transform="translate(337.108682 333.442187)scale(0.1 -0.1)">
       <use xlink:href="#DejaVuSans-50"/>
       <use x="63.623047" xlink:href="#DejaVuSans-48"/>
       <use x="127.246094" xlink:href="#DejaVuSans-48"/>
       <use x="190.869141" xlink:href="#DejaVuSans-56"/>
      </g>
     </g>
    </g>
    <g id="xtick_7">
     <g id="line2d_7">
      <g>
       <use style="stroke:#000000;stroke-width:0.8;" x="399.449909" xlink:href="#m91b9228d5c" y="318.84375"/>
      </g>
     </g>
     <g id="text_7">
      <!-- 2012 -->
      <g transform="translate(386.724909 333.442187)scale(0.1 -0.1)">
       <use xlink:href="#DejaVuSans-50"/>
       <use x="63.623047" xlink:href="#DejaVuSans-48"/>
       <use x="127.246094" xlink:href="#DejaVuSans-49"/>
       <use x="190.869141" xlink:href="#DejaVuSans-50"/>
      </g>
     </g>
    </g>
    <g id="xtick_8">
     <g id="line2d_8">
      <g>
       <use style="stroke:#000000;stroke-width:0.8;" x="449.066135" xlink:href="#m91b9228d5c" y="318.84375"/>
      </g>
     </g>
     <g id="text_8">
      <!-- 2016 -->
      <g transform="translate(436.341135 333.442187)scale(0.1 -0.1)">
       <use xlink:href="#DejaVuSans-50"/>
       <use x="63.623047" xlink:href="#DejaVuSans-48"/>
       <use x="127.246094" xlink:href="#DejaVuSans-49"/>
       <use x="190.869141" xlink:href="#DejaVuSans-54"/>
      </g>
     </g>
    </g>
    <g id="xtick_9">
     <g id="line2d_9">
      <g>
       <use style="stroke:#000000;stroke-width:0.8;" x="498.682362" xlink:href="#m91b9228d5c" y="318.84375"/>
      </g>
     </g>
     <g id="text_9">
      <!-- 2020 -->
      <g transform="translate(485.957362 333.442187)scale(0.1 -0.1)">
       <use xlink:href="#DejaVuSans-50"/>
       <use x="63.623047" xlink:href="#DejaVuSans-48"/>
       <use x="127.246094" xlink:href="#DejaVuSans-50"/>
       <use x="190.869141" xlink:href="#DejaVuSans-48"/>
      </g>
     </g>
    </g>
    <g id="text_10">
     <!-- Year -->
     <defs>
      <path d="M -0.203125 72.90625 
L 10.40625 72.90625 
L 30.609375 42.921875 
L 50.6875 72.90625 
L 61.28125 72.90625 
L 35.5 34.71875 
L 35.5 0 
L 25.59375 0 
L 25.59375 34.71875 
z
" id="DejaVuSans-89"/>
      <path d="M 56.203125 29.59375 
L 56.203125 25.203125 
L 14.890625 25.203125 
Q 15.484375 15.921875 20.484375 11.0625 
Q 25.484375 6.203125 34.421875 6.203125 
Q 39.59375 6.203125 44.453125 7.46875 
Q 49.3125 8.734375 54.109375 11.28125 
L 54.109375 2.78125 
Q 49.265625 0.734375 44.1875 -0.34375 
Q 39.109375 -1.421875 33.890625 -1.421875 
Q 20.796875 -1.421875 13.15625 6.1875 
Q 5.515625 13.8125 5.515625 26.8125 
Q 5.515625 40.234375 12.765625 48.109375 
Q 20.015625 56 32.328125 56 
Q 43.359375 56 49.78125 48.890625 
Q 56.203125 41.796875 56.203125 29.59375 
z
M 47.21875 32.234375 
Q 47.125 39.59375 43.09375 43.984375 
Q 39.0625 48.390625 32.421875 48.390625 
Q 24.90625 48.390625 20.390625 44.140625 
Q 15.875 39.890625 15.1875 32.171875 
z
" id="DejaVuSans-101"/>
      <path d="M 34.28125 27.484375 
Q 23.390625 27.484375 19.1875 25 
Q 14.984375 22.515625 14.984375 16.5 
Q 14.984375 11.71875 18.140625 8.90625 
Q 21.296875 6.109375 26.703125 6.109375 
Q 34.1875 6.109375 38.703125 11.40625 
Q 43.21875 16.703125 43.21875 25.484375 
L 43.21875 27.484375 
z
M 52.203125 31.203125 
L 52.203125 0 
L 43.21875 0 
L 43.21875 8.296875 
Q 40.140625 3.328125 35.546875 0.953125 
Q 30.953125 -1.421875 24.3125 -1.421875 
Q 15.921875 -1.421875 10.953125 3.296875 
Q 6 8.015625 6 15.921875 
Q 6 25.140625 12.171875 29.828125 
Q 18.359375 34.515625 30.609375 34.515625 
L 43.21875 34.515625 
L 43.21875 35.40625 
Q 43.21875 41.609375 39.140625 45 
Q 35.0625 48.390625 27.6875 48.390625 
Q 23 48.390625 18.546875 47.265625 
Q 14.109375 46.140625 10.015625 43.890625 
L 10.015625 52.203125 
Q 14.9375 54.109375 19.578125 55.046875 
Q 24.21875 56 28.609375 56 
Q 40.484375 56 46.34375 49.84375 
Q 52.203125 43.703125 52.203125 31.203125 
z
" id="DejaVuSans-97"/>
      <path d="M 41.109375 46.296875 
Q 39.59375 47.171875 37.8125 47.578125 
Q 36.03125 48 33.890625 48 
Q 26.265625 48 22.1875 43.046875 
Q 18.109375 38.09375 18.109375 28.8125 
L 18.109375 0 
L 9.078125 0 
L 9.078125 54.6875 
L 18.109375 54.6875 
L 18.109375 46.1875 
Q 20.953125 51.171875 25.484375 53.578125 
Q 30.03125 56 36.53125 56 
Q 37.453125 56 38.578125 55.875 
Q 39.703125 55.765625 41.0625 55.515625 
z
" id="DejaVuSans-114"/>
     </defs>
     <g transform="translate(287.015 347.120312)scale(0.1 -0.1)">
      <use xlink:href="#DejaVuSans-89"/>
      <use x="47.833984" xlink:href="#DejaVuSans-101"/>
      <use x="109.357422" xlink:href="#DejaVuSans-97"/>
      <use x="170.636719" xlink:href="#DejaVuSans-114"/>
     </g>
    </g>
   </g>
   <g id="matplotlib.axis_2">
    <g id="ytick_1">
     <g id="line2d_10">
      <defs>
       <path d="M 0 0 
L -3.5 0 
" id="mf02d679494" style="stroke:#000000;stroke-width:0.8;"/>
      </defs>
      <g>
       <use style="stroke:#000000;stroke-width:0.8;" x="69.653125" xlink:href="#mf02d679494" y="285.430256"/>
      </g>
     </g>
     <g id="text_11">
      <!-- 20000 -->
      <g transform="translate(30.840625 289.229475)scale(0.1 -0.1)">
       <use xlink:href="#DejaVuSans-50"/>
       <use x="63.623047" xlink:href="#DejaVuSans-48"/>
       <use x="127.246094" xlink:href="#DejaVuSans-48"/>
       <use x="190.869141" xlink:href="#DejaVuSans-48"/>
       <use x="254.492188" xlink:href="#DejaVuSans-48"/>
      </g>
     </g>
    </g>
    <g id="ytick_2">
     <g id="line2d_11">
      <g>
       <use style="stroke:#000000;stroke-width:0.8;" x="69.653125" xlink:href="#mf02d679494" y="245.203326"/>
      </g>
     </g>
     <g id="text_12">
      <!-- 40000 -->
      <g transform="translate(30.840625 249.002545)scale(0.1 -0.1)">
       <use xlink:href="#DejaVuSans-52"/>
       <use x="63.623047" xlink:href="#DejaVuSans-48"/>
       <use x="127.246094" xlink:href="#DejaVuSans-48"/>
       <use x="190.869141" xlink:href="#DejaVuSans-48"/>
       <use x="254.492188" xlink:href="#DejaVuSans-48"/>
      </g>
     </g>
    </g>
    <g id="ytick_3">
     <g id="line2d_12">
      <g>
       <use style="stroke:#000000;stroke-width:0.8;" x="69.653125" xlink:href="#mf02d679494" y="204.976396"/>
      </g>
     </g>
     <g id="text_13">
      <!-- 60000 -->
      <g transform="translate(30.840625 208.775615)scale(0.1 -0.1)">
       <use xlink:href="#DejaVuSans-54"/>
       <use x="63.623047" xlink:href="#DejaVuSans-48"/>
       <use x="127.246094" xlink:href="#DejaVuSans-48"/>
       <use x="190.869141" xlink:href="#DejaVuSans-48"/>
       <use x="254.492188" xlink:href="#DejaVuSans-48"/>
      </g>
     </g>
    </g>
    <g id="ytick_4">
     <g id="line2d_13">
      <g>
       <use style="stroke:#000000;stroke-width:0.8;" x="69.653125" xlink:href="#mf02d679494" y="164.749467"/>
      </g>
     </g>
     <g id="text_14">
      <!-- 80000 -->
      <g transform="translate(30.840625 168.548685)scale(0.1 -0.1)">
       <use xlink:href="#DejaVuSans-56"/>
       <use x="63.623047" xlink:href="#DejaVuSans-48"/>
       <use x="127.246094" xlink:href="#DejaVuSans-48"/>
       <use x="190.869141" xlink:href="#DejaVuSans-48"/>
       <use x="254.492188" xlink:href="#DejaVuSans-48"/>
      </g>
     </g>
    </g>
    <g id="ytick_5">
     <g id="line2d_14">
      <g>
       <use style="stroke:#000000;stroke-width:0.8;" x="69.653125" xlink:href="#mf02d679494" y="124.522537"/>
      </g>
     </g>
     <g id="text_15">
      <!-- 100000 -->
      <g transform="translate(24.478125 128.321755)scale(0.1 -0.1)">
       <use xlink:href="#DejaVuSans-49"/>
       <use x="63.623047" xlink:href="#DejaVuSans-48"/>
       <use x="127.246094" xlink:href="#DejaVuSans-48"/>
       <use x="190.869141" xlink:href="#DejaVuSans-48"/>
       <use x="254.492188" xlink:href="#DejaVuSans-48"/>
       <use x="318.115234" xlink:href="#DejaVuSans-48"/>
      </g>
     </g>
    </g>
    <g id="ytick_6">
     <g id="line2d_15">
      <g>
       <use style="stroke:#000000;stroke-width:0.8;" x="69.653125" xlink:href="#mf02d679494" y="84.295607"/>
      </g>
     </g>
     <g id="text_16">
      <!-- 120000 -->
      <g transform="translate(24.478125 88.094825)scale(0.1 -0.1)">
       <use xlink:href="#DejaVuSans-49"/>
       <use x="63.623047" xlink:href="#DejaVuSans-50"/>
       <use x="127.246094" xlink:href="#DejaVuSans-48"/>
       <use x="190.869141" xlink:href="#DejaVuSans-48"/>
       <use x="254.492188" xlink:href="#DejaVuSans-48"/>
       <use x="318.115234" xlink:href="#DejaVuSans-48"/>
      </g>
     </g>
    </g>
    <g id="ytick_7">
     <g id="line2d_16">
      <g>
       <use style="stroke:#000000;stroke-width:0.8;" x="69.653125" xlink:href="#mf02d679494" y="44.068677"/>
      </g>
     </g>
     <g id="text_17">
      <!-- 140000 -->
      <g transform="translate(24.478125 47.867895)scale(0.1 -0.1)">
       <use xlink:href="#DejaVuSans-49"/>
       <use x="63.623047" xlink:href="#DejaVuSans-52"/>
       <use x="127.246094" xlink:href="#DejaVuSans-48"/>
       <use x="190.869141" xlink:href="#DejaVuSans-48"/>
       <use x="254.492188" xlink:href="#DejaVuSans-48"/>
       <use x="318.115234" xlink:href="#DejaVuSans-48"/>
      </g>
     </g>
    </g>
    <g id="text_18">
     <!-- Return -->
     <defs>
      <path d="M 44.390625 34.1875 
Q 47.5625 33.109375 50.5625 29.59375 
Q 53.5625 26.078125 56.59375 19.921875 
L 66.609375 0 
L 56 0 
L 46.6875 18.703125 
Q 43.0625 26.03125 39.671875 28.421875 
Q 36.28125 30.8125 30.421875 30.8125 
L 19.671875 30.8125 
L 19.671875 0 
L 9.8125 0 
L 9.8125 72.90625 
L 32.078125 72.90625 
Q 44.578125 72.90625 50.734375 67.671875 
Q 56.890625 62.453125 56.890625 51.90625 
Q 56.890625 45.015625 53.6875 40.46875 
Q 50.484375 35.9375 44.390625 34.1875 
z
M 19.671875 64.796875 
L 19.671875 38.921875 
L 32.078125 38.921875 
Q 39.203125 38.921875 42.84375 42.21875 
Q 46.484375 45.515625 46.484375 51.90625 
Q 46.484375 58.296875 42.84375 61.546875 
Q 39.203125 64.796875 32.078125 64.796875 
z
" id="DejaVuSans-82"/>
      <path d="M 18.3125 70.21875 
L 18.3125 54.6875 
L 36.8125 54.6875 
L 36.8125 47.703125 
L 18.3125 47.703125 
L 18.3125 18.015625 
Q 18.3125 11.328125 20.140625 9.421875 
Q 21.96875 7.515625 27.59375 7.515625 
L 36.8125 7.515625 
L 36.8125 0 
L 27.59375 0 
Q 17.1875 0 13.234375 3.875 
Q 9.28125 7.765625 9.28125 18.015625 
L 9.28125 47.703125 
L 2.6875 47.703125 
L 2.6875 54.6875 
L 9.28125 54.6875 
L 9.28125 70.21875 
z
" id="DejaVuSans-116"/>
      <path d="M 8.5 21.578125 
L 8.5 54.6875 
L 17.484375 54.6875 
L 17.484375 21.921875 
Q 17.484375 14.15625 20.5 10.265625 
Q 23.53125 6.390625 29.59375 6.390625 
Q 36.859375 6.390625 41.078125 11.03125 
Q 45.3125 15.671875 45.3125 23.6875 
L 45.3125 54.6875 
L 54.296875 54.6875 
L 54.296875 0 
L 45.3125 0 
L 45.3125 8.40625 
Q 42.046875 3.421875 37.71875 1 
Q 33.40625 -1.421875 27.6875 -1.421875 
Q 18.265625 -1.421875 13.375 4.4375 
Q 8.5 10.296875 8.5 21.578125 
z
M 31.109375 56 
z
" id="DejaVuSans-117"/>
      <path d="M 54.890625 33.015625 
L 54.890625 0 
L 45.90625 0 
L 45.90625 32.71875 
Q 45.90625 40.484375 42.875 44.328125 
Q 39.84375 48.1875 33.796875 48.1875 
Q 26.515625 48.1875 22.3125 43.546875 
Q 18.109375 38.921875 18.109375 30.90625 
L 18.109375 0 
L 9.078125 0 
L 9.078125 54.6875 
L 18.109375 54.6875 
L 18.109375 46.1875 
Q 21.34375 51.125 25.703125 53.5625 
Q 30.078125 56 35.796875 56 
Q 45.21875 56 50.046875 50.171875 
Q 54.890625 44.34375 54.890625 33.015625 
z
" id="DejaVuSans-110"/>
     </defs>
     <g transform="translate(18.398437 181.413281)rotate(-90)scale(0.1 -0.1)">
      <use xlink:href="#DejaVuSans-82"/>
      <use x="64.982422" xlink:href="#DejaVuSans-101"/>
      <use x="126.505859" xlink:href="#DejaVuSans-116"/>
      <use x="165.714844" xlink:href="#DejaVuSans-117"/>
      <use x="229.09375" xlink:href="#DejaVuSans-114"/>
      <use x="268.457031" xlink:href="#DejaVuSans-110"/>
     </g>
    </g>
   </g>
   <g id="line2d_17">
    <path clip-path="url(#ped1c36b301)" d="M 90.375795 304.548105 
L 91.326688 304.178017 
L 92.379462 304.089518 
L 93.398276 304.799523 
L 94.45105 304.841761 
L 95.469864 304.42139 
L 96.522638 304.123711 
L 97.575412 304.00303 
L 98.594226 304.692922 
L 99.647 304.783432 
L 100.665814 304.678842 
L 101.718588 304.214221 
L 102.771362 303.264866 
L 103.756215 302.963164 
L 104.808989 303.335263 
L 105.827803 303.355376 
L 106.880577 303.496171 
L 107.899391 302.760018 
L 110.004939 303.009425 
L 111.023753 302.301431 
L 112.076527 301.756356 
L 113.095341 302.146557 
L 114.148115 302.027888 
L 115.200889 301.167031 
L 116.151782 301.512983 
L 117.204556 301.319894 
L 120.294957 299.167753 
L 121.347732 298.228454 
L 122.400506 298.367237 
L 123.419319 298.300863 
L 126.543681 297.401791 
L 127.596456 298.379305 
L 129.600123 298.015251 
L 130.618936 298.50602 
L 131.67171 297.047794 
L 133.743298 296.47456 
L 134.796072 297.584823 
L 135.814886 297.588846 
L 136.86766 297.315303 
L 137.886474 296.43031 
L 140.942915 294.640212 
L 143.014503 294.105194 
L 144.067277 293.640573 
L 145.086091 294.048876 
L 147.191639 292.437788 
L 149.263227 291.67951 
L 150.28204 291.981212 
L 151.334815 290.116694 
L 152.387589 290.87296 
L 153.372442 290.516952 
L 154.425216 290.907153 
L 156.496804 289.768731 
L 157.515618 289.635982 
L 158.568392 288.48348 
L 159.621166 288.477446 
L 160.63998 288.055064 
L 161.692754 288.316539 
L 164.817116 286.564656 
L 165.768009 285.925048 
L 166.820783 285.571051 
L 167.839596 285.73397 
L 168.89237 285.305553 
L 169.911184 284.762489 
L 170.963958 284.605604 
L 172.016732 283.567749 
L 173.035546 283.70251 
L 174.08832 283.310297 
L 175.107134 283.795032 
L 176.159908 283.420921 
L 177.212682 282.411225 
L 178.163575 283.368626 
L 179.216349 284.71824 
L 180.235163 284.796682 
L 181.287937 284.601582 
L 182.306751 284.921386 
L 183.359525 283.923758 
L 184.412299 283.358569 
L 185.431113 284.203335 
L 186.483887 284.022314 
L 187.502701 284.376311 
L 188.555475 283.82319 
L 189.608249 282.845676 
L 190.559142 281.528244 
L 191.611916 280.900704 
L 192.630729 279.971462 
L 193.683504 277.551812 
L 194.702317 276.964499 
L 195.755091 276.658774 
L 196.807866 276.145881 
L 197.826679 274.818392 
L 198.879453 274.305499 
L 199.898267 272.905602 
L 200.951041 271.859702 
L 202.003815 271.133605 
L 202.988669 271.78327 
L 205.060256 272.109108 
L 206.113031 271.940155 
L 207.131844 271.252275 
L 208.184618 272.08095 
L 209.237393 271.96228 
L 211.30898 268.935204 
L 212.327794 266.811222 
L 213.380568 267.814884 
L 214.433342 266.831335 
L 215.384235 266.624167 
L 216.437009 267.822929 
L 217.455823 266.252067 
L 218.508597 265.129736 
L 219.527411 263.868622 
L 220.580185 261.551551 
L 221.632959 262.712098 
L 222.651773 261.237781 
L 223.704547 260.932056 
L 224.723361 260.322618 
L 226.828909 258.717564 
L 228.832576 256.376356 
L 229.85139 255.919781 
L 230.904164 255.654283 
L 231.922977 254.222204 
L 232.975752 254.318749 
L 234.028526 255.955985 
L 235.047339 254.481668 
L 236.100114 253.956706 
L 237.118927 252.882647 
L 238.171701 251.309774 
L 239.224476 250.165318 
L 240.175368 251.48275 
L 242.246956 249.871662 
L 243.29973 250.816994 
L 244.318544 250.60178 
L 245.371318 251.428444 
L 246.424092 251.641647 
L 247.442906 250.947732 
L 248.49568 249.787185 
L 249.514494 249.571971 
L 250.567268 248.678933 
L 251.620042 250.032569 
L 252.604895 249.234065 
L 253.65767 246.695745 
L 254.676483 247.168412 
L 255.729257 247.168412 
L 256.748071 245.690072 
L 257.800845 245.549278 
L 258.853619 243.417251 
L 259.872433 244.813125 
L 260.925207 244.422924 
L 261.944021 244.227823 
L 262.996795 243.14773 
L 264.049569 241.669391 
L 266.053236 243.608329 
L 267.07205 242.842006 
L 268.124824 242.284863 
L 269.143638 242.475941 
L 270.196412 241.319416 
L 271.249186 241.798117 
L 272.268 243.065265 
L 273.320774 241.621118 
L 274.339587 241.460211 
L 275.392362 241.725708 
L 277.396028 240.999612 
L 278.448803 241.452165 
L 280.52039 240.933238 
L 281.539204 241.486358 
L 282.591978 241.765935 
L 283.644752 240.83267 
L 284.663566 240.98151 
L 285.71634 239.971814 
L 286.735154 239.348297 
L 287.787928 239.374444 
L 288.840702 239.895383 
L 289.791595 239.346285 
L 290.844369 239.283934 
L 291.863183 237.682902 
L 292.915957 235.611215 
L 293.934771 235.446285 
L 294.987545 237.970524 
L 296.040319 236.890431 
L 297.059133 235.339683 
L 298.111907 234.400384 
L 299.130721 233.91565 
L 300.183495 231.506057 
L 302.221122 229.142725 
L 303.273896 229.168872 
L 304.29271 231.504045 
L 305.345484 231.359228 
L 306.364298 230.248965 
L 307.417072 230.474236 
L 308.469846 229.00193 
L 309.48866 228.398526 
L 310.541434 227.133389 
L 311.560248 226.290635 
L 312.613022 224.486457 
L 313.665796 224.408015 
L 314.616689 224.090222 
L 315.669463 224.934988 
L 316.688276 224.339629 
L 317.741051 222.519361 
L 319.812638 221.232099 
L 320.865413 220.489912 
L 321.884226 221.09935 
L 322.937 222.674234 
L 323.955814 221.407086 
L 326.061362 219.234832 
L 327.012255 218.826528 
L 328.065029 219.498318 
L 329.083843 219.623022 
L 330.136617 220.851954 
L 331.155431 220.721217 
L 332.208205 219.419876 
L 335.332567 213.321473 
L 336.351381 211.440864 
L 337.404155 211.477068 
L 338.456929 210.885732 
L 339.407822 210.499554 
L 340.460596 210.294397 
L 341.47941 208.341379 
L 342.532184 207.16273 
L 343.550997 208.530446 
L 344.603772 208.319254 
L 346.675359 205.107134 
L 347.728134 203.606669 
L 348.746947 202.836324 
L 349.799721 203.019356 
L 350.852496 203.56242 
L 351.837349 203.705225 
L 352.890123 203.475932 
L 353.908937 202.936891 
L 354.961711 203.409558 
L 355.980524 205.841275 
L 357.033299 206.002183 
L 358.086073 204.560048 
L 359.104886 206.271704 
L 360.157661 209.837821 
L 361.176474 205.790992 
L 362.229248 203.401512 
L 363.282023 205.002544 
L 364.232915 206.040399 
L 365.285689 202.753859 
L 366.304503 201.726061 
L 367.357277 200.847102 
L 368.376091 200.764637 
L 369.428865 197.783821 
L 370.481639 196.080211 
L 371.500453 193.580107 
L 372.553227 194.121159 
L 373.572041 190.909039 
L 374.624815 192.705171 
L 375.677589 193.608266 
L 376.628482 192.310948 
L 377.681256 190.369998 
L 378.70007 188.145449 
L 379.752844 189.989854 
L 380.771658 189.16319 
L 381.824432 186.393566 
L 382.877206 185.999342 
L 383.89602 182.692689 
L 384.948794 181.23044 
L 385.967607 181.777526 
L 387.020382 180.822136 
L 388.073156 180.343436 
L 389.024048 177.54163 
L 390.076823 177.420949 
L 391.095636 174.381805 
L 392.14841 173.088509 
L 393.167224 175.095833 
L 394.219998 173.957411 
L 395.272772 172.300061 
L 396.291586 171.994337 
L 397.34436 168.858647 
L 398.363174 168.078245 
L 399.415948 166.551633 
L 401.453575 161.287939 
L 402.50635 160.539718 
L 403.525163 158.743586 
L 404.577937 158.918573 
L 406.649525 154.378964 
L 407.702299 153.127906 
L 408.721113 152.100108 
L 409.773887 153.94049 
L 410.792701 152.697478 
L 411.845475 152.856375 
L 412.898249 150.320067 
L 413.849142 148.367049 
L 414.901916 145.368132 
L 415.92073 140.51073 
L 417.992318 146.572928 
L 419.045092 145.695981 
L 420.097866 148.220221 
L 421.11668 144.712433 
L 422.169454 140.46648 
L 424.241042 140.281436 
L 425.293816 138.219806 
L 426.244709 134.535019 
L 427.297483 133.949718 
L 428.316296 131.795566 
L 429.369071 128.0082 
L 430.387884 125.771583 
L 431.440658 126.94822 
L 432.493433 120.731148 
L 433.512246 123.830633 
L 434.56502 119.701339 
L 435.583834 116.561627 
L 436.636608 114.536201 
L 437.689382 111.802781 
L 438.640275 110.392827 
L 441.764637 111.100821 
L 442.783451 114.409486 
L 443.836225 110.018717 
L 444.888999 115.553943 
L 445.907813 114.944505 
L 446.960587 110.917789 
L 447.979401 111.09881 
L 449.032175 112.376015 
L 451.069802 110.169568 
L 452.122576 105.515312 
L 453.14139 105.450949 
L 454.194164 103.089628 
L 455.212978 97.954661 
L 456.265752 94.247749 
L 457.318526 94.718404 
L 458.33734 95.329854 
L 460.408928 100.41856 
L 461.461702 99.079003 
L 462.514476 97.258735 
L 463.465369 91.391637 
L 464.518143 91.801952 
L 465.536957 89.277712 
L 466.589731 85.667345 
L 467.608544 84.176937 
L 468.661319 82.25409 
L 469.714093 79.100299 
L 470.732906 78.514997 
L 471.785681 75.097719 
L 472.804494 69.864196 
L 473.857268 66.720461 
L 474.910043 62.892869 
L 475.860935 68.834386 
L 476.913709 67.885031 
L 477.932523 69.166258 
L 478.985297 65.83748 
L 480.004111 64.785546 
L 481.056885 60.668319 
L 482.109659 56.018086 
L 483.128473 58.045524 
L 484.181247 71.342535 
L 485.200061 68.301379 
L 486.252835 68.66141 
L 487.305609 63.842224 
L 488.256502 62.313601 
L 489.309276 55.169298 
L 490.32809 51.820406 
L 491.380864 54.940005 
L 492.399678 46.932834 
L 493.452452 44.96976 
L 494.505226 37.65047 
L 495.52404 37.533812 
L 496.576814 35.697453 
L 497.595627 32.537627 
L 498.648401 31.175946 
L 499.701176 24.801989 
L 500.686029 29.277235 
L 501.738803 31.226229 
L 502.757617 27.73252 
L 503.810391 26.340669 
L 504.829205 25.312871 
L 504.829205 25.312871 
" style="fill:none;stroke:#000000;stroke-linecap:square;stroke-width:1.5;"/>
   </g>
   <g id="patch_3">
    <path d="M 69.653125 318.84375 
L 69.653125 10.8 
" style="fill:none;stroke:#000000;stroke-linecap:square;stroke-linejoin:miter;stroke-width:0.8;"/>
   </g>
   <g id="patch_4">
    <path d="M 525.551875 318.84375 
L 525.551875 10.8 
" style="fill:none;stroke:#000000;stroke-linecap:square;stroke-linejoin:miter;stroke-width:0.8;"/>
   </g>
   <g id="patch_5">
    <path d="M 69.653125 318.84375 
L 525.551875 318.84375 
" style="fill:none;stroke:#000000;stroke-linecap:square;stroke-linejoin:miter;stroke-width:0.8;"/>
   </g>
   <g id="patch_6">
    <path d="M 69.653125 10.8 
L 525.551875 10.8 
" style="fill:none;stroke:#000000;stroke-linecap:square;stroke-linejoin:miter;stroke-width:0.8;"/>
   </g>
  </g>
  <g id="axes_2">
   <g id="matplotlib.axis_3">
    <g id="ytick_8">
     <g id="line2d_18">
      <defs>
       <path d="M 0 0 
L 3.5 0 
" id="mdfbf27a3a6" style="stroke:#000000;stroke-width:0.8;"/>
      </defs>
      <g>
       <use style="stroke:#000000;stroke-width:0.8;" x="525.551875" xlink:href="#mdfbf27a3a6" y="304.548105"/>
      </g>
     </g>
     <g id="text_19">
      <!-- 0 -->
      <g transform="translate(532.551875 308.347324)scale(0.1 -0.1)">
       <use xlink:href="#DejaVuSans-48"/>
      </g>
     </g>
    </g>
    <g id="ytick_9">
     <g id="line2d_19">
      <g>
       <use style="stroke:#000000;stroke-width:0.8;" x="525.551875" xlink:href="#mdfbf27a3a6" y="262.329942"/>
      </g>
     </g>
     <g id="text_20">
      <!-- 200 -->
      <g transform="translate(532.551875 266.129161)scale(0.1 -0.1)">
       <use xlink:href="#DejaVuSans-50"/>
       <use x="63.623047" xlink:href="#DejaVuSans-48"/>
       <use x="127.246094" xlink:href="#DejaVuSans-48"/>
      </g>
     </g>
    </g>
    <g id="ytick_10">
     <g id="line2d_20">
      <g>
       <use style="stroke:#000000;stroke-width:0.8;" x="525.551875" xlink:href="#mdfbf27a3a6" y="220.111779"/>
      </g>
     </g>
     <g id="text_21">
      <!-- 400 -->
      <g transform="translate(532.551875 223.910998)scale(0.1 -0.1)">
       <use xlink:href="#DejaVuSans-52"/>
       <use x="63.623047" xlink:href="#DejaVuSans-48"/>
       <use x="127.246094" xlink:href="#DejaVuSans-48"/>
      </g>
     </g>
    </g>
    <g id="ytick_11">
     <g id="line2d_21">
      <g>
       <use style="stroke:#000000;stroke-width:0.8;" x="525.551875" xlink:href="#mdfbf27a3a6" y="177.893616"/>
      </g>
     </g>
     <g id="text_22">
      <!-- 600 -->
      <g transform="translate(532.551875 181.692835)scale(0.1 -0.1)">
       <use xlink:href="#DejaVuSans-54"/>
       <use x="63.623047" xlink:href="#DejaVuSans-48"/>
       <use x="127.246094" xlink:href="#DejaVuSans-48"/>
      </g>
     </g>
    </g>
    <g id="ytick_12">
     <g id="line2d_22">
      <g>
       <use style="stroke:#000000;stroke-width:0.8;" x="525.551875" xlink:href="#mdfbf27a3a6" y="135.675453"/>
      </g>
     </g>
     <g id="text_23">
      <!-- 800 -->
      <g transform="translate(532.551875 139.474672)scale(0.1 -0.1)">
       <use xlink:href="#DejaVuSans-56"/>
       <use x="63.623047" xlink:href="#DejaVuSans-48"/>
       <use x="127.246094" xlink:href="#DejaVuSans-48"/>
      </g>
     </g>
    </g>
    <g id="ytick_13">
     <g id="line2d_23">
      <g>
       <use style="stroke:#000000;stroke-width:0.8;" x="525.551875" xlink:href="#mdfbf27a3a6" y="93.45729"/>
      </g>
     </g>
     <g id="text_24">
      <!-- 1000 -->
      <g transform="translate(532.551875 97.256509)scale(0.1 -0.1)">
       <use xlink:href="#DejaVuSans-49"/>
       <use x="63.623047" xlink:href="#DejaVuSans-48"/>
       <use x="127.246094" xlink:href="#DejaVuSans-48"/>
       <use x="190.869141" xlink:href="#DejaVuSans-48"/>
      </g>
     </g>
    </g>
    <g id="ytick_14">
     <g id="line2d_24">
      <g>
       <use style="stroke:#000000;stroke-width:0.8;" x="525.551875" xlink:href="#mdfbf27a3a6" y="51.239127"/>
      </g>
     </g>
     <g id="text_25">
      <!-- 1200 -->
      <g transform="translate(532.551875 55.038346)scale(0.1 -0.1)">
       <use xlink:href="#DejaVuSans-49"/>
       <use x="63.623047" xlink:href="#DejaVuSans-50"/>
       <use x="127.246094" xlink:href="#DejaVuSans-48"/>
       <use x="190.869141" xlink:href="#DejaVuSans-48"/>
      </g>
     </g>
    </g>
    <g id="text_26">
     <!-- Return (%) -->
     <defs>
      <path id="DejaVuSans-32"/>
      <path d="M 31 75.875 
Q 24.46875 64.65625 21.28125 53.65625 
Q 18.109375 42.671875 18.109375 31.390625 
Q 18.109375 20.125 21.3125 9.0625 
Q 24.515625 -2 31 -13.1875 
L 23.1875 -13.1875 
Q 15.875 -1.703125 12.234375 9.375 
Q 8.59375 20.453125 8.59375 31.390625 
Q 8.59375 42.28125 12.203125 53.3125 
Q 15.828125 64.359375 23.1875 75.875 
z
" id="DejaVuSans-40"/>
      <path d="M 72.703125 32.078125 
Q 68.453125 32.078125 66.03125 28.46875 
Q 63.625 24.859375 63.625 18.40625 
Q 63.625 12.0625 66.03125 8.421875 
Q 68.453125 4.78125 72.703125 4.78125 
Q 76.859375 4.78125 79.265625 8.421875 
Q 81.6875 12.0625 81.6875 18.40625 
Q 81.6875 24.8125 79.265625 28.4375 
Q 76.859375 32.078125 72.703125 32.078125 
z
M 72.703125 38.28125 
Q 80.421875 38.28125 84.953125 32.90625 
Q 89.5 27.546875 89.5 18.40625 
Q 89.5 9.28125 84.9375 3.921875 
Q 80.375 -1.421875 72.703125 -1.421875 
Q 64.890625 -1.421875 60.34375 3.921875 
Q 55.8125 9.28125 55.8125 18.40625 
Q 55.8125 27.59375 60.375 32.9375 
Q 64.9375 38.28125 72.703125 38.28125 
z
M 22.3125 68.015625 
Q 18.109375 68.015625 15.6875 64.375 
Q 13.28125 60.75 13.28125 54.390625 
Q 13.28125 47.953125 15.671875 44.328125 
Q 18.0625 40.71875 22.3125 40.71875 
Q 26.5625 40.71875 28.96875 44.328125 
Q 31.390625 47.953125 31.390625 54.390625 
Q 31.390625 60.6875 28.953125 64.34375 
Q 26.515625 68.015625 22.3125 68.015625 
z
M 66.40625 74.21875 
L 74.21875 74.21875 
L 28.609375 -1.421875 
L 20.796875 -1.421875 
z
M 22.3125 74.21875 
Q 30.03125 74.21875 34.609375 68.875 
Q 39.203125 63.53125 39.203125 54.390625 
Q 39.203125 45.171875 34.640625 39.84375 
Q 30.078125 34.515625 22.3125 34.515625 
Q 14.546875 34.515625 10.03125 39.859375 
Q 5.515625 45.21875 5.515625 54.390625 
Q 5.515625 63.484375 10.046875 68.84375 
Q 14.59375 74.21875 22.3125 74.21875 
z
" id="DejaVuSans-37"/>
      <path d="M 8.015625 75.875 
L 15.828125 75.875 
Q 23.140625 64.359375 26.78125 53.3125 
Q 30.421875 42.28125 30.421875 31.390625 
Q 30.421875 20.453125 26.78125 9.375 
Q 23.140625 -1.703125 15.828125 -13.1875 
L 8.015625 -13.1875 
Q 14.5 -2 17.703125 9.0625 
Q 20.90625 20.125 20.90625 31.390625 
Q 20.90625 42.671875 17.703125 53.65625 
Q 14.5 64.65625 8.015625 75.875 
z
" id="DejaVuSans-41"/>
     </defs>
     <g transform="translate(569.600312 191.654688)rotate(-90)scale(0.1 -0.1)">
      <use xlink:href="#DejaVuSans-82"/>
      <use x="64.982422" xlink:href="#DejaVuSans-101"/>
      <use x="126.505859" xlink:href="#DejaVuSans-116"/>
      <use x="165.714844" xlink:href="#DejaVuSans-117"/>
      <use x="229.09375" xlink:href="#DejaVuSans-114"/>
      <use x="268.457031" xlink:href="#DejaVuSans-110"/>
      <use x="331.835938" xlink:href="#DejaVuSans-32"/>
      <use x="363.623047" xlink:href="#DejaVuSans-40"/>
      <use x="402.636719" xlink:href="#DejaVuSans-37"/>
      <use x="497.65625" xlink:href="#DejaVuSans-41"/>
     </g>
    </g>
   </g>
   <g id="line2d_25">
    <path clip-path="url(#ped1c36b301)" d="M 90.375795 304.548105 
L 91.326688 304.178017 
L 92.379462 304.089518 
L 93.398276 304.799523 
L 94.45105 304.841761 
L 95.469864 304.42139 
L 96.522638 304.123711 
L 97.575412 304.00303 
L 98.594226 304.692922 
L 99.647 304.783432 
L 100.665814 304.678842 
L 101.718588 304.214221 
L 102.771362 303.264866 
L 103.756215 302.963164 
L 104.808989 303.335263 
L 105.827803 303.355376 
L 106.880577 303.496171 
L 107.899391 302.760018 
L 110.004939 303.009425 
L 111.023753 302.301431 
L 112.076527 301.756356 
L 113.095341 302.146557 
L 114.148115 302.027888 
L 115.200889 301.167031 
L 116.151782 301.512983 
L 117.204556 301.319894 
L 120.294957 299.167753 
L 121.347732 298.228454 
L 122.400506 298.367237 
L 123.419319 298.300863 
L 126.543681 297.401791 
L 127.596456 298.379305 
L 129.600123 298.015251 
L 130.618936 298.50602 
L 131.67171 297.047794 
L 133.743298 296.47456 
L 134.796072 297.584823 
L 135.814886 297.588846 
L 136.86766 297.315303 
L 137.886474 296.43031 
L 140.942915 294.640212 
L 143.014503 294.105194 
L 144.067277 293.640573 
L 145.086091 294.048876 
L 147.191639 292.437788 
L 149.263227 291.67951 
L 150.28204 291.981212 
L 151.334815 290.116694 
L 152.387589 290.87296 
L 153.372442 290.516952 
L 154.425216 290.907153 
L 156.496804 289.768731 
L 157.515618 289.635982 
L 158.568392 288.48348 
L 159.621166 288.477446 
L 160.63998 288.055064 
L 161.692754 288.316539 
L 164.817116 286.564656 
L 165.768009 285.925048 
L 166.820783 285.571051 
L 167.839596 285.73397 
L 168.89237 285.305553 
L 169.911184 284.762489 
L 170.963958 284.605604 
L 172.016732 283.567749 
L 173.035546 283.70251 
L 174.08832 283.310297 
L 175.107134 283.795032 
L 176.159908 283.420921 
L 177.212682 282.411225 
L 178.163575 283.368626 
L 179.216349 284.71824 
L 180.235163 284.796682 
L 181.287937 284.601582 
L 182.306751 284.921386 
L 183.359525 283.923758 
L 184.412299 283.358569 
L 185.431113 284.203335 
L 186.483887 284.022314 
L 187.502701 284.376311 
L 188.555475 283.82319 
L 189.608249 282.845676 
L 190.559142 281.528244 
L 191.611916 280.900704 
L 192.630729 279.971462 
L 193.683504 277.551812 
L 194.702317 276.964499 
L 195.755091 276.658774 
L 196.807866 276.145881 
L 197.826679 274.818392 
L 198.879453 274.305499 
L 199.898267 272.905602 
L 200.951041 271.859702 
L 202.003815 271.133605 
L 202.988669 271.78327 
L 205.060256 272.109108 
L 206.113031 271.940155 
L 207.131844 271.252275 
L 208.184618 272.08095 
L 209.237393 271.96228 
L 211.30898 268.935204 
L 212.327794 266.811222 
L 213.380568 267.814884 
L 214.433342 266.831335 
L 215.384235 266.624167 
L 216.437009 267.822929 
L 217.455823 266.252067 
L 218.508597 265.129736 
L 219.527411 263.868622 
L 220.580185 261.551551 
L 221.632959 262.712098 
L 222.651773 261.237781 
L 223.704547 260.932056 
L 224.723361 260.322618 
L 226.828909 258.717564 
L 228.832576 256.376356 
L 229.85139 255.919781 
L 230.904164 255.654283 
L 231.922977 254.222204 
L 232.975752 254.318749 
L 234.028526 255.955985 
L 235.047339 254.481668 
L 236.100114 253.956706 
L 237.118927 252.882647 
L 238.171701 251.309774 
L 239.224476 250.165318 
L 240.175368 251.48275 
L 242.246956 249.871662 
L 243.29973 250.816994 
L 244.318544 250.60178 
L 245.371318 251.428444 
L 246.424092 251.641647 
L 247.442906 250.947732 
L 248.49568 249.787185 
L 249.514494 249.571971 
L 250.567268 248.678933 
L 251.620042 250.032569 
L 252.604895 249.234065 
L 253.65767 246.695745 
L 254.676483 247.168412 
L 255.729257 247.168412 
L 256.748071 245.690072 
L 257.800845 245.549278 
L 258.853619 243.417251 
L 259.872433 244.813125 
L 260.925207 244.422924 
L 261.944021 244.227823 
L 262.996795 243.14773 
L 264.049569 241.669391 
L 266.053236 243.608329 
L 267.07205 242.842006 
L 268.124824 242.284863 
L 269.143638 242.475941 
L 270.196412 241.319416 
L 271.249186 241.798117 
L 272.268 243.065265 
L 273.320774 241.621118 
L 274.339587 241.460211 
L 275.392362 241.725708 
L 277.396028 240.999612 
L 278.448803 241.452165 
L 280.52039 240.933238 
L 281.539204 241.486358 
L 282.591978 241.765935 
L 283.644752 240.83267 
L 284.663566 240.98151 
L 285.71634 239.971814 
L 286.735154 239.348297 
L 287.787928 239.374444 
L 288.840702 239.895383 
L 289.791595 239.346285 
L 290.844369 239.283934 
L 291.863183 237.682902 
L 292.915957 235.611215 
L 293.934771 235.446285 
L 294.987545 237.970524 
L 296.040319 236.890431 
L 297.059133 235.339683 
L 298.111907 234.400384 
L 299.130721 233.91565 
L 300.183495 231.506057 
L 302.221122 229.142725 
L 303.273896 229.168872 
L 304.29271 231.504045 
L 305.345484 231.359228 
L 306.364298 230.248965 
L 307.417072 230.474236 
L 308.469846 229.00193 
L 309.48866 228.398526 
L 310.541434 227.133389 
L 311.560248 226.290635 
L 312.613022 224.486457 
L 313.665796 224.408015 
L 314.616689 224.090222 
L 315.669463 224.934988 
L 316.688276 224.339629 
L 317.741051 222.519361 
L 319.812638 221.232099 
L 320.865413 220.489912 
L 321.884226 221.09935 
L 322.937 222.674234 
L 323.955814 221.407086 
L 326.061362 219.234832 
L 327.012255 218.826528 
L 328.065029 219.498318 
L 329.083843 219.623022 
L 330.136617 220.851954 
L 331.155431 220.721217 
L 332.208205 219.419876 
L 335.332567 213.321473 
L 336.351381 211.440864 
L 337.404155 211.477068 
L 338.456929 210.885732 
L 339.407822 210.499554 
L 340.460596 210.294397 
L 341.47941 208.341379 
L 342.532184 207.16273 
L 343.550997 208.530446 
L 344.603772 208.319254 
L 346.675359 205.107134 
L 347.728134 203.606669 
L 348.746947 202.836324 
L 349.799721 203.019356 
L 350.852496 203.56242 
L 351.837349 203.705225 
L 352.890123 203.475932 
L 353.908937 202.936891 
L 354.961711 203.409558 
L 355.980524 205.841275 
L 357.033299 206.002183 
L 358.086073 204.560048 
L 359.104886 206.271704 
L 360.157661 209.837821 
L 361.176474 205.790992 
L 362.229248 203.401512 
L 363.282023 205.002544 
L 364.232915 206.040399 
L 365.285689 202.753859 
L 366.304503 201.726061 
L 367.357277 200.847102 
L 368.376091 200.764637 
L 369.428865 197.783821 
L 370.481639 196.080211 
L 371.500453 193.580107 
L 372.553227 194.121159 
L 373.572041 190.909039 
L 374.624815 192.705171 
L 375.677589 193.608266 
L 376.628482 192.310948 
L 377.681256 190.369998 
L 378.70007 188.145449 
L 379.752844 189.989854 
L 380.771658 189.16319 
L 381.824432 186.393566 
L 382.877206 185.999342 
L 383.89602 182.692689 
L 384.948794 181.23044 
L 385.967607 181.777526 
L 387.020382 180.822136 
L 388.073156 180.343436 
L 389.024048 177.54163 
L 390.076823 177.420949 
L 391.095636 174.381805 
L 392.14841 173.088509 
L 393.167224 175.095833 
L 394.219998 173.957411 
L 395.272772 172.300061 
L 396.291586 171.994337 
L 397.34436 168.858647 
L 398.363174 168.078245 
L 399.415948 166.551633 
L 401.453575 161.287939 
L 402.50635 160.539718 
L 403.525163 158.743586 
L 404.577937 158.918573 
L 406.649525 154.378964 
L 407.702299 153.127906 
L 408.721113 152.100108 
L 409.773887 153.94049 
L 410.792701 152.697478 
L 411.845475 152.856375 
L 412.898249 150.320067 
L 413.849142 148.367049 
L 414.901916 145.368132 
L 415.92073 140.51073 
L 417.992318 146.572928 
L 419.045092 145.695981 
L 420.097866 148.220221 
L 421.11668 144.712433 
L 422.169454 140.46648 
L 424.241042 140.281436 
L 425.293816 138.219806 
L 426.244709 134.535019 
L 427.297483 133.949718 
L 428.316296 131.795566 
L 429.369071 128.0082 
L 430.387884 125.771583 
L 431.440658 126.94822 
L 432.493433 120.731148 
L 433.512246 123.830633 
L 434.56502 119.701339 
L 435.583834 116.561627 
L 436.636608 114.536201 
L 437.689382 111.802781 
L 438.640275 110.392827 
L 441.764637 111.100821 
L 442.783451 114.409486 
L 443.836225 110.018717 
L 444.888999 115.553943 
L 445.907813 114.944505 
L 446.960587 110.917789 
L 447.979401 111.09881 
L 449.032175 112.376015 
L 451.069802 110.169568 
L 452.122576 105.515312 
L 453.14139 105.450949 
L 454.194164 103.089628 
L 455.212978 97.954661 
L 456.265752 94.247749 
L 457.318526 94.718404 
L 458.33734 95.329854 
L 460.408928 100.41856 
L 461.461702 99.079003 
L 462.514476 97.258735 
L 463.465369 91.391637 
L 464.518143 91.801952 
L 465.536957 89.277712 
L 466.589731 85.667345 
L 467.608544 84.176937 
L 468.661319 82.25409 
L 469.714093 79.100299 
L 470.732906 78.514997 
L 471.785681 75.097719 
L 472.804494 69.864196 
L 473.857268 66.720461 
L 474.910043 62.892869 
L 475.860935 68.834386 
L 476.913709 67.885031 
L 477.932523 69.166258 
L 478.985297 65.83748 
L 480.004111 64.785546 
L 481.056885 60.668319 
L 482.109659 56.018086 
L 483.128473 58.045524 
L 484.181247 71.342535 
L 485.200061 68.301379 
L 486.252835 68.66141 
L 487.305609 63.842224 
L 488.256502 62.313601 
L 489.309276 55.169298 
L 490.32809 51.820406 
L 491.380864 54.940005 
L 492.399678 46.932834 
L 493.452452 44.96976 
L 494.505226 37.65047 
L 495.52404 37.533812 
L 496.576814 35.697453 
L 497.595627 32.537627 
L 498.648401 31.175946 
L 499.701176 24.801989 
L 500.686029 29.277235 
L 501.738803 31.226229 
L 502.757617 27.73252 
L 503.810391 26.340669 
L 504.829205 25.312871 
L 504.829205 25.312871 
" style="fill:none;stroke:#000000;stroke-linecap:square;stroke-width:1.5;"/>
   </g>
   <g id="patch_7">
    <path d="M 69.653125 318.84375 
L 69.653125 10.8 
" style="fill:none;stroke:#000000;stroke-linecap:square;stroke-linejoin:miter;stroke-width:0.8;"/>
   </g>
   <g id="patch_8">
    <path d="M 525.551875 318.84375 
L 525.551875 10.8 
" style="fill:none;stroke:#000000;stroke-linecap:square;stroke-linejoin:miter;stroke-width:0.8;"/>
   </g>
   <g id="patch_9">
    <path d="M 69.653125 318.84375 
L 525.551875 318.84375 
" style="fill:none;stroke:#000000;stroke-linecap:square;stroke-linejoin:miter;stroke-width:0.8;"/>
   </g>
   <g id="patch_10">
    <path d="M 69.653125 10.8 
L 525.551875 10.8 
" style="fill:none;stroke:#000000;stroke-linecap:square;stroke-linejoin:miter;stroke-width:0.8;"/>
   </g>
  </g>
 </g>
 <defs>
  <clipPath id="ped1c36b301">
   <rect height="308.04375" width="455.89875" x="69.653125" y="10.8"/>
  </clipPath>
 </defs>
</svg>
