<?xml version="1.0" encoding="utf-8" standalone="no"?>
<!DOCTYPE svg PUBLIC "-//W3C//DTD SVG 1.1//EN"
  "http://www.w3.org/Graphics/SVG/1.1/DTD/svg11.dtd">
<!-- Created with matplotlib (https://matplotlib.org/) -->
<svg height="360pt" version="1.1" viewBox="0 0 582.48 360" width="582.48pt" xmlns="http://www.w3.org/2000/svg" xmlns:xlink="http://www.w3.org/1999/xlink">
 <defs>
  <style type="text/css">
*{stroke-linecap:butt;stroke-linejoin:round;}
  </style>
 </defs>
 <g id="figure_1">
  <g id="patch_1">
   <path d="M 0 360 
L 582.48 360 
L 582.48 0 
L 0 0 
z
" style="fill:none;"/>
  </g>
  <g id="axes_1">
   <g id="patch_2">
    <path d="M 69.653125 307.415373 
L 525.551875 307.415373 
L 525.551875 10.8 
L 69.653125 10.8 
z
" style="fill:none;"/>
   </g>
   <g id="matplotlib.axis_1">
    <g id="xtick_1">
     <g id="line2d_1">
      <path clip-path="url(#pa30a1a2a1c)" d="M 100.253904 307.415373 
L 100.253904 10.8 
" style="fill:none;stroke:#b0b0b0;stroke-linecap:square;stroke-opacity:0.5;stroke-width:0.8;"/>
     </g>
     <g id="line2d_2">
      <defs>
       <path d="M 0 0 
L 0 3.5 
" id="m75df8fd960" style="stroke:#000000;stroke-width:0.8;"/>
      </defs>
      <g>
       <use style="stroke:#000000;stroke-width:0.8;" x="100.253904" xlink:href="#m75df8fd960" y="307.415373"/>
      </g>
     </g>
     <g id="text_1">
      <!-- 2000 -->
      <defs>
       <path d="M 19.1875 8.296875 
L 53.609375 8.296875 
L 53.609375 0 
L 7.328125 0 
L 7.328125 8.296875 
Q 12.9375 14.109375 22.625 23.890625 
Q 32.328125 33.6875 34.8125 36.53125 
Q 39.546875 41.84375 41.421875 45.53125 
Q 43.3125 49.21875 43.3125 52.78125 
Q 43.3125 58.59375 39.234375 62.25 
Q 35.15625 65.921875 28.609375 65.921875 
Q 23.96875 65.921875 18.8125 64.3125 
Q 13.671875 62.703125 7.8125 59.421875 
L 7.8125 69.390625 
Q 13.765625 71.78125 18.9375 73 
Q 24.125 74.21875 28.421875 74.21875 
Q 39.75 74.21875 46.484375 68.546875 
Q 53.21875 62.890625 53.21875 53.421875 
Q 53.21875 48.921875 51.53125 44.890625 
Q 49.859375 40.875 45.40625 35.40625 
Q 44.1875 33.984375 37.640625 27.21875 
Q 31.109375 20.453125 19.1875 8.296875 
z
" id="DejaVuSans-50"/>
       <path d="M 31.78125 66.40625 
Q 24.171875 66.40625 20.328125 58.90625 
Q 16.5 51.421875 16.5 36.375 
Q 16.5 21.390625 20.328125 13.890625 
Q 24.171875 6.390625 31.78125 6.390625 
Q 39.453125 6.390625 43.28125 13.890625 
Q 47.125 21.390625 47.125 36.375 
Q 47.125 51.421875 43.28125 58.90625 
Q 39.453125 66.40625 31.78125 66.40625 
z
M 31.78125 74.21875 
Q 44.046875 74.21875 50.515625 64.515625 
Q 56.984375 54.828125 56.984375 36.375 
Q 56.984375 17.96875 50.515625 8.265625 
Q 44.046875 -1.421875 31.78125 -1.421875 
Q 19.53125 -1.421875 13.0625 8.265625 
Q 6.59375 17.96875 6.59375 36.375 
Q 6.59375 54.828125 13.0625 64.515625 
Q 19.53125 74.21875 31.78125 74.21875 
z
" id="DejaVuSans-48"/>
      </defs>
      <g transform="translate(77.173714 333.720813)rotate(-30)scale(0.1 -0.1)">
       <use xlink:href="#DejaVuSans-50"/>
       <use x="63.623047" xlink:href="#DejaVuSans-48"/>
       <use x="127.246094" xlink:href="#DejaVuSans-48"/>
       <use x="190.869141" xlink:href="#DejaVuSans-48"/>
      </g>
     </g>
    </g>
    <g id="xtick_2">
     <g id="line2d_3">
      <path clip-path="url(#pa30a1a2a1c)" d="M 178.264266 307.415373 
L 178.264266 10.8 
" style="fill:none;stroke:#b0b0b0;stroke-linecap:square;stroke-opacity:0.5;stroke-width:0.8;"/>
     </g>
     <g id="line2d_4">
      <g>
       <use style="stroke:#000000;stroke-width:0.8;" x="178.264266" xlink:href="#m75df8fd960" y="307.415373"/>
      </g>
     </g>
     <g id="text_2">
      <!-- 2004 -->
      <defs>
       <path d="M 37.796875 64.3125 
L 12.890625 25.390625 
L 37.796875 25.390625 
z
M 35.203125 72.90625 
L 47.609375 72.90625 
L 47.609375 25.390625 
L 58.015625 25.390625 
L 58.015625 17.1875 
L 47.609375 17.1875 
L 47.609375 0 
L 37.796875 0 
L 37.796875 17.1875 
L 4.890625 17.1875 
L 4.890625 26.703125 
z
" id="DejaVuSans-52"/>
      </defs>
      <g transform="translate(155.184076 333.720813)rotate(-30)scale(0.1 -0.1)">
       <use xlink:href="#DejaVuSans-50"/>
       <use x="63.623047" xlink:href="#DejaVuSans-48"/>
       <use x="127.246094" xlink:href="#DejaVuSans-48"/>
       <use x="190.869141" xlink:href="#DejaVuSans-52"/>
      </g>
     </g>
    </g>
    <g id="xtick_3">
     <g id="line2d_5">
      <path clip-path="url(#pa30a1a2a1c)" d="M 256.274628 307.415373 
L 256.274628 10.8 
" style="fill:none;stroke:#b0b0b0;stroke-linecap:square;stroke-opacity:0.5;stroke-width:0.8;"/>
     </g>
     <g id="line2d_6">
      <g>
       <use style="stroke:#000000;stroke-width:0.8;" x="256.274628" xlink:href="#m75df8fd960" y="307.415373"/>
      </g>
     </g>
     <g id="text_3">
      <!-- 2008 -->
      <defs>
       <path d="M 31.78125 34.625 
Q 24.75 34.625 20.71875 30.859375 
Q 16.703125 27.09375 16.703125 20.515625 
Q 16.703125 13.921875 20.71875 10.15625 
Q 24.75 6.390625 31.78125 6.390625 
Q 38.8125 6.390625 42.859375 10.171875 
Q 46.921875 13.96875 46.921875 20.515625 
Q 46.921875 27.09375 42.890625 30.859375 
Q 38.875 34.625 31.78125 34.625 
z
M 21.921875 38.8125 
Q 15.578125 40.375 12.03125 44.71875 
Q 8.5 49.078125 8.5 55.328125 
Q 8.5 64.0625 14.71875 69.140625 
Q 20.953125 74.21875 31.78125 74.21875 
Q 42.671875 74.21875 48.875 69.140625 
Q 55.078125 64.0625 55.078125 55.328125 
Q 55.078125 49.078125 51.53125 44.71875 
Q 48 40.375 41.703125 38.8125 
Q 48.828125 37.15625 52.796875 32.3125 
Q 56.78125 27.484375 56.78125 20.515625 
Q 56.78125 9.90625 50.3125 4.234375 
Q 43.84375 -1.421875 31.78125 -1.421875 
Q 19.734375 -1.421875 13.25 4.234375 
Q 6.78125 9.90625 6.78125 20.515625 
Q 6.78125 27.484375 10.78125 32.3125 
Q 14.796875 37.15625 21.921875 38.8125 
z
M 18.3125 54.390625 
Q 18.3125 48.734375 21.84375 45.5625 
Q 25.390625 42.390625 31.78125 42.390625 
Q 38.140625 42.390625 41.71875 45.5625 
Q 45.3125 48.734375 45.3125 54.390625 
Q 45.3125 60.0625 41.71875 63.234375 
Q 38.140625 66.40625 31.78125 66.40625 
Q 25.390625 66.40625 21.84375 63.234375 
Q 18.3125 60.0625 18.3125 54.390625 
z
" id="DejaVuSans-56"/>
      </defs>
      <g transform="translate(233.194438 333.720813)rotate(-30)scale(0.1 -0.1)">
       <use xlink:href="#DejaVuSans-50"/>
       <use x="63.623047" xlink:href="#DejaVuSans-48"/>
       <use x="127.246094" xlink:href="#DejaVuSans-48"/>
       <use x="190.869141" xlink:href="#DejaVuSans-56"/>
      </g>
     </g>
    </g>
    <g id="xtick_4">
     <g id="line2d_7">
      <path clip-path="url(#pa30a1a2a1c)" d="M 334.284991 307.415373 
L 334.284991 10.8 
" style="fill:none;stroke:#b0b0b0;stroke-linecap:square;stroke-opacity:0.5;stroke-width:0.8;"/>
     </g>
     <g id="line2d_8">
      <g>
       <use style="stroke:#000000;stroke-width:0.8;" x="334.284991" xlink:href="#m75df8fd960" y="307.415373"/>
      </g>
     </g>
     <g id="text_4">
      <!-- 2012 -->
      <defs>
       <path d="M 12.40625 8.296875 
L 28.515625 8.296875 
L 28.515625 63.921875 
L 10.984375 60.40625 
L 10.984375 69.390625 
L 28.421875 72.90625 
L 38.28125 72.90625 
L 38.28125 8.296875 
L 54.390625 8.296875 
L 54.390625 0 
L 12.40625 0 
z
" id="DejaVuSans-49"/>
      </defs>
      <g transform="translate(311.2048 333.720813)rotate(-30)scale(0.1 -0.1)">
       <use xlink:href="#DejaVuSans-50"/>
       <use x="63.623047" xlink:href="#DejaVuSans-48"/>
       <use x="127.246094" xlink:href="#DejaVuSans-49"/>
       <use x="190.869141" xlink:href="#DejaVuSans-50"/>
      </g>
     </g>
    </g>
    <g id="xtick_5">
     <g id="line2d_9">
      <path clip-path="url(#pa30a1a2a1c)" d="M 412.295353 307.415373 
L 412.295353 10.8 
" style="fill:none;stroke:#b0b0b0;stroke-linecap:square;stroke-opacity:0.5;stroke-width:0.8;"/>
     </g>
     <g id="line2d_10">
      <g>
       <use style="stroke:#000000;stroke-width:0.8;" x="412.295353" xlink:href="#m75df8fd960" y="307.415373"/>
      </g>
     </g>
     <g id="text_5">
      <!-- 2016 -->
      <defs>
       <path d="M 33.015625 40.375 
Q 26.375 40.375 22.484375 35.828125 
Q 18.609375 31.296875 18.609375 23.390625 
Q 18.609375 15.53125 22.484375 10.953125 
Q 26.375 6.390625 33.015625 6.390625 
Q 39.65625 6.390625 43.53125 10.953125 
Q 47.40625 15.53125 47.40625 23.390625 
Q 47.40625 31.296875 43.53125 35.828125 
Q 39.65625 40.375 33.015625 40.375 
z
M 52.59375 71.296875 
L 52.59375 62.3125 
Q 48.875 64.0625 45.09375 64.984375 
Q 41.3125 65.921875 37.59375 65.921875 
Q 27.828125 65.921875 22.671875 59.328125 
Q 17.53125 52.734375 16.796875 39.40625 
Q 19.671875 43.65625 24.015625 45.921875 
Q 28.375 48.1875 33.59375 48.1875 
Q 44.578125 48.1875 50.953125 41.515625 
Q 57.328125 34.859375 57.328125 23.390625 
Q 57.328125 12.15625 50.6875 5.359375 
Q 44.046875 -1.421875 33.015625 -1.421875 
Q 20.359375 -1.421875 13.671875 8.265625 
Q 6.984375 17.96875 6.984375 36.375 
Q 6.984375 53.65625 15.1875 63.9375 
Q 23.390625 74.21875 37.203125 74.21875 
Q 40.921875 74.21875 44.703125 73.484375 
Q 48.484375 72.75 52.59375 71.296875 
z
" id="DejaVuSans-54"/>
      </defs>
      <g transform="translate(389.215162 333.720813)rotate(-30)scale(0.1 -0.1)">
       <use xlink:href="#DejaVuSans-50"/>
       <use x="63.623047" xlink:href="#DejaVuSans-48"/>
       <use x="127.246094" xlink:href="#DejaVuSans-49"/>
       <use x="190.869141" xlink:href="#DejaVuSans-54"/>
      </g>
     </g>
    </g>
    <g id="xtick_6">
     <g id="line2d_11">
      <path clip-path="url(#pa30a1a2a1c)" d="M 490.305715 307.415373 
L 490.305715 10.8 
" style="fill:none;stroke:#b0b0b0;stroke-linecap:square;stroke-opacity:0.5;stroke-width:0.8;"/>
     </g>
     <g id="line2d_12">
      <g>
       <use style="stroke:#000000;stroke-width:0.8;" x="490.305715" xlink:href="#m75df8fd960" y="307.415373"/>
      </g>
     </g>
     <g id="text_6">
      <!-- 2020 -->
      <g transform="translate(467.225525 333.720813)rotate(-30)scale(0.1 -0.1)">
       <use xlink:href="#DejaVuSans-50"/>
       <use x="63.623047" xlink:href="#DejaVuSans-48"/>
       <use x="127.246094" xlink:href="#DejaVuSans-50"/>
       <use x="190.869141" xlink:href="#DejaVuSans-48"/>
      </g>
     </g>
    </g>
    <g id="xtick_7">
     <g id="line2d_13">
      <path clip-path="url(#pa30a1a2a1c)" d="M 80.751314 307.415373 
L 80.751314 10.8 
" style="fill:none;stroke:#b0b0b0;stroke-linecap:square;stroke-opacity:0.1;stroke-width:0.8;"/>
     </g>
     <g id="line2d_14">
      <defs>
       <path d="M 0 0 
L 0 2 
" id="mcf4a038199" style="stroke:#000000;stroke-width:0.6;"/>
      </defs>
      <g>
       <use style="stroke:#000000;stroke-width:0.6;" x="80.751314" xlink:href="#mcf4a038199" y="307.415373"/>
      </g>
     </g>
    </g>
    <g id="xtick_8">
     <g id="line2d_15">
      <path clip-path="url(#pa30a1a2a1c)" d="M 119.756495 307.415373 
L 119.756495 10.8 
" style="fill:none;stroke:#b0b0b0;stroke-linecap:square;stroke-opacity:0.1;stroke-width:0.8;"/>
     </g>
     <g id="line2d_16">
      <g>
       <use style="stroke:#000000;stroke-width:0.6;" x="119.756495" xlink:href="#mcf4a038199" y="307.415373"/>
      </g>
     </g>
    </g>
    <g id="xtick_9">
     <g id="line2d_17">
      <path clip-path="url(#pa30a1a2a1c)" d="M 139.259085 307.415373 
L 139.259085 10.8 
" style="fill:none;stroke:#b0b0b0;stroke-linecap:square;stroke-opacity:0.1;stroke-width:0.8;"/>
     </g>
     <g id="line2d_18">
      <g>
       <use style="stroke:#000000;stroke-width:0.6;" x="139.259085" xlink:href="#mcf4a038199" y="307.415373"/>
      </g>
     </g>
    </g>
    <g id="xtick_10">
     <g id="line2d_19">
      <path clip-path="url(#pa30a1a2a1c)" d="M 158.761676 307.415373 
L 158.761676 10.8 
" style="fill:none;stroke:#b0b0b0;stroke-linecap:square;stroke-opacity:0.1;stroke-width:0.8;"/>
     </g>
     <g id="line2d_20">
      <g>
       <use style="stroke:#000000;stroke-width:0.6;" x="158.761676" xlink:href="#mcf4a038199" y="307.415373"/>
      </g>
     </g>
    </g>
    <g id="xtick_11">
     <g id="line2d_21">
      <path clip-path="url(#pa30a1a2a1c)" d="M 197.766857 307.415373 
L 197.766857 10.8 
" style="fill:none;stroke:#b0b0b0;stroke-linecap:square;stroke-opacity:0.1;stroke-width:0.8;"/>
     </g>
     <g id="line2d_22">
      <g>
       <use style="stroke:#000000;stroke-width:0.6;" x="197.766857" xlink:href="#mcf4a038199" y="307.415373"/>
      </g>
     </g>
    </g>
    <g id="xtick_12">
     <g id="line2d_23">
      <path clip-path="url(#pa30a1a2a1c)" d="M 217.269447 307.415373 
L 217.269447 10.8 
" style="fill:none;stroke:#b0b0b0;stroke-linecap:square;stroke-opacity:0.1;stroke-width:0.8;"/>
     </g>
     <g id="line2d_24">
      <g>
       <use style="stroke:#000000;stroke-width:0.6;" x="217.269447" xlink:href="#mcf4a038199" y="307.415373"/>
      </g>
     </g>
    </g>
    <g id="xtick_13">
     <g id="line2d_25">
      <path clip-path="url(#pa30a1a2a1c)" d="M 236.772038 307.415373 
L 236.772038 10.8 
" style="fill:none;stroke:#b0b0b0;stroke-linecap:square;stroke-opacity:0.1;stroke-width:0.8;"/>
     </g>
     <g id="line2d_26">
      <g>
       <use style="stroke:#000000;stroke-width:0.6;" x="236.772038" xlink:href="#mcf4a038199" y="307.415373"/>
      </g>
     </g>
    </g>
    <g id="xtick_14">
     <g id="line2d_27">
      <path clip-path="url(#pa30a1a2a1c)" d="M 275.777219 307.415373 
L 275.777219 10.8 
" style="fill:none;stroke:#b0b0b0;stroke-linecap:square;stroke-opacity:0.1;stroke-width:0.8;"/>
     </g>
     <g id="line2d_28">
      <g>
       <use style="stroke:#000000;stroke-width:0.6;" x="275.777219" xlink:href="#mcf4a038199" y="307.415373"/>
      </g>
     </g>
    </g>
    <g id="xtick_15">
     <g id="line2d_29">
      <path clip-path="url(#pa30a1a2a1c)" d="M 295.27981 307.415373 
L 295.27981 10.8 
" style="fill:none;stroke:#b0b0b0;stroke-linecap:square;stroke-opacity:0.1;stroke-width:0.8;"/>
     </g>
     <g id="line2d_30">
      <g>
       <use style="stroke:#000000;stroke-width:0.6;" x="295.27981" xlink:href="#mcf4a038199" y="307.415373"/>
      </g>
     </g>
    </g>
    <g id="xtick_16">
     <g id="line2d_31">
      <path clip-path="url(#pa30a1a2a1c)" d="M 314.7824 307.415373 
L 314.7824 10.8 
" style="fill:none;stroke:#b0b0b0;stroke-linecap:square;stroke-opacity:0.1;stroke-width:0.8;"/>
     </g>
     <g id="line2d_32">
      <g>
       <use style="stroke:#000000;stroke-width:0.6;" x="314.7824" xlink:href="#mcf4a038199" y="307.415373"/>
      </g>
     </g>
    </g>
    <g id="xtick_17">
     <g id="line2d_33">
      <path clip-path="url(#pa30a1a2a1c)" d="M 353.787581 307.415373 
L 353.787581 10.8 
" style="fill:none;stroke:#b0b0b0;stroke-linecap:square;stroke-opacity:0.1;stroke-width:0.8;"/>
     </g>
     <g id="line2d_34">
      <g>
       <use style="stroke:#000000;stroke-width:0.6;" x="353.787581" xlink:href="#mcf4a038199" y="307.415373"/>
      </g>
     </g>
    </g>
    <g id="xtick_18">
     <g id="line2d_35">
      <path clip-path="url(#pa30a1a2a1c)" d="M 373.290172 307.415373 
L 373.290172 10.8 
" style="fill:none;stroke:#b0b0b0;stroke-linecap:square;stroke-opacity:0.1;stroke-width:0.8;"/>
     </g>
     <g id="line2d_36">
      <g>
       <use style="stroke:#000000;stroke-width:0.6;" x="373.290172" xlink:href="#mcf4a038199" y="307.415373"/>
      </g>
     </g>
    </g>
    <g id="xtick_19">
     <g id="line2d_37">
      <path clip-path="url(#pa30a1a2a1c)" d="M 392.792762 307.415373 
L 392.792762 10.8 
" style="fill:none;stroke:#b0b0b0;stroke-linecap:square;stroke-opacity:0.1;stroke-width:0.8;"/>
     </g>
     <g id="line2d_38">
      <g>
       <use style="stroke:#000000;stroke-width:0.6;" x="392.792762" xlink:href="#mcf4a038199" y="307.415373"/>
      </g>
     </g>
    </g>
    <g id="xtick_20">
     <g id="line2d_39">
      <path clip-path="url(#pa30a1a2a1c)" d="M 431.797943 307.415373 
L 431.797943 10.8 
" style="fill:none;stroke:#b0b0b0;stroke-linecap:square;stroke-opacity:0.1;stroke-width:0.8;"/>
     </g>
     <g id="line2d_40">
      <g>
       <use style="stroke:#000000;stroke-width:0.6;" x="431.797943" xlink:href="#mcf4a038199" y="307.415373"/>
      </g>
     </g>
    </g>
    <g id="xtick_21">
     <g id="line2d_41">
      <path clip-path="url(#pa30a1a2a1c)" d="M 451.300534 307.415373 
L 451.300534 10.8 
" style="fill:none;stroke:#b0b0b0;stroke-linecap:square;stroke-opacity:0.1;stroke-width:0.8;"/>
     </g>
     <g id="line2d_42">
      <g>
       <use style="stroke:#000000;stroke-width:0.6;" x="451.300534" xlink:href="#mcf4a038199" y="307.415373"/>
      </g>
     </g>
    </g>
    <g id="xtick_22">
     <g id="line2d_43">
      <path clip-path="url(#pa30a1a2a1c)" d="M 470.803124 307.415373 
L 470.803124 10.8 
" style="fill:none;stroke:#b0b0b0;stroke-linecap:square;stroke-opacity:0.1;stroke-width:0.8;"/>
     </g>
     <g id="line2d_44">
      <g>
       <use style="stroke:#000000;stroke-width:0.6;" x="470.803124" xlink:href="#mcf4a038199" y="307.415373"/>
      </g>
     </g>
    </g>
    <g id="xtick_23">
     <g id="line2d_45">
      <path clip-path="url(#pa30a1a2a1c)" d="M 509.808305 307.415373 
L 509.808305 10.8 
" style="fill:none;stroke:#b0b0b0;stroke-linecap:square;stroke-opacity:0.1;stroke-width:0.8;"/>
     </g>
     <g id="line2d_46">
      <g>
       <use style="stroke:#000000;stroke-width:0.6;" x="509.808305" xlink:href="#mcf4a038199" y="307.415373"/>
      </g>
     </g>
    </g>
    <g id="text_7">
     <!-- Year -->
     <defs>
      <path d="M -0.203125 72.90625 
L 10.40625 72.90625 
L 30.609375 42.921875 
L 50.6875 72.90625 
L 61.28125 72.90625 
L 35.5 34.71875 
L 35.5 0 
L 25.59375 0 
L 25.59375 34.71875 
z
" id="DejaVuSans-89"/>
      <path d="M 56.203125 29.59375 
L 56.203125 25.203125 
L 14.890625 25.203125 
Q 15.484375 15.921875 20.484375 11.0625 
Q 25.484375 6.203125 34.421875 6.203125 
Q 39.59375 6.203125 44.453125 7.46875 
Q 49.3125 8.734375 54.109375 11.28125 
L 54.109375 2.78125 
Q 49.265625 0.734375 44.1875 -0.34375 
Q 39.109375 -1.421875 33.890625 -1.421875 
Q 20.796875 -1.421875 13.15625 6.1875 
Q 5.515625 13.8125 5.515625 26.8125 
Q 5.515625 40.234375 12.765625 48.109375 
Q 20.015625 56 32.328125 56 
Q 43.359375 56 49.78125 48.890625 
Q 56.203125 41.796875 56.203125 29.59375 
z
M 47.21875 32.234375 
Q 47.125 39.59375 43.09375 43.984375 
Q 39.0625 48.390625 32.421875 48.390625 
Q 24.90625 48.390625 20.390625 44.140625 
Q 15.875 39.890625 15.1875 32.171875 
z
" id="DejaVuSans-101"/>
      <path d="M 34.28125 27.484375 
Q 23.390625 27.484375 19.1875 25 
Q 14.984375 22.515625 14.984375 16.5 
Q 14.984375 11.71875 18.140625 8.90625 
Q 21.296875 6.109375 26.703125 6.109375 
Q 34.1875 6.109375 38.703125 11.40625 
Q 43.21875 16.703125 43.21875 25.484375 
L 43.21875 27.484375 
z
M 52.203125 31.203125 
L 52.203125 0 
L 43.21875 0 
L 43.21875 8.296875 
Q 40.140625 3.328125 35.546875 0.953125 
Q 30.953125 -1.421875 24.3125 -1.421875 
Q 15.921875 -1.421875 10.953125 3.296875 
Q 6 8.015625 6 15.921875 
Q 6 25.140625 12.171875 29.828125 
Q 18.359375 34.515625 30.609375 34.515625 
L 43.21875 34.515625 
L 43.21875 35.40625 
Q 43.21875 41.609375 39.140625 45 
Q 35.0625 48.390625 27.6875 48.390625 
Q 23 48.390625 18.546875 47.265625 
Q 14.109375 46.140625 10.015625 43.890625 
L 10.015625 52.203125 
Q 14.9375 54.109375 19.578125 55.046875 
Q 24.21875 56 28.609375 56 
Q 40.484375 56 46.34375 49.84375 
Q 52.203125 43.703125 52.203125 31.203125 
z
" id="DejaVuSans-97"/>
      <path d="M 41.109375 46.296875 
Q 39.59375 47.171875 37.8125 47.578125 
Q 36.03125 48 33.890625 48 
Q 26.265625 48 22.1875 43.046875 
Q 18.109375 38.09375 18.109375 28.8125 
L 18.109375 0 
L 9.078125 0 
L 9.078125 54.6875 
L 18.109375 54.6875 
L 18.109375 46.1875 
Q 20.953125 51.171875 25.484375 53.578125 
Q 30.03125 56 36.53125 56 
Q 37.453125 56 38.578125 55.875 
Q 39.703125 55.765625 41.0625 55.515625 
z
" id="DejaVuSans-114"/>
     </defs>
     <g transform="translate(287.015 347.120313)scale(0.1 -0.1)">
      <use xlink:href="#DejaVuSans-89"/>
      <use x="47.833984" xlink:href="#DejaVuSans-101"/>
      <use x="109.357422" xlink:href="#DejaVuSans-97"/>
      <use x="170.636719" xlink:href="#DejaVuSans-114"/>
     </g>
    </g>
   </g>
   <g id="matplotlib.axis_2">
    <g id="ytick_1">
     <g id="line2d_47">
      <path clip-path="url(#pa30a1a2a1c)" d="M 69.653125 297.871982 
L 525.551875 297.871982 
" style="fill:none;stroke:#b0b0b0;stroke-linecap:square;stroke-opacity:0.5;stroke-width:0.8;"/>
     </g>
     <g id="line2d_48">
      <defs>
       <path d="M 0 0 
L -3.5 0 
" id="m8cf7744b86" style="stroke:#000000;stroke-width:0.8;"/>
      </defs>
      <g>
       <use style="stroke:#000000;stroke-width:0.8;" x="69.653125" xlink:href="#m8cf7744b86" y="297.871982"/>
      </g>
     </g>
     <g id="text_8">
      <!-- 0 -->
      <g transform="translate(56.290625 301.671201)scale(0.1 -0.1)">
       <use xlink:href="#DejaVuSans-48"/>
      </g>
     </g>
    </g>
    <g id="ytick_2">
     <g id="line2d_49">
      <path clip-path="url(#pa30a1a2a1c)" d="M 69.653125 256.420586 
L 525.551875 256.420586 
" style="fill:none;stroke:#b0b0b0;stroke-linecap:square;stroke-opacity:0.5;stroke-width:0.8;"/>
     </g>
     <g id="line2d_50">
      <g>
       <use style="stroke:#000000;stroke-width:0.8;" x="69.653125" xlink:href="#m8cf7744b86" y="256.420586"/>
      </g>
     </g>
     <g id="text_9">
      <!-- 100000 -->
      <g transform="translate(24.478125 260.219805)scale(0.1 -0.1)">
       <use xlink:href="#DejaVuSans-49"/>
       <use x="63.623047" xlink:href="#DejaVuSans-48"/>
       <use x="127.246094" xlink:href="#DejaVuSans-48"/>
       <use x="190.869141" xlink:href="#DejaVuSans-48"/>
       <use x="254.492188" xlink:href="#DejaVuSans-48"/>
       <use x="318.115234" xlink:href="#DejaVuSans-48"/>
      </g>
     </g>
    </g>
    <g id="ytick_3">
     <g id="line2d_51">
      <path clip-path="url(#pa30a1a2a1c)" d="M 69.653125 214.969191 
L 525.551875 214.969191 
" style="fill:none;stroke:#b0b0b0;stroke-linecap:square;stroke-opacity:0.5;stroke-width:0.8;"/>
     </g>
     <g id="line2d_52">
      <g>
       <use style="stroke:#000000;stroke-width:0.8;" x="69.653125" xlink:href="#m8cf7744b86" y="214.969191"/>
      </g>
     </g>
     <g id="text_10">
      <!-- 200000 -->
      <g transform="translate(24.478125 218.768409)scale(0.1 -0.1)">
       <use xlink:href="#DejaVuSans-50"/>
       <use x="63.623047" xlink:href="#DejaVuSans-48"/>
       <use x="127.246094" xlink:href="#DejaVuSans-48"/>
       <use x="190.869141" xlink:href="#DejaVuSans-48"/>
       <use x="254.492188" xlink:href="#DejaVuSans-48"/>
       <use x="318.115234" xlink:href="#DejaVuSans-48"/>
      </g>
     </g>
    </g>
    <g id="ytick_4">
     <g id="line2d_53">
      <path clip-path="url(#pa30a1a2a1c)" d="M 69.653125 173.517795 
L 525.551875 173.517795 
" style="fill:none;stroke:#b0b0b0;stroke-linecap:square;stroke-opacity:0.5;stroke-width:0.8;"/>
     </g>
     <g id="line2d_54">
      <g>
       <use style="stroke:#000000;stroke-width:0.8;" x="69.653125" xlink:href="#m8cf7744b86" y="173.517795"/>
      </g>
     </g>
     <g id="text_11">
      <!-- 300000 -->
      <defs>
       <path d="M 40.578125 39.3125 
Q 47.65625 37.796875 51.625 33 
Q 55.609375 28.21875 55.609375 21.1875 
Q 55.609375 10.40625 48.1875 4.484375 
Q 40.765625 -1.421875 27.09375 -1.421875 
Q 22.515625 -1.421875 17.65625 -0.515625 
Q 12.796875 0.390625 7.625 2.203125 
L 7.625 11.71875 
Q 11.71875 9.328125 16.59375 8.109375 
Q 21.484375 6.890625 26.8125 6.890625 
Q 36.078125 6.890625 40.9375 10.546875 
Q 45.796875 14.203125 45.796875 21.1875 
Q 45.796875 27.640625 41.28125 31.265625 
Q 36.765625 34.90625 28.71875 34.90625 
L 20.21875 34.90625 
L 20.21875 43.015625 
L 29.109375 43.015625 
Q 36.375 43.015625 40.234375 45.921875 
Q 44.09375 48.828125 44.09375 54.296875 
Q 44.09375 59.90625 40.109375 62.90625 
Q 36.140625 65.921875 28.71875 65.921875 
Q 24.65625 65.921875 20.015625 65.03125 
Q 15.375 64.15625 9.8125 62.3125 
L 9.8125 71.09375 
Q 15.4375 72.65625 20.34375 73.4375 
Q 25.25 74.21875 29.59375 74.21875 
Q 40.828125 74.21875 47.359375 69.109375 
Q 53.90625 64.015625 53.90625 55.328125 
Q 53.90625 49.265625 50.4375 45.09375 
Q 46.96875 40.921875 40.578125 39.3125 
z
" id="DejaVuSans-51"/>
      </defs>
      <g transform="translate(24.478125 177.317014)scale(0.1 -0.1)">
       <use xlink:href="#DejaVuSans-51"/>
       <use x="63.623047" xlink:href="#DejaVuSans-48"/>
       <use x="127.246094" xlink:href="#DejaVuSans-48"/>
       <use x="190.869141" xlink:href="#DejaVuSans-48"/>
       <use x="254.492188" xlink:href="#DejaVuSans-48"/>
       <use x="318.115234" xlink:href="#DejaVuSans-48"/>
      </g>
     </g>
    </g>
    <g id="ytick_5">
     <g id="line2d_55">
      <path clip-path="url(#pa30a1a2a1c)" d="M 69.653125 132.066399 
L 525.551875 132.066399 
" style="fill:none;stroke:#b0b0b0;stroke-linecap:square;stroke-opacity:0.5;stroke-width:0.8;"/>
     </g>
     <g id="line2d_56">
      <g>
       <use style="stroke:#000000;stroke-width:0.8;" x="69.653125" xlink:href="#m8cf7744b86" y="132.066399"/>
      </g>
     </g>
     <g id="text_12">
      <!-- 400000 -->
      <g transform="translate(24.478125 135.865618)scale(0.1 -0.1)">
       <use xlink:href="#DejaVuSans-52"/>
       <use x="63.623047" xlink:href="#DejaVuSans-48"/>
       <use x="127.246094" xlink:href="#DejaVuSans-48"/>
       <use x="190.869141" xlink:href="#DejaVuSans-48"/>
       <use x="254.492188" xlink:href="#DejaVuSans-48"/>
       <use x="318.115234" xlink:href="#DejaVuSans-48"/>
      </g>
     </g>
    </g>
    <g id="ytick_6">
     <g id="line2d_57">
      <path clip-path="url(#pa30a1a2a1c)" d="M 69.653125 90.615003 
L 525.551875 90.615003 
" style="fill:none;stroke:#b0b0b0;stroke-linecap:square;stroke-opacity:0.5;stroke-width:0.8;"/>
     </g>
     <g id="line2d_58">
      <g>
       <use style="stroke:#000000;stroke-width:0.8;" x="69.653125" xlink:href="#m8cf7744b86" y="90.615003"/>
      </g>
     </g>
     <g id="text_13">
      <!-- 500000 -->
      <defs>
       <path d="M 10.796875 72.90625 
L 49.515625 72.90625 
L 49.515625 64.59375 
L 19.828125 64.59375 
L 19.828125 46.734375 
Q 21.96875 47.46875 24.109375 47.828125 
Q 26.265625 48.1875 28.421875 48.1875 
Q 40.625 48.1875 47.75 41.5 
Q 54.890625 34.8125 54.890625 23.390625 
Q 54.890625 11.625 47.5625 5.09375 
Q 40.234375 -1.421875 26.90625 -1.421875 
Q 22.3125 -1.421875 17.546875 -0.640625 
Q 12.796875 0.140625 7.71875 1.703125 
L 7.71875 11.625 
Q 12.109375 9.234375 16.796875 8.0625 
Q 21.484375 6.890625 26.703125 6.890625 
Q 35.15625 6.890625 40.078125 11.328125 
Q 45.015625 15.765625 45.015625 23.390625 
Q 45.015625 31 40.078125 35.4375 
Q 35.15625 39.890625 26.703125 39.890625 
Q 22.75 39.890625 18.8125 39.015625 
Q 14.890625 38.140625 10.796875 36.28125 
z
" id="DejaVuSans-53"/>
      </defs>
      <g transform="translate(24.478125 94.414222)scale(0.1 -0.1)">
       <use xlink:href="#DejaVuSans-53"/>
       <use x="63.623047" xlink:href="#DejaVuSans-48"/>
       <use x="127.246094" xlink:href="#DejaVuSans-48"/>
       <use x="190.869141" xlink:href="#DejaVuSans-48"/>
       <use x="254.492188" xlink:href="#DejaVuSans-48"/>
       <use x="318.115234" xlink:href="#DejaVuSans-48"/>
      </g>
     </g>
    </g>
    <g id="ytick_7">
     <g id="line2d_59">
      <path clip-path="url(#pa30a1a2a1c)" d="M 69.653125 49.163608 
L 525.551875 49.163608 
" style="fill:none;stroke:#b0b0b0;stroke-linecap:square;stroke-opacity:0.5;stroke-width:0.8;"/>
     </g>
     <g id="line2d_60">
      <g>
       <use style="stroke:#000000;stroke-width:0.8;" x="69.653125" xlink:href="#m8cf7744b86" y="49.163608"/>
      </g>
     </g>
     <g id="text_14">
      <!-- 600000 -->
      <g transform="translate(24.478125 52.962826)scale(0.1 -0.1)">
       <use xlink:href="#DejaVuSans-54"/>
       <use x="63.623047" xlink:href="#DejaVuSans-48"/>
       <use x="127.246094" xlink:href="#DejaVuSans-48"/>
       <use x="190.869141" xlink:href="#DejaVuSans-48"/>
       <use x="254.492188" xlink:href="#DejaVuSans-48"/>
       <use x="318.115234" xlink:href="#DejaVuSans-48"/>
      </g>
     </g>
    </g>
    <g id="ytick_8">
     <g id="line2d_61">
      <path clip-path="url(#pa30a1a2a1c)" d="M 69.653125 306.162261 
L 525.551875 306.162261 
" style="fill:none;stroke:#b0b0b0;stroke-linecap:square;stroke-opacity:0.1;stroke-width:0.8;"/>
     </g>
     <g id="line2d_62">
      <defs>
       <path d="M 0 0 
L -2 0 
" id="ma346af9c93" style="stroke:#000000;stroke-width:0.6;"/>
      </defs>
      <g>
       <use style="stroke:#000000;stroke-width:0.6;" x="69.653125" xlink:href="#ma346af9c93" y="306.162261"/>
      </g>
     </g>
    </g>
    <g id="ytick_9">
     <g id="line2d_63">
      <path clip-path="url(#pa30a1a2a1c)" d="M 69.653125 289.581703 
L 525.551875 289.581703 
" style="fill:none;stroke:#b0b0b0;stroke-linecap:square;stroke-opacity:0.1;stroke-width:0.8;"/>
     </g>
     <g id="line2d_64">
      <g>
       <use style="stroke:#000000;stroke-width:0.6;" x="69.653125" xlink:href="#ma346af9c93" y="289.581703"/>
      </g>
     </g>
    </g>
    <g id="ytick_10">
     <g id="line2d_65">
      <path clip-path="url(#pa30a1a2a1c)" d="M 69.653125 281.291424 
L 525.551875 281.291424 
" style="fill:none;stroke:#b0b0b0;stroke-linecap:square;stroke-opacity:0.1;stroke-width:0.8;"/>
     </g>
     <g id="line2d_66">
      <g>
       <use style="stroke:#000000;stroke-width:0.6;" x="69.653125" xlink:href="#ma346af9c93" y="281.291424"/>
      </g>
     </g>
    </g>
    <g id="ytick_11">
     <g id="line2d_67">
      <path clip-path="url(#pa30a1a2a1c)" d="M 69.653125 273.001145 
L 525.551875 273.001145 
" style="fill:none;stroke:#b0b0b0;stroke-linecap:square;stroke-opacity:0.1;stroke-width:0.8;"/>
     </g>
     <g id="line2d_68">
      <g>
       <use style="stroke:#000000;stroke-width:0.6;" x="69.653125" xlink:href="#ma346af9c93" y="273.001145"/>
      </g>
     </g>
    </g>
    <g id="ytick_12">
     <g id="line2d_69">
      <path clip-path="url(#pa30a1a2a1c)" d="M 69.653125 264.710865 
L 525.551875 264.710865 
" style="fill:none;stroke:#b0b0b0;stroke-linecap:square;stroke-opacity:0.1;stroke-width:0.8;"/>
     </g>
     <g id="line2d_70">
      <g>
       <use style="stroke:#000000;stroke-width:0.6;" x="69.653125" xlink:href="#ma346af9c93" y="264.710865"/>
      </g>
     </g>
    </g>
    <g id="ytick_13">
     <g id="line2d_71">
      <path clip-path="url(#pa30a1a2a1c)" d="M 69.653125 248.130307 
L 525.551875 248.130307 
" style="fill:none;stroke:#b0b0b0;stroke-linecap:square;stroke-opacity:0.1;stroke-width:0.8;"/>
     </g>
     <g id="line2d_72">
      <g>
       <use style="stroke:#000000;stroke-width:0.6;" x="69.653125" xlink:href="#ma346af9c93" y="248.130307"/>
      </g>
     </g>
    </g>
    <g id="ytick_14">
     <g id="line2d_73">
      <path clip-path="url(#pa30a1a2a1c)" d="M 69.653125 239.840028 
L 525.551875 239.840028 
" style="fill:none;stroke:#b0b0b0;stroke-linecap:square;stroke-opacity:0.1;stroke-width:0.8;"/>
     </g>
     <g id="line2d_74">
      <g>
       <use style="stroke:#000000;stroke-width:0.6;" x="69.653125" xlink:href="#ma346af9c93" y="239.840028"/>
      </g>
     </g>
    </g>
    <g id="ytick_15">
     <g id="line2d_75">
      <path clip-path="url(#pa30a1a2a1c)" d="M 69.653125 231.549749 
L 525.551875 231.549749 
" style="fill:none;stroke:#b0b0b0;stroke-linecap:square;stroke-opacity:0.1;stroke-width:0.8;"/>
     </g>
     <g id="line2d_76">
      <g>
       <use style="stroke:#000000;stroke-width:0.6;" x="69.653125" xlink:href="#ma346af9c93" y="231.549749"/>
      </g>
     </g>
    </g>
    <g id="ytick_16">
     <g id="line2d_77">
      <path clip-path="url(#pa30a1a2a1c)" d="M 69.653125 223.25947 
L 525.551875 223.25947 
" style="fill:none;stroke:#b0b0b0;stroke-linecap:square;stroke-opacity:0.1;stroke-width:0.8;"/>
     </g>
     <g id="line2d_78">
      <g>
       <use style="stroke:#000000;stroke-width:0.6;" x="69.653125" xlink:href="#ma346af9c93" y="223.25947"/>
      </g>
     </g>
    </g>
    <g id="ytick_17">
     <g id="line2d_79">
      <path clip-path="url(#pa30a1a2a1c)" d="M 69.653125 206.678911 
L 525.551875 206.678911 
" style="fill:none;stroke:#b0b0b0;stroke-linecap:square;stroke-opacity:0.1;stroke-width:0.8;"/>
     </g>
     <g id="line2d_80">
      <g>
       <use style="stroke:#000000;stroke-width:0.6;" x="69.653125" xlink:href="#ma346af9c93" y="206.678911"/>
      </g>
     </g>
    </g>
    <g id="ytick_18">
     <g id="line2d_81">
      <path clip-path="url(#pa30a1a2a1c)" d="M 69.653125 198.388632 
L 525.551875 198.388632 
" style="fill:none;stroke:#b0b0b0;stroke-linecap:square;stroke-opacity:0.1;stroke-width:0.8;"/>
     </g>
     <g id="line2d_82">
      <g>
       <use style="stroke:#000000;stroke-width:0.6;" x="69.653125" xlink:href="#ma346af9c93" y="198.388632"/>
      </g>
     </g>
    </g>
    <g id="ytick_19">
     <g id="line2d_83">
      <path clip-path="url(#pa30a1a2a1c)" d="M 69.653125 190.098353 
L 525.551875 190.098353 
" style="fill:none;stroke:#b0b0b0;stroke-linecap:square;stroke-opacity:0.1;stroke-width:0.8;"/>
     </g>
     <g id="line2d_84">
      <g>
       <use style="stroke:#000000;stroke-width:0.6;" x="69.653125" xlink:href="#ma346af9c93" y="190.098353"/>
      </g>
     </g>
    </g>
    <g id="ytick_20">
     <g id="line2d_85">
      <path clip-path="url(#pa30a1a2a1c)" d="M 69.653125 181.808074 
L 525.551875 181.808074 
" style="fill:none;stroke:#b0b0b0;stroke-linecap:square;stroke-opacity:0.1;stroke-width:0.8;"/>
     </g>
     <g id="line2d_86">
      <g>
       <use style="stroke:#000000;stroke-width:0.6;" x="69.653125" xlink:href="#ma346af9c93" y="181.808074"/>
      </g>
     </g>
    </g>
    <g id="ytick_21">
     <g id="line2d_87">
      <path clip-path="url(#pa30a1a2a1c)" d="M 69.653125 165.227516 
L 525.551875 165.227516 
" style="fill:none;stroke:#b0b0b0;stroke-linecap:square;stroke-opacity:0.1;stroke-width:0.8;"/>
     </g>
     <g id="line2d_88">
      <g>
       <use style="stroke:#000000;stroke-width:0.6;" x="69.653125" xlink:href="#ma346af9c93" y="165.227516"/>
      </g>
     </g>
    </g>
    <g id="ytick_22">
     <g id="line2d_89">
      <path clip-path="url(#pa30a1a2a1c)" d="M 69.653125 156.937237 
L 525.551875 156.937237 
" style="fill:none;stroke:#b0b0b0;stroke-linecap:square;stroke-opacity:0.1;stroke-width:0.8;"/>
     </g>
     <g id="line2d_90">
      <g>
       <use style="stroke:#000000;stroke-width:0.6;" x="69.653125" xlink:href="#ma346af9c93" y="156.937237"/>
      </g>
     </g>
    </g>
    <g id="ytick_23">
     <g id="line2d_91">
      <path clip-path="url(#pa30a1a2a1c)" d="M 69.653125 148.646957 
L 525.551875 148.646957 
" style="fill:none;stroke:#b0b0b0;stroke-linecap:square;stroke-opacity:0.1;stroke-width:0.8;"/>
     </g>
     <g id="line2d_92">
      <g>
       <use style="stroke:#000000;stroke-width:0.6;" x="69.653125" xlink:href="#ma346af9c93" y="148.646957"/>
      </g>
     </g>
    </g>
    <g id="ytick_24">
     <g id="line2d_93">
      <path clip-path="url(#pa30a1a2a1c)" d="M 69.653125 140.356678 
L 525.551875 140.356678 
" style="fill:none;stroke:#b0b0b0;stroke-linecap:square;stroke-opacity:0.1;stroke-width:0.8;"/>
     </g>
     <g id="line2d_94">
      <g>
       <use style="stroke:#000000;stroke-width:0.6;" x="69.653125" xlink:href="#ma346af9c93" y="140.356678"/>
      </g>
     </g>
    </g>
    <g id="ytick_25">
     <g id="line2d_95">
      <path clip-path="url(#pa30a1a2a1c)" d="M 69.653125 123.77612 
L 525.551875 123.77612 
" style="fill:none;stroke:#b0b0b0;stroke-linecap:square;stroke-opacity:0.1;stroke-width:0.8;"/>
     </g>
     <g id="line2d_96">
      <g>
       <use style="stroke:#000000;stroke-width:0.6;" x="69.653125" xlink:href="#ma346af9c93" y="123.77612"/>
      </g>
     </g>
    </g>
    <g id="ytick_26">
     <g id="line2d_97">
      <path clip-path="url(#pa30a1a2a1c)" d="M 69.653125 115.485841 
L 525.551875 115.485841 
" style="fill:none;stroke:#b0b0b0;stroke-linecap:square;stroke-opacity:0.1;stroke-width:0.8;"/>
     </g>
     <g id="line2d_98">
      <g>
       <use style="stroke:#000000;stroke-width:0.6;" x="69.653125" xlink:href="#ma346af9c93" y="115.485841"/>
      </g>
     </g>
    </g>
    <g id="ytick_27">
     <g id="line2d_99">
      <path clip-path="url(#pa30a1a2a1c)" d="M 69.653125 107.195562 
L 525.551875 107.195562 
" style="fill:none;stroke:#b0b0b0;stroke-linecap:square;stroke-opacity:0.1;stroke-width:0.8;"/>
     </g>
     <g id="line2d_100">
      <g>
       <use style="stroke:#000000;stroke-width:0.6;" x="69.653125" xlink:href="#ma346af9c93" y="107.195562"/>
      </g>
     </g>
    </g>
    <g id="ytick_28">
     <g id="line2d_101">
      <path clip-path="url(#pa30a1a2a1c)" d="M 69.653125 98.905283 
L 525.551875 98.905283 
" style="fill:none;stroke:#b0b0b0;stroke-linecap:square;stroke-opacity:0.1;stroke-width:0.8;"/>
     </g>
     <g id="line2d_102">
      <g>
       <use style="stroke:#000000;stroke-width:0.6;" x="69.653125" xlink:href="#ma346af9c93" y="98.905283"/>
      </g>
     </g>
    </g>
    <g id="ytick_29">
     <g id="line2d_103">
      <path clip-path="url(#pa30a1a2a1c)" d="M 69.653125 82.324724 
L 525.551875 82.324724 
" style="fill:none;stroke:#b0b0b0;stroke-linecap:square;stroke-opacity:0.1;stroke-width:0.8;"/>
     </g>
     <g id="line2d_104">
      <g>
       <use style="stroke:#000000;stroke-width:0.6;" x="69.653125" xlink:href="#ma346af9c93" y="82.324724"/>
      </g>
     </g>
    </g>
    <g id="ytick_30">
     <g id="line2d_105">
      <path clip-path="url(#pa30a1a2a1c)" d="M 69.653125 74.034445 
L 525.551875 74.034445 
" style="fill:none;stroke:#b0b0b0;stroke-linecap:square;stroke-opacity:0.1;stroke-width:0.8;"/>
     </g>
     <g id="line2d_106">
      <g>
       <use style="stroke:#000000;stroke-width:0.6;" x="69.653125" xlink:href="#ma346af9c93" y="74.034445"/>
      </g>
     </g>
    </g>
    <g id="ytick_31">
     <g id="line2d_107">
      <path clip-path="url(#pa30a1a2a1c)" d="M 69.653125 65.744166 
L 525.551875 65.744166 
" style="fill:none;stroke:#b0b0b0;stroke-linecap:square;stroke-opacity:0.1;stroke-width:0.8;"/>
     </g>
     <g id="line2d_108">
      <g>
       <use style="stroke:#000000;stroke-width:0.6;" x="69.653125" xlink:href="#ma346af9c93" y="65.744166"/>
      </g>
     </g>
    </g>
    <g id="ytick_32">
     <g id="line2d_109">
      <path clip-path="url(#pa30a1a2a1c)" d="M 69.653125 57.453887 
L 525.551875 57.453887 
" style="fill:none;stroke:#b0b0b0;stroke-linecap:square;stroke-opacity:0.1;stroke-width:0.8;"/>
     </g>
     <g id="line2d_110">
      <g>
       <use style="stroke:#000000;stroke-width:0.6;" x="69.653125" xlink:href="#ma346af9c93" y="57.453887"/>
      </g>
     </g>
    </g>
    <g id="ytick_33">
     <g id="line2d_111">
      <path clip-path="url(#pa30a1a2a1c)" d="M 69.653125 40.873328 
L 525.551875 40.873328 
" style="fill:none;stroke:#b0b0b0;stroke-linecap:square;stroke-opacity:0.1;stroke-width:0.8;"/>
     </g>
     <g id="line2d_112">
      <g>
       <use style="stroke:#000000;stroke-width:0.6;" x="69.653125" xlink:href="#ma346af9c93" y="40.873328"/>
      </g>
     </g>
    </g>
    <g id="ytick_34">
     <g id="line2d_113">
      <path clip-path="url(#pa30a1a2a1c)" d="M 69.653125 32.583049 
L 525.551875 32.583049 
" style="fill:none;stroke:#b0b0b0;stroke-linecap:square;stroke-opacity:0.1;stroke-width:0.8;"/>
     </g>
     <g id="line2d_114">
      <g>
       <use style="stroke:#000000;stroke-width:0.6;" x="69.653125" xlink:href="#ma346af9c93" y="32.583049"/>
      </g>
     </g>
    </g>
    <g id="ytick_35">
     <g id="line2d_115">
      <path clip-path="url(#pa30a1a2a1c)" d="M 69.653125 24.29277 
L 525.551875 24.29277 
" style="fill:none;stroke:#b0b0b0;stroke-linecap:square;stroke-opacity:0.1;stroke-width:0.8;"/>
     </g>
     <g id="line2d_116">
      <g>
       <use style="stroke:#000000;stroke-width:0.6;" x="69.653125" xlink:href="#ma346af9c93" y="24.29277"/>
      </g>
     </g>
    </g>
    <g id="ytick_36">
     <g id="line2d_117">
      <path clip-path="url(#pa30a1a2a1c)" d="M 69.653125 16.002491 
L 525.551875 16.002491 
" style="fill:none;stroke:#b0b0b0;stroke-linecap:square;stroke-opacity:0.1;stroke-width:0.8;"/>
     </g>
     <g id="line2d_118">
      <g>
       <use style="stroke:#000000;stroke-width:0.6;" x="69.653125" xlink:href="#ma346af9c93" y="16.002491"/>
      </g>
     </g>
    </g>
    <g id="text_15">
     <!-- Equity ($) -->
     <defs>
      <path d="M 9.8125 72.90625 
L 55.90625 72.90625 
L 55.90625 64.59375 
L 19.671875 64.59375 
L 19.671875 43.015625 
L 54.390625 43.015625 
L 54.390625 34.71875 
L 19.671875 34.71875 
L 19.671875 8.296875 
L 56.78125 8.296875 
L 56.78125 0 
L 9.8125 0 
z
" id="DejaVuSans-69"/>
      <path d="M 14.796875 27.296875 
Q 14.796875 17.390625 18.875 11.75 
Q 22.953125 6.109375 30.078125 6.109375 
Q 37.203125 6.109375 41.296875 11.75 
Q 45.40625 17.390625 45.40625 27.296875 
Q 45.40625 37.203125 41.296875 42.84375 
Q 37.203125 48.484375 30.078125 48.484375 
Q 22.953125 48.484375 18.875 42.84375 
Q 14.796875 37.203125 14.796875 27.296875 
z
M 45.40625 8.203125 
Q 42.578125 3.328125 38.25 0.953125 
Q 33.9375 -1.421875 27.875 -1.421875 
Q 17.96875 -1.421875 11.734375 6.484375 
Q 5.515625 14.40625 5.515625 27.296875 
Q 5.515625 40.1875 11.734375 48.09375 
Q 17.96875 56 27.875 56 
Q 33.9375 56 38.25 53.625 
Q 42.578125 51.265625 45.40625 46.390625 
L 45.40625 54.6875 
L 54.390625 54.6875 
L 54.390625 -20.796875 
L 45.40625 -20.796875 
z
" id="DejaVuSans-113"/>
      <path d="M 8.5 21.578125 
L 8.5 54.6875 
L 17.484375 54.6875 
L 17.484375 21.921875 
Q 17.484375 14.15625 20.5 10.265625 
Q 23.53125 6.390625 29.59375 6.390625 
Q 36.859375 6.390625 41.078125 11.03125 
Q 45.3125 15.671875 45.3125 23.6875 
L 45.3125 54.6875 
L 54.296875 54.6875 
L 54.296875 0 
L 45.3125 0 
L 45.3125 8.40625 
Q 42.046875 3.421875 37.71875 1 
Q 33.40625 -1.421875 27.6875 -1.421875 
Q 18.265625 -1.421875 13.375 4.4375 
Q 8.5 10.296875 8.5 21.578125 
z
M 31.109375 56 
z
" id="DejaVuSans-117"/>
      <path d="M 9.421875 54.6875 
L 18.40625 54.6875 
L 18.40625 0 
L 9.421875 0 
z
M 9.421875 75.984375 
L 18.40625 75.984375 
L 18.40625 64.59375 
L 9.421875 64.59375 
z
" id="DejaVuSans-105"/>
      <path d="M 18.3125 70.21875 
L 18.3125 54.6875 
L 36.8125 54.6875 
L 36.8125 47.703125 
L 18.3125 47.703125 
L 18.3125 18.015625 
Q 18.3125 11.328125 20.140625 9.421875 
Q 21.96875 7.515625 27.59375 7.515625 
L 36.8125 7.515625 
L 36.8125 0 
L 27.59375 0 
Q 17.1875 0 13.234375 3.875 
Q 9.28125 7.765625 9.28125 18.015625 
L 9.28125 47.703125 
L 2.6875 47.703125 
L 2.6875 54.6875 
L 9.28125 54.6875 
L 9.28125 70.21875 
z
" id="DejaVuSans-116"/>
      <path d="M 32.171875 -5.078125 
Q 28.375 -14.84375 24.75 -17.8125 
Q 21.140625 -20.796875 15.09375 -20.796875 
L 7.90625 -20.796875 
L 7.90625 -13.28125 
L 13.1875 -13.28125 
Q 16.890625 -13.28125 18.9375 -11.515625 
Q 21 -9.765625 23.484375 -3.21875 
L 25.09375 0.875 
L 2.984375 54.6875 
L 12.5 54.6875 
L 29.59375 11.921875 
L 46.6875 54.6875 
L 56.203125 54.6875 
z
" id="DejaVuSans-121"/>
      <path id="DejaVuSans-32"/>
      <path d="M 31 75.875 
Q 24.46875 64.65625 21.28125 53.65625 
Q 18.109375 42.671875 18.109375 31.390625 
Q 18.109375 20.125 21.3125 9.0625 
Q 24.515625 -2 31 -13.1875 
L 23.1875 -13.1875 
Q 15.875 -1.703125 12.234375 9.375 
Q 8.59375 20.453125 8.59375 31.390625 
Q 8.59375 42.28125 12.203125 53.3125 
Q 15.828125 64.359375 23.1875 75.875 
z
" id="DejaVuSans-40"/>
      <path d="M 33.796875 -14.703125 
L 28.90625 -14.703125 
L 28.859375 0 
Q 23.734375 0.09375 18.609375 1.1875 
Q 13.484375 2.296875 8.296875 4.5 
L 8.296875 13.28125 
Q 13.28125 10.15625 18.375 8.5625 
Q 23.484375 6.984375 28.90625 6.9375 
L 28.90625 29.203125 
Q 18.109375 30.953125 13.203125 35.15625 
Q 8.296875 39.359375 8.296875 46.6875 
Q 8.296875 54.640625 13.625 59.21875 
Q 18.953125 63.8125 28.90625 64.5 
L 28.90625 75.984375 
L 33.796875 75.984375 
L 33.796875 64.65625 
Q 38.328125 64.453125 42.578125 63.6875 
Q 46.828125 62.9375 50.875 61.625 
L 50.875 53.078125 
Q 46.828125 55.125 42.546875 56.25 
Q 38.28125 57.375 33.796875 57.5625 
L 33.796875 36.71875 
Q 44.875 35.015625 50.09375 30.609375 
Q 55.328125 26.21875 55.328125 18.609375 
Q 55.328125 10.359375 49.78125 5.59375 
Q 44.234375 0.828125 33.796875 0.09375 
z
M 28.90625 37.59375 
L 28.90625 57.625 
Q 23.25 56.984375 20.265625 54.390625 
Q 17.28125 51.8125 17.28125 47.515625 
Q 17.28125 43.3125 20.03125 40.96875 
Q 22.796875 38.625 28.90625 37.59375 
z
M 33.796875 28.21875 
L 33.796875 7.078125 
Q 39.984375 7.90625 43.140625 10.59375 
Q 46.296875 13.28125 46.296875 17.671875 
Q 46.296875 21.96875 43.28125 24.5 
Q 40.28125 27.046875 33.796875 28.21875 
z
" id="DejaVuSans-36"/>
      <path d="M 8.015625 75.875 
L 15.828125 75.875 
Q 23.140625 64.359375 26.78125 53.3125 
Q 30.421875 42.28125 30.421875 31.390625 
Q 30.421875 20.453125 26.78125 9.375 
Q 23.140625 -1.703125 15.828125 -13.1875 
L 8.015625 -13.1875 
Q 14.5 -2 17.703125 9.0625 
Q 20.90625 20.125 20.90625 31.390625 
Q 20.90625 42.671875 17.703125 53.65625 
Q 14.5 64.65625 8.015625 75.875 
z
" id="DejaVuSans-41"/>
     </defs>
     <g transform="translate(18.398437 183.590499)rotate(-90)scale(0.1 -0.1)">
      <use xlink:href="#DejaVuSans-69"/>
      <use x="63.183594" xlink:href="#DejaVuSans-113"/>
      <use x="126.660156" xlink:href="#DejaVuSans-117"/>
      <use x="190.039062" xlink:href="#DejaVuSans-105"/>
      <use x="217.822266" xlink:href="#DejaVuSans-116"/>
      <use x="257.03125" xlink:href="#DejaVuSans-121"/>
      <use x="316.210938" xlink:href="#DejaVuSans-32"/>
      <use x="347.998047" xlink:href="#DejaVuSans-40"/>
      <use x="387.011719" xlink:href="#DejaVuSans-36"/>
      <use x="450.634766" xlink:href="#DejaVuSans-41"/>
     </g>
    </g>
   </g>
   <g id="line2d_119">
    <path clip-path="url(#pa30a1a2a1c)" d="M 90.375795 293.726843 
L 92.031046 293.932856 
L 93.686297 293.774503 
L 95.288152 293.771635 
L 96.943403 293.384562 
L 98.545258 292.880625 
L 100.200509 291.747088 
L 101.85576 292.143368 
L 103.40422 291.199293 
L 106.661326 290.558819 
L 150.552166 290.647308 
L 153.809273 289.965517 
L 155.464523 290.291263 
L 157.066379 290.361006 
L 158.721629 290.001981 
L 160.37688 290.061793 
L 161.871945 289.87513 
L 163.527196 290.087046 
L 165.129051 290.077705 
L 166.784302 288.98027 
L 168.386158 288.853119 
L 171.696659 287.904052 
L 173.298514 287.963859 
L 174.953765 287.115724 
L 176.555621 287.051187 
L 178.210871 286.710331 
L 179.866122 286.489331 
L 183.069833 286.857407 
L 184.671688 286.872827 
L 186.326939 286.343768 
L 187.928794 286.060174 
L 189.584045 286.963777 
L 191.239296 287.216847 
L 192.841151 286.872686 
L 194.496402 286.319422 
L 196.098257 285.568505 
L 197.753508 285.184637 
L 199.408759 286.139994 
L 200.903824 286.068429 
L 202.559075 286.230138 
L 204.16093 286.733065 
L 205.816181 285.702715 
L 207.418036 286.014249 
L 209.073287 285.115433 
L 210.728538 285.415211 
L 212.330393 285.347945 
L 213.985644 285.706132 
L 215.587499 284.927518 
L 217.24275 285.151457 
L 218.898001 284.594298 
L 220.393066 284.685914 
L 222.048316 284.374723 
L 223.650172 284.397668 
L 225.305422 285.439233 
L 226.907278 285.389502 
L 228.562529 285.923752 
L 235.076741 283.681392 
L 236.731992 283.953851 
L 238.387242 283.782658 
L 239.882307 284.054582 
L 241.537558 283.973059 
L 243.139414 283.026543 
L 244.794664 282.63017 
L 246.39652 282.579872 
L 249.707021 281.979251 
L 251.308876 281.141704 
L 252.964127 280.947633 
L 257.876484 281.054257 
L 259.424944 281.392293 
L 261.080195 281.10225 
L 262.68205 281.638882 
L 264.337301 282.073929 
L 265.939157 281.6616 
L 267.594407 281.878819 
L 269.249658 281.443805 
L 270.851513 280.546826 
L 272.506764 279.88154 
L 274.10862 277.463625 
L 275.76387 274.220737 
L 277.419121 276.614243 
L 278.914186 276.952241 
L 280.569437 275.24519 
L 282.171292 276.695567 
L 283.826543 276.479568 
L 285.428398 275.818542 
L 287.083649 273.873429 
L 288.7389 273.266266 
L 290.340755 271.883424 
L 291.996006 272.657883 
L 295.253112 269.429057 
L 296.908363 271.269314 
L 298.403428 270.045591 
L 300.058678 267.769392 
L 301.660534 266.92351 
L 303.315785 267.492962 
L 304.91764 265.934518 
L 306.572891 266.237924 
L 308.228141 263.969762 
L 309.829997 264.803756 
L 311.485248 263.497561 
L 313.087103 262.775699 
L 314.742354 260.96473 
L 316.397604 260.104791 
L 317.892669 258.998213 
L 319.54792 259.219793 
L 321.149776 258.075688 
L 322.805026 259.217842 
L 324.406882 260.485698 
L 326.062132 259.883779 
L 327.717383 259.534287 
L 329.319239 255.551001 
L 330.974489 258.746235 
L 334.231595 255.92714 
L 335.886846 254.693962 
L 337.435306 251.706043 
L 339.090557 249.374663 
L 340.692413 249.588051 
L 342.347663 252.798932 
L 343.949519 251.167288 
L 345.604769 250.68623 
L 347.26002 248.345816 
L 348.861876 248.345816 
L 350.517126 250.524968 
L 352.118982 249.824232 
L 353.774232 251.03984 
L 355.429483 249.667658 
L 356.924548 249.421816 
L 358.579799 247.958621 
L 360.181654 247.060181 
L 361.836905 244.763487 
L 363.43876 246.022159 
L 365.094011 242.802284 
L 366.749262 243.02807 
L 370.006368 237.222167 
L 371.608223 235.069099 
L 373.263474 233.649753 
L 374.918725 234.722265 
L 376.41379 231.394275 
L 378.069041 233.667812 
L 379.670896 234.046617 
L 381.326147 231.18724 
L 382.928002 229.226709 
L 384.583253 226.982009 
L 386.238503 223.43751 
L 387.840359 224.10742 
L 389.49561 223.19274 
L 391.097465 219.794834 
L 392.752716 220.755183 
L 394.407966 222.359212 
L 395.903032 216.90719 
L 397.558282 217.967829 
L 399.160138 215.131232 
L 400.815388 213.269565 
L 402.417244 215.663813 
L 404.072495 211.816471 
L 405.727745 221.910782 
L 407.329601 220.148483 
L 408.984851 220.498238 
L 410.586707 221.418986 
L 412.241958 221.984738 
L 413.897208 217.803351 
L 415.445668 215.649505 
L 417.100919 216.307285 
L 418.702775 220.279485 
L 420.358025 217.043878 
L 421.959881 219.792034 
L 423.615131 214.209317 
L 425.270382 213.247197 
L 426.872238 212.011675 
L 428.527488 213.179375 
L 430.129344 211.765009 
L 431.784594 210.792 
L 434.93491 201.821499 
L 436.590161 199.938909 
L 438.192016 197.265337 
L 439.847267 193.311495 
L 441.449123 195.768667 
L 443.104373 191.174018 
L 444.759624 190.117708 
L 446.361479 190.430195 
L 448.01673 185.906896 
L 449.618586 184.652887 
L 451.273836 186.294564 
L 452.929087 177.02248 
L 454.424152 177.820087 
L 456.079403 182.718204 
L 457.681258 181.313328 
L 459.336509 174.622862 
L 460.938364 173.217822 
L 462.593615 170.699808 
L 464.248866 163.527297 
L 465.850721 163.903462 
L 467.505972 175.585517 
L 469.107827 175.573288 
L 470.763078 168.161988 
L 472.418329 168.784596 
L 473.913394 170.411097 
L 475.568644 163.311525 
L 477.1705 158.951766 
L 478.825751 168.314989 
L 480.427606 158.481613 
L 482.082857 153.226596 
L 483.738107 155.974859 
L 485.339963 156.017428 
L 490.25232 138.168303 
L 491.90757 130.662231 
L 493.456031 133.488075 
L 496.713137 85.74765 
L 498.368387 71.747444 
L 499.970243 62.159764 
L 501.625494 49.289877 
L 503.280744 24.282517 
L 504.829205 40.697885 
L 504.829205 40.697885 
" style="fill:none;stroke:#000000;stroke-linecap:square;stroke-width:1.5;"/>
   </g>
   <g id="patch_3">
    <path d="M 69.653125 307.415373 
L 69.653125 10.8 
" style="fill:none;stroke:#000000;stroke-linecap:square;stroke-linejoin:miter;stroke-width:0.8;"/>
   </g>
   <g id="patch_4">
    <path d="M 525.551875 307.415373 
L 525.551875 10.8 
" style="fill:none;stroke:#000000;stroke-linecap:square;stroke-linejoin:miter;stroke-width:0.8;"/>
   </g>
   <g id="patch_5">
    <path d="M 69.653125 307.415373 
L 525.551875 307.415373 
" style="fill:none;stroke:#000000;stroke-linecap:square;stroke-linejoin:miter;stroke-width:0.8;"/>
   </g>
   <g id="patch_6">
    <path d="M 69.653125 10.8 
L 525.551875 10.8 
" style="fill:none;stroke:#000000;stroke-linecap:square;stroke-linejoin:miter;stroke-width:0.8;"/>
   </g>
  </g>
  <g id="axes_2">
   <g id="matplotlib.axis_3">
    <g id="ytick_37">
     <g id="line2d_120">
      <defs>
       <path d="M 0 0 
L 3.5 0 
" id="m859294ebfa" style="stroke:#000000;stroke-width:0.8;"/>
      </defs>
      <g>
       <use style="stroke:#000000;stroke-width:0.8;" x="525.551875" xlink:href="#m859294ebfa" y="293.726843"/>
      </g>
     </g>
     <g id="text_16">
      <!-- 0 -->
      <g transform="translate(532.551875 297.526061)scale(0.1 -0.1)">
       <use xlink:href="#DejaVuSans-48"/>
      </g>
     </g>
    </g>
    <g id="ytick_38">
     <g id="line2d_121">
      <g>
       <use style="stroke:#000000;stroke-width:0.8;" x="525.551875" xlink:href="#m859294ebfa" y="252.275447"/>
      </g>
     </g>
     <g id="text_17">
      <!-- 1000 -->
      <g transform="translate(532.551875 256.074666)scale(0.1 -0.1)">
       <use xlink:href="#DejaVuSans-49"/>
       <use x="63.623047" xlink:href="#DejaVuSans-48"/>
       <use x="127.246094" xlink:href="#DejaVuSans-48"/>
       <use x="190.869141" xlink:href="#DejaVuSans-48"/>
      </g>
     </g>
    </g>
    <g id="ytick_39">
     <g id="line2d_122">
      <g>
       <use style="stroke:#000000;stroke-width:0.8;" x="525.551875" xlink:href="#m859294ebfa" y="210.824051"/>
      </g>
     </g>
     <g id="text_18">
      <!-- 2000 -->
      <g transform="translate(532.551875 214.62327)scale(0.1 -0.1)">
       <use xlink:href="#DejaVuSans-50"/>
       <use x="63.623047" xlink:href="#DejaVuSans-48"/>
       <use x="127.246094" xlink:href="#DejaVuSans-48"/>
       <use x="190.869141" xlink:href="#DejaVuSans-48"/>
      </g>
     </g>
    </g>
    <g id="ytick_40">
     <g id="line2d_123">
      <g>
       <use style="stroke:#000000;stroke-width:0.8;" x="525.551875" xlink:href="#m859294ebfa" y="169.372655"/>
      </g>
     </g>
     <g id="text_19">
      <!-- 3000 -->
      <g transform="translate(532.551875 173.171874)scale(0.1 -0.1)">
       <use xlink:href="#DejaVuSans-51"/>
       <use x="63.623047" xlink:href="#DejaVuSans-48"/>
       <use x="127.246094" xlink:href="#DejaVuSans-48"/>
       <use x="190.869141" xlink:href="#DejaVuSans-48"/>
      </g>
     </g>
    </g>
    <g id="ytick_41">
     <g id="line2d_124">
      <g>
       <use style="stroke:#000000;stroke-width:0.8;" x="525.551875" xlink:href="#m859294ebfa" y="127.92126"/>
      </g>
     </g>
     <g id="text_20">
      <!-- 4000 -->
      <g transform="translate(532.551875 131.720478)scale(0.1 -0.1)">
       <use xlink:href="#DejaVuSans-52"/>
       <use x="63.623047" xlink:href="#DejaVuSans-48"/>
       <use x="127.246094" xlink:href="#DejaVuSans-48"/>
       <use x="190.869141" xlink:href="#DejaVuSans-48"/>
      </g>
     </g>
    </g>
    <g id="ytick_42">
     <g id="line2d_125">
      <g>
       <use style="stroke:#000000;stroke-width:0.8;" x="525.551875" xlink:href="#m859294ebfa" y="86.469864"/>
      </g>
     </g>
     <g id="text_21">
      <!-- 5000 -->
      <g transform="translate(532.551875 90.269083)scale(0.1 -0.1)">
       <use xlink:href="#DejaVuSans-53"/>
       <use x="63.623047" xlink:href="#DejaVuSans-48"/>
       <use x="127.246094" xlink:href="#DejaVuSans-48"/>
       <use x="190.869141" xlink:href="#DejaVuSans-48"/>
      </g>
     </g>
    </g>
    <g id="ytick_43">
     <g id="line2d_126">
      <g>
       <use style="stroke:#000000;stroke-width:0.8;" x="525.551875" xlink:href="#m859294ebfa" y="45.018468"/>
      </g>
     </g>
     <g id="text_22">
      <!-- 6000 -->
      <g transform="translate(532.551875 48.817687)scale(0.1 -0.1)">
       <use xlink:href="#DejaVuSans-54"/>
       <use x="63.623047" xlink:href="#DejaVuSans-48"/>
       <use x="127.246094" xlink:href="#DejaVuSans-48"/>
       <use x="190.869141" xlink:href="#DejaVuSans-48"/>
      </g>
     </g>
    </g>
    <g id="text_23">
     <!-- Return (%) -->
     <defs>
      <path d="M 44.390625 34.1875 
Q 47.5625 33.109375 50.5625 29.59375 
Q 53.5625 26.078125 56.59375 19.921875 
L 66.609375 0 
L 56 0 
L 46.6875 18.703125 
Q 43.0625 26.03125 39.671875 28.421875 
Q 36.28125 30.8125 30.421875 30.8125 
L 19.671875 30.8125 
L 19.671875 0 
L 9.8125 0 
L 9.8125 72.90625 
L 32.078125 72.90625 
Q 44.578125 72.90625 50.734375 67.671875 
Q 56.890625 62.453125 56.890625 51.90625 
Q 56.890625 45.015625 53.6875 40.46875 
Q 50.484375 35.9375 44.390625 34.1875 
z
M 19.671875 64.796875 
L 19.671875 38.921875 
L 32.078125 38.921875 
Q 39.203125 38.921875 42.84375 42.21875 
Q 46.484375 45.515625 46.484375 51.90625 
Q 46.484375 58.296875 42.84375 61.546875 
Q 39.203125 64.796875 32.078125 64.796875 
z
" id="DejaVuSans-82"/>
      <path d="M 54.890625 33.015625 
L 54.890625 0 
L 45.90625 0 
L 45.90625 32.71875 
Q 45.90625 40.484375 42.875 44.328125 
Q 39.84375 48.1875 33.796875 48.1875 
Q 26.515625 48.1875 22.3125 43.546875 
Q 18.109375 38.921875 18.109375 30.90625 
L 18.109375 0 
L 9.078125 0 
L 9.078125 54.6875 
L 18.109375 54.6875 
L 18.109375 46.1875 
Q 21.34375 51.125 25.703125 53.5625 
Q 30.078125 56 35.796875 56 
Q 45.21875 56 50.046875 50.171875 
Q 54.890625 44.34375 54.890625 33.015625 
z
" id="DejaVuSans-110"/>
      <path d="M 72.703125 32.078125 
Q 68.453125 32.078125 66.03125 28.46875 
Q 63.625 24.859375 63.625 18.40625 
Q 63.625 12.0625 66.03125 8.421875 
Q 68.453125 4.78125 72.703125 4.78125 
Q 76.859375 4.78125 79.265625 8.421875 
Q 81.6875 12.0625 81.6875 18.40625 
Q 81.6875 24.8125 79.265625 28.4375 
Q 76.859375 32.078125 72.703125 32.078125 
z
M 72.703125 38.28125 
Q 80.421875 38.28125 84.953125 32.90625 
Q 89.5 27.546875 89.5 18.40625 
Q 89.5 9.28125 84.9375 3.921875 
Q 80.375 -1.421875 72.703125 -1.421875 
Q 64.890625 -1.421875 60.34375 3.921875 
Q 55.8125 9.28125 55.8125 18.40625 
Q 55.8125 27.59375 60.375 32.9375 
Q 64.9375 38.28125 72.703125 38.28125 
z
M 22.3125 68.015625 
Q 18.109375 68.015625 15.6875 64.375 
Q 13.28125 60.75 13.28125 54.390625 
Q 13.28125 47.953125 15.671875 44.328125 
Q 18.0625 40.71875 22.3125 40.71875 
Q 26.5625 40.71875 28.96875 44.328125 
Q 31.390625 47.953125 31.390625 54.390625 
Q 31.390625 60.6875 28.953125 64.34375 
Q 26.515625 68.015625 22.3125 68.015625 
z
M 66.40625 74.21875 
L 74.21875 74.21875 
L 28.609375 -1.421875 
L 20.796875 -1.421875 
z
M 22.3125 74.21875 
Q 30.03125 74.21875 34.609375 68.875 
Q 39.203125 63.53125 39.203125 54.390625 
Q 39.203125 45.171875 34.640625 39.84375 
Q 30.078125 34.515625 22.3125 34.515625 
Q 14.546875 34.515625 10.03125 39.859375 
Q 5.515625 45.21875 5.515625 54.390625 
Q 5.515625 63.484375 10.046875 68.84375 
Q 14.59375 74.21875 22.3125 74.21875 
z
" id="DejaVuSans-37"/>
     </defs>
     <g transform="translate(569.600312 185.940499)rotate(-90)scale(0.1 -0.1)">
      <use xlink:href="#DejaVuSans-82"/>
      <use x="64.982422" xlink:href="#DejaVuSans-101"/>
      <use x="126.505859" xlink:href="#DejaVuSans-116"/>
      <use x="165.714844" xlink:href="#DejaVuSans-117"/>
      <use x="229.09375" xlink:href="#DejaVuSans-114"/>
      <use x="268.457031" xlink:href="#DejaVuSans-110"/>
      <use x="331.835938" xlink:href="#DejaVuSans-32"/>
      <use x="363.623047" xlink:href="#DejaVuSans-40"/>
      <use x="402.636719" xlink:href="#DejaVuSans-37"/>
      <use x="497.65625" xlink:href="#DejaVuSans-41"/>
     </g>
    </g>
   </g>
   <g id="line2d_127">
    <path clip-path="url(#pa30a1a2a1c)" d="M 90.375795 293.726843 
L 92.031046 293.932856 
L 93.686297 293.774503 
L 95.288152 293.771635 
L 96.943403 293.384562 
L 98.545258 292.880625 
L 100.200509 291.747088 
L 101.85576 292.143368 
L 103.40422 291.199293 
L 106.661326 290.558819 
L 150.552166 290.647308 
L 153.809273 289.965517 
L 155.464523 290.291263 
L 157.066379 290.361006 
L 158.721629 290.001981 
L 160.37688 290.061793 
L 161.871945 289.87513 
L 163.527196 290.087046 
L 165.129051 290.077705 
L 166.784302 288.98027 
L 168.386158 288.853119 
L 171.696659 287.904052 
L 173.298514 287.963859 
L 174.953765 287.115724 
L 176.555621 287.051187 
L 178.210871 286.710331 
L 179.866122 286.489331 
L 183.069833 286.857407 
L 184.671688 286.872827 
L 186.326939 286.343768 
L 187.928794 286.060174 
L 189.584045 286.963777 
L 191.239296 287.216847 
L 192.841151 286.872686 
L 194.496402 286.319422 
L 196.098257 285.568505 
L 197.753508 285.184637 
L 199.408759 286.139994 
L 200.903824 286.068429 
L 202.559075 286.230138 
L 204.16093 286.733065 
L 205.816181 285.702715 
L 207.418036 286.014249 
L 209.073287 285.115433 
L 210.728538 285.415211 
L 212.330393 285.347945 
L 213.985644 285.706132 
L 215.587499 284.927518 
L 217.24275 285.151457 
L 218.898001 284.594298 
L 220.393066 284.685914 
L 222.048316 284.374723 
L 223.650172 284.397668 
L 225.305422 285.439233 
L 226.907278 285.389502 
L 228.562529 285.923752 
L 235.076741 283.681392 
L 236.731992 283.953851 
L 238.387242 283.782658 
L 239.882307 284.054582 
L 241.537558 283.973059 
L 243.139414 283.026543 
L 244.794664 282.63017 
L 246.39652 282.579872 
L 249.707021 281.979251 
L 251.308876 281.141704 
L 252.964127 280.947633 
L 257.876484 281.054257 
L 259.424944 281.392293 
L 261.080195 281.10225 
L 262.68205 281.638882 
L 264.337301 282.073929 
L 265.939157 281.6616 
L 267.594407 281.878819 
L 269.249658 281.443805 
L 270.851513 280.546826 
L 272.506764 279.88154 
L 274.10862 277.463625 
L 275.76387 274.220737 
L 277.419121 276.614243 
L 278.914186 276.952241 
L 280.569437 275.24519 
L 282.171292 276.695567 
L 283.826543 276.479568 
L 285.428398 275.818542 
L 287.083649 273.873429 
L 288.7389 273.266266 
L 290.340755 271.883424 
L 291.996006 272.657883 
L 295.253112 269.429057 
L 296.908363 271.269314 
L 298.403428 270.045591 
L 300.058678 267.769392 
L 301.660534 266.92351 
L 303.315785 267.492962 
L 304.91764 265.934518 
L 306.572891 266.237924 
L 308.228141 263.969762 
L 309.829997 264.803756 
L 311.485248 263.497561 
L 313.087103 262.775699 
L 314.742354 260.96473 
L 316.397604 260.104791 
L 317.892669 258.998213 
L 319.54792 259.219793 
L 321.149776 258.075688 
L 322.805026 259.217842 
L 324.406882 260.485698 
L 326.062132 259.883779 
L 327.717383 259.534287 
L 329.319239 255.551001 
L 330.974489 258.746235 
L 334.231595 255.92714 
L 335.886846 254.693962 
L 337.435306 251.706043 
L 339.090557 249.374663 
L 340.692413 249.588051 
L 342.347663 252.798932 
L 343.949519 251.167288 
L 345.604769 250.68623 
L 347.26002 248.345816 
L 348.861876 248.345816 
L 350.517126 250.524968 
L 352.118982 249.824232 
L 353.774232 251.03984 
L 355.429483 249.667658 
L 356.924548 249.421816 
L 358.579799 247.958621 
L 360.181654 247.060181 
L 361.836905 244.763487 
L 363.43876 246.022159 
L 365.094011 242.802284 
L 366.749262 243.02807 
L 370.006368 237.222167 
L 371.608223 235.069099 
L 373.263474 233.649753 
L 374.918725 234.722265 
L 376.41379 231.394275 
L 378.069041 233.667812 
L 379.670896 234.046617 
L 381.326147 231.18724 
L 382.928002 229.226709 
L 384.583253 226.982009 
L 386.238503 223.43751 
L 387.840359 224.10742 
L 389.49561 223.19274 
L 391.097465 219.794834 
L 392.752716 220.755183 
L 394.407966 222.359212 
L 395.903032 216.90719 
L 397.558282 217.967829 
L 399.160138 215.131232 
L 400.815388 213.269565 
L 402.417244 215.663813 
L 404.072495 211.816471 
L 405.727745 221.910782 
L 407.329601 220.148483 
L 408.984851 220.498238 
L 410.586707 221.418986 
L 412.241958 221.984738 
L 413.897208 217.803351 
L 415.445668 215.649505 
L 417.100919 216.307285 
L 418.702775 220.279485 
L 420.358025 217.043878 
L 421.959881 219.792034 
L 423.615131 214.209317 
L 425.270382 213.247197 
L 426.872238 212.011675 
L 428.527488 213.179375 
L 430.129344 211.765009 
L 431.784594 210.792 
L 434.93491 201.821499 
L 436.590161 199.938909 
L 438.192016 197.265337 
L 439.847267 193.311495 
L 441.449123 195.768667 
L 443.104373 191.174018 
L 444.759624 190.117708 
L 446.361479 190.430195 
L 448.01673 185.906896 
L 449.618586 184.652887 
L 451.273836 186.294564 
L 452.929087 177.02248 
L 454.424152 177.820087 
L 456.079403 182.718204 
L 457.681258 181.313328 
L 459.336509 174.622862 
L 460.938364 173.217822 
L 462.593615 170.699808 
L 464.248866 163.527297 
L 465.850721 163.903462 
L 467.505972 175.585517 
L 469.107827 175.573288 
L 470.763078 168.161988 
L 472.418329 168.784596 
L 473.913394 170.411097 
L 475.568644 163.311525 
L 477.1705 158.951766 
L 478.825751 168.314989 
L 480.427606 158.481613 
L 482.082857 153.226596 
L 483.738107 155.974859 
L 485.339963 156.017428 
L 490.25232 138.168303 
L 491.90757 130.662231 
L 493.456031 133.488075 
L 496.713137 85.74765 
L 498.368387 71.747444 
L 499.970243 62.159764 
L 501.625494 49.289877 
L 503.280744 24.282517 
L 504.829205 40.697885 
L 504.829205 40.697885 
" style="fill:none;stroke:#000000;stroke-linecap:square;stroke-width:1.5;"/>
   </g>
   <g id="patch_7">
    <path d="M 69.653125 307.415373 
L 69.653125 10.8 
" style="fill:none;stroke:#000000;stroke-linecap:square;stroke-linejoin:miter;stroke-width:0.8;"/>
   </g>
   <g id="patch_8">
    <path d="M 525.551875 307.415373 
L 525.551875 10.8 
" style="fill:none;stroke:#000000;stroke-linecap:square;stroke-linejoin:miter;stroke-width:0.8;"/>
   </g>
   <g id="patch_9">
    <path d="M 69.653125 307.415373 
L 525.551875 307.415373 
" style="fill:none;stroke:#000000;stroke-linecap:square;stroke-linejoin:miter;stroke-width:0.8;"/>
   </g>
   <g id="patch_10">
    <path d="M 69.653125 10.8 
L 525.551875 10.8 
" style="fill:none;stroke:#000000;stroke-linecap:square;stroke-linejoin:miter;stroke-width:0.8;"/>
   </g>
  </g>
 </g>
 <defs>
  <clipPath id="pa30a1a2a1c">
   <rect height="296.615373" width="455.89875" x="69.653125" y="10.8"/>
  </clipPath>
 </defs>
</svg>
